<svg width="20" height="20" viewBox="0 0 14 18" fill="none" xmlns="http://www.w3.org/2000/svg">
<path d="M7.17141 4.4801C7.8838 4.4801 8.77679 3.98368 9.30858 3.32179C9.79019 2.72195 10.1414 1.88426 10.1414 1.04655C10.1414 0.932795 10.1313 0.819031 10.1113 0.725952C9.31861 0.756981 8.36541 1.27408 7.79349 1.96699C7.34198 2.49443 6.9306 3.32179 6.9306 4.16983C6.9306 4.29394 6.95066 4.41804 6.96069 4.45941C7.01087 4.46975 7.09114 4.4801 7.17141 4.4801ZM4.66298 16.9939C5.63625 16.9939 6.06769 16.3217 7.28177 16.3217C8.51592 16.3217 8.78683 16.9732 9.87046 16.9732C10.934 16.9732 11.6464 15.9597 12.3187 14.9669C13.0712 13.8293 13.3823 12.7123 13.4023 12.6606C13.3321 12.6399 11.2952 11.7815 11.2952 9.37185C11.2952 7.28277 12.9006 6.34165 12.9909 6.26926C11.9274 4.69728 10.3119 4.65591 9.87046 4.65591C8.67646 4.65591 7.70319 5.40053 7.09114 5.40053C6.42891 5.40053 5.55598 4.69727 4.52251 4.69727C2.55591 4.69727 0.559204 6.37268 0.559204 9.53732C0.559204 11.5023 1.3017 13.581 2.21476 14.9255C2.99739 16.0631 3.67968 16.9939 4.66298 16.9939Z" fill="#3F434A" stroke="black" stroke-width="0.306286"/>
</svg>
