<svg width="172" height="173" viewBox="0 0 172 173" fill="none" xmlns="http://www.w3.org/2000/svg">
<g filter="url(#filter0_d_1851_3816)">
<rect x="48.8889" y="20.8298" width="60.7322" height="60.7322" rx="30.3661" transform="rotate(-15 48.8889 20.8298)" fill="#FFF3F3"/>
</g>
<path d="M103.096 37.6101C103.994 40.9619 103.878 44.5047 102.762 47.7906C101.647 51.0765 99.5822 53.9578 96.8292 56.0703C94.0763 58.1827 90.7587 59.4313 87.2961 59.6583C83.8335 59.8852 80.3813 59.0803 77.3762 57.3453C74.371 55.6103 71.9479 53.0231 70.4131 49.9109C68.8783 46.7987 68.3009 43.3013 68.7539 39.861C69.2068 36.4206 70.6697 33.1918 72.9577 30.5829C75.2456 27.974 78.2559 26.1021 81.6077 25.204L86.1486 42.151L103.096 37.6101Z" fill="#F15060"/>
<path d="M83.5163 21.8971C85.7418 21.3008 88.063 21.1487 90.3473 21.4494C92.6316 21.7501 94.8343 22.4978 96.8296 23.6499C98.825 24.8019 100.574 26.3356 101.976 28.1635C103.379 29.9914 104.408 32.0777 105.004 34.3032L88.0572 38.8441L83.5163 21.8971Z" fill="#FF7482"/>
<defs>
<filter id="filter0_d_1851_3816" x="0.150505" y="0.817177" width="171.858" height="171.858" filterUnits="userSpaceOnUse" color-interpolation-filters="sRGB">
<feFlood flood-opacity="0" result="BackgroundImageFix"/>
<feColorMatrix in="SourceAlpha" type="matrix" values="0 0 0 0 0 0 0 0 0 0 0 0 0 0 0 0 0 0 127 0" result="hardAlpha"/>
<feMorphology radius="22.2222" operator="erode" in="SourceAlpha" result="effect1_dropShadow_1851_3816"/>
<feOffset dy="44.4444"/>
<feGaussianBlur stdDeviation="38.8889"/>
<feColorMatrix type="matrix" values="0 0 0 0 0 0 0 0 0 0 0 0 0 0 0 0 0 0 0.2 0"/>
<feBlend mode="normal" in2="BackgroundImageFix" result="effect1_dropShadow_1851_3816"/>
<feBlend mode="normal" in="SourceGraphic" in2="effect1_dropShadow_1851_3816" result="shape"/>
</filter>
</defs>
</svg>
