<svg width="13" height="14" viewBox="0 0 13 14" fill="none" xmlns="http://www.w3.org/2000/svg">
<g clip-path="url(#clip0_2699_1189)">
<g clip-path="url(#clip1_2699_1189)">
<g clip-path="url(#clip2_2699_1189)">
<path d="M12.2562 5.96732C12.2871 6.142 12.3076 6.314 12.3179 6.48333C12.3282 6.65308 12.3333 6.82529 12.3333 6.99996C12.3333 7.85279 12.1714 8.65424 11.8474 9.40431C11.5239 10.1544 11.0846 10.8068 10.5296 11.3617C9.97458 11.9165 9.32194 12.3557 8.57167 12.6792C7.82139 13.003 7.01972 13.165 6.16667 13.165C5.31361 13.165 4.51194 13.003 3.76167 12.6792C3.01139 12.3557 2.35875 11.9165 1.80375 11.3617C1.24875 10.8068 0.809478 10.1544 0.485933 9.40431C0.161978 8.65424 0 7.85279 0 6.99996C0 6.14714 0.161978 5.34569 0.485933 4.59561C0.809478 3.84554 1.24875 3.19307 1.80375 2.63822C2.35875 2.08337 3.01139 1.64401 3.76167 1.32015C4.51194 0.996689 5.31361 0.834961 6.16667 0.834961C6.69083 0.834961 7.19712 0.899077 7.68552 1.02731C8.1735 1.15595 8.63333 1.3333 9.065 1.55935C9.21917 1.64155 9.31434 1.76731 9.35052 1.93665C9.38628 2.10639 9.34764 2.26319 9.23458 2.40704C9.13181 2.54061 8.99819 2.62795 8.83375 2.66905C8.66931 2.71015 8.51514 2.6896 8.37125 2.6074C8.04236 2.43272 7.69045 2.29915 7.31552 2.20667C6.94017 2.1142 6.55722 2.06796 6.16667 2.06796C4.79972 2.06796 3.63587 2.54821 2.6751 3.50872C1.71392 4.46964 1.23333 5.63339 1.23333 6.99996C1.23333 8.36654 1.71392 9.53028 2.6751 10.4912C3.63587 11.4517 4.79972 11.932 6.16667 11.932C7.53361 11.932 8.69767 11.4517 9.65885 10.4912C10.6196 9.53028 11.1 8.36654 11.1 6.99996C11.1 6.86639 11.0949 6.73528 11.0846 6.60663C11.0743 6.4784 11.0589 6.3475 11.0383 6.21392C11.0178 6.07007 11.041 5.9365 11.108 5.8132C11.1746 5.6899 11.2696 5.59229 11.3929 5.52036C11.5676 5.41761 11.745 5.41494 11.9251 5.51235C12.1048 5.61016 12.2151 5.76182 12.2562 5.96732ZM4.87167 9.40431L3.09875 7.63187C2.98569 7.51885 2.93184 7.37746 2.93718 7.20772C2.94212 7.03839 3.00111 6.89721 3.11417 6.78419C3.22722 6.67116 3.37111 6.61465 3.54583 6.61465C3.72056 6.61465 3.86444 6.67116 3.9775 6.78419L5.30333 8.10966L11.0537 2.34539C11.1668 2.23236 11.3082 2.17831 11.478 2.18325C11.6474 2.18859 11.7886 2.24777 11.9017 2.3608C12.0147 2.47382 12.0712 2.61767 12.0712 2.79235C12.0712 2.96702 12.0147 3.11087 11.9017 3.2239L5.735 9.40431C5.62194 9.51734 5.47806 9.57385 5.30333 9.57385C5.12861 9.57385 4.98472 9.51734 4.87167 9.40431Z" fill="#1F80FF"/>
</g>
</g>
</g>
<defs>
<clipPath id="clip0_2699_1189">
<rect width="13" height="14" fill="white"/>
</clipPath>
<clipPath id="clip1_2699_1189">
<rect width="13" height="14" fill="white"/>
</clipPath>
<clipPath id="clip2_2699_1189">
<rect width="13" height="14" fill="white"/>
</clipPath>
</defs>
</svg>

