<svg width="97" height="24" viewBox="0 0 97 24" fill="none" xmlns="http://www.w3.org/2000/svg">
<rect width="97" height="23.627" rx="11.8135" fill="white"/>
<path d="M55.3433 9.95835C56.4746 9.95835 57.5451 10.6517 57.7762 12.148H52.7401C52.9347 10.8342 53.9201 9.95835 55.3433 9.95835ZM57.6059 14.3619C57.2166 14.958 56.4746 15.4202 55.4528 15.4202C54.0539 15.4202 52.9712 14.6538 52.7158 13.2914H59.0413C59.0778 13.0968 59.09 12.9022 59.09 12.7075C59.09 10.5909 57.6181 8.71757 55.3311 8.71757C52.9712 8.71757 51.3777 10.4571 51.3777 12.6832C51.3777 14.9458 52.9955 16.6488 55.4285 16.6488C56.9369 16.6488 58.0803 15.9676 58.7494 14.9458L57.6059 14.3619ZM49.4435 5.44531H50.7573V16.4664H49.4435V5.44531ZM66.4008 11.8317V16.4664H65.0871V11.9047C65.0871 10.6639 64.3815 9.97051 63.2137 9.97051C62.0095 9.97051 61.0241 10.6761 61.0241 12.4642V16.4664H59.7104V8.92436H61.0241V10.007C61.5837 9.11899 62.4109 8.72973 63.4692 8.72973C65.2452 8.71757 66.4008 9.89752 66.4008 11.8317ZM73.6387 12.6832C73.6387 11.1383 72.4709 9.98268 70.9504 9.98268C69.442 9.98268 68.2742 11.1505 68.2742 12.6832C68.2742 14.2281 69.442 15.3837 70.9504 15.3837C72.4831 15.3959 73.6387 14.2281 73.6387 12.6832ZM74.9525 5.44531V16.4664H73.6387V15.1648C73.0305 16.0893 72.0695 16.661 70.7801 16.661C68.6878 16.661 66.9604 14.9215 66.9604 12.6954C66.9604 10.4693 68.6756 8.72973 70.7801 8.72973C72.0573 8.72973 73.0305 9.30146 73.6387 10.226V5.45748H74.9525V5.44531ZM76.0108 5.44531H77.3246V16.4664H76.0108V5.44531ZM47.1079 12.6832C47.1079 11.1383 45.9401 9.98268 44.4196 9.98268C42.9112 9.98268 41.7434 11.1505 41.7434 12.6832C41.7434 14.2281 42.9112 15.3837 44.4196 15.3837C45.9401 15.3959 47.1079 14.2281 47.1079 12.6832ZM48.4217 8.9122V16.4542H47.1079V15.1526C46.4997 16.0771 45.5387 16.6488 44.2614 16.6488C42.1691 16.6488 40.4418 14.9093 40.4418 12.6832C40.4418 10.4571 42.157 8.71757 44.2614 8.71757C45.5387 8.71757 46.5119 9.2893 47.1079 10.2138V8.9122H48.4217ZM38.4833 15.0066C36.3667 15.7851 34.0189 14.7025 33.2282 12.5859C32.4497 10.4693 33.5323 8.1215 35.649 7.33081C37.0114 6.83207 38.5441 7.08752 39.6632 8.01203C39.8944 8.20666 40.1012 8.41345 40.2836 8.65674L41.4149 7.82956C39.5659 5.42098 36.1112 4.95873 33.7026 6.80774C31.2941 8.65674 30.8318 12.1115 32.6808 14.52C34.5298 16.9286 37.9845 17.3909 40.3931 15.5419C40.4053 15.5297 40.4053 15.5297 40.4174 15.5175L39.6632 14.3254C39.3226 14.6174 38.9212 14.8485 38.4833 15.0066ZM83.6623 8.9122V13.1941C83.6623 14.5809 82.8594 15.4567 81.6308 15.4567C80.4022 15.4567 79.5142 14.5809 79.5142 13.1941V8.9122H78.1883V13.0725C78.1883 15.2499 79.5507 16.661 81.643 16.661C83.4555 16.661 83.7353 15.5175 83.7353 15.4932V17.0381C83.7353 18.5708 83.0662 19.4223 81.6795 19.4223C80.6576 19.4223 79.7818 18.6681 79.648 17.6585L78.4559 18.0721C78.8086 19.5683 80.1467 20.6266 81.6795 20.6266C83.8326 20.6266 85.0004 19.2155 85.0004 17.0381V8.92436H83.6623V8.9122Z" fill="#006BFF"/>
<path d="M22.7061 13.3166C22.2073 13.7667 21.5748 14.3263 20.4313 14.3263H19.738C18.9108 14.3263 18.1566 14.0222 17.6213 13.4869C17.0983 12.9517 16.8063 12.2218 16.8063 11.4311V10.4945C16.8063 9.70378 17.0983 8.97391 17.6213 8.43867C18.1566 7.89127 18.9108 7.59932 19.738 7.59932H20.4192C21.5626 7.59932 22.1952 8.15889 22.6939 8.60897C23.217 9.07123 23.6671 9.47266 24.8714 9.47266C25.0538 9.47266 25.2363 9.46049 25.4188 9.424V9.41183C25.3458 9.22937 25.2606 9.05906 25.1633 8.88876L24.3605 7.48984C23.6184 6.21257 22.256 5.42188 20.7719 5.42188H19.1784C17.6943 5.42188 16.3319 6.21257 15.5899 7.48984L14.787 8.88876C14.045 10.166 14.045 11.7474 14.787 13.0247L15.5899 14.4236C16.3319 15.7009 17.6943 16.4916 19.1784 16.4916H20.7841C22.2682 16.4916 23.6306 15.7009 24.3726 14.4236L25.1755 13.0247C25.2728 12.8544 25.358 12.6841 25.4309 12.5016V12.4895C25.2485 12.4651 25.066 12.4408 24.8835 12.4408C23.6793 12.453 23.2292 12.8544 22.7061 13.3166Z" fill="#006BFF"/>
<path d="M20.4298 8.4375H19.7364C18.4834 8.4375 17.6562 9.33767 17.6562 10.4811V11.4178C17.6562 12.5734 18.4834 13.4614 19.7364 13.4614H20.4176C22.2544 13.4614 22.1085 11.5881 24.882 11.5881C25.1496 11.5881 25.405 11.6124 25.6605 11.6611C25.7456 11.1867 25.7456 10.7001 25.6605 10.2257C25.405 10.2743 25.1374 10.2987 24.882 10.2987C22.1085 10.3108 22.2544 8.4375 20.4298 8.4375Z" fill="#006BFF"/>
<path d="M27.255 12.3553C26.7806 12.0146 26.2454 11.7714 25.6615 11.674V11.6862C25.6128 11.966 25.5398 12.2336 25.4304 12.4891C25.9048 12.562 26.3549 12.7445 26.7441 13.0365V13.0486C25.5885 16.7953 21.6229 18.8876 17.8762 17.732C14.1295 16.5763 12.0372 12.6107 13.1929 8.86404C14.3485 5.11737 18.3141 3.02507 22.0608 4.1807C24.2991 4.87408 26.0508 6.62577 26.7441 8.86404V8.8762C26.3549 9.15599 25.9048 9.33846 25.4304 9.41144C25.5398 9.6669 25.6128 9.94668 25.6615 10.2143V10.2265C26.2332 10.117 26.7806 9.88586 27.255 9.54525C27.7051 9.20465 27.62 8.82755 27.547 8.60858C26.2576 4.41183 21.8053 2.06408 17.6086 3.35352C13.4118 4.64296 11.0641 9.09516 12.3535 13.2919C13.643 17.4887 18.0952 19.8364 22.2919 18.547C24.7978 17.7685 26.7685 15.81 27.547 13.2919C27.62 13.073 27.7173 12.6959 27.255 12.3553Z" fill="#006BFF"/>
<path d="M25.4293 9.41061C25.2469 9.43494 25.0644 9.45927 24.8819 9.45927C23.6776 9.45927 23.2275 9.05784 22.7045 8.59559C22.1936 8.1455 21.5732 7.58594 20.4297 7.58594H19.7363C18.9091 7.58594 18.1549 7.89005 17.6197 8.42529C17.0966 8.96053 16.8047 9.6904 16.8047 10.4811V11.4178C16.8047 12.2085 17.0966 12.9383 17.6197 13.4736C18.1549 14.021 18.9091 14.3129 19.7363 14.3129H20.4175C21.561 14.3129 22.1936 13.7533 22.6923 13.3033C23.2154 12.841 23.6655 12.4396 24.8698 12.4396C25.0522 12.4396 25.2347 12.4517 25.4172 12.4882C25.5266 12.2328 25.5996 11.953 25.6483 11.6854V11.6732C25.3928 11.6246 25.1252 11.6002 24.8698 11.6002C22.0962 11.6002 22.2422 13.4736 20.4054 13.4736H19.7363C18.4834 13.4736 17.6562 12.5734 17.6562 11.4178V10.4811C17.6562 9.32546 18.4834 8.43745 19.7363 8.43745H20.4175C22.2544 8.43745 22.1084 10.3108 24.8819 10.3108C25.1495 10.3108 25.405 10.2865 25.6605 10.2378V10.2256C25.6118 9.94585 25.5388 9.67823 25.4293 9.41061Z" fill="#D6D6D6"/>
<path d="M25.4293 9.41061C25.2469 9.43494 25.0644 9.45927 24.8819 9.45927C23.6776 9.45927 23.2275 9.05784 22.7045 8.59559C22.1936 8.1455 21.5732 7.58594 20.4297 7.58594H19.7363C18.9091 7.58594 18.1549 7.89005 17.6197 8.42529C17.0966 8.96053 16.8047 9.6904 16.8047 10.4811V11.4178C16.8047 12.2085 17.0966 12.9383 17.6197 13.4736C18.1549 14.021 18.9091 14.3129 19.7363 14.3129H20.4175C21.561 14.3129 22.1936 13.7533 22.6923 13.3033C23.2154 12.841 23.6655 12.4396 24.8698 12.4396C25.0522 12.4396 25.2347 12.4517 25.4172 12.4882C25.5266 12.2328 25.5996 11.953 25.6483 11.6854V11.6732C25.3928 11.6246 25.1252 11.6002 24.8698 11.6002C22.0962 11.6002 22.2422 13.4736 20.4054 13.4736H19.7363C18.4834 13.4736 17.6562 12.5734 17.6562 11.4178V10.4811C17.6562 9.32546 18.4834 8.43745 19.7363 8.43745H20.4175C22.2544 8.43745 22.1084 10.3108 24.8819 10.3108C25.1495 10.3108 25.405 10.2865 25.6605 10.2378V10.2256C25.6118 9.94585 25.5388 9.67823 25.4293 9.41061Z" fill="#0AE8F0"/>
</svg>
