<svg width="60" height="60" viewBox="0 0 60 60" fill="none" xmlns="http://www.w3.org/2000/svg">
<g clip-path="url(#clip0_3539_1208)">
<path d="M60 14.1797V5.39062C60 2.48285 57.6343 0.117188 54.7266 0.117188H5.27344C2.36566 0.117188 0 2.48285 0 5.39062V14.1797H60ZM40.5469 7.14844H51.0938C52.0645 7.14844 52.8516 7.93547 52.8516 8.90625C52.8516 9.87703 52.0645 10.6641 51.0938 10.6641H40.5469C39.5761 10.6641 38.7891 9.87703 38.7891 8.90625C38.7891 7.93547 39.5761 7.14844 40.5469 7.14844ZM22.9688 7.14844C23.9395 7.14844 24.7266 7.93547 24.7266 8.90625C24.7266 9.87703 23.9395 10.6641 22.9688 10.6641C21.998 10.6641 21.2109 9.87703 21.2109 8.90625C21.2109 7.93547 21.998 7.14844 22.9688 7.14844ZM15.9375 7.14844C16.9083 7.14844 17.6953 7.93547 17.6953 8.90625C17.6953 9.87703 16.9083 10.6641 15.9375 10.6641C14.9667 10.6641 14.1797 9.87703 14.1797 8.90625C14.1797 7.93547 14.9667 7.14844 15.9375 7.14844ZM8.90625 7.14844C9.87703 7.14844 10.6641 7.93547 10.6641 8.90625C10.6641 9.87703 9.87703 10.6641 8.90625 10.6641C7.93547 10.6641 7.14844 9.87703 7.14844 8.90625C7.14844 7.93547 7.93547 7.14844 8.90625 7.14844Z" fill="#6D6D6D"/>
<path d="M0 17.6953V54.6094C0 57.5171 2.36566 59.8828 5.27344 59.8828H54.7266C57.6343 59.8828 60 57.5171 60 54.6094V17.6953H0ZM20.5512 42.6899C21.3094 43.2963 21.4322 44.4025 20.8257 45.1605C20.2194 45.9185 19.113 46.0416 18.3551 45.435L9.56602 38.4038C8.68723 37.701 8.68664 36.3619 9.56602 35.6585L18.3551 28.6273C19.1128 28.0208 20.2192 28.1436 20.8257 28.9017C21.4322 29.6598 21.3094 30.7661 20.5512 31.3724L13.478 37.0312L20.5512 42.6899ZM36.8891 25.419L26.3422 50.0284C25.9598 50.9205 24.9267 51.3342 24.0341 50.9516C23.1418 50.5692 22.7284 49.5357 23.1109 48.6435L33.6578 24.0341C34.0403 23.1418 35.0736 22.7285 35.9659 23.1109C36.8582 23.4933 37.2716 24.5266 36.8891 25.419ZM50.434 38.4039L41.6449 45.4351C40.8881 46.0407 39.7816 45.9198 39.1743 45.1607C38.5678 44.4026 38.6906 43.2963 39.4488 42.69L46.522 37.0312L39.4488 31.3726C38.6906 30.7662 38.5678 29.66 39.1743 28.902C39.7806 28.1439 40.8868 28.0209 41.6449 28.6275L50.434 35.6587C51.3128 36.3615 51.3134 37.7005 50.434 38.4039Z" fill="#6D6D6D"/>
</g>
<defs>
<clipPath id="clip0_3539_1208">
<rect width="60" height="60" fill="white"/>
</clipPath>
</defs>
</svg>
