<svg width="167" height="168" viewBox="0 0 167 168" fill="none" xmlns="http://www.w3.org/2000/svg">
<path d="M138.724 29.6241L148.325 36.3269C151.311 38.4114 150.66 43.0054 147.213 44.1786L136.344 47.8774C132.781 49.09 129.417 45.6013 130.76 42.0849L131.902 39.0941C132.161 38.4148 132.25 37.6822 132.16 36.9607L131.769 33.8167C131.294 29.9975 135.568 27.421 138.724 29.6241Z" fill="#FFBB24"/>
<path opacity="0.2" d="M129.097 37.7114C63.1172 32.1776 14.9944 79.8082 54.5976 112.211C68.6449 123.704 86.0976 122.427 96.7395 111.785C108.658 99.8661 110.361 80.2851 98.4422 68.3661C72.0503 41.9742 7.77326 69.6432 54.1719 166.272" stroke="#F15060" stroke-width="2.22222" stroke-linecap="round" stroke-dasharray="5.78 5.78"/>
</svg>
