<svg width="15" height="15" viewBox="0 0 15 15" fill="none" xmlns="http://www.w3.org/2000/svg">
<g clip-path="url(#clip0_18_900)">
<path fill-rule="evenodd" clip-rule="evenodd" d="M2.63974 1.60092C1.5574 1.60092 0.679993 2.47833 0.679993 3.56067V10.5287C0.679993 11.611 1.5574 12.4884 2.63974 12.4884H12.6562C13.7385 12.4884 14.616 11.611 14.616 10.5287V3.56067C14.616 2.47833 13.7385 1.60092 12.6562 1.60092H2.63974ZM1.98649 3.75724V10.5287C1.98649 10.8894 2.27897 11.1819 2.63974 11.1819H12.6562C13.017 11.1819 13.3095 10.8894 13.3095 10.5287V3.75726L8.94999 7.63237C8.20746 8.29239 7.08853 8.29239 6.34601 7.63237L1.98649 3.75724ZM12.299 2.90742H2.99699L7.214 6.65587C7.46151 6.87589 7.83449 6.87589 8.08199 6.65588L12.299 2.90742Z" fill="#D8DADF"/>
</g>
<defs>
<clipPath id="clip0_18_900">
<rect width="13.936" height="13.936" fill="white" transform="translate(0.679993 0.0766602)"/>
</clipPath>
</defs>
</svg>
