<svg width="18" height="18" viewBox="0 0 18 18" fill="none" xmlns="http://www.w3.org/2000/svg">
<g clip-path="url(#clip0_46_693)">
<path d="M17.4088 8.80005C17.4088 8.19193 17.3542 7.60721 17.2529 7.04587H9.17584V10.3632H13.7913C13.5925 11.4352 12.9883 12.3435 12.08 12.9516V15.1034H14.8516C16.4732 13.6104 17.4088 11.4118 17.4088 8.80005Z" fill="#4285F4"/>
<path d="M9.17585 17.1811C11.4914 17.1811 13.4327 16.4132 14.8516 15.1034L12.08 12.9516C11.3121 13.4662 10.3297 13.7702 9.17585 13.7702C6.94219 13.7702 5.05157 12.2616 4.37719 10.2346H1.51202V12.4566C2.92317 15.2593 5.82341 17.1811 9.17585 17.1811Z" fill="#34A853"/>
<path d="M4.37719 10.2345C4.20567 9.71995 4.10822 9.1703 4.10822 8.60507C4.10822 8.03983 4.20567 7.49019 4.37719 6.97563V4.75366H1.51203C0.931199 5.91142 0.599854 7.22121 0.599854 8.60507C0.599854 9.98892 0.931199 11.2987 1.51203 12.4565L4.37719 10.2345Z" fill="#FBBC05"/>
<path d="M9.17585 3.44008C10.435 3.44008 11.5654 3.87278 12.4542 4.72259L14.914 2.26283C13.4288 0.878978 11.4875 0.0291748 9.17585 0.0291748C5.82341 0.0291748 2.92317 1.95098 1.51202 4.75377L4.37719 6.97573C5.05157 4.94868 6.94219 3.44008 9.17585 3.44008Z" fill="#EA4335"/>
</g>
<defs>
<clipPath id="clip0_46_693">
<rect width="17.152" height="17.152" fill="white" transform="translate(0.599854 0.0290527)"/>
</clipPath>
</defs>
</svg>
