<svg width="38" height="51" viewBox="0 0 38 51" fill="none" xmlns="http://www.w3.org/2000/svg">
<path fill-rule="evenodd" clip-rule="evenodd" d="M9.2969 15.6688L9.31515 15.5275C9.32804 15.4309 9.34193 15.3263 9.34435 15.305C9.73399 11.493 13.6305 8.54712 18.4016 8.45286L18.5922 8.45024C22.7815 8.36747 25.7981 10.0596 27.8131 13.6224C28.0289 14.0033 28.5119 14.1382 28.8906 13.9198C29.2699 13.7025 29.402 13.2161 29.1862 12.8346C26.8899 8.77582 23.3149 6.76572 18.5676 6.85951L18.377 6.86156C12.711 6.9735 8.25148 10.4561 7.7731 15.1343L7.74933 15.3136C7.73745 15.4039 7.72658 15.4878 7.7251 15.4993C7.68301 15.9323 7.99507 16.3165 8.42514 16.3653C8.45992 16.3686 8.4941 16.3702 8.52767 16.3696C8.91507 16.3619 9.24783 16.0659 9.2969 15.6688ZM31.4249 34.6352C31.281 27.3526 26.3884 25.6517 19.4911 24.0443L18.6688 23.8456C16.7512 23.3727 13.5418 22.5821 11.4392 20.6621C11.1158 20.3676 10.6161 20.3929 10.3231 20.7174C10.0302 21.043 10.055 21.5464 10.3778 21.8415C12.7771 24.0325 16.2308 24.8831 18.2935 25.3909L19.1353 25.5944C26.3265 27.2711 29.7275 28.7126 29.8451 34.6664C29.9364 39.2858 25.5873 42.5988 19.2694 42.7237C14.5744 42.8164 10.4934 40.5423 8.61808 36.7888C8.42195 36.396 7.947 36.2369 7.55709 36.4349C7.16718 36.6323 7.01046 37.1106 7.20659 37.5034C9.35808 41.8098 13.992 44.4197 19.3008 44.3148C26.5489 44.1716 31.5347 40.1914 31.4249 34.6352ZM24.9727 13.9347C25.2906 13.6344 25.3068 13.1308 25.0085 12.81C23.5566 11.2503 21.8084 10.4749 19.5066 10.3702C19.0754 10.3529 18.7014 10.6893 18.6816 11.1288C18.6618 11.5682 18.9998 11.9399 19.4356 11.9599C21.2993 12.0446 22.7041 12.6606 23.8559 13.8983C24.0147 14.07 24.232 14.154 24.4482 14.1497C24.6365 14.146 24.8241 14.0752 24.9727 13.9347ZM33.4908 40.2863C34.4927 38.5412 34.9801 36.6245 34.9399 34.5881C34.7393 24.4332 26.3262 22.4711 20.1835 21.039L19.5568 20.8886C16.1065 20.0351 13.0047 19.0165 12.9442 15.982C12.946 15.4099 13.0676 14.8813 13.3058 14.4088C13.5035 14.0174 13.3483 13.5384 12.9591 13.3386C12.5694 13.1405 12.0949 13.2955 11.8972 13.688C11.5462 14.3828 11.3668 15.1533 11.3641 15.9948C11.4535 20.5231 16.2906 21.719 19.1804 22.434L19.8271 22.5892C26.0876 24.0492 33.184 25.7037 33.3601 34.6193C33.3945 36.3606 32.9784 37.9996 32.1229 39.4896C31.9045 39.87 32.0336 40.3564 32.4113 40.5765C32.5403 40.6519 32.6821 40.6863 32.822 40.6836C33.0888 40.6783 33.3472 40.5368 33.4908 40.2863ZM28.5383 45.0563C28.9193 44.8419 29.0543 44.3566 28.8407 43.9733C28.6271 43.5901 28.1464 43.4534 27.7654 43.6684C25.3976 45.0055 22.4808 45.7458 19.3303 45.808C13.1921 45.9293 7.55583 42.7361 5.30381 37.8637C5.19146 37.6211 5.117 37.367 5.08175 37.1091C5.02191 36.673 4.62203 36.3662 4.19133 36.4291C3.75885 36.4887 3.45662 36.8902 3.51643 37.3252C3.57302 37.7408 3.6926 38.1477 3.87154 38.5345C6.38281 43.9699 12.608 47.5321 19.3617 47.3986C22.7716 47.3313 25.9448 46.5217 28.5383 45.0563ZM26.8115 38.4258C27.8104 37.3955 28.3246 36.1392 28.298 34.7939C28.2761 33.688 27.9979 32.6829 27.4701 31.8078C27.1895 31.3416 26.8313 30.901 26.4062 30.4984C26.0879 30.198 25.5879 30.213 25.2892 30.533C24.9905 30.8536 25.0061 31.3572 25.324 31.6581C25.6452 31.9619 25.9129 32.2902 26.1195 32.6323C26.506 33.2741 26.7017 33.9914 26.7182 34.8251C26.7364 35.7476 26.3871 36.585 25.681 37.3138C24.382 38.6538 22.0374 39.463 19.4214 39.4706C17.869 39.4789 16.3803 39.1375 15.1154 38.4843C14.1972 38.0101 13.5963 37.3238 13.1987 36.8697C13.1224 36.7829 13.0537 36.7046 12.992 36.6376C12.696 36.3144 12.1965 36.2956 11.8752 36.5943C11.5555 36.893 11.5365 37.396 11.8331 37.7186C11.8866 37.7778 11.9471 37.8465 12.0135 37.9226C12.4613 38.4336 13.21 39.2884 14.3944 39.9001C15.8836 40.6697 17.6251 41.0715 19.4289 41.0622C19.5035 41.0619 19.5768 41.061 19.6508 41.0596C22.5976 41.0014 25.2622 40.0247 26.8115 38.4258ZM19.8386 28.2682C19.9371 27.8404 19.672 27.4123 19.2466 27.3135C18.6703 27.1793 18.0525 27.0482 17.4104 26.925C9.41732 25.3932 5.80152 22.0941 5.6856 16.2268C5.55837 9.78709 10.7464 5.35518 18.5958 5.2001C23.2941 5.10728 29.2702 7.63913 31.2886 13.4167C31.4328 13.8312 31.8849 14.0498 32.2958 13.9041C32.7072 13.7578 32.9236 13.3042 32.7788 12.8892C30.4999 6.36525 23.8128 3.50581 18.5643 3.6095C9.77003 3.78325 3.95922 8.86659 4.10525 16.258C4.27833 25.0189 11.6134 27.4345 17.1152 28.4883C17.7368 28.6078 18.334 28.7342 18.8908 28.8636C18.956 28.8789 19.021 28.8857 19.0853 28.8844C19.4386 28.8774 19.7553 28.631 19.8386 28.2682ZM38.0021 34.5276C37.9063 29.6745 36.7255 26.5108 34.1726 24.2695C33.8442 23.9808 33.3447 24.0159 33.0581 24.346C32.7716 24.6773 32.806 25.1798 33.1349 25.4691C35.3513 27.4155 36.335 30.1343 36.4224 34.5588C36.5825 42.6654 29.42 48.6937 19.3912 48.8918C12.5727 49.0265 5.9273 45.3982 2.85408 39.8638L2.76797 39.7108C2.53158 39.297 2.03993 38.4354 1.63061 37.1613C1.496 36.7426 1.0504 36.5124 0.635953 36.649C0.22034 36.7844 -0.00698749 37.2326 0.127044 37.6507C0.587304 39.0838 1.13495 40.0434 1.39843 40.5036L1.47453 40.6397C4.82508 46.673 12.0375 50.6289 19.4227 50.483C30.3668 50.2668 38.1805 43.5572 38.0021 34.5276ZM17.2309 31.2311C17.3397 30.8053 17.0858 30.3718 16.6631 30.2615C12.8819 29.277 5.01403 27.2284 2.79105 20.1388C2.65985 19.7201 2.21531 19.4864 1.79966 19.6202C1.38341 19.7522 1.15266 20.1993 1.28444 20.6185C3.77157 28.5484 12.5284 30.8287 16.2679 31.8027C16.3394 31.8213 16.4112 31.8296 16.4818 31.8282C16.8271 31.8214 17.14 31.5848 17.2309 31.2311ZM2.30429 14.0811C3.25544 7.06172 9.60167 2.28994 18.1496 2.12106C18.2731 2.11862 18.3983 2.1173 18.5229 2.11655C18.9722 2.10309 19.3114 1.75705 19.3096 1.31744C19.3077 0.878404 18.9524 0.523729 18.5159 0.525474C8.96069 0.55261 1.81478 5.92485 0.738406 13.8649C0.679302 14.3012 0.982018 14.7022 1.41399 14.7613C1.45624 14.7679 1.49726 14.7699 1.53822 14.7691C1.9205 14.7616 2.25061 14.4748 2.30429 14.0811ZM35.4772 13.7392C35.0602 13.7474 34.705 13.4255 34.6739 13.0013C34.535 11.9648 32.1977 5.68342 25.2344 3.18883C24.8235 3.04104 24.6084 2.58615 24.7545 2.1717C24.9005 1.7584 25.3521 1.54198 25.7636 1.68862C33.8446 4.58472 36.1776 11.8842 36.2503 12.8859C36.2823 13.3238 35.9552 13.7051 35.5199 13.7372C35.5057 13.7386 35.4915 13.7389 35.4772 13.7392Z" fill="url(#paint0_linear_1851_4658)"/>
<defs>
<linearGradient id="paint0_linear_1851_4658" x1="35.3284" y1="19.9433" x2="0.406837" y2="22.8196" gradientUnits="userSpaceOnUse">
<stop stop-color="#E54D60"/>
<stop offset="1" stop-color="#A342FF"/>
</linearGradient>
</defs>
</svg>
