<svg width="15" height="14" viewBox="0 0 15 14" fill="none" xmlns="http://www.w3.org/2000/svg">
<g clip-path="url(#clip0_2919_626)">
<g clip-path="url(#clip1_2919_626)">
<mask id="mask0_2919_626" style="mask-type:luminance" maskUnits="userSpaceOnUse" x="0" y="0" width="14" height="14">
<path d="M0.660156 0.609375H13.7202V13.6694H0.660156V0.609375Z" fill="white"/>
</mask>
<g mask="url(#mask0_2919_626)">
<path d="M7.19016 0.609375C3.58951 0.609375 0.660156 3.53877 0.660156 7.13941C0.660156 10.74 3.58951 13.6694 7.19016 13.6694C10.7908 13.6694 13.7202 10.74 13.7202 7.13941C13.7202 3.53877 10.7908 0.609375 7.19016 0.609375ZM7.19016 12.4821C4.24414 12.4821 1.84743 10.0854 1.84743 7.13941C1.84743 4.19343 4.24414 1.79665 7.19016 1.79665C10.1362 1.79665 12.5329 4.19343 12.5329 7.13941C12.5329 10.0854 10.1361 12.4821 7.19016 12.4821Z" fill="white"/>
<path d="M7.1898 3.37891C6.75344 3.37891 6.39844 3.73414 6.39844 4.17077C6.39844 4.60702 6.75344 4.96194 7.1898 4.96194C7.62616 4.96194 7.98115 4.60702 7.98115 4.17077C7.98115 3.73414 7.62616 3.37891 7.1898 3.37891ZM7.18976 6.14923C6.86192 6.14923 6.59613 6.41502 6.59613 6.74287V10.3047C6.59613 10.6325 6.86192 10.8984 7.18976 10.8984C7.5176 10.8984 7.78339 10.6325 7.78339 10.3047V6.74287C7.78339 6.41502 7.5176 6.14923 7.18976 6.14923Z" fill="white"/>
</g>
</g>
</g>
<defs>
<clipPath id="clip0_2919_626">
<rect width="14" height="13.06" fill="white" transform="translate(0.189453 0.609375)"/>
</clipPath>
<clipPath id="clip1_2919_626">
<rect width="13.9929" height="13.06" fill="white" transform="translate(0.193359 0.609375)"/>
</clipPath>
</defs>
</svg>
