<svg width="25" height="25" viewBox="0 0 25 25" fill="none" xmlns="http://www.w3.org/2000/svg">
<path d="M23.211 0.476074H2.63422C1.69136 0.476074 0.925293 1.25286 0.925293 2.20643V22.7457C0.925293 23.6993 1.69136 24.4761 2.63422 24.4761H23.211C24.1539 24.4761 24.9253 23.6993 24.9253 22.7457V2.20643C24.9253 1.25286 24.1539 0.476074 23.211 0.476074ZM8.17886 21.0475H4.62172V9.59393H8.18422V21.0475H8.17886ZM6.40029 8.02965C5.25922 8.02965 4.33779 7.10286 4.33779 5.96715C4.33779 4.83143 5.25922 3.90465 6.40029 3.90465C7.53601 3.90465 8.46279 4.83143 8.46279 5.96715C8.46279 7.10822 7.54136 8.02965 6.40029 8.02965ZM21.5128 21.0475H17.9557V15.4761C17.9557 14.1475 17.9289 12.4386 16.1074 12.4386C14.2539 12.4386 13.9699 13.885 13.9699 15.3796V21.0475H10.4128V9.59393H13.8253V11.1582H13.8735C14.3503 10.2582 15.5128 9.31 17.2432 9.31C20.8432 9.31 21.5128 11.6832 21.5128 14.7689V21.0475Z" fill="white"/>
</svg>
