<svg width="60" height="60" viewBox="0 0 60 60" fill="none" xmlns="http://www.w3.org/2000/svg">
<g clip-path="url(#clip0_3539_1193)">
<path d="M30 41.25C27.9806 41.2525 26.0445 42.0558 24.6166 43.4838C23.1886 44.9117 22.3853 46.8477 22.3828 48.8672V60H37.6172V48.8672C37.6147 46.8477 36.8114 44.9117 35.3834 43.4838C33.9555 42.0558 32.0194 41.2525 30 41.25Z" fill="#6D6D6D"/>
<path d="M44.1211 30.5859C42.0533 32.0388 39.5877 32.8184 37.0605 32.8184C34.5334 32.8184 32.0678 32.0388 30 30.5859C27.9322 32.0388 25.4666 32.8184 22.9395 32.8184C20.4123 32.8184 17.9467 32.0388 15.8789 30.5859C14.2873 31.7019 12.4538 32.4246 10.5288 32.6949C8.60378 32.9652 6.64213 32.7754 4.80469 32.141V58.2422C4.80469 58.7084 4.98989 59.1555 5.31954 59.4851C5.64919 59.8148 6.0963 60 6.5625 60H18.8672V48.8672C18.8672 45.9146 20.0401 43.0829 22.1279 40.9951C24.2157 38.9073 27.0474 37.7344 30 37.7344C32.9526 37.7344 35.7843 38.9073 37.8721 40.9951C39.9599 43.0829 41.1328 45.9146 41.1328 48.8672V60H53.4375C53.9037 60 54.3508 59.8148 54.6805 59.4851C55.0101 59.1555 55.1953 58.7084 55.1953 58.2422V32.141C53.3579 32.7754 51.3962 32.9652 49.4712 32.6949C47.5462 32.4246 45.7127 31.7019 44.1211 30.5859Z" fill="#6D6D6D"/>
<path d="M3.82024e-08 15.2344V20.4785C-0.000172323 22.3304 0.582905 24.1353 1.66649 25.6371C2.75007 27.1389 4.2791 28.2612 6.03661 28.8449C7.79411 29.4286 9.6908 29.4439 11.4575 28.8887C13.2242 28.3335 14.7712 27.236 15.8789 25.752C16.6989 26.8511 17.7642 27.7436 18.99 28.3584C20.2158 28.9732 21.5681 29.2934 22.9395 29.2934C24.3108 29.2934 25.6632 28.9732 26.8889 28.3584C28.1147 27.7436 29.18 26.8511 30 25.752C30.82 26.8511 31.8853 27.7436 33.1111 28.3584C34.3368 28.9732 35.6892 29.2934 37.0605 29.2934C38.4319 29.2934 39.7842 28.9732 41.01 28.3584C42.2358 27.7436 43.3011 26.8511 44.1211 25.752C45.2288 27.236 46.7758 28.3335 48.5425 28.8887C50.3092 29.4439 52.2059 29.4286 53.9634 28.8449C55.7209 28.2612 57.2499 27.1389 58.3335 25.6371C59.4171 24.1353 60.0002 22.3304 60 20.4785V15.2344H3.82024e-08Z" fill="#6D6D6D"/>
<path d="M53.9559 0.971484C53.8098 0.679477 53.5853 0.433917 53.3075 0.262328C53.0298 0.0907387 52.7097 -9.7652e-05 52.3832 7.87782e-08H7.61758C7.29108 -9.7652e-05 6.97101 0.0907387 6.69324 0.262328C6.41547 0.433917 6.19097 0.679477 6.04492 0.971484L0.671875 11.7188H59.3289L53.9559 0.971484Z" fill="#6D6D6D"/>
</g>
<defs>
<clipPath id="clip0_3539_1193">
<rect width="60" height="60" fill="white"/>
</clipPath>
</defs>
</svg>
