<svg width="43" height="21" viewBox="0 0 43 21" fill="none" xmlns="http://www.w3.org/2000/svg">
<path d="M42.5073 9.31103C42.5068 9.31052 42.5064 9.30994 42.5058 9.30943L33.7291 0.575057C33.0716 -0.0792652 32.0081 -0.0768302 31.3536 0.580767C30.6992 1.23828 30.7017 2.30177 31.3593 2.95618L37.2519 8.82031H1.67969C0.751996 8.82031 0 9.5723 0 10.5C0 11.4277 0.751996 12.1797 1.67969 12.1797H37.2519L31.3593 18.0438C30.7018 18.6982 30.6993 19.7617 31.3537 20.4192C32.0082 21.0769 33.0718 21.0792 33.7292 20.4249L42.5059 11.6906C42.5064 11.6901 42.5068 11.6895 42.5074 11.689C43.1653 11.0324 43.1632 9.96543 42.5073 9.31103Z" fill="black"/>
</svg>
