<svg width="43" height="43" viewBox="0 0 43 43" fill="none" xmlns="http://www.w3.org/2000/svg">
<g clip-path="url(#clip0_2095_1567)">
<path d="M42.5073 20.311C42.5068 20.3105 42.5064 20.3099 42.5058 20.3094L33.7291 11.5751C33.0716 10.9207 32.0081 10.9232 31.3536 11.5808C30.6992 12.2383 30.7017 13.3018 31.3593 13.9562L37.2519 19.8203H1.67969C0.751996 19.8203 0 20.5723 0 21.5C0 22.4277 0.751996 23.1797 1.67969 23.1797H37.2519L31.3593 29.0438C30.7018 29.6982 30.6993 30.7617 31.3537 31.4192C32.0082 32.0769 33.0718 32.0792 33.7292 31.4249L42.5059 22.6906C42.5064 22.6901 42.5068 22.6895 42.5074 22.689C43.1653 22.0324 43.1632 20.9654 42.5073 20.311Z" fill="white"/>
</g>
<defs>
<clipPath id="clip0_2095_1567">
<rect width="43" height="43" fill="white"/>
</clipPath>
</defs>
</svg>
