<svg width="32" height="32" viewBox="0 0 32 32" fill="none" xmlns="http://www.w3.org/2000/svg">
<g clip-path="url(#clip0_3714_1736)">
<path d="M27.6364 0H4.36364C1.95367 0 0 1.95367 0 4.36364V27.6364C0 30.0463 1.95367 32 4.36364 32H27.6364C30.0463 32 32 30.0463 32 27.6364V4.36364C32 1.95367 30.0463 0 27.6364 0Z" fill="#00A9F0"/>
<path d="M25.1945 17.5254C24.8829 17.0818 24.7193 16.5511 24.7272 16.0091C24.7292 14.6035 24.3917 13.2182 23.7434 11.9711C23.0951 10.7239 22.1551 9.65186 21.0034 8.84602C19.8518 8.04017 18.5226 7.52441 17.1288 7.3426C15.735 7.1608 14.3179 7.31832 12.9981 7.80179C12.4922 7.99145 11.9396 8.01753 11.4181 7.87633C10.5666 7.63682 9.6617 7.66807 8.82875 7.96576C7.99579 8.26345 7.27605 8.81283 6.76924 9.53779C6.26242 10.2627 5.99364 11.1274 6.00011 12.0119C6.00659 12.8964 6.28802 13.7571 6.80539 14.4745C7.11886 14.9206 7.28249 15.4548 7.27267 16C7.27201 17.405 7.6106 18.7894 8.25965 20.0356C8.90869 21.2817 9.84902 22.3527 11.0007 23.1576C12.1524 23.9624 13.4813 24.4773 14.8746 24.6585C16.2679 24.8396 17.6844 24.6817 19.0036 24.1982C19.5096 24.0093 20.062 23.9833 20.5836 24.1236C21.1992 24.2985 21.8464 24.3324 22.4769 24.2228C23.1075 24.1132 23.7052 23.8628 24.2256 23.4903C24.7461 23.1178 25.1759 22.6328 25.4831 22.0714C25.7903 21.5099 25.9669 20.8864 25.9999 20.2472C26.0509 19.2745 25.7666 18.3137 25.1945 17.5254ZM15.9999 14.3636L16.3199 14.4418C18.0799 14.86 20.7399 15.4927 20.7399 18.4236C20.7399 19.8672 20.029 20.9691 18.7399 21.5145C17.8618 21.8927 16.8708 21.96 16.0018 21.9636H15.8781C13.1181 21.9636 11.3745 19.8163 11.3018 19.7254C11.1912 19.591 11.1084 19.4359 11.0583 19.2692C11.0082 19.1024 10.9918 18.9274 11.01 18.7543C11.0282 18.5811 11.0806 18.4133 11.1643 18.2606C11.2479 18.108 11.3611 17.9735 11.4972 17.8649C11.6334 17.7564 11.7897 17.6761 11.9572 17.6285C12.1247 17.581 12.2999 17.5673 12.4728 17.5882C12.6456 17.609 12.8126 17.664 12.964 17.75C13.1153 17.836 13.2481 17.9513 13.3545 18.0891C13.3545 18.0891 14.4018 19.2909 15.8781 19.3363H16.0018C17.6745 19.3654 18.0636 18.8491 18.1163 18.4091C18.1763 17.8854 17.7381 17.5 16.0018 17.0545C15.909 17.0291 15.8199 17.0054 15.7145 16.9818C14.0381 16.5927 11.5072 16 11.5072 13.2927C11.5072 12.4672 11.8363 9.81815 15.9999 9.7127H16.2472C19.0236 9.7127 20.6618 11.8945 20.7308 11.9927C20.9382 12.2724 21.026 12.623 20.9748 12.9674C20.9237 13.3117 20.7378 13.6217 20.4581 13.8291C20.1784 14.0364 19.8278 14.1242 19.4835 14.073C19.1391 14.0219 18.8291 13.836 18.6218 13.5563C18.5908 13.5163 17.6508 12.4654 16.2472 12.34C16.1636 12.34 16.0818 12.3272 15.9999 12.3254C15.0272 12.2982 14.1327 12.6654 14.1327 13.1872C14.1327 13.7491 14.3999 13.9618 15.9999 14.3636Z" fill="white"/>
</g>
<defs>
<clipPath id="clip0_3714_1736">
<rect width="32" height="32" fill="white"/>
</clipPath>
</defs>
</svg>
