<svg width="20" height="21" viewBox="0 0 20 21" fill="none" xmlns="http://www.w3.org/2000/svg">
<path fill-rule="evenodd" clip-rule="evenodd" d="M6.875 3.95825L16.25 3.95825C16.4158 3.95825 16.5747 4.0241 16.6919 4.14131C16.8092 4.25852 16.875 4.41749 16.875 4.58325V13.9583C16.875 14.3034 16.5952 14.5833 16.25 14.5833C15.9048 14.5833 15.625 14.3034 15.625 13.9583V6.09214L4.19194 17.5252C3.94786 17.7693 3.55214 17.7693 3.30806 17.5252C3.06398 17.2811 3.06398 16.8854 3.30806 16.6413L14.7411 5.20825L6.875 5.20825C6.52982 5.20825 6.25 4.92843 6.25 4.58325C6.25 4.23807 6.52982 3.95825 6.875 3.95825Z" fill="#FFD11A"/>
</svg>
