<svg width="166" height="202" viewBox="0 0 166 202" fill="none" xmlns="http://www.w3.org/2000/svg">
<rect x="0.0629883" width="165.688" height="201.193" rx="10" fill="white"/>
<rect x="8.58325" y="145.274" width="70.5385" height="37.8717" rx="4" fill="#FFF3D4"/>
<path d="M22.8424 172.494C22.8424 173.115 22.7287 173.649 22.5014 174.096C22.2742 174.541 21.9626 174.884 21.5668 175.124C21.1728 175.363 20.7249 175.482 20.223 175.482C19.7192 175.482 19.2694 175.363 18.8736 175.124C18.4797 174.884 18.1691 174.54 17.9418 174.093C17.7145 173.646 17.6009 173.113 17.6009 172.494C17.6009 171.873 17.7145 171.339 17.9418 170.894C18.1691 170.447 18.4797 170.105 18.8736 169.866C19.2694 169.625 19.7192 169.505 20.223 169.505C20.7249 169.505 21.1728 169.625 21.5668 169.866C21.9626 170.105 22.2742 170.447 22.5014 170.894C22.7287 171.339 22.8424 171.873 22.8424 172.494ZM21.973 172.494C21.973 172.02 21.8963 171.622 21.7429 171.298C21.5914 170.972 21.3831 170.726 21.1179 170.559C20.8547 170.391 20.5564 170.306 20.223 170.306C19.8878 170.306 19.5886 170.391 19.3253 170.559C19.062 170.726 18.8537 170.972 18.7003 171.298C18.5488 171.622 18.473 172.02 18.473 172.494C18.473 172.967 18.5488 173.367 18.7003 173.693C18.8537 174.016 19.062 174.263 19.3253 174.431C19.5886 174.598 19.8878 174.681 20.223 174.681C20.5564 174.681 20.8547 174.598 21.1179 174.431C21.3831 174.263 21.5914 174.016 21.7429 173.693C21.8963 173.367 21.973 172.967 21.973 172.494ZM25.9056 171.039V171.721H23.522V171.039H25.9056ZM24.1612 169.994H25.0107V174.122C25.0107 174.286 25.0353 174.41 25.0845 174.494C25.1338 174.575 25.1972 174.631 25.2749 174.661C25.3544 174.69 25.4406 174.704 25.5334 174.704C25.6016 174.704 25.6612 174.699 25.7124 174.69C25.7635 174.68 25.8033 174.673 25.8317 174.667L25.9851 175.369C25.9359 175.388 25.8658 175.407 25.7749 175.426C25.684 175.446 25.5703 175.458 25.434 175.46C25.2105 175.463 25.0022 175.424 24.809 175.34C24.6158 175.257 24.4595 175.128 24.3402 174.954C24.2209 174.78 24.1612 174.561 24.1612 174.298V169.994ZM27.7884 172.812V175.403H26.9389V169.585H27.777V171.749H27.831C27.9333 171.515 28.0895 171.328 28.2997 171.19C28.51 171.052 28.7846 170.982 29.1236 170.982C29.4228 170.982 29.6842 171.044 29.9077 171.167C30.1331 171.29 30.3073 171.474 30.4304 171.718C30.5554 171.961 30.6179 172.264 30.6179 172.627V175.403H29.7685V172.73C29.7685 172.409 29.6861 172.161 29.5213 171.985C29.3566 171.807 29.1274 171.718 28.8338 171.718C28.6331 171.718 28.4531 171.761 28.2941 171.846C28.1369 171.931 28.0128 172.056 27.9219 172.221C27.8329 172.384 27.7884 172.581 27.7884 172.812ZM33.6321 175.491C33.2022 175.491 32.8319 175.399 32.5213 175.215C32.2126 175.03 31.974 174.769 31.8054 174.434C31.6388 174.097 31.5554 173.702 31.5554 173.249C31.5554 172.802 31.6388 172.409 31.8054 172.068C31.974 171.727 32.2088 171.461 32.51 171.269C32.813 171.078 33.1672 170.982 33.5725 170.982C33.8187 170.982 34.0573 171.023 34.2884 171.105C34.5194 171.186 34.7268 171.314 34.9105 171.488C35.0942 171.662 35.2391 171.889 35.3452 172.167C35.4513 172.444 35.5043 172.78 35.5043 173.176V173.477H32.0355V172.84H34.6719C34.6719 172.617 34.6264 172.419 34.5355 172.247C34.4446 172.072 34.3168 171.935 34.152 171.835C33.9891 171.734 33.7978 171.684 33.5781 171.684C33.3395 171.684 33.1312 171.743 32.9531 171.86C32.777 171.976 32.6406 172.127 32.5441 172.315C32.4494 172.5 32.402 172.702 32.402 172.92V173.417C32.402 173.709 32.4531 173.957 32.5554 174.161C32.6596 174.366 32.8045 174.522 32.9901 174.63C33.1757 174.736 33.3925 174.789 33.6406 174.789C33.8016 174.789 33.9484 174.766 34.081 174.721C34.2136 174.674 34.3281 174.604 34.4247 174.511C34.5213 174.418 34.5952 174.303 34.6463 174.167L35.4503 174.312C35.3859 174.549 35.2704 174.756 35.1037 174.934C34.9389 175.11 34.7316 175.248 34.4816 175.346C34.2335 175.443 33.9503 175.491 33.6321 175.491ZM36.4468 175.403V171.039H37.2678V171.732H37.3132C37.3928 171.498 37.5329 171.313 37.7337 171.178C37.9363 171.042 38.1655 170.974 38.4212 170.974C38.4742 170.974 38.5367 170.976 38.6087 170.98C38.6826 170.983 38.7403 170.988 38.782 170.994V171.806C38.7479 171.797 38.6873 171.786 38.6002 171.775C38.513 171.762 38.4259 171.755 38.3388 171.755C38.138 171.755 37.9591 171.798 37.8019 171.883C37.6466 171.966 37.5235 172.083 37.4326 172.232C37.3416 172.38 37.2962 172.549 37.2962 172.738V175.403H36.4468ZM42.787 172.105L42.0171 172.241C41.9849 172.142 41.9337 172.049 41.8637 171.96C41.7955 171.871 41.7027 171.798 41.5852 171.741C41.4678 171.684 41.321 171.656 41.1449 171.656C40.9044 171.656 40.7036 171.71 40.5426 171.818C40.3817 171.924 40.3012 172.061 40.3012 172.23C40.3012 172.375 40.3551 172.493 40.4631 172.582C40.571 172.671 40.7453 172.744 40.9858 172.801L41.679 172.96C42.0805 173.052 42.3798 173.195 42.5767 173.389C42.7737 173.582 42.8722 173.833 42.8722 174.141C42.8722 174.403 42.7964 174.636 42.6449 174.84C42.4953 175.043 42.286 175.202 42.0171 175.318C41.75 175.433 41.4404 175.491 41.0881 175.491C40.5995 175.491 40.2008 175.387 39.8921 175.178C39.5834 174.968 39.394 174.67 39.3239 174.284L40.1449 174.159C40.196 174.373 40.3012 174.534 40.4602 174.644C40.6193 174.752 40.8267 174.806 41.0824 174.806C41.3608 174.806 41.5834 174.748 41.75 174.633C41.9167 174.516 42 174.373 42 174.204C42 174.068 41.9489 173.953 41.8466 173.86C41.7462 173.767 41.5919 173.697 41.3835 173.65L40.6449 173.488C40.2377 173.395 39.9366 173.248 39.7415 173.045C39.5483 172.842 39.4517 172.586 39.4517 172.275C39.4517 172.017 39.5237 171.792 39.6676 171.599C39.8116 171.406 40.0104 171.255 40.2642 171.147C40.518 171.037 40.8087 170.982 41.1364 170.982C41.608 170.982 41.9792 171.085 42.25 171.289C42.5209 171.492 42.6998 171.764 42.787 172.105ZM49.1648 171.113C49.1345 170.844 49.0095 170.636 48.7898 170.488C48.5701 170.338 48.2936 170.264 47.9602 170.264C47.7216 170.264 47.5152 170.302 47.3409 170.377C47.1667 170.451 47.0313 170.553 46.9347 170.684C46.84 170.813 46.7926 170.96 46.7926 171.124C46.7926 171.263 46.8248 171.382 46.8892 171.482C46.9555 171.583 47.0417 171.667 47.1477 171.735C47.2557 171.802 47.3712 171.857 47.4943 171.903C47.6174 171.946 47.7358 171.982 47.8495 172.011L48.4176 172.159C48.6032 172.204 48.7936 172.266 48.9887 172.343C49.1837 172.421 49.3646 172.523 49.5313 172.65C49.6979 172.777 49.8324 172.934 49.9347 173.122C50.0388 173.309 50.0909 173.534 50.0909 173.795C50.0909 174.124 50.0057 174.417 49.8352 174.673C49.6667 174.928 49.4214 175.13 49.0995 175.278C48.7794 175.426 48.3921 175.499 47.9375 175.499C47.5019 175.499 47.125 175.43 46.8068 175.292C46.4887 175.154 46.2396 174.958 46.0597 174.704C45.8798 174.448 45.7803 174.145 45.7614 173.795H46.6421C46.6591 174.005 46.7273 174.18 46.8466 174.32C46.9678 174.459 47.1222 174.562 47.3097 174.63C47.4991 174.696 47.7065 174.73 47.9318 174.73C48.1799 174.73 48.4006 174.691 48.5938 174.613C48.7888 174.534 48.9423 174.424 49.054 174.284C49.1657 174.141 49.2216 173.976 49.2216 173.786C49.2216 173.614 49.1724 173.473 49.0739 173.363C48.9773 173.253 48.8457 173.162 48.679 173.09C48.5142 173.018 48.3277 172.955 48.1193 172.9L47.4318 172.712C46.9659 172.586 46.5966 172.399 46.3239 172.153C46.0531 171.907 45.9176 171.581 45.9176 171.176C45.9176 170.84 46.0085 170.548 46.1904 170.298C46.3722 170.048 46.6184 169.854 46.929 169.715C47.2396 169.575 47.59 169.505 47.9801 169.505C48.3741 169.505 48.7216 169.574 49.0227 169.712C49.3258 169.851 49.5644 170.041 49.7387 170.284C49.9129 170.524 50.0038 170.801 50.0114 171.113H49.1648ZM52.9524 175.491C52.5225 175.491 52.1522 175.399 51.8416 175.215C51.5329 175.03 51.2943 174.769 51.1257 174.434C50.9591 174.097 50.8757 173.702 50.8757 173.249C50.8757 172.802 50.9591 172.409 51.1257 172.068C51.2943 171.727 51.5291 171.461 51.8303 171.269C52.1333 171.078 52.4875 170.982 52.8928 170.982C53.139 170.982 53.3776 171.023 53.6087 171.105C53.8397 171.186 54.0471 171.314 54.2308 171.488C54.4146 171.662 54.5594 171.889 54.6655 172.167C54.7716 172.444 54.8246 172.78 54.8246 173.176V173.477H51.3558V172.84H53.9922C53.9922 172.617 53.9468 172.419 53.8558 172.247C53.7649 172.072 53.6371 171.935 53.4723 171.835C53.3094 171.734 53.1182 171.684 52.8985 171.684C52.6598 171.684 52.4515 171.743 52.2735 171.86C52.0973 171.976 51.961 172.127 51.8644 172.315C51.7697 172.5 51.7223 172.702 51.7223 172.92V173.417C51.7223 173.709 51.7735 173.957 51.8757 174.161C51.9799 174.366 52.1248 174.522 52.3104 174.63C52.496 174.736 52.7129 174.789 52.961 174.789C53.1219 174.789 53.2687 174.766 53.4013 174.721C53.5339 174.674 53.6485 174.604 53.7451 174.511C53.8416 174.418 53.9155 174.303 53.9666 174.167L54.7706 174.312C54.7062 174.549 54.5907 174.756 54.424 174.934C54.2593 175.11 54.0519 175.248 53.8019 175.346C53.5538 175.443 53.2706 175.491 52.9524 175.491ZM57.6051 175.491C57.1828 175.491 56.8192 175.395 56.5142 175.204C56.2112 175.011 55.9782 174.745 55.8154 174.406C55.6525 174.067 55.571 173.678 55.571 173.241C55.571 172.798 55.6544 172.407 55.821 172.068C55.9877 171.727 56.2226 171.461 56.5256 171.269C56.8286 171.078 57.1856 170.982 57.5966 170.982C57.9281 170.982 58.2235 171.044 58.483 171.167C58.7424 171.288 58.9517 171.459 59.1108 171.678C59.2718 171.898 59.3674 172.155 59.3977 172.448H58.571C58.5256 172.244 58.4214 172.068 58.2585 171.92C58.0976 171.772 57.8817 171.698 57.6108 171.698C57.3741 171.698 57.1667 171.761 56.9887 171.886C56.8125 172.009 56.6752 172.185 56.5767 172.414C56.4782 172.641 56.429 172.91 56.429 173.221C56.429 173.539 56.4773 173.814 56.5739 174.045C56.6705 174.276 56.8068 174.455 56.983 174.582C57.161 174.709 57.3703 174.772 57.6108 174.772C57.7718 174.772 57.9176 174.743 58.0483 174.684C58.1809 174.623 58.2917 174.537 58.3807 174.426C58.4716 174.314 58.5351 174.179 58.571 174.022H59.3977C59.3674 174.304 59.2756 174.556 59.1222 174.778C58.9688 174.999 58.7633 175.174 58.5057 175.301C58.25 175.427 57.9498 175.491 57.6051 175.491ZM62.3431 171.039V171.721H59.9595V171.039H62.3431ZM60.5987 169.994H61.4482V174.122C61.4482 174.286 61.4728 174.41 61.522 174.494C61.5713 174.575 61.6347 174.631 61.7124 174.661C61.7919 174.69 61.8781 174.704 61.9709 174.704C62.0391 174.704 62.0987 174.699 62.1499 174.69C62.201 174.68 62.2408 174.673 62.2692 174.667L62.4226 175.369C62.3734 175.388 62.3033 175.407 62.2124 175.426C62.1215 175.446 62.0078 175.458 61.8715 175.46C61.648 175.463 61.4397 175.424 61.2465 175.34C61.0533 175.257 60.897 175.128 60.7777 174.954C60.6584 174.78 60.5987 174.561 60.5987 174.298V169.994ZM65.0739 175.491C64.6648 175.491 64.3078 175.397 64.0029 175.21C63.6979 175.022 63.4612 174.76 63.2926 174.423C63.1241 174.086 63.0398 173.692 63.0398 173.241C63.0398 172.788 63.1241 172.392 63.2926 172.053C63.4612 171.714 63.6979 171.451 64.0029 171.264C64.3078 171.076 64.6648 170.982 65.0739 170.982C65.483 170.982 65.84 171.076 66.1449 171.264C66.4498 171.451 66.6866 171.714 66.8551 172.053C67.0237 172.392 67.108 172.788 67.108 173.241C67.108 173.692 67.0237 174.086 66.8551 174.423C66.6866 174.76 66.4498 175.022 66.1449 175.21C65.84 175.397 65.483 175.491 65.0739 175.491ZM65.0767 174.778C65.3419 174.778 65.5616 174.708 65.7358 174.568C65.9101 174.427 66.0388 174.241 66.1222 174.008C66.2074 173.775 66.25 173.518 66.25 173.238C66.25 172.96 66.2074 172.704 66.1222 172.471C66.0388 172.236 65.9101 172.048 65.7358 171.906C65.5616 171.764 65.3419 171.693 65.0767 171.693C64.8097 171.693 64.5881 171.764 64.412 171.906C64.2377 172.048 64.108 172.236 64.0227 172.471C63.9394 172.704 63.8977 172.96 63.8977 173.238C63.8977 173.518 63.9394 173.775 64.0227 174.008C64.108 174.241 64.2377 174.427 64.412 174.568C64.5881 174.708 64.8097 174.778 65.0767 174.778ZM68.0561 175.403V171.039H68.8772V171.732H68.9226C69.0022 171.498 69.1423 171.313 69.3431 171.178C69.5457 171.042 69.7749 170.974 70.0306 170.974C70.0836 170.974 70.1461 170.976 70.2181 170.98C70.2919 170.983 70.3497 170.988 70.3914 170.994V171.806C70.3573 171.797 70.2967 171.786 70.2095 171.775C70.1224 171.762 70.0353 171.755 69.9482 171.755C69.7474 171.755 69.5684 171.798 69.4112 171.883C69.2559 171.966 69.1328 172.083 69.0419 172.232C68.951 172.38 68.9056 172.549 68.9056 172.738V175.403H68.0561Z" fill="#FAB408"/>
<path d="M23.5934 156.537C23.6468 155.11 24.1134 154.01 24.9934 153.237C25.8734 152.464 27.0668 152.077 28.5734 152.077C29.5734 152.077 30.4268 152.25 31.1334 152.597C31.8534 152.944 32.3934 153.417 32.7534 154.017C33.1268 154.617 33.3134 155.29 33.3134 156.037C33.3134 156.917 33.0934 157.637 32.6534 158.197C32.2134 158.744 31.7001 159.117 31.1134 159.317V159.397C31.8734 159.65 32.4734 160.07 32.9134 160.657C33.3534 161.244 33.5734 161.997 33.5734 162.917C33.5734 163.744 33.3801 164.477 32.9934 165.117C32.6201 165.744 32.0668 166.237 31.3334 166.597C30.6134 166.957 29.7534 167.137 28.7534 167.137C27.1534 167.137 25.8734 166.744 24.9134 165.957C23.9668 165.17 23.4668 163.984 23.4134 162.397H26.7334C26.7468 162.984 26.9134 163.45 27.2334 163.797C27.5534 164.13 28.0201 164.297 28.6334 164.297C29.1534 164.297 29.5534 164.15 29.8334 163.857C30.1268 163.55 30.2734 163.15 30.2734 162.657C30.2734 162.017 30.0668 161.557 29.6534 161.277C29.2534 160.984 28.6068 160.837 27.7134 160.837H27.0734V158.057H27.7134C28.3934 158.057 28.9401 157.944 29.3534 157.717C29.7801 157.477 29.9934 157.057 29.9934 156.457C29.9934 155.977 29.8601 155.604 29.5934 155.337C29.3268 155.07 28.9601 154.937 28.4934 154.937C27.9868 154.937 27.6068 155.09 27.3534 155.397C27.1134 155.704 26.9734 156.084 26.9334 156.537H23.5934ZM35.5828 159.517C35.5828 157.224 36.0228 155.417 36.9028 154.097C37.7961 152.777 39.2295 152.117 41.2028 152.117C43.1761 152.117 44.6028 152.777 45.4828 154.097C46.3761 155.417 46.8228 157.224 46.8228 159.517C46.8228 161.837 46.3761 163.657 45.4828 164.977C44.6028 166.297 43.1761 166.957 41.2028 166.957C39.2295 166.957 37.7961 166.297 36.9028 164.977C36.0228 163.657 35.5828 161.837 35.5828 159.517ZM43.4628 159.517C43.4628 158.17 43.3161 157.137 43.0228 156.417C42.7295 155.684 42.1228 155.317 41.2028 155.317C40.2828 155.317 39.6761 155.684 39.3828 156.417C39.0895 157.137 38.9428 158.17 38.9428 159.517C38.9428 160.424 38.9961 161.177 39.1028 161.777C39.2095 162.364 39.4228 162.844 39.7428 163.217C40.0761 163.577 40.5628 163.757 41.2028 163.757C41.8428 163.757 42.3228 163.577 42.6428 163.217C42.9761 162.844 43.1961 162.364 43.3028 161.777C43.4095 161.177 43.4628 160.424 43.4628 159.517ZM48.3497 156.097C48.3497 155.017 48.6563 154.184 49.2697 153.597C49.8963 153.01 50.703 152.717 51.6897 152.717C52.6763 152.717 53.4763 153.01 54.0897 153.597C54.703 154.184 55.0097 155.017 55.0097 156.097C55.0097 157.177 54.703 158.01 54.0897 158.597C53.4763 159.184 52.6763 159.477 51.6897 159.477C50.703 159.477 49.8963 159.184 49.2697 158.597C48.6563 158.01 48.3497 157.177 48.3497 156.097ZM61.9297 152.937L54.2297 167.017H50.9297L58.6297 152.937H61.9297ZM51.6697 154.717C51.0297 154.717 50.7097 155.177 50.7097 156.097C50.7097 157.004 51.0297 157.457 51.6697 157.457C51.9763 157.457 52.2163 157.344 52.3897 157.117C52.563 156.89 52.6497 156.55 52.6497 156.097C52.6497 155.177 52.323 154.717 51.6697 154.717ZM57.8697 163.857C57.8697 162.777 58.1763 161.944 58.7897 161.357C59.403 160.77 60.203 160.477 61.1897 160.477C62.1763 160.477 62.9763 160.77 63.5897 161.357C64.203 161.944 64.5097 162.777 64.5097 163.857C64.5097 164.937 64.203 165.77 63.5897 166.357C62.9763 166.944 62.1763 167.237 61.1897 167.237C60.203 167.237 59.403 166.944 58.7897 166.357C58.1763 165.77 57.8697 164.937 57.8697 163.857ZM61.1697 162.477C60.863 162.477 60.623 162.59 60.4497 162.817C60.2897 163.044 60.2097 163.39 60.2097 163.857C60.2097 164.764 60.5297 165.217 61.1697 165.217C61.4763 165.217 61.7163 165.104 61.8897 164.877C62.063 164.65 62.1497 164.31 62.1497 163.857C62.1497 163.404 62.063 163.064 61.8897 162.837C61.7163 162.597 61.4763 162.477 61.1697 162.477Z" fill="#FAB408"/>
<rect x="82.907" y="145.275" width="72.7773" height="37.8717" rx="4" fill="#DCFFEE"/>
<path d="M103.469 169.164V174.982H102.591V169.164H103.469ZM104.46 169.919V169.164H108.963V169.919H107.148V174.982H106.273V169.919H104.46ZM115.249 170.692C115.218 170.423 115.093 170.215 114.874 170.067C114.654 169.918 114.377 169.843 114.044 169.843C113.805 169.843 113.599 169.881 113.425 169.956C113.25 170.03 113.115 170.133 113.018 170.263C112.924 170.392 112.876 170.539 112.876 170.704C112.876 170.842 112.909 170.961 112.973 171.061C113.039 171.162 113.125 171.246 113.232 171.314C113.339 171.381 113.455 171.436 113.578 171.482C113.701 171.525 113.82 171.561 113.933 171.59L114.501 171.738C114.687 171.783 114.877 171.845 115.072 171.922C115.267 172 115.448 172.102 115.615 172.229C115.782 172.356 115.916 172.513 116.018 172.701C116.123 172.888 116.175 173.113 116.175 173.374C116.175 173.704 116.089 173.996 115.919 174.252C115.75 174.508 115.505 174.709 115.183 174.857C114.863 175.005 114.476 175.079 114.021 175.079C113.586 175.079 113.209 175.009 112.891 174.871C112.572 174.733 112.323 174.537 112.143 174.283C111.964 174.027 111.864 173.724 111.845 173.374H112.726C112.743 173.584 112.811 173.759 112.93 173.9C113.052 174.038 113.206 174.141 113.393 174.209C113.583 174.275 113.79 174.309 114.016 174.309C114.264 174.309 114.484 174.27 114.678 174.192C114.873 174.113 115.026 174.003 115.138 173.863C115.249 173.721 115.305 173.555 115.305 173.365C115.305 173.193 115.256 173.052 115.158 172.942C115.061 172.832 114.929 172.741 114.763 172.669C114.598 172.597 114.411 172.534 114.203 172.479L113.516 172.292C113.05 172.165 112.68 171.978 112.408 171.732C112.137 171.486 112.001 171.16 112.001 170.755C112.001 170.419 112.092 170.127 112.274 169.877C112.456 169.627 112.702 169.433 113.013 169.294C113.323 169.154 113.674 169.084 114.064 169.084C114.458 169.084 114.805 169.153 115.107 169.292C115.41 169.43 115.648 169.62 115.822 169.863C115.997 170.103 116.088 170.38 116.095 170.692H115.249ZM119.036 175.07C118.606 175.07 118.236 174.978 117.925 174.794C117.617 174.609 117.378 174.348 117.209 174.013C117.043 173.676 116.959 173.281 116.959 172.829C116.959 172.382 117.043 171.988 117.209 171.647C117.378 171.306 117.613 171.04 117.914 170.848C118.217 170.657 118.571 170.561 118.977 170.561C119.223 170.561 119.461 170.602 119.692 170.684C119.924 170.765 120.131 170.893 120.315 171.067C120.498 171.241 120.643 171.468 120.749 171.746C120.855 172.023 120.908 172.359 120.908 172.755V173.056H117.44V172.419H120.076C120.076 172.196 120.031 171.998 119.94 171.826C119.849 171.651 119.721 171.514 119.556 171.414C119.393 171.313 119.202 171.263 118.982 171.263C118.744 171.263 118.535 171.322 118.357 171.439C118.181 171.555 118.045 171.706 117.948 171.894C117.853 172.079 117.806 172.281 117.806 172.499V172.996C117.806 173.288 117.857 173.536 117.959 173.74C118.064 173.945 118.209 174.101 118.394 174.209C118.58 174.315 118.797 174.368 119.045 174.368C119.206 174.368 119.352 174.346 119.485 174.3C119.618 174.253 119.732 174.183 119.829 174.09C119.925 173.997 119.999 173.883 120.05 173.746L120.854 173.891C120.79 174.128 120.674 174.335 120.508 174.513C120.343 174.689 120.136 174.827 119.886 174.925C119.638 175.022 119.354 175.07 119.036 175.07ZM123.689 175.07C123.267 175.07 122.903 174.974 122.598 174.783C122.295 174.59 122.062 174.324 121.899 173.985C121.736 173.646 121.655 173.258 121.655 172.82C121.655 172.377 121.738 171.986 121.905 171.647C122.071 171.306 122.306 171.04 122.609 170.848C122.912 170.657 123.269 170.561 123.68 170.561C124.012 170.561 124.307 170.623 124.567 170.746C124.826 170.867 125.035 171.038 125.195 171.258C125.356 171.477 125.451 171.734 125.482 172.027H124.655C124.609 171.823 124.505 171.647 124.342 171.499C124.181 171.351 123.965 171.277 123.695 171.277C123.458 171.277 123.25 171.34 123.072 171.465C122.896 171.588 122.759 171.764 122.66 171.993C122.562 172.221 122.513 172.49 122.513 172.8C122.513 173.118 122.561 173.393 122.658 173.624C122.754 173.855 122.891 174.034 123.067 174.161C123.245 174.288 123.454 174.351 123.695 174.351C123.856 174.351 124.001 174.322 124.132 174.263C124.265 174.203 124.375 174.116 124.464 174.005C124.555 173.893 124.619 173.758 124.655 173.601H125.482C125.451 173.883 125.359 174.135 125.206 174.357C125.053 174.579 124.847 174.753 124.589 174.88C124.334 175.007 124.034 175.07 123.689 175.07ZM128.427 170.618V171.3H126.043V170.618H128.427ZM126.682 169.573H127.532V173.701C127.532 173.865 127.557 173.99 127.606 174.073C127.655 174.154 127.718 174.21 127.796 174.24C127.876 174.269 127.962 174.283 128.055 174.283C128.123 174.283 128.182 174.278 128.234 174.269C128.285 174.259 128.325 174.252 128.353 174.246L128.506 174.948C128.457 174.967 128.387 174.986 128.296 175.005C128.205 175.025 128.092 175.037 127.955 175.039C127.732 175.043 127.523 175.003 127.33 174.919C127.137 174.836 126.981 174.707 126.861 174.533C126.742 174.359 126.682 174.14 126.682 173.877V169.573ZM131.158 175.07C130.749 175.07 130.392 174.976 130.087 174.789C129.782 174.601 129.545 174.339 129.376 174.002C129.208 173.665 129.124 173.271 129.124 172.82C129.124 172.367 129.208 171.972 129.376 171.633C129.545 171.293 129.782 171.03 130.087 170.843C130.392 170.655 130.749 170.561 131.158 170.561C131.567 170.561 131.924 170.655 132.229 170.843C132.534 171.03 132.77 171.293 132.939 171.633C133.107 171.972 133.192 172.367 133.192 172.82C133.192 173.271 133.107 173.665 132.939 174.002C132.77 174.339 132.534 174.601 132.229 174.789C131.924 174.976 131.567 175.07 131.158 175.07ZM131.16 174.357C131.426 174.357 131.645 174.287 131.82 174.147C131.994 174.007 132.123 173.82 132.206 173.587C132.291 173.354 132.334 173.097 132.334 172.817C132.334 172.539 132.291 172.283 132.206 172.05C132.123 171.815 131.994 171.627 131.82 171.485C131.645 171.343 131.426 171.272 131.16 171.272C130.893 171.272 130.672 171.343 130.496 171.485C130.321 171.627 130.192 171.815 130.107 172.05C130.023 172.283 129.982 172.539 129.982 172.817C129.982 173.097 130.023 173.354 130.107 173.587C130.192 173.82 130.321 174.007 130.496 174.147C130.672 174.287 130.893 174.357 131.16 174.357ZM134.14 174.982V170.618H134.961V171.311H135.006C135.086 171.077 135.226 170.892 135.427 170.758C135.629 170.621 135.859 170.553 136.114 170.553C136.167 170.553 136.23 170.555 136.302 170.559C136.376 170.562 136.433 170.567 136.475 170.573V171.385C136.441 171.376 136.38 171.365 136.293 171.354C136.206 171.341 136.119 171.334 136.032 171.334C135.831 171.334 135.652 171.377 135.495 171.462C135.34 171.545 135.217 171.662 135.126 171.811C135.035 171.959 134.989 172.128 134.989 172.317V174.982H134.14Z" fill="#19BF6F"/>
<path d="M108.939 155.401L103.919 167.441H100.419L105.499 155.781H99.2792V152.861H108.939V155.401ZM110.322 159.941C110.322 157.648 110.762 155.841 111.642 154.521C112.536 153.201 113.969 152.541 115.942 152.541C117.916 152.541 119.342 153.201 120.222 154.521C121.116 155.841 121.562 157.648 121.562 159.941C121.562 162.261 121.116 164.081 120.222 165.401C119.342 166.721 117.916 167.381 115.942 167.381C113.969 167.381 112.536 166.721 111.642 165.401C110.762 164.081 110.322 162.261 110.322 159.941ZM118.202 159.941C118.202 158.594 118.056 157.561 117.762 156.841C117.469 156.108 116.862 155.741 115.942 155.741C115.022 155.741 114.416 156.108 114.122 156.841C113.829 157.561 113.682 158.594 113.682 159.941C113.682 160.848 113.736 161.601 113.842 162.201C113.949 162.788 114.162 163.268 114.482 163.641C114.816 164.001 115.302 164.181 115.942 164.181C116.582 164.181 117.062 164.001 117.382 163.641C117.716 163.268 117.936 162.788 118.042 162.201C118.149 161.601 118.202 160.848 118.202 159.941ZM123.089 156.521C123.089 155.441 123.396 154.608 124.009 154.021C124.636 153.434 125.443 153.141 126.429 153.141C127.416 153.141 128.216 153.434 128.829 154.021C129.443 154.608 129.749 155.441 129.749 156.521C129.749 157.601 129.443 158.434 128.829 159.021C128.216 159.608 127.416 159.901 126.429 159.901C125.443 159.901 124.636 159.608 124.009 159.021C123.396 158.434 123.089 157.601 123.089 156.521ZM136.669 153.361L128.969 167.441H125.669L133.369 153.361H136.669ZM126.409 155.141C125.769 155.141 125.449 155.601 125.449 156.521C125.449 157.428 125.769 157.881 126.409 157.881C126.716 157.881 126.956 157.768 127.129 157.541C127.303 157.314 127.389 156.974 127.389 156.521C127.389 155.601 127.063 155.141 126.409 155.141ZM132.609 164.281C132.609 163.201 132.916 162.368 133.529 161.781C134.143 161.194 134.943 160.901 135.929 160.901C136.916 160.901 137.716 161.194 138.329 161.781C138.943 162.368 139.249 163.201 139.249 164.281C139.249 165.361 138.943 166.194 138.329 166.781C137.716 167.368 136.916 167.661 135.929 167.661C134.943 167.661 134.143 167.368 133.529 166.781C132.916 166.194 132.609 165.361 132.609 164.281ZM135.909 162.901C135.603 162.901 135.363 163.014 135.189 163.241C135.029 163.468 134.949 163.814 134.949 164.281C134.949 165.188 135.269 165.641 135.909 165.641C136.216 165.641 136.456 165.528 136.629 165.301C136.803 165.074 136.889 164.734 136.889 164.281C136.889 163.828 136.803 163.488 136.629 163.261C136.456 163.021 136.216 162.901 135.909 162.901Z" fill="#19BF6F"/>
<path fill-rule="evenodd" clip-rule="evenodd" d="M82.9074 111.544C95.9799 111.544 106.577 100.947 106.577 87.8745C106.577 74.802 95.9799 64.2047 82.9074 64.2047C69.835 64.2047 59.2377 74.802 59.2377 87.8745C59.2377 100.947 69.835 111.544 82.9074 111.544ZM82.9074 126.93C104.477 126.93 121.963 109.444 121.963 87.8745C121.963 66.3049 104.477 48.8193 82.9074 48.8193C61.3379 48.8193 43.8523 66.3049 43.8523 87.8745C43.8523 109.444 61.3379 126.93 82.9074 126.93Z" fill="url(#paint0_linear_1851_4659)"/>
<path d="M82.7547 64.2052C69.7525 64.2874 59.2377 74.853 59.2377 87.8745C59.2377 94.6631 62.0955 100.784 66.6738 105.1L55.7919 115.982C48.4307 108.879 43.8523 98.9116 43.8523 87.8745C43.8523 66.3559 61.2554 48.902 82.7547 48.8196V64.2052Z" fill="black"/>
<path d="M23.0962 23.2768V24.8588H20.4922V33.0488H18.5322V24.8588H15.9282V23.2768H23.0962ZM31.7363 29.0028C31.7363 29.2828 31.7176 29.5348 31.6803 29.7588H26.0103C26.057 30.3188 26.253 30.7575 26.5983 31.0748C26.9436 31.3922 27.3683 31.5508 27.8723 31.5508C28.6003 31.5508 29.1183 31.2382 29.4263 30.6128H31.5403C31.3163 31.3595 30.887 31.9755 30.2523 32.4608C29.6176 32.9368 28.8383 33.1748 27.9143 33.1748C27.1676 33.1748 26.4956 33.0115 25.8983 32.6848C25.3103 32.3488 24.8483 31.8775 24.5123 31.2708C24.1856 30.6642 24.0223 29.9642 24.0223 29.1708C24.0223 28.3682 24.1856 27.6635 24.5123 27.0568C24.839 26.4502 25.2963 25.9835 25.8843 25.6568C26.4723 25.3302 27.149 25.1668 27.9143 25.1668C28.6516 25.1668 29.3096 25.3255 29.8883 25.6428C30.4763 25.9602 30.929 26.4128 31.2463 27.0008C31.573 27.5795 31.7363 28.2468 31.7363 29.0028ZM29.7063 28.4428C29.697 27.9388 29.515 27.5375 29.1603 27.2388C28.8056 26.9308 28.3716 26.7768 27.8583 26.7768C27.373 26.7768 26.9623 26.9262 26.6263 27.2248C26.2996 27.5142 26.099 27.9202 26.0243 28.4428H29.7063ZM32.6629 29.1428C32.6629 28.3588 32.8169 27.6635 33.1249 27.0568C33.4423 26.4502 33.8669 25.9835 34.3989 25.6568C34.9403 25.3302 35.5423 25.1668 36.2049 25.1668C36.7836 25.1668 37.2876 25.2835 37.7169 25.5168C38.1556 25.7502 38.5056 26.0442 38.7669 26.3988V25.2928H40.7409V33.0488H38.7669V31.9148C38.5149 32.2788 38.1649 32.5822 37.7169 32.8248C37.2783 33.0582 36.7696 33.1748 36.1909 33.1748C35.5376 33.1748 34.9403 33.0068 34.3989 32.6708C33.8669 32.3348 33.4423 31.8635 33.1249 31.2568C32.8169 30.6408 32.6629 29.9362 32.6629 29.1428ZM38.7669 29.1708C38.7669 28.6948 38.6736 28.2888 38.4869 27.9528C38.3003 27.6075 38.0483 27.3462 37.7309 27.1688C37.4136 26.9822 37.0729 26.8888 36.7089 26.8888C36.3449 26.8888 36.0089 26.9775 35.7009 27.1548C35.3929 27.3322 35.1409 27.5935 34.9449 27.9388C34.7583 28.2748 34.6649 28.6762 34.6649 29.1428C34.6649 29.6095 34.7583 30.0202 34.9449 30.3748C35.1409 30.7202 35.3929 30.9862 35.7009 31.1728C36.0183 31.3595 36.3543 31.4528 36.7089 31.4528C37.0729 31.4528 37.4136 31.3642 37.7309 31.1868C38.0483 31.0002 38.3003 30.7388 38.4869 30.4028C38.6736 30.0575 38.7669 29.6468 38.7669 29.1708ZM42.1512 29.1708C42.1512 28.3682 42.3145 27.6682 42.6412 27.0708C42.9679 26.4642 43.4205 25.9975 43.9992 25.6708C44.5779 25.3348 45.2405 25.1668 45.9872 25.1668C46.9485 25.1668 47.7419 25.4095 48.3672 25.8948C49.0019 26.3708 49.4265 27.0428 49.6412 27.9108H47.5272C47.4152 27.5748 47.2239 27.3135 46.9532 27.1268C46.6919 26.9308 46.3652 26.8328 45.9732 26.8328C45.4132 26.8328 44.9699 27.0382 44.6432 27.4488C44.3165 27.8502 44.1532 28.4242 44.1532 29.1708C44.1532 29.9082 44.3165 30.4822 44.6432 30.8928C44.9699 31.2942 45.4132 31.4948 45.9732 31.4948C46.7665 31.4948 47.2845 31.1402 47.5272 30.4308H49.6412C49.4265 31.2708 49.0019 31.9382 48.3672 32.4328C47.7325 32.9275 46.9392 33.1748 45.9872 33.1748C45.2405 33.1748 44.5779 33.0115 43.9992 32.6848C43.4205 32.3488 42.9679 31.8822 42.6412 31.2848C42.3145 30.6782 42.1512 29.9735 42.1512 29.1708ZM55.4451 25.1808C56.0331 25.1808 56.5558 25.3115 57.0131 25.5728C57.4704 25.8248 57.8251 26.2028 58.0771 26.7068C58.3384 27.2015 58.4691 27.7988 58.4691 28.4988V33.0488H56.5091V28.7648C56.5091 28.1488 56.3551 27.6775 56.0471 27.3508C55.7391 27.0148 55.3191 26.8468 54.7871 26.8468C54.2458 26.8468 53.8164 27.0148 53.4991 27.3508C53.1911 27.6775 53.0371 28.1488 53.0371 28.7648V33.0488H51.0771V22.6888H53.0371V26.2588C53.2891 25.9228 53.6251 25.6615 54.0451 25.4748C54.4651 25.2788 54.9318 25.1808 55.4451 25.1808ZM67.5429 29.0028C67.5429 29.2828 67.5243 29.5348 67.4869 29.7588H61.8169C61.8636 30.3188 62.0596 30.7575 62.4049 31.0748C62.7503 31.3922 63.1749 31.5508 63.6789 31.5508C64.4069 31.5508 64.9249 31.2382 65.2329 30.6128H67.3469C67.1229 31.3595 66.6936 31.9755 66.0589 32.4608C65.4243 32.9368 64.6449 33.1748 63.7209 33.1748C62.9743 33.1748 62.3023 33.0115 61.7049 32.6848C61.1169 32.3488 60.6549 31.8775 60.3189 31.2708C59.9923 30.6642 59.8289 29.9642 59.8289 29.1708C59.8289 28.3682 59.9923 27.6635 60.3189 27.0568C60.6456 26.4502 61.1029 25.9835 61.6909 25.6568C62.2789 25.3302 62.9556 25.1668 63.7209 25.1668C64.4583 25.1668 65.1163 25.3255 65.6949 25.6428C66.2829 25.9602 66.7356 26.4128 67.0529 27.0008C67.3796 27.5795 67.5429 28.2468 67.5429 29.0028ZM65.5129 28.4428C65.5036 27.9388 65.3216 27.5375 64.9669 27.2388C64.6123 26.9308 64.1783 26.7768 63.6649 26.7768C63.1796 26.7768 62.7689 26.9262 62.4329 27.2248C62.1063 27.5142 61.9056 27.9202 61.8309 28.4428H65.5129ZM70.9336 26.4968C71.1856 26.0862 71.5122 25.7642 71.9136 25.5308C72.3242 25.2975 72.7909 25.1808 73.3136 25.1808V27.2388H72.7956C72.1796 27.2388 71.7129 27.3835 71.3956 27.6728C71.0876 27.9622 70.9336 28.4662 70.9336 29.1848V33.0488H68.9736V25.2928H70.9336V26.4968ZM77.6017 33.1748C76.9671 33.1748 76.3977 33.0628 75.8937 32.8388C75.3897 32.6055 74.9884 32.2928 74.6897 31.9008C74.4004 31.5088 74.2417 31.0748 74.2137 30.5988H76.1877C76.2251 30.8975 76.3697 31.1448 76.6217 31.3408C76.8831 31.5368 77.2051 31.6348 77.5877 31.6348C77.9611 31.6348 78.2504 31.5602 78.4557 31.4108C78.6704 31.2615 78.7777 31.0702 78.7777 30.8368C78.7777 30.5848 78.6471 30.3982 78.3857 30.2768C78.1337 30.1462 77.7277 30.0062 77.1677 29.8568C76.5891 29.7168 76.1131 29.5722 75.7397 29.4228C75.3757 29.2735 75.0584 29.0448 74.7877 28.7368C74.5264 28.4288 74.3957 28.0135 74.3957 27.4908C74.3957 27.0615 74.5171 26.6695 74.7597 26.3148C75.0117 25.9602 75.3664 25.6802 75.8237 25.4748C76.2904 25.2695 76.8364 25.1668 77.4617 25.1668C78.3857 25.1668 79.1231 25.4002 79.6737 25.8668C80.2244 26.3242 80.5277 26.9448 80.5837 27.7288H78.7077C78.6797 27.4208 78.5491 27.1782 78.3157 27.0008C78.0917 26.8142 77.7884 26.7208 77.4057 26.7208C77.0511 26.7208 76.7757 26.7862 76.5797 26.9168C76.3931 27.0475 76.2997 27.2295 76.2997 27.4628C76.2997 27.7242 76.4304 27.9248 76.6917 28.0648C76.9531 28.1955 77.3591 28.3308 77.9097 28.4708C78.4697 28.6108 78.9317 28.7555 79.2957 28.9048C79.6597 29.0542 79.9724 29.2875 80.2337 29.6048C80.5044 29.9128 80.6444 30.3235 80.6537 30.8368C80.6537 31.2848 80.5277 31.6862 80.2757 32.0408C80.0331 32.3955 79.6784 32.6755 79.2117 32.8808C78.7544 33.0768 78.2177 33.1748 77.6017 33.1748ZM88.9726 33.1468C88.2912 33.1468 87.6752 33.0302 87.1246 32.7968C86.5832 32.5635 86.1539 32.2275 85.8366 31.7888C85.5192 31.3502 85.3559 30.8322 85.3466 30.2348H87.4466C87.4746 30.6362 87.6146 30.9535 87.8666 31.1868C88.1279 31.4202 88.4826 31.5368 88.9306 31.5368C89.3879 31.5368 89.7472 31.4295 90.0086 31.2148C90.2699 30.9908 90.4006 30.7015 90.4006 30.3468C90.4006 30.0575 90.3119 29.8195 90.1346 29.6328C89.9572 29.4462 89.7332 29.3015 89.4626 29.1988C89.2012 29.0868 88.8372 28.9655 88.3706 28.8348C87.7359 28.6482 87.2179 28.4662 86.8166 28.2888C86.4246 28.1022 86.0839 27.8268 85.7946 27.4628C85.5146 27.0895 85.3746 26.5948 85.3746 25.9788C85.3746 25.4002 85.5192 24.8962 85.8086 24.4668C86.0979 24.0375 86.5039 23.7108 87.0266 23.4868C87.5492 23.2535 88.1466 23.1368 88.8186 23.1368C89.8266 23.1368 90.6432 23.3842 91.2686 23.8788C91.9032 24.3642 92.2532 25.0455 92.3186 25.9228H90.1626C90.1439 25.5868 89.9992 25.3115 89.7286 25.0968C89.4672 24.8728 89.1172 24.7608 88.6786 24.7608C88.2959 24.7608 87.9879 24.8588 87.7546 25.0548C87.5306 25.2508 87.4186 25.5355 87.4186 25.9088C87.4186 26.1702 87.5026 26.3895 87.6706 26.5668C87.8479 26.7348 88.0626 26.8748 88.3146 26.9868C88.5759 27.0895 88.9399 27.2108 89.4066 27.3508C90.0412 27.5375 90.5592 27.7242 90.9606 27.9108C91.3619 28.0975 91.7072 28.3775 91.9966 28.7508C92.2859 29.1242 92.4306 29.6142 92.4306 30.2208C92.4306 30.7435 92.2952 31.2288 92.0246 31.6768C91.7539 32.1248 91.3572 32.4842 90.8346 32.7548C90.3119 33.0162 89.6912 33.1468 88.9726 33.1468ZM96.4118 26.9028V30.6548C96.4118 30.9162 96.4725 31.1075 96.5938 31.2288C96.7245 31.3408 96.9392 31.3968 97.2378 31.3968H98.1478V33.0488H96.9158C95.2638 33.0488 94.4378 32.2462 94.4378 30.6408V26.9028H93.5138V25.2928H94.4378V23.3748H96.4118V25.2928H98.1478V26.9028H96.4118ZM99.0536 29.1428C99.0536 28.3588 99.2076 27.6635 99.5156 27.0568C99.8329 26.4502 100.258 25.9835 100.79 25.6568C101.331 25.3302 101.933 25.1668 102.596 25.1668C103.174 25.1668 103.678 25.2835 104.108 25.5168C104.546 25.7502 104.896 26.0442 105.158 26.3988V25.2928H107.132V33.0488H105.158V31.9148C104.906 32.2788 104.556 32.5822 104.108 32.8248C103.669 33.0582 103.16 33.1748 102.582 33.1748C101.928 33.1748 101.331 33.0068 100.79 32.6708C100.258 32.3348 99.8329 31.8635 99.5156 31.2568C99.2076 30.6408 99.0536 29.9362 99.0536 29.1428ZM105.158 29.1708C105.158 28.6948 105.064 28.2888 104.878 27.9528C104.691 27.6075 104.439 27.3462 104.122 27.1688C103.804 26.9822 103.464 26.8888 103.1 26.8888C102.736 26.8888 102.4 26.9775 102.092 27.1548C101.784 27.3322 101.532 27.5935 101.336 27.9388C101.149 28.2748 101.056 28.6762 101.056 29.1428C101.056 29.6095 101.149 30.0202 101.336 30.3748C101.532 30.7202 101.784 30.9862 102.092 31.1728C102.409 31.3595 102.745 31.4528 103.1 31.4528C103.464 31.4528 103.804 31.3642 104.122 31.1868C104.439 31.0002 104.691 30.7388 104.878 30.4028C105.064 30.0575 105.158 29.6468 105.158 29.1708ZM111.328 26.9028V30.6548C111.328 30.9162 111.389 31.1075 111.51 31.2288C111.641 31.3408 111.855 31.3968 112.154 31.3968H113.064V33.0488H111.832C110.18 33.0488 109.354 32.2462 109.354 30.6408V26.9028H108.43V25.2928H109.354V23.3748H111.328V25.2928H113.064V26.9028H111.328ZM115.468 24.3688C115.122 24.3688 114.833 24.2615 114.6 24.0468C114.376 23.8228 114.264 23.5475 114.264 23.2208C114.264 22.8942 114.376 22.6235 114.6 22.4088C114.833 22.1848 115.122 22.0728 115.468 22.0728C115.813 22.0728 116.098 22.1848 116.322 22.4088C116.555 22.6235 116.672 22.8942 116.672 23.2208C116.672 23.5475 116.555 23.8228 116.322 24.0468C116.098 24.2615 115.813 24.3688 115.468 24.3688ZM116.434 25.2928V33.0488H114.474V25.2928H116.434ZM121.338 33.1748C120.703 33.1748 120.134 33.0628 119.63 32.8388C119.126 32.6055 118.725 32.2928 118.426 31.9008C118.137 31.5088 117.978 31.0748 117.95 30.5988H119.924C119.961 30.8975 120.106 31.1448 120.358 31.3408C120.619 31.5368 120.941 31.6348 121.324 31.6348C121.697 31.6348 121.987 31.5602 122.192 31.4108C122.407 31.2615 122.514 31.0702 122.514 30.8368C122.514 30.5848 122.383 30.3982 122.122 30.2768C121.87 30.1462 121.464 30.0062 120.904 29.8568C120.325 29.7168 119.849 29.5722 119.476 29.4228C119.112 29.2735 118.795 29.0448 118.524 28.7368C118.263 28.4288 118.132 28.0135 118.132 27.4908C118.132 27.0615 118.253 26.6695 118.496 26.3148C118.748 25.9602 119.103 25.6802 119.56 25.4748C120.027 25.2695 120.573 25.1668 121.198 25.1668C122.122 25.1668 122.859 25.4002 123.41 25.8668C123.961 26.3242 124.264 26.9448 124.32 27.7288H122.444C122.416 27.4208 122.285 27.1782 122.052 27.0008C121.828 26.8142 121.525 26.7208 121.142 26.7208C120.787 26.7208 120.512 26.7862 120.316 26.9168C120.129 27.0475 120.036 27.2295 120.036 27.4628C120.036 27.7242 120.167 27.9248 120.428 28.0648C120.689 28.1955 121.095 28.3308 121.646 28.4708C122.206 28.6108 122.668 28.7555 123.032 28.9048C123.396 29.0542 123.709 29.2875 123.97 29.6048C124.241 29.9128 124.381 30.3235 124.39 30.8368C124.39 31.2848 124.264 31.6862 124.012 32.0408C123.769 32.3955 123.415 32.6755 122.948 32.8808C122.491 33.0768 121.954 33.1748 121.338 33.1748ZM128.281 26.9028V30.6548C128.281 30.9162 128.342 31.1075 128.463 31.2288C128.594 31.3408 128.808 31.3968 129.107 31.3968H130.017V33.0488H128.785C127.133 33.0488 126.307 32.2462 126.307 30.6408V26.9028H125.383V25.2928H126.307V23.3748H128.281V25.2928H130.017V26.9028H128.281ZM132.421 24.3688C132.075 24.3688 131.786 24.2615 131.553 24.0468C131.329 23.8228 131.217 23.5475 131.217 23.2208C131.217 22.8942 131.329 22.6235 131.553 22.4088C131.786 22.1848 132.075 22.0728 132.421 22.0728C132.766 22.0728 133.051 22.1848 133.275 22.4088C133.508 22.6235 133.625 22.8942 133.625 23.2208C133.625 23.5475 133.508 23.8228 133.275 24.0468C133.051 24.2615 132.766 24.3688 132.421 24.3688ZM133.387 25.2928V33.0488H131.427V25.2928H133.387ZM134.819 29.1708C134.819 28.3682 134.983 27.6682 135.309 27.0708C135.636 26.4642 136.089 25.9975 136.667 25.6708C137.246 25.3348 137.909 25.1668 138.655 25.1668C139.617 25.1668 140.41 25.4095 141.035 25.8948C141.67 26.3708 142.095 27.0428 142.309 27.9108H140.195C140.083 27.5748 139.892 27.3135 139.621 27.1268C139.36 26.9308 139.033 26.8328 138.641 26.8328C138.081 26.8328 137.638 27.0382 137.311 27.4488C136.985 27.8502 136.821 28.4242 136.821 29.1708C136.821 29.9082 136.985 30.4822 137.311 30.8928C137.638 31.2942 138.081 31.4948 138.641 31.4948C139.435 31.4948 139.953 31.1402 140.195 30.4308H142.309C142.095 31.2708 141.67 31.9382 141.035 32.4328C140.401 32.9275 139.607 33.1748 138.655 33.1748C137.909 33.1748 137.246 33.0115 136.667 32.6848C136.089 32.3488 135.636 31.8822 135.309 31.2848C134.983 30.6782 134.819 29.9735 134.819 29.1708ZM146.713 33.1748C146.078 33.1748 145.509 33.0628 145.005 32.8388C144.501 32.6055 144.1 32.2928 143.801 31.9008C143.512 31.5088 143.353 31.0748 143.325 30.5988H145.299C145.336 30.8975 145.481 31.1448 145.733 31.3408C145.994 31.5368 146.316 31.6348 146.699 31.6348C147.072 31.6348 147.362 31.5602 147.567 31.4108C147.782 31.2615 147.889 31.0702 147.889 30.8368C147.889 30.5848 147.758 30.3982 147.497 30.2768C147.245 30.1462 146.839 30.0062 146.279 29.8568C145.7 29.7168 145.224 29.5722 144.851 29.4228C144.487 29.2735 144.17 29.0448 143.899 28.7368C143.638 28.4288 143.507 28.0135 143.507 27.4908C143.507 27.0615 143.628 26.6695 143.871 26.3148C144.123 25.9602 144.478 25.6802 144.935 25.4748C145.402 25.2695 145.948 25.1668 146.573 25.1668C147.497 25.1668 148.234 25.4002 148.785 25.8668C149.336 26.3242 149.639 26.9448 149.695 27.7288H147.819C147.791 27.4208 147.66 27.1782 147.427 27.0008C147.203 26.8142 146.9 26.7208 146.517 26.7208C146.162 26.7208 145.887 26.7862 145.691 26.9168C145.504 27.0475 145.411 27.2295 145.411 27.4628C145.411 27.7242 145.542 27.9248 145.803 28.0648C146.064 28.1955 146.47 28.3308 147.021 28.4708C147.581 28.6108 148.043 28.7555 148.407 28.9048C148.771 29.0542 149.084 29.2875 149.345 29.6048C149.616 29.9128 149.756 30.3235 149.765 30.8368C149.765 31.2848 149.639 31.6862 149.387 32.0408C149.144 32.3955 148.79 32.6755 148.323 32.8808C147.866 33.0768 147.329 33.1748 146.713 33.1748Z" fill="#04004D"/>
<defs>
<linearGradient id="paint0_linear_1851_4659" x1="117.055" y1="79.6915" x2="45.3047" y2="85.5948" gradientUnits="userSpaceOnUse">
<stop stop-color="#E54D60"/>
<stop offset="1" stop-color="#A342FF"/>
</linearGradient>
</defs>
</svg>
