<svg width="63" height="63" viewBox="0 0 63 63" fill="none" xmlns="http://www.w3.org/2000/svg">
<rect width="63" height="63" rx="31.5" fill="#5865F2"/>
<path d="M46.7817 17.0471C43.9709 15.7176 40.9568 14.7382 37.8053 14.1772C37.7479 14.1663 37.6906 14.1934 37.661 14.2475C37.2734 14.9582 36.844 15.8854 36.5433 16.6141C33.1537 16.091 29.7815 16.091 26.4614 16.6141C26.1606 15.8692 25.7157 14.9582 25.3263 14.2475C25.2967 14.1952 25.2394 14.1681 25.182 14.1772C22.0323 14.7364 19.0181 15.7158 16.2056 17.0471C16.1812 17.0579 16.1604 17.076 16.1465 17.0994C10.4293 25.904 8.86315 34.4923 9.63146 42.974C9.63494 43.0155 9.65754 43.0552 9.68883 43.0804C13.4609 45.9359 17.1147 47.6695 20.7007 48.8185C20.7581 48.8365 20.8189 48.8149 20.8555 48.7662C21.7037 47.5721 22.4599 46.313 23.1082 44.9889C23.1465 44.9114 23.11 44.8193 23.0318 44.7887C21.8324 44.3197 20.6903 43.7479 19.5917 43.0985C19.5048 43.0462 19.4979 42.9181 19.5778 42.8567C19.809 42.6781 20.0402 42.4923 20.261 42.3047C20.3009 42.2705 20.3566 42.2633 20.4035 42.2849C27.6208 45.6816 35.4343 45.6816 42.5664 42.2849C42.6133 42.2615 42.669 42.2687 42.7107 42.3029C42.9315 42.4905 43.1627 42.6781 43.3956 42.8567C43.4755 42.9181 43.4703 43.0462 43.3834 43.0985C42.2848 43.7605 41.1428 44.3197 39.9416 44.7869C39.8634 44.8176 39.8287 44.9114 39.8669 44.9889C40.5292 46.3111 41.2853 47.5702 42.1179 48.7644C42.1527 48.8149 42.2153 48.8365 42.2727 48.8185C45.8761 47.6695 49.5299 45.9359 53.3019 43.0804C53.335 43.0552 53.3559 43.0173 53.3593 42.9758C54.2789 33.17 51.8192 24.6522 46.8391 17.1012C46.8269 17.076 46.8061 17.0579 46.7817 17.0471ZM24.186 37.8095C22.0131 37.8095 20.2227 35.7532 20.2227 33.2277C20.2227 30.7023 21.9784 28.6459 24.186 28.6459C26.4109 28.6459 28.184 30.7204 28.1492 33.2277C28.1492 35.7532 26.3936 37.8095 24.186 37.8095ZM38.8396 37.8095C36.6667 37.8095 34.8763 35.7532 34.8763 33.2277C34.8763 30.7023 36.632 28.6459 38.8396 28.6459C41.0646 28.6459 42.8376 30.7204 42.8029 33.2277C42.8029 35.7532 41.0646 37.8095 38.8396 37.8095Z" fill="white"/>
</svg>
