<svg width="97" height="128" viewBox="0 0 97 128" fill="none" xmlns="http://www.w3.org/2000/svg">
<path fill-rule="evenodd" clip-rule="evenodd" d="M24.6211 38.2294L24.6749 37.8691C24.7127 37.6231 24.7535 37.3566 24.7607 37.3024C25.9485 27.5838 36.0511 20.2549 48.2444 20.2549L48.7314 20.2578C59.4374 20.2578 67.0584 24.7328 72.0261 33.936C72.5582 34.92 73.7853 35.289 74.7637 34.7501C75.7436 34.2142 76.1056 32.9783 75.5735 31.9928C69.9123 21.5084 60.8811 16.1929 48.7489 16.1929L48.2618 16.1885C33.7817 16.1885 22.2136 24.8602 20.7554 36.787L20.6856 37.2439C20.6507 37.4738 20.6187 37.6876 20.6144 37.7168C20.485 38.8209 21.2628 39.8181 22.359 39.9646C22.4477 39.9748 22.5349 39.9807 22.6207 39.9807C23.6107 39.9807 24.4758 39.2412 24.6211 38.2294ZM80.1923 87.7978C80.1923 69.1864 67.7795 64.5943 50.2405 60.1399L48.1499 59.5908C43.2752 58.2861 35.1163 56.1042 29.8418 51.0933C29.0306 50.3246 27.7527 50.3641 26.988 51.1783C26.2232 51.9954 26.2611 53.2825 27.0709 54.0527C33.0897 59.7709 41.8694 62.1182 47.1133 63.5195L49.2534 64.0818C67.5396 68.7281 76.155 72.5821 76.155 87.7978C76.155 99.6031 64.8777 107.847 48.7314 107.847C36.733 107.847 26.4225 101.832 21.8211 92.1483C21.3399 91.135 20.1346 90.7045 19.1285 91.1907C18.1225 91.6753 17.698 92.8892 18.1792 93.9025C23.4581 105.012 35.1643 111.914 48.7314 111.914C67.2547 111.914 80.1923 101.997 80.1923 87.7978ZM64.7541 34.5905C65.5813 33.8394 65.6482 32.5537 64.9024 31.719C61.2722 27.6614 56.8453 25.5923 50.9703 25.2087C49.8698 25.1428 48.8972 25.9833 48.8245 27.105C48.7518 28.2266 49.5965 29.1931 50.7086 29.2663C55.4656 29.5767 59.0231 31.2212 61.9031 34.4412C62.3 34.8878 62.8511 35.1133 63.4035 35.1133C63.8847 35.1133 64.3674 34.942 64.7541 34.5905ZM85.1847 102.338C87.8321 97.9309 89.1741 93.0591 89.1741 87.8549C89.1741 61.9029 67.781 56.4659 52.161 52.4976L50.5676 52.0818C41.7967 49.7272 33.9242 46.9684 33.9227 39.2134C33.9562 37.752 34.2935 36.4078 34.9259 35.2129C35.4507 34.223 35.0785 32.9915 34.0943 32.4614C33.1086 31.9357 31.8888 32.3077 31.364 33.3005C30.4321 35.0577 29.9349 37.0169 29.8855 39.1665C29.8855 50.739 42.1819 54.0381 49.5281 56.0105L51.1724 56.4396C67.0918 60.4855 85.1368 65.0702 85.1368 87.8549C85.1368 92.305 83.9912 96.471 81.7305 100.234C81.1533 101.195 81.4586 102.444 82.4123 103.025C82.7379 103.224 83.0985 103.32 83.4561 103.32C84.138 103.32 84.8053 102.971 85.1847 102.338ZM72.2922 114.274C73.2764 113.745 73.6457 112.513 73.1194 111.523C72.5931 110.533 71.3719 110.159 70.3877 110.689C64.2714 113.986 56.7827 115.73 48.7314 115.73C33.0446 115.73 18.8073 107.288 13.3002 94.727C13.0254 94.1017 12.848 93.4486 12.771 92.7882C12.6401 91.6709 11.6341 90.867 10.5306 91.0061C9.4228 91.1365 8.63046 92.1468 8.76131 93.2612C8.88488 94.3257 9.16983 95.3713 9.60744 96.3684C15.7484 110.38 31.4716 119.795 48.7314 119.795C57.4457 119.795 65.5929 117.887 72.2922 114.274ZM68.2157 97.2485C70.8195 94.6669 72.1963 91.4835 72.1963 88.0453C72.1963 85.2192 71.5362 82.6376 70.2321 80.3752C69.5386 79.1701 68.646 78.0265 67.5803 76.9766C66.7822 76.1931 65.5042 76.2063 64.725 77.0088C63.9457 77.8127 63.9603 79.0998 64.757 79.8847C65.5624 80.6769 66.2298 81.5291 66.74 82.4136C67.6952 84.0726 68.159 85.9147 68.159 88.0453C68.159 90.4028 67.2241 92.5246 65.3836 94.3506C61.9976 97.7083 55.9671 99.6573 49.2839 99.5445C45.3178 99.4874 41.5321 98.54 38.3337 96.8077C36.0119 95.5499 34.5115 93.7664 33.5186 92.5861C33.3281 92.3606 33.1566 92.1571 33.0025 91.9828C32.2625 91.1423 30.9874 91.0691 30.1515 91.8159C29.3199 92.5627 29.2458 93.8469 29.9872 94.686C30.121 94.8397 30.2722 95.0184 30.4379 95.216C31.5559 96.5442 33.4255 98.7655 36.4204 100.388C40.1858 102.429 44.6142 103.544 49.2229 103.611C49.4133 103.614 49.6008 103.615 49.7898 103.615C57.3207 103.615 64.1769 101.255 68.2157 97.2485ZM50.9151 70.948C51.1884 69.86 50.5327 68.753 49.4511 68.4791C47.9856 68.1072 46.414 67.7411 44.7799 67.3941C24.438 63.0773 15.3675 54.4671 15.3675 39.4726C15.3675 23.0151 28.8445 11.9552 48.9044 11.9552C60.9116 11.9552 76.0504 18.7247 80.9149 33.586C81.2624 34.652 82.4065 35.2334 83.4634 34.8819C84.5218 34.529 85.0975 33.381 84.7486 32.3135C79.256 15.5325 62.3175 7.89024 48.9044 7.89024C26.4297 7.89024 11.3288 20.5829 11.3288 39.4726C11.3288 61.8619 29.9451 68.403 43.9469 71.3726C45.5286 71.7094 47.0479 72.0623 48.4639 72.4211C48.6297 72.4635 48.7954 72.484 48.9597 72.484C49.8625 72.484 50.684 71.8705 50.9151 70.948ZM97 87.8549C97 75.4522 94.1433 67.3106 87.7348 61.4563C86.9105 60.7022 85.6325 60.7666 84.8838 61.5954C84.1351 62.4271 84.1976 63.7128 85.0234 64.4684C90.5872 69.5525 92.9627 76.5475 92.9627 87.8549C92.9627 108.572 74.361 123.611 48.7314 123.611C31.3058 123.611 14.5127 114.006 6.94113 99.713L6.72887 99.3176C6.14588 98.2486 4.93337 96.0229 3.95204 92.7472C3.62929 91.6709 2.50259 91.0603 1.43693 91.3883C0.368368 91.7134 -0.234983 92.8468 0.0863134 93.9216C1.18977 97.6058 2.54035 100.085 3.19021 101.274L3.37776 101.625C11.6326 117.207 29.8578 127.677 48.7314 127.677C76.7002 127.677 97 110.931 97 87.8549ZM44.1039 78.3852C44.4034 77.3031 43.7768 76.1829 42.7024 75.8798C33.0926 73.1737 13.0967 67.5434 7.77564 49.3201C7.46161 48.2438 6.33778 47.6244 5.26922 47.9451C4.1992 48.2614 3.58714 49.3918 3.90262 50.4696C9.85605 70.8528 32.1113 77.1201 41.615 79.7968C41.7967 79.8481 41.9799 79.873 42.1601 79.873C43.0426 79.873 43.8538 79.2843 44.1039 78.3852ZM6.8379 33.8203C9.62199 15.9366 26.075 4.06692 47.9202 4.06692C48.2357 4.06692 48.5555 4.06985 48.8739 4.07424C50.0224 4.06253 50.9064 3.19566 50.9241 2.07253C50.9412 0.950865 50.0515 0.0268783 48.9364 0.00930657C24.5252 -0.40363 5.99903 12.9597 2.84859 33.1892C2.67558 34.3006 3.42866 35.3403 4.52921 35.5131C4.6368 35.5321 4.74147 35.5394 4.84615 35.5394C5.82312 35.5394 6.68089 34.8234 6.8379 33.8203ZM91.599 34.6213C90.5334 34.6213 89.6422 33.7808 89.5841 32.6957C89.2817 30.0409 83.6277 13.8764 65.9651 7.15223C64.9228 6.75394 64.3964 5.58102 64.7904 4.52964C65.1844 3.48119 66.349 2.95111 67.3928 3.34647C87.8903 11.1527 93.4818 29.9179 93.617 32.4805C93.6766 33.6007 92.8217 34.5583 91.708 34.6183C91.6717 34.6213 91.6354 34.6213 91.599 34.6213Z" fill="url(#paint0_linear_3901_1868)"/>
<defs>
<linearGradient id="paint0_linear_3901_1868" x1="48.5" y1="0" x2="48.5" y2="127.677" gradientUnits="userSpaceOnUse">
<stop stop-color="#DDDDDD"/>
<stop offset="1" stop-color="#999999"/>
</linearGradient>
</defs>
</svg>
