<svg width="63" height="63" viewBox="0 0 63 63" fill="none" xmlns="http://www.w3.org/2000/svg">
<rect width="63" height="63" rx="31.5" fill="#0A66C2"/>
<path d="M46.2679 14.1748H16.7336C16.0552 14.1748 15.4046 14.4443 14.925 14.924C14.4453 15.4037 14.1758 16.0543 14.1758 16.7326V46.267C14.1758 46.9453 14.4453 47.5959 14.925 48.0756C15.4046 48.5553 16.0552 48.8248 16.7336 48.8248H46.2679C46.9463 48.8248 47.5969 48.5553 48.0766 48.0756C48.5563 47.5959 48.8258 46.9453 48.8258 46.267V16.7326C48.8258 16.0543 48.5563 15.4037 48.0766 14.924C47.5969 14.4443 46.9463 14.1748 46.2679 14.1748ZM24.5034 43.6923H19.2939V27.1445H24.5034V43.6923ZM21.895 24.8513C21.3041 24.848 20.7274 24.6697 20.2377 24.3389C19.748 24.0082 19.3673 23.5397 19.1435 22.9928C18.9198 22.4458 18.8631 21.8449 18.9806 21.2657C19.0981 20.6866 19.3845 20.1552 19.8037 19.7387C20.2229 19.3222 20.7561 19.0392 21.336 18.9254C21.9159 18.8116 22.5165 18.8722 23.062 19.0994C23.6075 19.3266 24.0735 19.7104 24.4011 20.2022C24.7287 20.694 24.9033 21.2718 24.9028 21.8628C24.9084 22.2584 24.8343 22.6511 24.6849 23.0175C24.5354 23.3839 24.3138 23.7164 24.0331 23.9953C23.7524 24.2742 23.4185 24.4937 23.0511 24.6408C22.6838 24.7878 22.2906 24.8595 21.895 24.8513ZM43.7053 43.7067H38.4982V34.6664C38.4982 32.0003 37.3648 31.1774 35.9018 31.1774C34.357 31.1774 32.8411 32.342 32.8411 34.7338V43.7067H27.6315V27.1565H32.6413V29.4497H32.7087C33.2116 28.4318 34.973 26.6921 37.6608 26.6921C40.5675 26.6921 43.7077 28.4174 43.7077 33.4705L43.7053 43.7067Z" fill="white"/>
</svg>
