<svg width="63" height="63" viewBox="0 0 63 63" fill="none" xmlns="http://www.w3.org/2000/svg">
<rect width="63" height="63" rx="31.5" fill="url(#paint0_linear_3902_1980)"/>
<path d="M12.3926 49.8267L15.0935 40.0187C13.4237 37.1398 12.5477 33.8796 12.5568 30.5467C12.5568 20.103 21.0977 11.6118 31.5821 11.6118C36.6738 11.6118 41.4552 13.5825 45.0412 17.1606C48.6364 20.7387 50.6165 25.4974 50.6074 30.5558C50.6074 40.9995 42.0665 49.4906 31.573 49.4906H31.5639C28.3793 49.4906 25.2495 48.6915 22.4664 47.1839L12.3926 49.8267ZM22.95 43.7602L23.5249 44.1053C25.9521 45.5402 28.7352 46.294 31.573 46.303H31.5821C40.2963 46.303 47.3954 39.2467 47.3954 30.5648C47.3954 26.3601 45.753 22.4097 42.7691 19.431C39.7853 16.4522 35.8069 14.8176 31.5821 14.8176C22.8679 14.8085 15.7688 21.8648 15.7688 30.5467C15.7688 33.5163 16.5991 36.4133 18.1868 38.9198L18.561 39.5192L16.9641 45.3222L22.95 43.7602Z" fill="white"/>
<path d="M13.0605 49.1638L15.6702 39.6919C14.0552 36.922 13.2065 33.7708 13.2065 30.5559C13.2157 20.4755 21.4554 12.2749 31.584 12.2749C36.5022 12.2749 41.1103 14.182 44.5777 17.633C48.0452 21.0839 49.9522 25.6792 49.9522 30.565C49.9522 40.6454 41.7034 48.846 31.584 48.846H31.5748C28.4998 48.846 25.4794 48.0741 22.7967 46.621L13.0605 49.1638Z" fill="url(#paint1_linear_3902_1980)"/>
<path d="M12.3926 49.8267L15.0935 40.0187C13.4237 37.1398 12.5477 33.8796 12.5568 30.5467C12.5568 20.103 21.0977 11.6118 31.5821 11.6118C36.6738 11.6118 41.4552 13.5825 45.0412 17.1606C48.6364 20.7387 50.6165 25.4974 50.6074 30.5558C50.6074 40.9995 42.0665 49.4906 31.573 49.4906H31.5639C28.3793 49.4906 25.2495 48.6915 22.4664 47.1839L12.3926 49.8267ZM22.95 43.7602L23.5249 44.1053C25.9521 45.5402 28.7352 46.294 31.573 46.303H31.5821C40.2963 46.303 47.3954 39.2467 47.3954 30.5648C47.3954 26.3601 45.753 22.4097 42.7691 19.431C39.7853 16.4522 35.8069 14.8176 31.5821 14.8176C22.8679 14.8085 15.7688 21.8648 15.7688 30.5467C15.7688 33.5163 16.5991 36.4133 18.1868 38.9198L18.561 39.5192L16.9641 45.3222L22.95 43.7602Z" fill="url(#paint2_linear_3902_1980)"/>
<path fill-rule="evenodd" clip-rule="evenodd" d="M26.8291 22.6272C26.4732 21.8371 26.0991 21.8189 25.7615 21.8099C25.4877 21.8008 25.1684 21.8008 24.849 21.8008C24.5296 21.8008 24.0186 21.9188 23.5806 22.3911C23.1426 22.8633 21.9199 24.0076 21.9199 26.3415C21.9199 28.6664 23.6263 30.9186 23.8635 31.2364C24.1008 31.5543 27.1576 36.4855 31.9846 38.3835C35.9995 39.9637 36.8208 39.6459 37.6876 39.5641C38.5545 39.4824 40.4981 38.4199 40.8996 37.3119C41.2919 36.204 41.2919 35.2595 41.1733 35.0597C41.0547 34.8599 40.7353 34.7419 40.2608 34.5058C39.7863 34.2696 37.4504 33.1254 37.0124 32.9619C36.5744 32.8075 36.255 32.7258 35.9448 33.198C35.6254 33.6703 34.7129 34.7328 34.4392 35.0507C34.1654 35.3685 33.8826 35.4048 33.4081 35.1687C32.9336 34.9326 31.4006 34.4331 29.5848 32.8166C28.1704 31.5634 27.2123 30.0104 26.9386 29.5382C26.6648 29.066 26.9112 28.8117 27.1485 28.5756C27.3583 28.3667 27.6229 28.0216 27.8602 27.7491C28.0974 27.4767 28.1796 27.2769 28.3347 26.9591C28.4898 26.6412 28.4168 26.3688 28.2982 26.1326C28.1796 25.9056 27.2488 23.5626 26.8291 22.6272Z" fill="white"/>
<defs>
<linearGradient id="paint0_linear_3902_1980" x1="31.4984" y1="62.9969" x2="31.4984" y2="-0.00220421" gradientUnits="userSpaceOnUse">
<stop stop-color="#20B038"/>
<stop offset="1" stop-color="#60D66A"/>
</linearGradient>
<linearGradient id="paint1_linear_3902_1980" x1="31.5054" y1="49.162" x2="31.5054" y2="12.2736" gradientUnits="userSpaceOnUse">
<stop stop-color="#20B038"/>
<stop offset="1" stop-color="#60D66A"/>
</linearGradient>
<linearGradient id="paint2_linear_3902_1980" x1="31.5037" y1="49.823" x2="31.5037" y2="11.6118" gradientUnits="userSpaceOnUse">
<stop stop-color="#F9F9F9"/>
<stop offset="1" stop-color="white"/>
</linearGradient>
</defs>
</svg>
