<svg width="63" height="63" viewBox="0 0 63 63" fill="none" xmlns="http://www.w3.org/2000/svg">
<rect width="63" height="63" rx="31.5" fill="#FF0000"/>
<path d="M53.0752 20.6804C52.5562 18.7527 51.0363 17.2328 49.1087 16.7138C45.5869 15.75 31.5 15.75 31.5 15.75C31.5 15.75 17.4131 15.75 13.8914 16.6768C12.0008 17.1958 10.4438 18.7527 9.92482 20.6804C8.99805 24.2021 8.99805 31.5051 8.99805 31.5051C8.99805 31.5051 8.99805 38.8451 9.92482 42.3298C10.4438 44.2574 11.9637 45.7774 13.8914 46.2963C17.4502 47.2602 31.5 47.2602 31.5 47.2602C31.5 47.2602 45.5869 47.2602 49.1087 46.3334C51.0363 45.8144 52.5562 44.2945 53.0752 42.3668C54.002 38.8451 54.002 31.5422 54.002 31.5422C54.002 31.5422 54.0391 24.2021 53.0752 20.6804Z" fill="white"/>
<path d="M27.0156 38.2516L38.73 31.5047L27.0156 24.7578V38.2516Z" fill="#FF0000"/>
</svg>
