<svg width="54" height="53" viewBox="0 0 54 53" fill="none" xmlns="http://www.w3.org/2000/svg">
<rect x="0.833984" y="0.218262" width="52.7262" height="52.7262" rx="15.5077" fill="#2B2B2B"/>
<path d="M25.1103 26.1501H22.4603C21.8303 26.1501 21.3203 26.6601 21.3203 27.2901V32.4101H25.1103V26.1501V26.1501Z" stroke="white" stroke-width="1.5" stroke-miterlimit="10" stroke-linecap="round" stroke-linejoin="round"/>
<path d="M27.7616 21.6001H26.2415C25.6115 21.6001 25.1016 22.1101 25.1016 22.7401V32.4001H28.8916V22.7401C28.8916 22.1101 28.3916 21.6001 27.7616 21.6001Z" stroke="white" stroke-width="1.5" stroke-miterlimit="10" stroke-linecap="round" stroke-linejoin="round"/>
<path d="M31.5484 27.8501H28.8984V32.4001H32.6884V28.9901C32.6784 28.3601 32.1684 27.8501 31.5484 27.8501Z" stroke="white" stroke-width="1.5" stroke-miterlimit="10" stroke-linecap="round" stroke-linejoin="round"/>
<path d="M24 37H30C35 37 37 35 37 30V24C37 19 35 17 30 17H24C19 17 17 19 17 24V30C17 35 19 37 24 37Z" stroke="white" stroke-width="1.5" stroke-linecap="round" stroke-linejoin="round"/>
</svg>
