<svg width="54" height="53" viewBox="0 0 54 53" fill="none" xmlns="http://www.w3.org/2000/svg">
<rect x="0.833984" y="0.218262" width="52.7262" height="52.7262" rx="15.5077" fill="#2B2B2B"/>
<path d="M19.9199 35.2799L21.6899 36.6499C21.9199 36.8799 22.4299 36.9898 22.7799 36.9898H24.9499C25.6399 36.9898 26.3799 36.4799 26.5499 35.7899L27.9199 31.6198C28.2099 30.8198 27.6899 30.1299 26.8299 30.1299H24.5399C24.1999 30.1299 23.9099 29.8398 23.9699 29.4398L24.2599 27.6098C24.3699 27.0998 24.0299 26.5198 23.5199 26.3498C23.0599 26.1798 22.4899 26.4099 22.2599 26.7499L19.9199 30.2398" stroke="white" stroke-width="1.5" stroke-miterlimit="10"/>
<path d="M17 35.2799V29.6799C17 28.8799 17.34 28.5898 18.14 28.5898H18.71C19.51 28.5898 19.85 28.8799 19.85 29.6799V35.2799C19.85 36.0799 19.51 36.3699 18.71 36.3699H18.14C17.34 36.3699 17 36.0899 17 35.2799Z" stroke="white" stroke-width="1.5" stroke-linecap="round" stroke-linejoin="round"/>
<path d="M34.0808 18.72L32.3108 17.35C32.0808 17.12 31.5708 17.01 31.2208 17.01H29.0508C28.3608 17.01 27.6208 17.52 27.4508 18.21L26.0808 22.38C25.7908 23.18 26.3108 23.87 27.1708 23.87H29.4608C29.8008 23.87 30.0908 24.1601 30.0308 24.5601L29.7408 26.39C29.6308 26.9 29.9708 27.48 30.4808 27.65C30.9408 27.82 31.5108 27.59 31.7408 27.25L34.0808 23.76" stroke="white" stroke-width="1.5" stroke-miterlimit="10"/>
<path d="M37.0004 18.7198V24.3198C37.0004 25.1198 36.6604 25.4099 35.8604 25.4099H35.2904C34.4904 25.4099 34.1504 25.1198 34.1504 24.3198V18.7198C34.1504 17.9198 34.4904 17.6299 35.2904 17.6299H35.8604C36.6604 17.6299 37.0004 17.9098 37.0004 18.7198Z" stroke="white" stroke-width="1.5" stroke-linecap="round" stroke-linejoin="round"/>
</svg>
