<svg width="129" height="175" viewBox="0 0 129 175" fill="none" xmlns="http://www.w3.org/2000/svg">
<mask id="path-1-outside-1_3599_1974" maskUnits="userSpaceOnUse" x="-7" y="-6" width="143" height="187" fill="black">
<rect fill="white" x="-7" y="-6" width="143" height="187"/>
<path d="M127.276 106.931L121.893 138.035H0.22998L2.3833 111.477L88.2769 0.820312H121.653L77.1514 58.96L41.1431 106.692L127.276 106.931ZM128.592 0.820312L98.4453 175H59.0874L89.2339 0.820312H128.592Z"/>
</mask>
<path d="M127.276 106.931L133.188 107.954L134.4 100.951L127.293 100.931L127.276 106.931ZM121.893 138.035V144.035H126.943L127.805 139.058L121.893 138.035ZM0.22998 138.035L-5.75039 137.55L-6.2762 144.035H0.22998V138.035ZM2.3833 111.477L-2.3564 107.798L-3.45259 109.21L-3.59707 110.992L2.3833 111.477ZM88.2769 0.820312V-5.17969H85.3387L83.5372 -2.85872L88.2769 0.820312ZM121.653 0.820312L126.418 4.4672L133.802 -5.17969H121.653V0.820312ZM77.1514 58.96L72.3869 55.3131L72.3741 55.3298L72.3615 55.3465L77.1514 58.96ZM41.1431 106.692L36.3532 103.078L29.1261 112.659L41.1264 112.692L41.1431 106.692ZM128.592 0.820312L134.504 1.84356L135.719 -5.17969H128.592V0.820312ZM98.4453 175V181H103.496L104.357 176.023L98.4453 175ZM59.0874 175L53.1753 173.977L51.9597 181H59.0874V175ZM89.2339 0.820312V-5.17969H84.1831L83.3218 -0.202934L89.2339 0.820312ZM121.364 105.908L115.98 137.011L127.805 139.058L133.188 107.954L121.364 105.908ZM121.893 132.035H0.22998V144.035H121.893V132.035ZM6.21035 138.52L8.36368 111.962L-3.59707 110.992L-5.75039 137.55L6.21035 138.52ZM7.123 115.156L93.0166 4.49934L83.5372 -2.85872L-2.3564 107.798L7.123 115.156ZM88.2769 6.82031H121.653V-5.17969H88.2769V6.82031ZM116.889 -2.82657L72.3869 55.3131L81.9158 62.6068L126.418 4.4672L116.889 -2.82657ZM72.3615 55.3465L36.3532 103.078L45.933 110.305L81.9413 62.5734L72.3615 55.3465ZM41.1264 112.692L127.259 112.931L127.293 100.931L41.1597 100.692L41.1264 112.692ZM122.68 -0.202934L92.5332 173.977L104.357 176.023L134.504 1.84356L122.68 -0.202934ZM98.4453 169H59.0874V181H98.4453V169ZM64.9995 176.023L95.146 1.84356L83.3218 -0.202934L53.1753 173.977L64.9995 176.023ZM89.2339 6.82031H128.592V-5.17969H89.2339V6.82031Z" fill="#1C1C1C" mask="url(#path-1-outside-1_3599_1974)"/>
</svg>
