<svg width="87" height="175" viewBox="0 0 87 175" fill="none" xmlns="http://www.w3.org/2000/svg">
<mask id="path-1-outside-1_3598_1418" maskUnits="userSpaceOnUse" x="-8" y="-6" width="103" height="187" fill="black">
<rect fill="white" x="-8" y="-6" width="103" height="187"/>
<path d="M86.8867 0.700684L57.6973 175H18.3394L40.5903 46.9971L0.0361328 58.4814L5.53906 26.5405L82.4604 0.820312L86.8867 0.700684Z"/>
</mask>
<path d="M86.8867 0.700684L92.8043 1.69169L94.0077 -5.49397L86.7246 -5.29713L86.8867 0.700684ZM57.6973 175V181H62.776L63.6149 175.991L57.6973 175ZM18.3394 175L12.428 173.972L11.2064 181H18.3394V175ZM40.5903 46.9971L46.5017 48.0247L48.1357 38.6244L38.9555 41.2241L40.5903 46.9971ZM0.0361328 58.4814L-5.87675 57.4627L-7.494 66.8498L1.67096 64.2544L0.0361328 58.4814ZM5.53906 26.5405L3.63639 20.8502L0.235085 21.9875L-0.373825 25.5218L5.53906 26.5405ZM82.4604 0.820312L82.2983 -5.1775L81.4052 -5.15336L80.5578 -4.87001L82.4604 0.820312ZM80.9691 -0.290321L51.7797 174.009L63.6149 175.991L92.8043 1.69169L80.9691 -0.290321ZM57.6973 169H18.3394V181H57.6973V169ZM24.2507 176.028L46.5017 48.0247L34.679 45.9695L12.428 173.972L24.2507 176.028ZM38.9555 41.2241L-1.59869 52.7085L1.67096 64.2544L42.2252 52.7701L38.9555 41.2241ZM5.94902 59.5001L11.452 27.5592L-0.373825 25.5218L-5.87675 57.4627L5.94902 59.5001ZM7.44174 32.2309L84.3631 6.51064L80.5578 -4.87001L3.63639 20.8502L7.44174 32.2309ZM82.6226 6.81812L87.0488 6.69849L86.7246 -5.29713L82.2983 -5.1775L82.6226 6.81812Z" fill="#1C1C1C" mask="url(#path-1-outside-1_3598_1418)"/>
</svg>
