<svg width="135" height="180" viewBox="0 0 135 180" fill="none" xmlns="http://www.w3.org/2000/svg">
<mask id="path-1-outside-1_3599_1973" maskUnits="userSpaceOnUse" x="-6" y="-6" width="146" height="192" fill="black">
<rect fill="white" x="-6" y="-6" width="146" height="192"/>
<path d="M50.0815 73.0425L67.5474 73.2817C72.3325 73.1222 76.5594 72.1253 80.228 70.291C83.9764 68.4567 86.9671 65.8249 89.2002 62.3955C91.513 58.8864 92.9486 54.7393 93.5068 49.9541C93.9854 46.3652 93.6265 43.1751 92.4302 40.3838C91.3136 37.5924 89.4793 35.3993 86.9272 33.8042C84.4549 32.1294 81.3844 31.2521 77.7158 31.1724C74.2067 31.0926 70.9767 31.7306 68.0259 33.0864C65.075 34.4422 62.5628 36.3563 60.4893 38.8286C58.4954 41.3009 57.1396 44.2119 56.4219 47.5615L16.8247 47.8008C17.383 37.2734 20.7326 28.4608 26.8735 21.3628C33.0942 14.2648 40.7904 8.96126 49.9619 5.45215C59.1335 1.86328 68.5443 0.108724 78.1943 0.188477C88.2432 0.347982 97.5742 2.22217 106.188 5.81104C114.801 9.32015 121.66 14.7035 126.764 21.9609C131.868 29.1387 134.101 38.2305 133.463 49.2363C133.064 56.6533 131.03 63.1532 127.362 68.7358C123.693 74.3185 118.948 78.9442 113.126 82.6128C107.384 86.2814 101.123 89.0728 94.3442 90.9868C87.645 92.8211 80.9857 93.7383 74.3662 93.7383L46.7319 93.6187L50.0815 73.0425ZM45.2964 103.069L48.5264 82.9717L72.0933 83.0913C78.8722 83.2508 85.4119 84.2078 91.7124 85.9624C98.0129 87.717 103.635 90.3488 108.58 93.8579C113.604 97.367 117.472 101.873 120.184 107.376C122.896 112.879 124.092 119.458 123.773 127.115C123.294 136.047 120.982 143.863 116.834 150.562C112.687 157.181 107.304 162.645 100.685 166.951C94.1449 171.258 86.8874 174.448 78.9121 176.521C71.0166 178.595 63.0413 179.592 54.9863 179.512C47.2503 179.353 40.0726 178.117 33.4531 175.804C26.8337 173.411 21.0117 170.062 15.9873 165.755C11.0426 161.368 7.17464 156.065 4.3833 149.844C1.67171 143.544 0.315918 136.406 0.315918 128.431H39.4346C39.5143 132.179 40.3118 135.529 41.8271 138.479C43.3424 141.43 45.4958 143.783 48.2871 145.538C51.0785 147.212 54.3882 148.09 58.2163 148.169C62.6027 148.249 66.71 147.412 70.5381 145.657C74.3662 143.823 77.5563 141.271 80.1084 138.001C82.6605 134.651 84.2555 130.743 84.8936 126.277C85.5316 121.572 85.2524 117.544 84.0562 114.195C82.9396 110.765 80.9059 108.134 77.9551 106.299C75.0042 104.385 71.1362 103.348 66.3511 103.189L45.2964 103.069Z"/>
</mask>
<path d="M50.0815 73.0425L50.1637 67.043L44.9907 66.9722L44.1595 72.0784L50.0815 73.0425ZM67.5474 73.2817L67.4652 79.2812L67.6062 79.2831L67.7473 79.2784L67.5474 73.2817ZM80.228 70.291L77.5907 64.9017L77.5677 64.913L77.5447 64.9245L80.228 70.291ZM89.2002 62.3955L84.1904 59.0936L84.1813 59.1075L84.1722 59.1215L89.2002 62.3955ZM93.5068 49.9541L87.5595 49.1611L87.553 49.2099L87.5473 49.2588L93.5068 49.9541ZM92.4302 40.3838L86.8593 42.6121L86.8865 42.6801L86.9153 42.7473L92.4302 40.3838ZM86.9272 33.8042L83.5622 38.7717L83.6536 38.8337L83.7473 38.8922L86.9272 33.8042ZM77.7158 31.1724L77.5795 37.1708L77.5854 37.1709L77.7158 31.1724ZM60.4893 38.8286L55.8921 34.9729L55.855 35.0172L55.8188 35.0621L60.4893 38.8286ZM56.4219 47.5615L56.4581 53.5614L61.2786 53.5323L62.2887 48.8187L56.4219 47.5615ZM16.8247 47.8008L10.8331 47.483L10.4961 53.8391L16.861 53.8007L16.8247 47.8008ZM26.8735 21.3628L22.3612 17.4082L22.3486 17.4226L22.336 17.4371L26.8735 21.3628ZM49.9619 5.45215L52.106 11.056L52.1272 11.0479L52.1483 11.0396L49.9619 5.45215ZM78.1943 0.188477L78.2896 -5.81077L78.2667 -5.81113L78.2439 -5.81132L78.1943 0.188477ZM106.188 5.81104L103.88 11.3495L103.902 11.3586L103.924 11.3676L106.188 5.81104ZM126.764 21.9609L121.856 25.4126L121.865 25.4253L121.874 25.4381L126.764 21.9609ZM133.463 49.2363L127.473 48.8891L127.472 48.9016L127.472 48.9142L133.463 49.2363ZM127.362 68.7358L122.348 65.4408L127.362 68.7358ZM113.126 82.6128L109.927 77.5366L109.911 77.5465L109.896 77.5566L113.126 82.6128ZM94.3442 90.9868L95.9288 96.7738L95.9517 96.7675L95.9746 96.7611L94.3442 90.9868ZM74.3662 93.7383L74.3402 99.7382L74.3532 99.7383H74.3662V93.7383ZM46.7319 93.6187L40.8099 92.6546L39.6812 99.5882L46.706 99.6186L46.7319 93.6187ZM45.2964 103.069L39.3724 102.117L38.2615 109.029L45.2623 109.069L45.2964 103.069ZM48.5264 82.9717L48.5568 76.9718L43.4178 76.9457L42.6024 82.0196L48.5264 82.9717ZM72.0933 83.0913L72.2344 77.093L72.1791 77.0917L72.1237 77.0914L72.0933 83.0913ZM108.58 93.8579L105.108 98.7509L105.126 98.764L105.145 98.777L108.58 93.8579ZM120.184 107.376L114.802 110.028L120.184 107.376ZM123.773 127.115L129.764 127.436L129.766 127.4L129.768 127.365L123.773 127.115ZM116.834 150.562L121.919 153.748L121.928 153.734L121.936 153.72L116.834 150.562ZM100.685 166.951L97.4125 161.922L97.3985 161.931L97.3846 161.94L100.685 166.951ZM78.9121 176.521L77.4023 170.715L77.3952 170.716L77.388 170.718L78.9121 176.521ZM54.9863 179.512L54.8626 185.511L54.8948 185.512L54.9269 185.512L54.9863 179.512ZM33.4531 175.804L31.4136 181.446L31.4438 181.457L31.4741 181.468L33.4531 175.804ZM15.9873 165.755L12.0056 170.243L12.0438 170.277L12.0826 170.31L15.9873 165.755ZM4.3833 149.844L-1.12795 152.216L-1.10973 152.259L-1.09085 152.301L4.3833 149.844ZM0.315918 128.431V122.431H-5.68408V128.431H0.315918ZM39.4346 128.431L45.4332 128.303L45.3083 122.431H39.4346V128.431ZM48.2871 145.538L45.0941 150.617L45.1468 150.651L45.2001 150.683L48.2871 145.538ZM58.2163 148.169L58.0913 154.168L58.0993 154.168L58.1072 154.168L58.2163 148.169ZM70.5381 145.657L73.038 151.112L73.0846 151.09L73.1308 151.068L70.5381 145.657ZM80.1084 138.001L84.8383 141.693L84.8598 141.665L84.881 141.637L80.1084 138.001ZM84.8936 126.277L90.8333 127.126L90.8363 127.105L90.8391 127.084L84.8936 126.277ZM84.0562 114.195L78.3509 116.052L78.3772 116.133L78.4057 116.213L84.0562 114.195ZM77.9551 106.299L74.6899 111.333L74.7384 111.365L74.7875 111.395L77.9551 106.299ZM66.3511 103.189L66.551 97.1923L66.4681 97.1895L66.3852 97.1891L66.3511 103.189ZM49.9994 79.0419L67.4652 79.2812L67.6295 67.2823L50.1637 67.043L49.9994 79.0419ZM67.7473 79.2784C73.2525 79.0949 78.3511 77.9377 82.9113 75.6576L77.5447 64.9245C74.7677 66.313 71.4125 67.1496 67.3475 67.2851L67.7473 79.2784ZM82.8653 75.6803C87.5668 73.3796 91.3917 70.0256 94.2282 65.6695L84.1722 59.1215C82.5426 61.6241 80.386 63.5338 77.5907 64.9017L82.8653 75.6803ZM94.2099 65.6974C97.1095 61.2981 98.8155 56.2289 99.4664 50.6494L87.5473 49.2588C87.0817 53.2496 85.9166 56.4746 84.1904 59.0936L94.2099 65.6974ZM99.4542 50.7471C100.048 46.2935 99.6428 41.9816 97.945 38.0203L86.9153 42.7473C87.6102 44.3686 87.9227 46.4369 87.5595 49.1611L99.4542 50.7471ZM98.001 38.1554C96.4108 34.1799 93.7384 30.9857 90.1072 28.7162L83.7473 38.8922C85.2202 39.8128 86.2165 41.005 86.8593 42.6121L98.001 38.1554ZM90.2923 28.8367C86.6652 26.3796 82.4045 25.2729 77.8462 25.1738L77.5854 37.1709C80.3644 37.2314 82.2446 37.8792 83.5622 38.7717L90.2923 28.8367ZM77.8521 25.1739C73.5075 25.0752 69.3649 25.8682 65.5209 27.6344L70.5309 38.5385C72.5886 37.5931 74.9059 37.11 77.5795 37.1708L77.8521 25.1739ZM65.5209 27.6344C61.7685 29.3585 58.5401 31.8157 55.8921 34.9729L65.0864 42.6843C66.5856 40.8968 68.3816 39.526 70.5309 38.5385L65.5209 27.6344ZM55.8188 35.0621C53.1897 38.3222 51.4539 42.1099 50.5551 46.3044L62.2887 48.8187C62.8254 46.3139 63.8012 44.2797 65.1597 42.5951L55.8188 35.0621ZM56.3856 41.5616L16.7885 41.8009L16.861 53.8007L56.4581 53.5614L56.3856 41.5616ZM22.8163 48.1185C23.3131 38.7492 26.2488 31.2552 31.411 25.2885L22.336 17.4371C15.2164 25.6663 11.4528 35.7977 10.8331 47.483L22.8163 48.1185ZM31.3859 25.3174C36.9367 18.9838 43.8081 14.2308 52.106 11.056L47.8178 -0.151684C37.7726 3.6917 29.2518 9.54582 22.3612 17.4082L31.3859 25.3174ZM52.1483 11.0396C60.6226 7.72358 69.2754 6.11497 78.1448 6.18827L78.2439 -5.81132C67.8131 -5.89752 57.6443 -3.99702 47.7755 -0.135307L52.1483 11.0396ZM78.0991 6.18772C87.4469 6.3361 96.0207 8.07486 103.88 11.3495L108.495 0.272575C99.1278 -3.63052 89.0394 -5.64014 78.2896 -5.81077L78.0991 6.18772ZM103.924 11.3676C111.526 14.4649 117.446 19.1422 121.856 25.4126L131.671 18.5093C125.873 10.2647 118.075 4.17541 108.451 0.254482L103.924 11.3676ZM121.874 25.4381C126.005 31.2471 128.052 38.8951 127.473 48.8891L139.453 49.5836C140.15 37.5658 137.731 27.0302 131.653 18.4838L121.874 25.4381ZM127.472 48.9142C127.123 55.3928 125.37 60.8417 122.348 65.4408L132.376 72.0309C136.691 65.4646 139.005 57.9138 139.454 49.5584L127.472 48.9142ZM122.348 65.4408C119.164 70.285 115.046 74.311 109.927 77.5366L116.325 87.689C122.85 83.5774 128.222 78.3521 132.376 72.0309L122.348 65.4408ZM109.896 77.5566C104.665 80.8982 98.9465 83.4528 92.7139 85.2126L95.9746 96.7611C103.3 94.6927 110.102 91.6646 116.356 87.669L109.896 77.5566ZM92.7597 85.1998C86.5513 86.8997 80.4246 87.7383 74.3662 87.7383V99.7383C81.5468 99.7383 88.7387 98.7425 95.9288 96.7738L92.7597 85.1998ZM74.3922 87.7383L46.7579 87.6187L46.706 99.6186L74.3402 99.7382L74.3922 87.7383ZM52.654 94.5827L56.0036 74.0065L44.1595 72.0784L40.8099 92.6546L52.654 94.5827ZM51.2204 104.021L54.4503 83.9238L42.6024 82.0196L39.3724 102.117L51.2204 104.021ZM48.4959 88.9716L72.0628 89.0912L72.1237 77.0914L48.5568 76.9718L48.4959 88.9716ZM71.9521 89.0896C78.2528 89.2379 84.2982 90.126 90.1028 91.7425L93.322 80.1823C86.5257 78.2897 79.4917 77.2637 72.2344 77.093L71.9521 89.0896ZM90.1028 91.7425C95.7884 93.3258 100.771 95.6733 105.108 98.7509L112.053 88.9649C106.5 85.0243 100.237 82.1081 93.322 80.1823L90.1028 91.7425ZM105.145 98.777C109.338 101.706 112.537 105.432 114.802 110.028L125.566 104.724C122.408 98.3142 117.871 93.028 112.016 88.9389L105.145 98.777ZM114.802 110.028C116.972 114.433 118.066 119.966 117.778 126.865L129.768 127.365C130.118 118.951 128.819 111.325 125.566 104.724L114.802 110.028ZM117.782 126.794C117.35 134.859 115.282 141.671 111.733 147.404L121.936 153.72C126.681 146.055 129.239 137.236 129.764 127.436L117.782 126.794ZM111.75 147.377C108.071 153.249 103.309 158.085 97.4125 161.922L103.957 171.98C111.299 167.204 117.304 161.114 121.919 153.748L111.75 147.377ZM97.3846 161.94C91.4222 165.867 84.7748 168.798 77.4023 170.715L80.4219 182.328C88.9999 180.098 96.8675 176.649 103.985 171.962L97.3846 161.94ZM77.388 170.718C70.0023 172.658 62.5593 173.587 55.0457 173.512L54.9269 185.512C63.5233 185.597 72.0309 184.532 80.4362 182.325L77.388 170.718ZM55.11 173.513C47.9413 173.366 41.3963 172.223 35.4322 170.139L31.4741 181.468C38.7489 184.01 46.5594 185.34 54.8626 185.511L55.11 173.513ZM35.4927 170.161C29.5118 167.999 24.3313 165.004 19.8921 161.199L12.0826 170.31C17.6921 175.119 24.1556 178.823 31.4136 181.446L35.4927 170.161ZM19.969 161.266C15.6804 157.462 12.3121 152.858 9.85745 147.388L-1.09085 152.301C2.03718 159.272 6.4049 165.275 12.0056 170.243L19.969 161.266ZM9.89456 147.472C7.55358 142.033 6.31592 135.722 6.31592 128.431H-5.68408C-5.68408 137.09 -4.21015 145.055 -1.12795 152.216L9.89456 147.472ZM0.315918 134.431H39.4346V122.431H0.315918V134.431ZM33.4359 128.558C33.5325 133.097 34.5075 137.36 36.4897 141.22L47.1646 135.739C46.1162 133.697 45.4961 131.261 45.4332 128.303L33.4359 128.558ZM36.4897 141.22C38.4938 145.123 41.3851 148.286 45.0941 150.617L51.4801 140.458C49.6064 139.28 48.1911 137.738 47.1646 135.739L36.4897 141.22ZM45.2001 150.683C49.0342 152.983 53.4037 154.07 58.0913 154.168L58.3413 142.171C55.3727 142.109 53.1227 141.442 51.3741 140.393L45.2001 150.683ZM58.1072 154.168C63.3545 154.264 68.3576 153.257 73.038 151.112L68.0382 140.203C65.0623 141.567 61.8509 142.235 58.3254 142.17L58.1072 154.168ZM73.1308 151.068C77.7743 148.843 81.7025 145.71 84.8383 141.693L75.3785 134.309C73.4101 136.831 70.9581 138.803 67.9454 140.246L73.1308 151.068ZM84.881 141.637C88.0977 137.415 90.0611 132.531 90.8333 127.126L78.9539 125.429C78.45 128.956 77.2232 131.887 75.3358 134.365L84.881 141.637ZM90.8391 127.084C91.5648 121.732 91.3156 116.682 89.7066 112.177L78.4057 116.213C79.1893 118.407 79.4984 121.412 78.948 125.471L90.8391 127.084ZM89.7614 112.337C88.2251 107.619 85.3234 103.815 81.1227 101.204L74.7875 111.395C76.4885 112.452 77.6541 113.912 78.3509 116.052L89.7614 112.337ZM81.2202 101.266C77.0809 98.5806 72.047 97.3755 66.551 97.1923L66.1512 109.186C70.2255 109.321 72.9276 110.19 74.6899 111.333L81.2202 101.266ZM66.3852 97.1891L45.3305 97.0694L45.2623 109.069L66.317 109.189L66.3852 97.1891Z" fill="#1C1C1C" mask="url(#path-1-outside-1_3599_1973)"/>
</svg>
