<svg width="135" height="178" viewBox="0 0 135 178" fill="none" xmlns="http://www.w3.org/2000/svg">
<mask id="path-1-outside-1_3599_1972" maskUnits="userSpaceOnUse" x="-7" y="-5" width="147" height="189" fill="black">
<rect fill="white" x="-7" y="-5" width="147" height="189"/>
<path d="M123.141 146.896L118.236 178H0.162598L4.46924 150.246L66.437 92.7046C69.7866 89.4347 73.3755 85.7661 77.2036 81.6987C81.0317 77.6313 84.4212 73.2848 87.3721 68.6592C90.4027 63.9538 92.2769 59.1686 92.9946 54.3037C93.4731 50.6351 93.3934 47.126 92.7554 43.7764C92.1971 40.4268 90.8014 37.6753 88.5684 35.522C86.415 33.2889 83.1851 32.1325 78.8784 32.0527C73.9338 31.8932 69.7866 33.249 66.437 36.1201C63.1672 38.9912 60.6151 42.5801 58.7808 46.8867C57.0262 51.1934 55.8698 55.4601 55.3115 59.687L16.1929 59.9263C16.7511 48.3621 20.1406 38.1538 26.3613 29.3013C32.6618 20.4487 40.6769 13.5103 50.4067 8.48584C60.2163 3.46143 70.7835 1.02897 82.1084 1.18848C92.3965 1.34798 101.568 3.30192 109.623 7.05029C117.758 10.7987 124.018 16.3415 128.405 23.6787C132.791 31.016 134.546 40.1476 133.668 51.0737C133.03 58.6502 131.037 65.6685 127.687 72.1284C124.417 78.5884 120.31 84.6496 115.365 90.312C110.5 95.8947 105.277 101.238 99.6938 106.342C94.1909 111.367 88.8874 116.271 83.7832 121.057L57.3452 146.657L123.141 146.896Z"/>
</mask>
<path d="M123.141 146.896L129.068 147.831L130.157 140.922L123.163 140.897L123.141 146.896ZM118.236 178V184H123.364L124.163 178.935L118.236 178ZM0.162598 178L-5.76645 177.08L-6.84024 184H0.162598V178ZM4.46924 150.246L0.386532 145.849L-1.14031 147.267L-1.45981 149.326L4.46924 150.246ZM66.437 92.7046L70.5197 97.1013L70.5746 97.0504L70.6282 96.998L66.437 92.7046ZM87.3721 68.6592L82.3278 65.4103L82.3207 65.4213L82.3137 65.4323L87.3721 68.6592ZM92.9946 54.3037L98.9304 55.1795L98.9377 55.1297L98.9442 55.0797L92.9946 54.3037ZM92.7554 43.7764L86.837 44.7628L86.8484 44.831L86.8613 44.899L92.7554 43.7764ZM88.5684 35.522L84.2493 39.6868L84.325 39.7653L84.4035 39.841L88.5684 35.522ZM78.8784 32.0527L78.685 38.0496L78.7261 38.0509L78.7673 38.0517L78.8784 32.0527ZM66.437 36.1201L62.5323 31.5646L62.5051 31.5879L62.4782 31.6115L66.437 36.1201ZM58.7808 46.8867L53.2606 44.5355L53.2421 44.5791L53.2242 44.6229L58.7808 46.8867ZM55.3115 59.687L55.3482 65.6869L60.5754 65.6549L61.2599 60.4726L55.3115 59.687ZM16.1929 59.9263L10.1999 59.6369L9.89436 65.9649L16.2296 65.9262L16.1929 59.9263ZM26.3613 29.3013L21.473 25.8222L21.4625 25.8369L21.4522 25.8516L26.3613 29.3013ZM50.4067 8.48584L47.6715 3.14558L47.6626 3.15012L47.6538 3.15469L50.4067 8.48584ZM82.1084 1.18848L82.2014 -4.81081L82.1929 -4.81093L82.1084 1.18848ZM109.623 7.05029L107.092 12.4901L107.102 12.4949L107.112 12.4996L109.623 7.05029ZM128.405 23.6787L123.255 26.7574L128.405 23.6787ZM133.668 51.0737L139.647 51.5772L139.648 51.5656L139.649 51.5539L133.668 51.0737ZM127.687 72.1284L122.36 69.3665L122.347 69.3926L122.334 69.4187L127.687 72.1284ZM115.365 90.312L110.846 86.3655L110.842 86.3701L115.365 90.312ZM99.6938 106.342L103.739 110.773L103.742 110.77L99.6938 106.342ZM83.7832 121.057L79.6796 116.679L79.6442 116.713L79.6094 116.746L83.7832 121.057ZM57.3452 146.657L53.1714 142.347L42.5792 152.604L57.3234 152.657L57.3452 146.657ZM117.214 145.962L112.31 177.065L124.163 178.935L129.068 147.831L117.214 145.962ZM118.236 172H0.162598V184H118.236V172ZM6.09164 178.92L10.3983 151.166L-1.45981 149.326L-5.76645 177.08L6.09164 178.92ZM8.55194 154.643L70.5197 97.1013L62.3543 88.3078L0.386532 145.849L8.55194 154.643ZM70.6282 96.998C74.0487 93.6591 77.6973 89.9286 81.5728 85.8109L72.8344 77.5865C69.0536 81.6036 65.5246 85.2104 62.2458 88.4111L70.6282 96.998ZM81.5728 85.8109C85.6532 81.4755 89.2744 76.8334 92.4304 71.8861L82.3137 65.4323C79.568 69.7363 76.4103 73.7872 72.8344 77.5865L81.5728 85.8109ZM92.4164 71.908C95.8459 66.5833 98.0717 60.9993 98.9304 55.1795L87.0589 53.4279C86.482 57.338 84.9595 61.3242 82.3278 65.4103L92.4164 71.908ZM98.9442 55.0797C99.4982 50.8329 99.4164 46.6802 98.6494 42.6537L86.8613 44.899C87.3704 47.5718 87.4481 50.4373 87.045 53.5277L98.9442 55.0797ZM98.6737 42.79C97.9249 38.297 95.9818 34.3355 92.7332 31.2029L84.4035 39.841C85.6211 41.0151 86.4693 42.5565 86.837 44.7628L98.6737 42.79ZM92.8874 31.3572C89.259 27.5943 84.2576 26.1513 78.9895 26.0538L78.7673 38.0517C82.1126 38.1137 83.5711 38.9835 84.2493 39.6868L92.8874 31.3572ZM79.0719 26.0559C72.8251 25.8543 67.1606 27.5975 62.5323 31.5646L70.3418 40.6757C72.4127 38.9006 75.0424 37.9321 78.685 38.0496L79.0719 26.0559ZM62.4782 31.6115C58.4826 35.1198 55.42 39.4657 53.2606 44.5355L64.3009 49.2379C65.8101 45.6945 67.8517 42.8626 70.3958 40.6288L62.4782 31.6115ZM53.2242 44.6229C51.2939 49.361 49.9942 54.1235 49.3632 58.9014L61.2599 60.4726C61.7454 56.7968 62.7585 53.0257 64.3373 49.1505L53.2242 44.6229ZM55.2748 53.6871L16.1562 53.9264L16.2296 65.9262L55.3482 65.6869L55.2748 53.6871ZM22.1859 60.2156C22.6934 49.7033 25.7492 40.6082 31.2705 32.7509L21.4522 25.8516C14.5321 35.6994 10.8089 47.021 10.1999 59.6369L22.1859 60.2156ZM31.2497 32.7804C36.9915 24.7127 44.2721 18.4065 53.1597 13.817L47.6538 3.15469C37.0817 8.61402 28.3321 16.1847 21.473 25.8222L31.2497 32.7804ZM53.142 13.8261C62.0549 9.26097 71.6505 7.04178 82.0239 7.18788L82.1929 -4.81093C69.9165 -4.98384 58.3778 -2.33812 47.6715 3.14558L53.142 13.8261ZM82.0154 7.18776C91.5928 7.33624 99.9127 9.14943 107.092 12.4901L112.154 1.61045C103.223 -2.54559 93.2002 -4.64028 82.2014 -4.8108L82.0154 7.18776ZM107.112 12.4996C114.204 15.7674 119.52 20.5096 123.255 26.7574L133.555 20.6C128.517 12.1733 121.312 5.82991 112.134 1.60098L107.112 12.4996ZM123.255 26.7574C126.841 32.7564 128.493 40.56 127.688 50.5935L139.649 51.5539C140.598 39.7352 138.741 29.2755 133.555 20.6L123.255 26.7574ZM127.69 50.5703C127.115 57.3943 125.33 63.6404 122.36 69.3665L133.014 74.8903C136.744 67.6965 138.946 59.9061 139.647 51.5772L127.69 50.5703ZM122.334 69.4187C119.298 75.4166 115.475 81.0646 110.846 86.3655L119.885 94.2585C125.145 88.2345 129.537 81.7602 133.04 74.8381L122.334 69.4187ZM110.842 86.3701C106.129 91.7783 101.064 96.9597 95.6452 101.914L103.742 110.77C109.489 105.517 114.872 100.011 119.889 94.2539L110.842 86.3701ZM95.6482 101.911C90.1271 106.952 84.8041 111.875 79.6796 116.679L87.8868 125.434C92.9706 120.668 98.2548 115.781 103.739 110.773L95.6482 101.911ZM79.6094 116.746L53.1714 142.347L61.519 150.968L87.957 125.367L79.6094 116.746ZM57.3234 152.657L123.119 152.896L123.163 140.897L57.367 140.657L57.3234 152.657Z" fill="#1C1C1C" mask="url(#path-1-outside-1_3599_1972)"/>
</svg>
