<svg width="1920" height="799" viewBox="0 0 1920 799" fill="none" xmlns="http://www.w3.org/2000/svg">
<g opacity="0.34">
<path d="M2059.43 1.66077C2059.43 84.2256 1953.06 163.695 1761.93 223.93C1570.8 284.165 1309.23 320.649 1030.35 325.973C751.473 331.296 476.191 305.06 260.412 252.593C44.6331 200.126 -95.4639 125.361 -131.427 43.4824L-128.166 43.3574C-92.3107 124.991 47.3675 199.532 262.501 251.843C477.635 304.153 752.095 330.311 1030.14 325.003C1308.19 319.696 1568.97 283.321 1759.53 223.266C1950.09 163.211 2056.14 83.9789 2056.14 1.66077H2059.43Z" fill="url(#paint0_linear_18_1258)"/>
<path d="M2059.43 797.339C2059.43 714.775 1953.06 635.305 1761.93 575.07C1570.8 514.835 1309.23 478.351 1030.35 473.027C751.473 467.704 476.191 493.94 260.412 546.407C44.6331 598.875 -95.4639 673.639 -131.427 755.518L-128.166 755.643C-92.3107 674.009 47.3675 599.468 262.501 547.157C477.635 494.847 752.095 468.689 1030.14 473.997C1308.19 479.305 1568.97 515.68 1759.53 575.734C1950.09 635.789 2056.14 715.021 2056.14 797.339H2059.43Z" fill="url(#paint1_linear_18_1258)"/>
<path d="M2059.43 181.98C2059.43 228.185 1953.06 272.658 1761.93 306.366C1570.8 340.075 1309.23 360.492 1030.35 363.471C751.473 366.45 476.191 351.768 260.412 322.406C44.6331 293.045 -95.4639 251.205 -131.427 205.384L-128.166 205.314C-92.3107 250.998 47.3675 292.713 262.501 321.987C477.635 351.261 752.095 365.899 1030.14 362.929C1308.19 359.958 1568.97 339.602 1759.53 305.994C1950.09 272.387 2056.14 228.047 2056.14 181.98H2059.43Z" fill="url(#paint2_linear_18_1258)"/>
<path d="M2059.43 617.02C2059.43 570.815 1953.06 526.343 1761.93 492.634C1570.8 458.925 1309.23 438.508 1030.35 435.529C751.473 432.55 476.191 447.232 260.412 476.594C44.6331 505.956 -95.4639 547.795 -131.427 593.616L-128.166 593.686C-92.3107 548.002 47.3675 506.288 262.501 477.014C477.635 447.74 752.095 433.101 1030.14 436.072C1308.19 439.042 1568.97 459.398 1759.53 493.006C1950.09 526.614 2056.14 570.953 2056.14 617.02H2059.43Z" fill="url(#paint3_linear_18_1258)"/>
<path d="M2059.43 361.266C2059.43 370.848 1953.06 380.071 1761.93 387.062C1570.8 394.053 1309.23 398.287 1030.35 398.905C751.473 399.523 476.191 396.478 260.412 390.389C44.6331 384.299 -95.4639 375.622 -131.427 366.12L-121.807 366.077C-86.1611 375.496 52.7003 384.096 266.576 390.132C480.453 396.167 753.307 399.185 1029.73 398.573C1306.15 397.961 1565.41 393.764 1754.85 386.835C1944.3 379.906 2049.73 370.764 2049.73 361.266H2059.43Z" fill="url(#paint4_linear_18_1258)"/>
</g>
<defs>
<linearGradient id="paint0_linear_18_1258" x1="-216.216" y1="-286.186" x2="97.5539" y2="813.412" gradientUnits="userSpaceOnUse">
<stop/>
<stop offset="1" stop-color="#7A7A7A"/>
</linearGradient>
<linearGradient id="paint1_linear_18_1258" x1="-216.216" y1="1085.19" x2="97.5539" y2="-14.4119" gradientUnits="userSpaceOnUse">
<stop/>
<stop offset="1" stop-color="#7A7A7A"/>
</linearGradient>
<linearGradient id="paint2_linear_18_1258" x1="-216.216" y1="20.8959" x2="-112.593" y2="669.809" gradientUnits="userSpaceOnUse">
<stop/>
<stop offset="1" stop-color="#7A7A7A"/>
</linearGradient>
<linearGradient id="paint3_linear_18_1258" x1="-216.216" y1="778.104" x2="-112.593" y2="129.191" gradientUnits="userSpaceOnUse">
<stop/>
<stop offset="1" stop-color="#7A7A7A"/>
</linearGradient>
<linearGradient id="paint4_linear_18_1258" x1="-216.216" y1="327.86" x2="-211.651" y2="465.716" gradientUnits="userSpaceOnUse">
<stop/>
<stop offset="1" stop-color="#7A7A7A"/>
</linearGradient>
</defs>
</svg>
