<svg width="81" height="80" viewBox="0 0 81 80" fill="none" xmlns="http://www.w3.org/2000/svg">
<path d="M57.0625 0H23.9375C10.9933 0 0.5 10.4933 0.5 23.4375V56.5625C0.5 69.5067 10.9933 80 23.9375 80H57.0625C70.0067 80 80.5 69.5067 80.5 56.5625V23.4375C80.5 10.4933 70.0067 0 57.0625 0Z" fill="url(#paint0_linear_3539_1305)"/>
<g clip-path="url(#clip0_3539_1305)">
<path d="M57.4453 34.6498H54.952C53.6299 33.397 51.8456 32.6274 49.8847 32.6274C47.5774 32.6274 45.5145 33.6932 44.1616 35.3581C43.1304 34.5413 41.8514 34.0897 40.4999 34.0897C39.1485 34.0897 37.8695 34.5413 36.8383 35.3581C35.4854 33.6932 33.4226 32.6274 31.1151 32.6274C29.1543 32.6274 27.37 33.3971 26.0479 34.6498H23.5547C22.9722 34.6498 22.5 35.1221 22.5 35.7045C22.5 36.287 22.9722 36.7592 23.5547 36.7592H24.4943C24.0134 37.7379 23.7427 38.8378 23.7427 39.9999C23.7427 44.0651 27.05 47.3724 31.1152 47.3724C35.1804 47.3724 38.4877 44.0651 38.4877 39.9999C38.4877 39.0077 38.2901 38.0609 37.9332 37.1961C38.6289 36.5568 39.5357 36.199 40.5001 36.199C41.4645 36.199 42.3712 36.5568 43.0669 37.1961C42.7099 38.0609 42.5125 39.0077 42.5125 39.9999C42.5125 44.0651 45.8198 47.3724 49.885 47.3724C53.9501 47.3724 57.2574 44.0651 57.2574 39.9999C57.2574 38.8378 56.9868 37.7379 56.5058 36.7592H57.4453C58.0278 36.7592 58.5 36.287 58.5 35.7045C58.5 35.1221 58.0278 34.6498 57.4453 34.6498Z" fill="white"/>
</g>
<defs>
<linearGradient id="paint0_linear_3539_1305" x1="1.50781" y1="1.00781" x2="80.9141" y2="80.4141" gradientUnits="userSpaceOnUse">
<stop stop-color="#D20AEF"/>
<stop offset="0.37" stop-color="#890FD1"/>
<stop offset="0.8" stop-color="#3715B0"/>
<stop offset="1" stop-color="#1717A3"/>
</linearGradient>
<clipPath id="clip0_3539_1305">
<rect width="36" height="36" fill="white" transform="translate(22.5 22)"/>
</clipPath>
</defs>
</svg>
