<svg width="81" height="80" viewBox="0 0 81 80" fill="none" xmlns="http://www.w3.org/2000/svg">
<path d="M57.0625 0H23.9375C10.9933 0 0.5 10.4933 0.5 23.4375V56.5625C0.5 69.5067 10.9933 80 23.9375 80H57.0625C70.0067 80 80.5 69.5067 80.5 56.5625V23.4375C80.5 10.4933 70.0067 0 57.0625 0Z" fill="url(#paint0_linear_3539_1409)"/>
<g clip-path="url(#clip0_3539_1409)">
<path d="M23.5786 37.8169C22.9905 37.8169 22.5137 38.2938 22.5137 38.8818V54.5235C22.5137 55.1116 22.9905 55.5884 23.5786 55.5884H29.9949V37.8169H23.5786Z" fill="white"/>
<path d="M58.4865 43.6976C58.4865 42.3457 57.7601 41.1602 56.6772 40.5109C57.0921 39.9118 57.3355 39.185 57.3355 38.4026C57.3355 36.3556 55.67 34.6902 53.623 34.6902H45.7861C46.0263 33.6017 46.3548 31.9684 46.5835 30.2586C47.1788 25.8092 46.772 23.3416 45.3033 22.493C44.3877 21.964 43.4005 21.8567 42.5236 22.1906C41.8461 22.4486 40.9312 23.083 40.4099 24.6401L38.3501 30.0332C37.3059 32.612 34.1082 35.3194 32.125 36.8164V56.0594C35.8005 57.3473 39.6359 58.0001 43.5488 58.0001H52.088C54.135 58.0001 55.8005 56.3347 55.8005 54.2876C55.8005 53.5708 55.5962 52.9007 55.2429 52.3327C56.4805 51.7299 57.3353 50.4591 57.3353 48.9926C57.3353 48.2102 57.092 47.4835 56.677 46.8843C57.7601 46.235 58.4865 45.0495 58.4865 43.6976Z" fill="white"/>
</g>
<defs>
<linearGradient id="paint0_linear_3539_1409" x1="75.4738" y1="31.619" x2="1.98753" y2="37.6651" gradientUnits="userSpaceOnUse">
<stop stop-color="#E54D60"/>
<stop offset="1" stop-color="#A342FF"/>
</linearGradient>
<clipPath id="clip0_3539_1409">
<rect width="36" height="36" fill="white" transform="translate(22.5 22)"/>
</clipPath>
</defs>
</svg>
