<svg width="110" height="108" viewBox="0 0 110 108" fill="none" xmlns="http://www.w3.org/2000/svg">
<path d="M80.076 45.7258C84.3279 45.7258 87.7984 42.2601 87.7984 38.0141V7.69355C87.7984 3.44758 84.3279 0 80.076 0H28.945C24.6932 0 21.2227 3.44758 21.2227 7.69355V38.0141C21.2227 42.2601 24.6932 45.7258 28.945 45.7258H45.807L51.894 51.9859C52.5845 52.6936 53.5293 53.0928 54.5105 53.0928C55.4917 53.0928 56.4366 52.6936 57.127 51.9859L63.2141 45.7258H80.076ZM54.5105 28.3065C51.4943 28.3065 49.0595 25.8569 49.0595 22.8629C49.0595 19.8508 51.4943 17.4194 54.5105 17.4194C57.5268 17.4194 59.9616 19.8508 59.9616 22.8629C59.9616 25.8569 57.5268 28.3065 54.5105 28.3065ZM39.3747 28.3065C36.3585 28.3065 33.9236 25.8569 33.9236 22.8629C33.9236 19.8508 36.3585 17.4194 39.3747 17.4194C42.391 17.4194 44.8258 19.8508 44.8258 22.8629C44.8258 25.8569 42.391 28.3065 39.3747 28.3065ZM69.6463 17.4194C72.6626 17.4194 75.0974 19.8508 75.0974 22.8629C75.0974 25.8569 72.6626 28.3065 69.6463 28.3065C66.6301 28.3065 64.1953 25.8569 64.1953 22.8629C64.1953 19.8508 66.6301 17.4194 69.6463 17.4194Z" fill="white"/>
<path d="M68.5391 64.125C68.5391 72.6713 75.5164 79.6209 84.0746 79.6209C92.6328 79.6209 99.6102 72.6713 99.6102 64.125C99.6102 55.5786 92.6328 48.6108 84.0746 48.6108C75.5164 48.6108 68.5391 55.5786 68.5391 64.125Z" fill="white"/>
<path d="M28.0003 81.2177C25.9653 81.127 23.912 81.127 21.877 81.2177C9.61205 81.7621 0 91.9415 0 104.371C0 106.385 1.63532 108 3.63405 108H46.2614C48.2601 108 49.8955 106.385 49.8955 104.371C49.8955 98.1653 47.497 92.504 43.5541 88.3306C39.6111 84.1754 34.1419 81.4899 28.0003 81.2177Z" fill="white"/>
<path d="M102.679 88.3306C98.7361 84.1754 93.285 81.4899 87.1435 81.2177C85.1084 81.127 83.0552 81.127 81.0201 81.2177C68.7371 81.7621 59.125 91.9415 59.125 104.371C59.125 106.385 60.7603 108 62.759 108H105.386C107.385 108 109.02 106.385 109.02 104.371C109.02 98.1653 106.622 92.504 102.679 88.3306Z" fill="white"/>
<path d="M24.9457 79.6209C33.5039 79.6209 40.4813 72.6713 40.4813 64.125C40.4813 55.5786 33.5039 48.6108 24.9457 48.6108C16.3875 48.6108 9.41016 55.5786 9.41016 64.125C9.41016 72.6713 16.3875 79.6209 24.9457 79.6209Z" fill="white"/>
</svg>
