<svg  width="110" height="108" viewBox="0 0 110 108" fill="none" xmlns="http://www.w3.org/2000/svg">
<path d="M124.307 105.73H1.30822C0.585709 105.73 0 106.316 0 107.039V114.692C0 115.414 0.585709 116 1.30822 116H124.307C125.029 116 125.615 115.414 125.615 114.692V107.039C125.615 106.316 125.029 105.73 124.307 105.73Z" fill="white"/>
<path d="M22.7754 60.9106H5.88634C5.16383 60.9106 4.57812 61.4964 4.57812 62.2189V100.497C4.57812 101.22 5.16383 101.806 5.88634 101.806H22.7754C23.4979 101.806 24.0836 101.22 24.0836 100.497V62.2189C24.0836 61.4964 23.4979 60.9106 22.7754 60.9106Z" fill="white"/>
<path d="M55.1049 36.5122H38.2027C37.4802 36.5122 36.8945 37.0979 36.8945 37.8204V100.497C36.8945 101.22 37.4802 101.805 38.2027 101.805H55.1049C55.8274 101.805 56.4131 101.22 56.4131 100.497V37.8204C56.4131 37.0979 55.8274 36.5122 55.1049 36.5122Z" fill="white"/>
<path d="M87.4096 48.718H70.5074C69.7849 48.718 69.1992 49.3037 69.1992 50.0262V100.497C69.1992 101.22 69.7849 101.805 70.5074 101.805H87.4096C88.1321 101.805 88.7178 101.22 88.7178 100.497V50.0262C88.7178 49.3037 88.1321 48.718 87.4096 48.718Z" fill="white"/>
<path d="M119.729 24.3198H102.839C102.117 24.3198 101.531 24.9055 101.531 25.628V100.497C101.531 101.22 102.117 101.806 102.839 101.806H119.729C120.451 101.806 121.037 101.22 121.037 100.497V25.628C121.037 24.9055 120.451 24.3198 119.729 24.3198Z" fill="white"/>
<path d="M13.5148 53.3751C18.1677 53.3751 21.9397 49.6031 21.9397 44.9502C21.9397 40.2972 18.1677 36.5253 13.5148 36.5253C8.86181 36.5253 5.08984 40.2972 5.08984 44.9502C5.08984 49.6031 8.86181 53.3751 13.5148 53.3751Z" fill="white"/>
<path d="M46.6515 28.0874C51.3044 28.0874 55.0764 24.3154 55.0764 19.6625C55.0764 15.0095 51.3044 11.2375 46.6515 11.2375C41.9985 11.2375 38.2266 15.0095 38.2266 19.6625C38.2266 24.3154 41.9985 28.0874 46.6515 28.0874Z" fill="white"/>
<path d="M78.964 39.2986C83.6169 39.2986 87.3889 35.5266 87.3889 30.8736C87.3889 26.2207 83.6169 22.4487 78.964 22.4487C74.311 22.4487 70.5391 26.2207 70.5391 30.8736C70.5391 35.5266 74.311 39.2986 78.964 39.2986Z" fill="white"/>
<path d="M111.292 16.8498C115.945 16.8498 119.717 13.0779 119.717 8.42492C119.717 3.77197 115.945 0 111.292 0C106.639 0 102.867 3.77197 102.867 8.42492C102.867 13.0779 106.639 16.8498 111.292 16.8498Z" fill="white"/>
<path d="M37.7535 28.2054L24.0696 38.5142C23.3626 37.3863 22.4792 36.3793 21.4531 35.5314L35.4511 24.9872C36.0396 26.1773 36.8172 27.2641 37.7535 28.2054Z" fill="white"/>
<path d="M68.0407 25.1833C67.3963 26.3754 66.9542 27.6663 66.7325 29.0033L58.2422 23.8751C58.7138 22.5472 58.9613 21.1502 58.9748 19.7411L68.0407 25.1833Z" fill="white"/>
<path d="M102.616 17.203L90.4756 26.3606C89.9959 25.1236 89.3152 23.9743 88.4609 22.9592L100.235 14.011C100.842 15.2025 101.647 16.2819 102.616 17.203Z" fill="white"/>
</svg>
 