<svg width="137" height="137" viewBox="0 0 137 137" fill="none" xmlns="http://www.w3.org/2000/svg">
<path d="M106.805 7.99182C98.8171 4.3255 90.2481 1.6249 81.2917 0.078035C81.1293 0.0495476 80.9669 0.123614 80.8815 0.271749C79.779 2.23168 78.5598 4.787 77.7051 6.7982C68.0707 5.35674 58.4847 5.35674 49.0497 6.7982C48.1951 4.74427 46.9302 2.23168 45.8221 0.271749C45.7366 0.126463 45.5742 0.0523964 45.4119 0.078035C36.4583 1.6192 27.8921 4.3198 19.8986 7.99182C19.8302 8.02031 19.7704 8.07159 19.7305 8.13711C3.48131 32.414 -0.971265 56.0956 1.21372 79.4809C1.22226 79.5948 1.28778 79.7059 1.37609 79.7743C12.0959 87.6482 22.4824 92.4284 32.6752 95.5962C32.8375 95.6446 33.0113 95.5876 33.1139 95.4509C35.5239 92.1577 37.6747 88.688 39.5178 85.0359C39.6261 84.8223 39.5235 84.5687 39.3013 84.4833C35.8914 83.1899 32.6467 81.6146 29.5245 79.8227C29.2766 79.6774 29.2567 79.3242 29.4846 79.1561C30.1426 78.6633 30.7978 78.1505 31.4274 77.6349C31.5414 77.5409 31.698 77.5209 31.8319 77.5808C52.3457 86.9474 74.5544 86.9474 94.826 77.5808C94.9599 77.5152 95.1166 77.5352 95.2363 77.6292C95.863 78.1477 96.521 78.6633 97.1819 79.1561C97.4098 79.3242 97.3956 79.6774 97.1478 79.8227C94.0256 81.6488 90.778 83.1899 87.3652 84.4776C87.143 84.563 87.0433 84.8194 87.1515 85.0359C89.0346 88.6823 91.1825 92.152 93.5498 95.4452C93.6495 95.5848 93.8261 95.6446 93.9885 95.5933C104.23 92.4255 114.616 87.6453 125.336 79.7714C125.43 79.7031 125.49 79.5977 125.498 79.4837C128.111 52.4464 121.12 28.9614 106.967 8.13996C106.933 8.07159 106.873 8.02031 106.805 7.99182ZM42.5802 65.24C36.4042 65.24 31.3163 59.571 31.3163 52.6059C31.3163 45.6407 36.3073 39.9717 42.5802 39.9717C48.9044 39.9717 53.9438 45.692 53.8441 52.6059C53.847 59.5682 48.856 65.24 42.5802 65.24ZM84.2316 65.24C78.0555 65.24 72.9677 59.571 72.9677 52.6059C72.9677 45.6407 77.9587 39.9717 84.2316 39.9717C90.5558 39.9717 95.5952 45.692 95.4955 52.6059C95.4955 59.5682 90.5558 65.24 84.2316 65.24Z" fill="#536DFE"/>
</svg>
