<svg width="110" height="108" viewBox="0 0 110 108" fill="none" xmlns="http://www.w3.org/2000/svg">
<path d="M59.7498 15.7509H73.0158C72.7814 15.2196 72.4533 14.7353 72.047 14.329L59.125 1.40698C58.7188 1.00073 58.2344 0.672602 57.7031 0.438232V13.7042C57.7031 14.8292 58.6248 15.7509 59.7498 15.7509Z" fill="white"/>
<path d="M22.6716 42.485C22.5309 37.9069 24.1872 33.3131 27.6716 29.829C32.1716 25.329 38.5626 23.8446 44.3126 25.3759L45.2813 24.704C51.7657 20.9384 56.6403 20.2665 59.1253 22.7509C60.6565 24.2821 61.7815 27.5165 58.4691 34.2349C57.9222 35.3599 57.266 36.5161 56.5316 37.688C56.5316 37.7036 56.5159 37.7036 56.5159 37.7192C55.9691 38.5942 55.3753 39.4692 54.7347 40.3755C54.6254 40.5317 54.516 40.688 54.391 40.8442C53.7816 41.7036 53.1254 42.563 52.4222 43.438C52.4222 43.4536 52.3753 43.4849 52.3597 43.5161C51.6566 44.3911 50.9066 45.2505 50.1409 46.1255C49.9534 46.3286 49.7503 46.5318 49.5628 46.7505C48.8128 47.5786 48.0316 48.4067 47.2034 49.2193C47.1877 49.2506 47.1565 49.2818 47.1409 49.2975C47.1096 49.3287 47.094 49.3443 47.0627 49.36C46.2346 50.2037 45.3752 51.0161 44.4846 51.813C44.2971 52.0005 44.094 52.1568 43.9065 52.3443C43.344 52.8443 42.7503 53.3287 42.1721 53.8131L43.219 54.9693C43.594 55.3755 44.0471 55.7037 44.5315 55.938C46.1565 54.563 47.7815 53.0787 49.344 51.5162C52.2815 48.5787 54.9065 45.5006 57.0784 42.4537C56.969 46.7349 55.3128 50.9692 52.0472 54.2197C51.2503 55.0322 50.3753 55.7352 49.4691 56.3447H71.5471C72.2034 56.329 72.8283 56.3915 73.4533 56.5009V18.8129C73.3127 18.8442 73.1721 18.8754 73.0158 18.8754H59.7498C56.906 18.8754 54.5779 16.5629 54.5779 13.7035V0.4375C54.5779 0.28125 54.6092 0.14062 54.6404 0H10.4844C8.15633 0 6.26562 1.8906 6.26562 4.2188V42.6718C6.89062 42.5624 7.53122 42.4999 8.18752 42.4999H22.6715L22.6716 42.485Z" fill="white"/>
<path d="M47.2496 33.4389C47.7184 32.7201 47.5152 31.7514 46.7965 31.2827C41.7653 28.0483 35.0625 28.7515 30.8125 32.9858C30.2031 33.5952 30.2031 34.5796 30.8125 35.1889C31.125 35.5014 31.5156 35.6576 31.9219 35.6576C32.3282 35.6576 32.7188 35.5014 33.0313 35.2045C36.2188 32.0014 41.2969 31.4545 45.0933 33.9076C45.8277 34.3764 46.7809 34.1732 47.2496 33.4389Z" fill="white"/>
<path d="M55.0781 34.0009C57.5312 29.4697 58.0781 26.1259 56.9219 24.9697C55.9063 23.9541 52.7657 24.1728 47.9375 26.7822C49.4063 27.5791 50.7969 28.5791 52.0469 29.8291C53.2969 31.0791 54.2969 32.5009 55.0781 34.0009Z" fill="white"/>
<path d="M71.5467 59.4541H46.3277C44.2496 59.4697 42.2808 58.5947 40.8902 57.0635L32.6714 48.0166C31.2808 46.4854 29.312 45.6104 27.2339 45.6104H8.1719C3.6719 45.6104 0 49.2979 0 53.7979V79.2979C0 83.7979 3.6719 87.4697 8.1562 87.4697H71.5472C76.0472 87.4697 79.7191 83.8136 79.7191 79.3136V67.6105C79.7191 63.1105 76.0472 59.4387 71.5472 59.4387L71.5467 59.4541ZM31.9217 76.3601C31.9217 77.7507 30.7967 78.8601 29.4217 78.8601H10.8747C9.4841 78.8601 8.3747 77.7351 8.3747 76.3601V71.907C8.3747 70.5164 9.4997 69.407 10.8747 69.407H29.4217C30.8123 69.407 31.9217 70.532 31.9217 71.907V76.3601Z" fill="white"/>
</svg>
