<svg width="295" height="387" viewBox="0 0 295 387" fill="none" xmlns="http://www.w3.org/2000/svg">
<path fill-rule="evenodd" clip-rule="evenodd" d="M74.6288 115.877L74.7918 114.785C74.9064 114.039 75.0299 113.231 75.0519 113.067C78.6522 83.6089 109.274 61.3944 146.233 61.3944L147.709 61.4033C180.16 61.4033 203.26 74.9672 218.317 102.863C219.93 105.846 223.65 106.964 226.615 105.331C229.585 103.706 230.683 99.9602 229.07 96.9731C211.91 65.1937 184.536 49.0821 147.762 49.0821L146.286 49.0688C102.395 49.0688 67.3314 75.3534 62.9115 111.505L62.7 112.889C62.5942 113.586 62.4972 114.234 62.484 114.323C62.0918 117.67 64.4494 120.692 67.772 121.136C68.0408 121.167 68.3053 121.185 68.5653 121.185C71.5662 121.185 74.1882 118.943 74.6288 115.877ZM243.07 266.123C243.07 209.71 205.446 195.791 152.283 182.289L145.947 180.625C131.171 176.67 106.441 170.057 90.4532 154.868C87.9943 152.538 84.1208 152.658 81.8029 155.126C79.4849 157.603 79.5996 161.504 82.0541 163.839C100.298 181.171 126.91 188.286 142.805 192.533L149.291 194.238C204.719 208.321 230.833 220.003 230.833 266.123C230.833 301.906 196.65 326.894 147.709 326.894C111.341 326.894 80.0888 308.661 66.1416 279.31C64.683 276.238 61.0297 274.933 57.9803 276.407C54.9309 277.876 53.6442 281.555 55.1028 284.627C71.1035 318.301 106.586 339.22 147.709 339.22C203.855 339.22 243.07 309.163 243.07 266.123ZM196.275 104.847C198.783 102.57 198.985 98.6731 196.725 96.1431C185.721 83.8442 172.303 77.5726 154.496 76.4097C151.16 76.21 148.212 78.7577 147.991 82.1575C147.771 85.5574 150.331 88.4868 153.702 88.7087C168.121 89.6496 178.904 94.6341 187.634 104.394C188.837 105.748 190.507 106.431 192.182 106.431C193.64 106.431 195.103 105.912 196.275 104.847ZM258.202 310.197C266.227 296.837 270.294 282.07 270.294 266.296C270.294 187.633 205.45 171.153 158.105 159.125L153.275 157.864C126.689 150.727 102.827 142.365 102.823 118.859C102.924 114.43 103.947 110.355 105.863 106.733C107.454 103.733 106.326 100 103.343 98.3934C100.355 96.8 96.6577 97.9274 95.0669 100.937C92.2422 106.263 90.7353 112.201 90.5855 118.717C90.5855 153.794 127.857 163.794 150.124 169.773L155.108 171.073C203.361 183.337 258.057 197.234 258.057 266.296C258.057 279.785 254.585 292.412 247.732 303.819C245.983 306.73 246.908 310.516 249.799 312.278C250.786 312.882 251.879 313.171 252.963 313.171C255.03 313.171 257.052 312.114 258.202 310.197ZM219.124 346.375C222.107 344.772 223.227 341.035 221.631 338.035C220.036 335.035 216.335 333.903 213.351 335.509C194.812 345.5 172.113 350.787 147.709 350.787C100.161 350.787 57.0065 325.199 40.314 287.126C39.4812 285.23 38.9435 283.251 38.7099 281.249C38.3133 277.863 35.2639 275.426 31.9192 275.848C28.5613 276.243 26.1597 279.305 26.5563 282.683C26.9309 285.91 27.7946 289.079 29.121 292.101C47.7348 334.573 95.3931 363.108 147.709 363.108C174.123 363.108 198.818 357.324 219.124 346.375ZM206.768 294.769C214.66 286.944 218.833 277.295 218.833 266.873C218.833 258.307 216.833 250.482 212.88 243.624C210.778 239.971 208.072 236.505 204.842 233.323C202.423 230.948 198.549 230.988 196.187 233.42C193.825 235.857 193.869 239.758 196.284 242.137C198.726 244.539 200.748 247.122 202.295 249.803C205.19 254.831 206.596 260.415 206.596 266.873C206.596 274.019 203.762 280.45 198.183 285.985C187.92 296.162 169.641 302.07 149.384 301.728C137.362 301.555 125.887 298.683 116.193 293.433C109.155 289.62 104.608 284.214 101.598 280.637C101.02 279.953 100.5 279.336 100.033 278.808C97.7904 276.26 93.9257 276.038 91.3918 278.302C88.8712 280.566 88.6465 284.458 90.8939 287.001C91.2993 287.467 91.7576 288.009 92.26 288.608C95.6487 292.634 101.316 299.367 110.393 304.285C121.807 310.472 135.23 313.85 149.199 314.054C149.776 314.063 150.344 314.067 150.917 314.067C173.744 314.067 194.526 306.912 206.768 294.769ZM154.328 215.05C155.157 211.752 153.169 208.396 149.891 207.566C145.449 206.439 140.685 205.329 135.732 204.277C74.0736 191.193 46.5803 165.095 46.5803 119.645C46.5803 69.7609 87.4302 36.2372 148.234 36.2372C184.628 36.2372 230.515 56.7562 245.26 101.802C246.313 105.033 249.781 106.795 252.985 105.73C256.193 104.661 257.938 101.181 256.88 97.9451C240.232 47.0803 188.89 23.916 148.234 23.916C80.1107 23.916 34.3385 62.3886 34.3385 119.645C34.3385 187.509 90.7661 207.336 133.207 216.337C138.001 217.358 142.606 218.427 146.898 219.515C147.401 219.643 147.903 219.705 148.401 219.705C151.138 219.705 153.628 217.846 154.328 215.05ZM294.016 266.296C294.016 228.702 285.356 204.024 265.932 186.279C263.433 183.994 259.56 184.189 257.29 186.701C255.021 189.222 255.21 193.119 257.713 195.409C274.578 210.82 281.778 232.022 281.778 266.296C281.778 329.091 225.395 374.674 147.709 374.674C94.8908 374.674 43.9892 345.563 21.0392 302.239L20.3958 301.04C18.6287 297.8 14.9535 291.054 11.979 281.125C11.0007 277.863 7.58557 276.012 4.35547 277.006C1.11656 277.991 -0.712254 281.427 0.261624 284.685C3.6063 295.852 7.70003 303.366 9.66981 306.97L10.2383 308.035C35.2594 355.265 90.5017 387 147.709 387C232.485 387 294.016 336.242 294.016 266.296ZM133.683 237.592C134.591 234.312 132.691 230.917 129.435 229.998C100.307 221.796 39.6971 204.73 23.5686 149.493C22.6168 146.231 19.2104 144.354 15.9715 145.326C12.7281 146.284 10.8729 149.711 11.8292 152.978C29.8746 214.761 97.3321 233.758 126.139 241.871C126.689 242.027 127.245 242.102 127.791 242.102C130.466 242.102 132.925 240.318 133.683 237.592ZM20.7263 102.512C29.1651 48.3054 79.0355 12.3272 145.25 12.3272C146.207 12.3272 147.176 12.3361 148.141 12.3494C151.622 12.3139 154.302 9.68632 154.355 6.28202C154.407 2.88215 151.711 0.0814706 148.331 0.028209C74.338 -1.22344 18.1836 39.282 8.63431 100.599C8.10992 103.968 10.3926 107.119 13.7284 107.643C14.0545 107.701 14.3718 107.723 14.6891 107.723C17.6504 107.723 20.2504 105.553 20.7263 102.512ZM277.645 104.94C274.415 104.94 271.713 102.392 271.537 99.1036C270.621 91.0567 253.483 42.0605 199.946 21.679C196.787 20.4718 195.191 16.9166 196.385 13.7297C197.58 10.5518 201.109 8.94507 204.273 10.1435C266.403 33.8049 283.352 90.6838 283.761 98.4511C283.942 101.847 281.351 104.749 277.975 104.931C277.865 104.94 277.755 104.94 277.645 104.94Z" fill="url(#paint0_linear_4202_1358)"/>
<defs>
<linearGradient id="paint0_linear_4202_1358" x1="-12.2778" y1="356.878" x2="336.415" y2="132.602" gradientUnits="userSpaceOnUse">
<stop stop-color="white"/>
<stop offset="1" stop-color="#D0D0D0"/>
</linearGradient>
</defs>
</svg>
