<svg width="138" height="137" viewBox="0 0 138 137" fill="none" xmlns="http://www.w3.org/2000/svg">
<path d="M120.09 105.403C120.09 113.271 113.714 119.647 105.846 119.647H31.7788C23.9135 119.647 17.5352 113.271 17.5352 105.403V31.336C17.5352 23.4678 23.9135 17.0923 31.7788 17.0923H105.846C113.714 17.0923 120.09 23.4678 120.09 31.336V105.403Z" fill="#0288D1"/>
<path d="M34.6289 54.126H48.8726V102.554H34.6289V54.126ZM41.708 48.4285H41.6283C37.3779 48.4285 34.6289 45.2607 34.6289 41.3038C34.6289 37.2614 37.4634 34.1848 41.7906 34.1848C46.1236 34.1848 48.7928 37.2614 48.8726 41.3038C48.8726 45.2579 46.1236 48.4285 41.708 48.4285ZM102.999 102.554H88.7549V76.6338C88.7549 70.3723 85.2652 66.0992 79.6617 66.0992C75.3858 66.0992 73.0726 68.9821 71.9502 71.7682C71.54 72.7653 71.6625 75.5228 71.6625 76.9159V102.554H57.4188V54.126H71.6625V61.5783C73.7164 58.3991 76.9327 54.126 85.1598 54.126C95.3526 54.126 102.996 60.5356 102.996 74.8477L102.999 102.554Z" fill="white"/>
</svg>
