<svg width="110" height="108" viewBox="0 0 110 108" fill="none" xmlns="http://www.w3.org/2000/svg">
<path d="M32.5719 49.1596L19.398 55.2524C15.0534 57.2583 12.2461 61.6357 12.2461 66.4209V69.875C12.2461 73.5822 15.1379 76.6193 18.6763 76.6286C27.2672 76.6755 35.9044 76.6989 44.5562 76.6989C53.2079 76.6989 61.8454 76.6755 70.4361 76.6286C73.9886 76.6052 76.8663 73.5822 76.8663 69.875V66.4209C76.8663 61.6357 74.059 57.2443 69.7144 55.2524L56.5309 49.1596C54.9937 48.4519 54.0094 46.9053 54.0094 45.2133V41.5436C54.0094 40.8734 54.3234 40.2735 54.8952 39.8658C57.426 38.0192 59.4178 36.0039 60.2006 34.5136C60.6927 33.5762 61.0395 32.5452 61.1707 31.5281L61.5926 28.6223C61.616 28.4536 61.7144 27.8771 61.8316 27.1366C62.3002 24.2448 62.5393 22.6842 62.5768 22.2154C63.3923 11.1782 58.6164 5.64728 54.4781 2.95731C48.4556 -0.979499 40.6803 -0.979499 34.6668 2.91982C30.5049 5.60535 25.7057 11.1498 26.5212 22.2103C26.5587 22.6884 26.8212 24.4319 27.4586 28.2234L27.9366 31.5369C28.1053 32.6055 28.4287 33.6132 28.9068 34.499C29.6988 36.0128 31.6907 38.0141 34.245 39.8607C34.798 40.2544 35.1214 40.8824 35.1214 41.5292V45.1989C35.1214 46.8909 34.1278 48.4374 32.5765 49.1452L32.5719 49.1596Z" fill="white"/>
<path d="M7.95422 81.4943C7.84642 81.288 7.50898 81.288 7.41524 81.4943L5.18432 85.9466L0.253826 86.6918C0.131974 86.7059 0.0476034 86.7856 0.0148006 86.898C-0.0226934 87.0058 0.0148003 87.1277 0.0851019 87.2121L3.63761 90.7178L2.82212 95.6389C2.79868 95.7608 2.84555 95.8686 2.94397 95.9389C2.99084 95.9764 3.06582 95.9998 3.12207 95.9998C3.16894 95.9998 3.2158 95.9998 3.26735 95.9623L7.69632 93.6704L12.1253 95.9623C12.219 96.0092 12.3549 96.0092 12.4487 95.9389C12.5424 95.8686 12.594 95.7608 12.5705 95.6389L11.755 90.7178L15.3075 87.2121C15.3919 87.1277 15.4153 87.0058 15.3778 86.898C15.3404 86.7902 15.2466 86.7059 15.1388 86.6918L10.2083 85.9466L7.97741 81.4943H7.95422Z" fill="white"/>
<path d="M33.7882 86.8934C33.7508 86.7856 33.657 86.7012 33.5492 86.6872L28.6187 85.942L26.3878 81.4896C26.28 81.2834 25.9426 81.2834 25.8488 81.4896L23.6179 85.942L18.6874 86.6872C18.5656 86.7012 18.4812 86.7809 18.4484 86.8934C18.4109 87.0012 18.4484 87.1231 18.5187 87.2074L22.0712 90.7131L21.2557 95.6343C21.2323 95.7561 21.2791 95.8639 21.3776 95.9342C21.4244 95.9717 21.4994 95.9951 21.5557 95.9951C21.6025 95.9951 21.6494 95.9951 21.7009 95.9577L26.1299 93.6658L30.5589 95.9577C30.6526 96.0045 30.7885 96.0045 30.8823 95.9342C30.976 95.8639 31.0276 95.7561 31.0041 95.6343L30.1886 90.7131L33.7411 87.2074C33.8255 87.1231 33.8489 87.0012 33.8114 86.8934H33.7882Z" fill="white"/>
<path d="M52.2179 86.8934C52.1804 86.7856 52.0867 86.7012 51.9789 86.6872L47.0484 85.942L44.8175 81.4896C44.7097 81.2834 44.3723 81.2834 44.2785 81.4896L42.0476 85.942L37.1171 86.6872C36.9953 86.7012 36.9109 86.7809 36.8781 86.8934C36.8406 87.0012 36.8781 87.1231 36.9484 87.2074L40.5009 90.7131L39.6854 95.6343C39.662 95.7561 39.7088 95.8639 39.8073 95.9342C39.8541 95.9717 39.9291 95.9951 39.9853 95.9951C40.0322 95.9951 40.0791 95.9951 40.1306 95.9577L44.5596 93.6658L48.9886 95.9577C49.0964 96.0045 49.2182 96.0045 49.312 95.9342C49.4057 95.8639 49.4572 95.7561 49.4338 95.6343L48.6183 90.7131L52.1708 87.2074C52.2552 87.1231 52.2786 87.0012 52.2411 86.8934H52.2179Z" fill="white"/>
<path d="M70.6593 86.8934C70.6219 86.7856 70.5281 86.7012 70.4203 86.6872L65.4898 85.942L63.2589 81.4896C63.1511 81.2834 62.8137 81.2834 62.7199 81.4896L60.489 85.942L55.5585 86.6872C55.4367 86.7012 55.3523 86.7809 55.3195 86.8934C55.282 87.0012 55.3195 87.1231 55.3898 87.2074L58.9423 90.7131L58.1268 95.6343C58.1127 95.7561 58.1502 95.8639 58.2487 95.9342C58.3424 96.0045 58.4642 96.0045 58.572 95.9577L63.001 93.6658L67.43 95.9577C67.43 95.9577 67.5237 95.9951 67.5753 95.9951C67.6362 95.9951 67.7065 95.9717 67.7534 95.9342C67.8471 95.8639 67.8986 95.7561 67.8752 95.6343L67.0597 90.7131L70.6122 87.2074C70.6966 87.1231 70.72 87.0012 70.6825 86.8934H70.6593Z" fill="white"/>
<path d="M89.0968 86.8934C89.0593 86.7856 88.9656 86.7012 88.8578 86.6872L83.9273 85.942L81.6964 81.4896C81.5886 81.2834 81.2512 81.2834 81.1574 81.4896L78.9265 85.942L73.996 86.6872C73.8742 86.7012 73.7898 86.7809 73.757 86.8934C73.7195 87.0012 73.757 87.1231 73.8273 87.2074L77.3798 90.7131L76.5643 95.6343C76.5502 95.7561 76.5877 95.8639 76.6862 95.9342C76.7799 96.0045 76.9017 96.0045 77.0095 95.9577L81.4385 93.6658L85.8675 95.9577C85.8675 95.9577 85.9612 95.9951 86.0128 95.9951C86.0737 95.9951 86.144 95.9717 86.1909 95.9342C86.2846 95.8639 86.3362 95.7561 86.3127 95.6343L85.4972 90.7131L89.0497 87.2074C89.1341 87.1231 89.1575 87.0012 89.12 86.8934H89.0968Z" fill="white"/>
</svg>
