<svg width="137" height="137" viewBox="0 0 137 137" fill="none" xmlns="http://www.w3.org/2000/svg">
<path d="M14.4414 123.002L22.0661 95.1664C17.3622 87.021 14.8886 77.7775 14.8914 68.3103C14.9056 38.6919 39.0079 14.5952 68.6292 14.5952C83.0039 14.6009 96.4928 20.1963 106.639 30.3483C116.783 40.5032 122.37 53.9978 122.364 68.3528C122.353 97.9712 98.2448 122.071 68.6292 122.071H68.6065C59.6148 122.068 50.776 119.812 42.9278 115.53L14.4414 123.002Z" fill="white"/>
<path d="M14.4412 124.417C14.0676 124.417 13.7054 124.27 13.4365 123.998C13.0827 123.639 12.944 123.115 13.0771 122.631L20.546 95.359C15.9158 87.1343 13.4733 77.7945 13.4789 68.3132C13.4903 37.9108 38.2294 13.1802 68.629 13.1802C83.3745 13.1858 97.2285 18.9284 107.641 29.3493C118.053 39.7731 123.785 53.6243 123.779 68.3528C123.768 98.7524 99.0257 123.486 68.629 123.486C59.6033 123.483 50.6739 121.256 42.7493 117.041L14.8007 124.369C14.6818 124.403 14.5629 124.417 14.4412 124.417Z" fill="white"/>
<path d="M68.6246 14.5954C82.9994 14.601 96.4883 20.1964 106.635 30.3485C116.778 40.5034 122.365 53.9979 122.36 68.3529C122.348 97.9714 98.2402 122.071 68.6246 122.071H68.602C59.6103 122.068 50.7715 119.812 42.9232 115.53L14.4369 123.002L22.0615 95.1666C17.3577 87.0212 14.884 77.7776 14.8869 68.3105C14.901 38.692 39.0033 14.5954 68.6246 14.5954ZM68.6246 11.7651C37.4467 11.7651 12.0708 37.1297 12.0566 68.3105C12.0538 77.8399 14.4595 87.2306 19.0219 95.543L11.7057 122.258C11.4396 123.234 11.7114 124.276 12.4246 124.994C12.9623 125.538 13.6897 125.835 14.4369 125.835C14.6774 125.835 14.918 125.804 15.1558 125.742L42.5723 118.553C50.5762 122.708 59.548 124.901 68.602 124.904C99.8025 124.904 125.178 99.5365 125.193 68.3558C125.198 53.2451 119.32 39.0373 108.641 28.3503C97.9572 17.6605 83.7466 11.7708 68.6246 11.7651Z" fill="#CFD8DC"/>
<path d="M100.223 36.7619C91.7887 28.3221 80.5781 23.672 68.6458 23.6692C44.0114 23.6692 23.9762 43.696 23.9648 68.3134C23.962 76.7503 26.3224 84.9636 30.7942 92.076L31.8584 93.7657L27.3441 110.241L44.2492 105.808L45.8822 106.776C52.737 110.846 60.5994 112.997 68.6147 113H68.6317C93.2491 113 113.284 92.9704 113.293 68.3502C113.296 56.4207 108.657 45.2016 100.223 36.7619Z" fill="#40C351"/>
<path fill-rule="evenodd" clip-rule="evenodd" d="M55.1931 45.8554C54.1883 43.6195 53.1298 43.5742 52.1704 43.5346C51.3864 43.5006 50.492 43.5035 49.5977 43.5035C48.7033 43.5035 47.2486 43.8403 46.0174 45.1846C44.7863 46.529 41.3164 49.7753 41.3164 56.3811C41.3164 62.9868 46.1278 69.3719 46.7986 70.2662C47.4693 71.1606 56.0874 85.1504 69.7348 90.5335C81.0756 95.0053 83.3851 94.1166 85.8474 93.893C88.3097 93.6694 93.7918 90.6468 94.9098 87.5108C96.0277 84.3749 96.0277 81.689 95.6938 81.1287C95.357 80.5683 94.4626 80.2343 93.1211 79.5607C91.7795 78.8871 85.1766 75.6408 83.9455 75.1936C82.7143 74.7465 81.8199 74.5229 80.9228 75.8672C80.0284 77.2088 77.4557 80.2343 76.6717 81.1287C75.8878 82.0258 75.1038 82.1391 73.7623 81.4655C72.4207 80.7919 68.0961 79.3767 62.9649 74.8031C58.9743 71.2455 56.2799 66.8501 55.4959 65.5058C54.7119 64.1642 55.411 63.4368 56.0846 62.7661C56.6874 62.1632 57.4261 61.1981 58.0997 60.4141C58.7705 59.6302 58.9941 59.0698 59.4412 58.1754C59.8884 57.2782 59.6648 56.4943 59.328 55.8235C58.9969 55.1499 56.3874 48.5102 55.1931 45.8554Z" fill="white"/>
</svg>
