<svg width="311" height="169" viewBox="0 0 311 169" fill="none" xmlns="http://www.w3.org/2000/svg">
<rect width="310.45" height="168.53" rx="11" fill="#0D0D25"/>
<path fill-rule="evenodd" clip-rule="evenodd" d="M110.607 92.7719V75.8716C110.607 75.0217 109.923 74.3328 109.079 74.3328H105.68C104.836 74.3328 104.152 75.0217 104.152 75.8716V92.7719C104.152 103.914 109.89 111.197 118.976 111.197C121.958 111.197 124.663 110.024 126.609 108.132C127.58 107.189 129.196 107.876 129.196 109.235C129.196 110.085 129.88 110.774 130.724 110.774H134.123C134.967 110.774 135.651 110.085 135.651 109.235V75.8716C135.651 75.0217 134.967 74.3328 134.123 74.3328H130.724C129.88 74.3328 129.196 75.0217 129.196 75.8716V92.7168C129.196 99.6999 125.371 104.692 120.052 104.692C114.314 104.692 110.607 100.061 110.607 92.7719ZM238.982 92.9979V109.913C238.982 110.649 239.574 111.246 240.305 111.246H244.098C244.829 111.246 245.422 110.649 245.422 109.913V92.9979C245.422 81.7826 239.704 74.4464 230.495 74.4464C227.33 74.4464 224.478 75.7558 222.501 77.8407C221.666 78.7204 220.202 78.1597 220.202 76.9429V57.3331C220.202 56.5968 219.609 56 218.878 56H215.085C214.354 56 213.762 56.5968 213.762 57.3331V109.913C213.762 110.649 214.354 111.246 215.085 111.246H218.878C219.609 111.246 220.202 110.649 220.202 109.913V93.0586C220.202 86.0264 224.115 80.934 229.411 80.934C235.25 80.934 238.982 85.6626 238.982 92.9979ZM201.364 92.9979V109.913C201.364 110.649 201.957 111.246 202.688 111.246H206.481C207.212 111.246 207.805 110.649 207.805 109.913V92.9979C207.805 81.7826 202.087 74.4464 192.878 74.4464C189.713 74.4464 186.861 75.7558 184.884 77.8407C184.049 78.7204 182.585 78.1597 182.585 76.9429V57.3331C182.585 56.5968 181.992 56 181.261 56H177.468C176.737 56 176.145 56.5968 176.145 57.3331V109.913C176.145 110.649 176.737 111.246 177.468 111.246H181.261C181.992 111.246 182.585 110.649 182.585 109.913V93.0586C182.585 86.0264 186.497 80.934 191.794 80.934C197.633 80.934 201.364 85.6626 201.364 92.9979ZM91.9447 92.9979V109.913C91.9447 110.649 92.5372 111.246 93.2683 111.246H97.0614C97.7924 111.246 98.385 110.649 98.385 109.913V92.9979C98.385 81.7826 92.6672 74.4464 83.4581 74.4464C80.2933 74.4464 77.4411 75.7558 75.4639 77.8407C74.6294 78.7204 73.1648 78.1597 73.1648 76.9429V57.3331C73.1648 56.5968 72.5723 56 71.8413 56H68.0486C67.3175 56 66.7246 56.5968 66.7246 57.3331V109.913C66.7246 110.649 67.3175 111.246 68.0486 111.246H71.8413C72.5723 111.246 73.1648 110.649 73.1648 109.913V93.0586C73.1648 86.0264 77.0777 80.934 82.3744 80.934C88.2131 80.934 91.9447 85.6626 91.9447 92.9979ZM148.815 85.2548L148.831 85.1489C148.842 85.0766 148.854 84.9982 148.856 84.9823C149.206 82.1245 152.176 79.9695 155.762 79.9695L155.905 79.9703C159.053 79.9703 161.294 81.2862 162.755 83.9924C162.911 84.2817 163.272 84.3902 163.56 84.2318C163.848 84.0742 163.954 83.7108 163.798 83.421C162.133 80.338 159.478 78.775 155.91 78.775L155.767 78.7737C151.509 78.7737 148.107 81.3236 147.679 84.8307L147.658 84.965C147.648 85.0326 147.638 85.0955 147.637 85.1041C147.599 85.4288 147.828 85.722 148.15 85.7651C148.176 85.7681 148.202 85.7698 148.227 85.7698C148.518 85.7698 148.773 85.5523 148.815 85.2548ZM165.156 99.8303C165.156 94.3577 161.506 93.0074 156.349 91.6976L155.734 91.5361C154.301 91.1525 151.901 90.5109 150.351 89.0375C150.112 88.8114 149.736 88.823 149.511 89.0624C149.286 89.3027 149.298 89.6812 149.536 89.9077C151.306 91.5891 153.887 92.2793 155.429 92.6913L156.058 92.8567C161.435 94.2229 163.969 95.3562 163.969 99.8303C163.969 103.302 160.653 105.726 155.905 105.726C152.377 105.726 149.345 103.957 147.992 101.11C147.851 100.812 147.496 100.685 147.2 100.828C146.904 100.971 146.78 101.327 146.921 101.625C148.473 104.892 151.916 106.922 155.905 106.922C161.352 106.922 165.156 104.006 165.156 99.8303ZM160.616 84.1848C160.86 83.9639 160.879 83.5859 160.66 83.3405C159.593 82.1473 158.291 81.5389 156.563 81.4261C156.24 81.4067 155.954 81.6539 155.932 81.9837C155.911 82.3135 156.159 82.5977 156.486 82.6192C157.885 82.7105 158.931 83.1941 159.778 84.1409C159.895 84.2722 160.057 84.3385 160.219 84.3385C160.361 84.3385 160.503 84.2882 160.616 84.1848ZM166.624 104.106C167.402 102.81 167.797 101.377 167.797 99.8471C167.797 92.216 161.506 90.6172 156.913 89.4504L156.445 89.3281C153.866 88.6357 151.551 87.8245 151.55 85.5442C151.56 85.1145 151.66 84.7192 151.845 84.3678C152 84.0768 151.89 83.7146 151.601 83.5588C151.311 83.4042 150.952 83.5136 150.798 83.8055C150.524 84.3222 150.378 84.8983 150.363 85.5304C150.363 88.9333 153.979 89.9033 156.139 90.4833L156.623 90.6095C161.304 91.7992 166.61 93.1473 166.61 99.8471C166.61 101.156 166.273 102.381 165.608 103.487C165.439 103.77 165.528 104.137 165.809 104.308C165.905 104.366 166.011 104.394 166.116 104.394C166.316 104.394 166.512 104.292 166.624 104.106ZM162.833 107.616C163.122 107.46 163.231 107.098 163.076 106.807C162.921 106.516 162.562 106.406 162.273 106.562C160.474 107.531 158.272 108.044 155.905 108.044C151.292 108.044 147.106 105.561 145.486 101.868C145.406 101.684 145.354 101.492 145.331 101.298C145.292 100.969 144.997 100.733 144.672 100.774C144.346 100.812 144.113 101.109 144.152 101.437C144.188 101.75 144.272 102.057 144.401 102.351C146.206 106.471 150.83 109.239 155.905 109.239C158.467 109.239 160.863 108.678 162.833 107.616ZM161.634 102.609C162.4 101.85 162.805 100.914 162.805 99.9031C162.805 99.0721 162.611 98.313 162.227 97.6477C162.023 97.2934 161.761 96.9571 161.447 96.6484C161.213 96.418 160.837 96.4219 160.608 96.6578C160.379 96.8942 160.383 97.2727 160.617 97.5035C160.854 97.7364 161.05 97.987 161.2 98.2471C161.481 98.735 161.618 99.2766 161.618 99.9031C161.618 100.596 161.343 101.22 160.801 101.757C159.806 102.744 158.033 103.318 156.067 103.284C154.901 103.268 153.788 102.989 152.848 102.48C152.165 102.11 151.724 101.585 151.432 101.238C151.376 101.172 151.325 101.112 151.28 101.061C151.062 100.814 150.687 100.792 150.442 101.012C150.197 101.231 150.175 101.609 150.393 101.856C150.433 101.901 150.477 101.954 150.526 102.012C150.855 102.402 151.404 103.055 152.285 103.532C153.392 104.133 154.694 104.46 156.049 104.48C156.105 104.481 156.161 104.481 156.216 104.481C158.431 104.481 160.447 103.787 161.634 102.609ZM156.547 94.8757C156.627 94.5558 156.435 94.2302 156.117 94.1497C155.686 94.0404 155.224 93.9327 154.743 93.8307C148.762 92.5613 146.094 90.0295 146.094 85.6204C146.094 80.7811 150.057 77.5289 155.956 77.5289C159.487 77.5289 163.938 79.5195 165.368 83.8895C165.471 84.2029 165.807 84.3739 166.118 84.2705C166.429 84.1667 166.598 83.8292 166.496 83.5153C164.881 78.5808 159.9 76.3337 155.956 76.3337C149.347 76.3337 144.907 80.0659 144.907 85.6204C144.907 92.2039 150.381 94.1273 154.498 95.0005C154.963 95.0996 155.41 95.2033 155.826 95.3088C155.875 95.3213 155.924 95.3274 155.972 95.3274C156.238 95.3274 156.479 95.1469 156.547 94.8757ZM170.098 99.8471C170.098 96.2001 169.258 93.8061 167.374 92.0847C167.131 91.8629 166.756 91.8819 166.535 92.1256C166.315 92.3701 166.334 92.7482 166.577 92.9704C168.213 94.4653 168.911 96.5222 168.911 99.8471C168.911 105.939 163.441 110.361 155.905 110.361C150.781 110.361 145.843 107.537 143.617 103.334L143.554 103.218C143.383 102.903 143.026 102.249 142.738 101.286C142.643 100.969 142.311 100.79 141.998 100.886C141.684 100.982 141.506 101.315 141.601 101.631C141.925 102.714 142.323 103.443 142.514 103.793L142.569 103.896C144.996 108.478 150.355 111.557 155.905 111.557C164.129 111.557 170.098 106.633 170.098 99.8471ZM154.544 97.0626C154.632 96.7444 154.448 96.415 154.132 96.3259C151.306 95.5302 145.427 93.8746 143.862 88.516C143.77 88.1995 143.439 88.0174 143.125 88.1117C142.81 88.2047 142.63 88.5371 142.723 88.854C144.474 94.8477 151.018 96.6906 153.812 97.4777C153.866 97.4927 153.92 97.5 153.973 97.5C154.232 97.5 154.471 97.327 154.544 97.0626ZM143.586 83.9583C144.405 78.6997 149.243 75.2094 155.666 75.2094C155.759 75.2094 155.853 75.2103 155.947 75.2116C156.285 75.2081 156.544 74.9532 156.55 74.623C156.555 74.2931 156.293 74.0214 155.965 74.0163C148.787 73.8949 143.34 77.8243 142.413 83.7728C142.362 84.0996 142.584 84.4053 142.907 84.4561C142.939 84.4617 142.97 84.4638 143.001 84.4638C143.288 84.4638 143.54 84.2533 143.586 83.9583ZM168.51 84.1939C168.197 84.1939 167.935 83.9467 167.918 83.6277C167.829 82.847 166.166 78.0939 160.973 76.1166C160.666 75.9995 160.511 75.6546 160.627 75.3455C160.743 75.0372 161.085 74.8813 161.392 74.9976C167.42 77.293 169.064 82.8109 169.103 83.5644C169.121 83.8938 168.87 84.1754 168.542 84.193C168.531 84.1939 168.521 84.1939 168.51 84.1939Z" fill="white"/>
</svg>
