<svg width="50" height="51" viewBox="0 0 50 51" fill="none" xmlns="http://www.w3.org/2000/svg">
<path d="M35.3516 0.628906H14.6484C6.55833 0.628906 0 7.18723 0 15.2773V35.9805C0 44.0706 6.55833 50.6289 14.6484 50.6289H35.3516C43.4417 50.6289 50 44.0706 50 35.9805V15.2773C50 7.18723 43.4417 0.628906 35.3516 0.628906Z" fill="url(#paint0_linear_3524_17825)"/>
<path d="M35.9524 24.8858H33.8988V19.4096C33.8988 17.8968 32.6736 16.6715 31.1607 16.6715H25.6845V14.6179C25.6845 12.7286 24.1512 11.1953 22.2619 11.1953C20.3726 11.1953 18.8393 12.7286 18.8393 14.6179V16.6715H13.3631C11.8503 16.6715 10.6387 17.8968 10.6387 19.4096L10.6319 24.612H12.6786C14.7185 24.612 16.375 26.2685 16.375 28.3084C16.375 30.3483 14.7185 32.0049 12.6786 32.0049H10.6319L10.625 37.2072C10.625 38.72 11.8503 39.9453 13.3631 39.9453H18.5655V37.8917C18.5655 35.8518 20.222 34.1953 22.2619 34.1953C24.3018 34.1953 25.9584 35.8518 25.9584 37.8917V39.9453H31.1607C32.6735 39.9453 33.8988 38.72 33.8988 37.2072V31.731H35.9524C37.8417 31.731 39.375 30.1977 39.375 28.3084C39.375 26.4191 37.8417 24.8858 35.9524 24.8858Z" fill="white"/>
<defs>
<linearGradient id="paint0_linear_3524_17825" x1="0.629883" y1="1.25879" x2="50.2588" y2="50.8877" gradientUnits="userSpaceOnUse">
<stop stop-color="#D20AEF"/>
<stop offset="0.37" stop-color="#890FD1"/>
<stop offset="0.8" stop-color="#3715B0"/>
<stop offset="1" stop-color="#1717A3"/>
</linearGradient>
</defs>
</svg>
