<svg width="50" height="51" viewBox="0 0 21 21" fill="none" xmlns="http://www.w3.org/2000/svg">
<path d="M14.8477 0H6.15234C2.7545 0 0 2.7545 0 6.15234V14.8477C0 18.2455 2.7545 21 6.15234 21H14.8477C18.2455 21 21 18.2455 21 14.8477V6.15234C21 2.7545 18.2455 0 14.8477 0Z" fill="url(#paint0_linear_3394_12371)"/>
<g clip-path="url(#clip0_3394_12371)">
<path d="M11.4905 9.72656H10.9844C10.9849 9.92216 10.9864 10.5787 10.9874 10.7661C11.1687 10.7652 11.3744 10.7643 11.4905 10.7643C11.7811 10.7643 12.0266 10.5267 12.0266 10.2454C12.0266 9.96417 11.7811 9.72656 11.4905 9.72656Z" fill="white"/>
<path d="M7.81836 11.3575H8.65521L8.23871 10.2539L7.81836 11.3575Z" fill="white"/>
<path d="M16.4455 11.977L15.6448 11.5148C15.6702 11.3074 15.6827 11.1126 15.6827 10.9247C15.6827 10.7367 15.6702 10.542 15.6448 10.3346L16.4455 9.87236C16.6171 9.77325 16.676 9.55376 16.5768 9.38212L14.8743 6.43322C14.7752 6.26157 14.5557 6.20274 14.384 6.30186L13.5867 6.76217C13.2721 6.52949 12.9288 6.33251 12.5614 6.17391V5.24951C12.5614 5.05131 12.4007 4.89062 12.2025 4.89062H8.79749C8.59929 4.89062 8.4386 5.05131 8.4386 5.24951V6.17388C8.07122 6.33246 7.72784 6.52949 7.41324 6.76215L6.61594 6.30184C6.44429 6.20274 6.2248 6.26155 6.1257 6.43319L4.42314 9.38212C4.32404 9.55376 4.38285 9.77325 4.55449 9.87236L5.3551 10.3346C5.32969 10.542 5.31725 10.7367 5.31725 10.9247C5.31725 11.1126 5.32969 11.3074 5.3551 11.5148L4.55449 11.977C4.38285 12.0761 4.32404 12.2956 4.42314 12.4672L6.1257 15.4162C6.2248 15.5878 6.44429 15.6466 6.61594 15.5475L7.41324 15.0872C7.72784 15.3199 8.07122 15.5169 8.4386 15.6755V16.5998C8.4386 16.798 8.59929 16.9587 8.79749 16.9587H12.2025C12.4007 16.9587 12.5614 16.798 12.5614 16.5998V15.6755C12.9288 15.5169 13.2722 15.3198 13.5867 15.0872L14.3841 15.5475C14.5557 15.6466 14.7752 15.5878 14.8743 15.4162L16.5769 12.4673C16.676 12.2956 16.6172 12.0761 16.4455 11.977ZM9.58924 12.8156C9.54752 12.8314 9.50469 12.8388 9.46258 12.8388C9.31754 12.8388 9.18097 12.7503 9.12676 12.6066L8.92614 12.075H7.54505L7.34221 12.6076C7.27165 12.7928 7.06433 12.8858 6.8791 12.8153C6.69386 12.7447 6.60091 12.5374 6.67145 12.3521C6.67145 12.3521 7.84146 9.28019 7.84257 9.27751C7.90879 9.11558 8.0646 9.01084 8.23954 9.01064H8.24002C8.41477 9.01064 8.5706 9.11503 8.63709 9.2767C8.63843 9.27995 9.79828 12.3532 9.79828 12.3532C9.86829 12.5386 9.77469 12.7457 9.58924 12.8156ZM11.4904 11.4839C11.3739 11.4839 11.1655 11.4848 10.9833 11.4857V12.4799C10.9833 12.6781 10.8226 12.8387 10.6244 12.8387C10.4262 12.8387 10.2655 12.6781 10.2655 12.4799C10.2655 12.4799 10.2655 9.37068 10.2655 9.37066C10.2652 9.27529 10.3029 9.1837 10.3702 9.11613C10.4375 9.04859 10.529 9.01062 10.6244 9.01062H11.4904C12.1818 9.01062 12.7443 9.56536 12.7443 10.2472C12.7443 10.9291 12.1818 11.4839 11.4904 11.4839ZM13.9214 12.4799C13.9214 12.6781 13.7607 12.8387 13.5625 12.8387C13.3643 12.8387 13.2036 12.6781 13.2036 12.4799V9.36951C13.2036 9.17131 13.3643 9.01062 13.5625 9.01062C13.7607 9.01062 13.9214 9.17131 13.9214 9.36951V12.4799Z" fill="white"/>
</g>
<defs>
<linearGradient id="paint0_linear_3394_12371" x1="19.6806" y1="8.3" x2="0.390478" y2="9.8871" gradientUnits="userSpaceOnUse">
<stop stop-color="#E54D60"/>
<stop offset="1" stop-color="#A342FF"/>
</linearGradient>
<clipPath id="clip0_3394_12371">
<rect width="12.25" height="12.25" fill="white" transform="translate(4.375 4.79688)"/>
</clipPath>
</defs>
</svg>
