<svg width="61" height="20" viewBox="0 0 61 20" fill="none" xmlns="http://www.w3.org/2000/svg">
<mask id="mask0_3524_17927" style="mask-type:alpha" maskUnits="userSpaceOnUse" x="0" y="0" width="61" height="20">
<path d="M15.0341 12.8606V7.12405C15.0341 6.83555 14.8019 6.6017 14.5153 6.6017H13.3616C13.075 6.6017 12.8428 6.83555 12.8428 7.12405V12.8606C12.8428 16.6426 14.7905 19.1148 17.8746 19.1148C18.887 19.1148 19.8049 18.7165 20.4655 18.0745C20.795 17.7543 21.3437 17.9875 21.3437 18.4489C21.3437 18.7374 21.5758 18.9713 21.8623 18.9713H23.0162C23.3026 18.9713 23.5349 18.7374 23.5349 18.4489V7.12405C23.5349 6.83555 23.3026 6.6017 23.0162 6.6017H21.8623C21.5758 6.6017 21.3437 6.83555 21.3437 7.12405V12.8419C21.3437 15.2122 20.0452 16.9067 18.24 16.9067C16.2923 16.9067 15.0341 15.3348 15.0341 12.8606ZM58.6088 12.9373V18.6788C58.6088 18.9288 58.8101 19.1315 59.0581 19.1315H60.3456C60.5938 19.1315 60.795 18.9288 60.795 18.6788V12.9373C60.795 9.13045 58.8541 6.64028 55.7282 6.64028C54.6539 6.64028 53.6858 7.08474 53.0148 7.79241C52.7314 8.09101 52.2344 7.90071 52.2344 7.48768V0.831399C52.2344 0.581475 52.0331 0.378906 51.785 0.378906H50.4976C50.2495 0.378906 50.0484 0.581475 50.0484 0.831399V18.6788C50.0484 18.9288 50.2495 19.1315 50.4976 19.1315H51.785C52.0331 19.1315 52.2344 18.9288 52.2344 18.6788V12.9579C52.2344 10.5709 53.5624 8.84238 55.3603 8.84238C57.3422 8.84238 58.6088 10.4474 58.6088 12.9373ZM45.8403 12.9373V18.6788C45.8403 18.9288 46.0414 19.1315 46.2895 19.1315H47.577C47.8252 19.1315 48.0264 18.9288 48.0264 18.6788V12.9373C48.0264 9.13045 46.0855 6.64028 42.9596 6.64028C41.8855 6.64028 40.9172 7.08474 40.2461 7.79241C39.9628 8.09101 39.4658 7.90071 39.4658 7.48768V0.831399C39.4658 0.581475 39.2647 0.378906 39.0164 0.378906H37.729C37.4809 0.378906 37.2798 0.581475 37.2798 0.831399V18.6788C37.2798 18.9288 37.4809 19.1315 37.729 19.1315H39.0164C39.2647 19.1315 39.4658 18.9288 39.4658 18.6788V12.9579C39.4658 10.5709 40.7938 8.84238 42.5917 8.84238C44.5736 8.84238 45.8403 10.4474 45.8403 12.9373ZM8.69928 12.9373V18.6788C8.69928 18.9288 8.9004 19.1315 9.14854 19.1315H10.4361C10.6842 19.1315 10.8853 18.9288 10.8853 18.6788V12.9373C10.8853 9.13045 8.94452 6.64028 5.81861 6.64028C4.74438 6.64028 3.77622 7.08474 3.1051 7.79241C2.82185 8.09101 2.32471 7.90071 2.32471 7.48768V0.831399C2.32471 0.581475 2.1236 0.378906 1.87546 0.378906H0.588069C0.339936 0.378906 0.138672 0.581475 0.138672 0.831399V18.6788C0.138672 18.9288 0.339936 19.1315 0.588069 19.1315H1.87546C2.1236 19.1315 2.32471 18.9288 2.32471 18.6788V12.9579C2.32471 10.5709 3.65288 8.84238 5.45076 8.84238C7.43264 8.84238 8.69928 10.4474 8.69928 12.9373ZM28.0032 10.309L28.0086 10.2731C28.0124 10.2485 28.0164 10.2219 28.0171 10.2165C28.1357 9.2465 29.144 8.515 30.3611 8.515L30.4097 8.51529C31.4782 8.51529 32.2389 8.96194 32.7347 9.88051C32.7878 9.97873 32.9103 10.0156 33.008 9.96178C33.1058 9.90828 33.1419 9.78493 33.0888 9.68657C32.5237 8.64011 31.6223 8.10957 30.4114 8.10957L30.3628 8.10913C28.9175 8.10913 27.7629 8.97465 27.6174 10.1651L27.6104 10.2107C27.6069 10.2336 27.6037 10.255 27.6033 10.2579C27.5904 10.3681 27.668 10.4676 27.7774 10.4822C27.7863 10.4833 27.795 10.4838 27.8035 10.4838C27.9024 10.4838 27.9887 10.41 28.0032 10.309ZM33.5498 15.2565C33.5498 13.3989 32.3109 12.9405 30.5603 12.4959L30.3516 12.4411C29.8651 12.3109 29.0507 12.0931 28.5243 11.593C28.4433 11.5163 28.3158 11.5202 28.2394 11.6015C28.1631 11.683 28.1669 11.8115 28.2477 11.8884C28.8485 12.4591 29.7248 12.6934 30.2482 12.8333L30.4618 12.8894C32.2869 13.3531 33.1468 13.7378 33.1468 15.2565C33.1468 16.4348 32.0212 17.2576 30.4097 17.2576C29.2121 17.2576 28.183 16.6572 27.7237 15.6907C27.6757 15.5896 27.5554 15.5466 27.455 15.5951C27.3546 15.6435 27.3122 15.7647 27.3602 15.8658C27.8871 16.9747 29.0555 17.6635 30.4097 17.6635C32.2585 17.6635 33.5498 16.6737 33.5498 15.2565ZM32.0089 9.94585C32.0915 9.87087 32.0981 9.74255 32.0237 9.65924C31.6614 9.25425 31.2195 9.04773 30.6331 9.00944C30.5233 9.00286 30.4262 9.08675 30.419 9.19871C30.4117 9.31066 30.496 9.40712 30.607 9.41443C31.0818 9.44541 31.4369 9.60955 31.7243 9.93094C31.764 9.97551 31.819 9.99802 31.8741 9.99802C31.9221 9.99802 31.9703 9.98092 32.0089 9.94585ZM34.0481 16.7078C34.3123 16.2679 34.4463 15.7816 34.4463 15.2622C34.4463 12.6719 32.311 12.1292 30.752 11.7332L30.5929 11.6917C29.7175 11.4566 28.9318 11.1813 28.9316 10.4073C28.9349 10.2614 28.9686 10.1272 29.0317 10.008C29.0841 9.90916 29.047 9.78624 28.9487 9.73334C28.8503 9.68087 28.7286 9.71799 28.6762 9.81708C28.5832 9.99247 28.5336 10.188 28.5286 10.4026C28.5286 11.5576 29.756 11.8869 30.4892 12.0838L30.6533 12.1266C32.2422 12.5304 34.0433 12.988 34.0433 15.2622C34.0433 15.7064 33.929 16.1222 33.7033 16.4978C33.6457 16.5937 33.6762 16.7183 33.7714 16.7763C33.8039 16.7962 33.8399 16.8057 33.8756 16.8057C33.9436 16.8057 34.0102 16.7709 34.0481 16.7078ZM32.7613 17.8991C32.8595 17.8463 32.8964 17.7233 32.8438 17.6245C32.7913 17.5257 32.6694 17.4884 32.5712 17.5413C31.9607 17.8703 31.2133 18.0444 30.4097 18.0444C28.844 18.0444 27.4229 17.2018 26.8733 15.9481C26.8458 15.8857 26.8281 15.8205 26.8204 15.7546C26.8074 15.6431 26.707 15.5628 26.5968 15.5767C26.4863 15.5897 26.4072 15.6906 26.4202 15.8018C26.4326 15.908 26.461 16.0124 26.5047 16.1119C27.1176 17.5105 28.687 18.4501 30.4097 18.4501C31.2794 18.4501 32.0926 18.2597 32.7613 17.8991ZM32.3544 16.1998C32.6143 15.9421 32.7517 15.6244 32.7517 15.2812C32.7517 14.9991 32.6858 14.7414 32.5557 14.5156C32.4865 14.3954 32.3974 14.2812 32.291 14.1764C32.2113 14.0982 32.0838 14.0995 32.006 14.1796C31.9282 14.2599 31.9297 14.3883 32.0092 14.4667C32.0896 14.5457 32.1562 14.6308 32.2071 14.7191C32.3025 14.8847 32.3487 15.0685 32.3487 15.2812C32.3487 15.5165 32.2554 15.7283 32.0717 15.9105C31.7338 16.2457 31.1319 16.4402 30.4648 16.4289C30.069 16.4232 29.6911 16.3287 29.3719 16.1558C29.1401 16.0302 28.9904 15.8522 28.8913 15.7344C28.8723 15.7119 28.8551 15.6916 28.8398 15.6742C28.7659 15.5903 28.6386 15.583 28.5552 15.6575C28.4722 15.7321 28.4648 15.8603 28.5388 15.944C28.5522 15.9593 28.5672 15.9772 28.5838 15.9969C28.6954 16.1295 28.882 16.3512 29.1809 16.5131C29.5567 16.7169 29.9987 16.8281 30.4587 16.8348C30.4777 16.8351 30.4964 16.8352 30.5153 16.8352C31.267 16.8352 31.9513 16.5996 32.3544 16.1998ZM30.6276 13.5747C30.6549 13.4661 30.5895 13.3556 30.4815 13.3283C30.3352 13.2912 30.1784 13.2546 30.0153 13.22C27.9849 12.7891 27.0796 11.9297 27.0796 10.4331C27.0796 8.7905 28.4247 7.6866 30.4269 7.6866C31.6254 7.6866 33.1364 8.36227 33.6219 9.84558C33.6566 9.95198 33.7708 10.01 33.8763 9.97493C33.9819 9.93971 34.0394 9.82512 34.0046 9.71858C33.4563 8.04365 31.7657 7.28088 30.4269 7.28088C28.1837 7.28088 26.6765 8.54774 26.6765 10.4331C26.6765 12.6678 28.5346 13.3207 29.9321 13.6171C30.09 13.6507 30.2416 13.6859 30.383 13.7217C30.3995 13.726 30.4161 13.728 30.4325 13.728C30.5226 13.728 30.6046 13.6668 30.6276 13.5747ZM35.2274 15.2622C35.2274 14.0243 34.9422 13.2117 34.3026 12.6273C34.2203 12.5521 34.0928 12.5585 34.0181 12.6412C33.9433 12.7242 33.9496 12.8526 34.032 12.928C34.5873 13.4354 34.8244 14.1336 34.8244 15.2622C34.8244 17.33 32.9678 18.831 30.4097 18.831C28.6704 18.831 26.9943 17.8724 26.2386 16.4457L26.2174 16.4063C26.1592 16.2996 26.0382 16.0774 25.9402 15.7505C25.908 15.6431 25.7955 15.5821 25.6892 15.6149C25.5825 15.6473 25.5223 15.7604 25.5544 15.8677C25.6645 16.2354 25.7993 16.4829 25.8642 16.6015L25.8829 16.6366C26.7068 18.1918 28.5259 19.2368 30.4097 19.2368C33.2012 19.2368 35.2274 17.5654 35.2274 15.2622ZM29.9478 14.317C29.9777 14.209 29.9151 14.0972 29.8079 14.0669C28.8488 13.7969 26.8529 13.2349 26.3219 11.416C26.2905 11.3086 26.1783 11.2468 26.0717 11.2788C25.9649 11.3103 25.9038 11.4232 25.9353 11.5307C26.5295 13.5652 28.7508 14.1907 29.6994 14.4579C29.7175 14.463 29.7358 14.4655 29.7538 14.4655C29.8419 14.4655 29.9228 14.4068 29.9478 14.317ZM26.2283 9.86897C26.5061 8.08399 28.1483 6.89927 30.3287 6.89927C30.3602 6.89927 30.3921 6.89956 30.4239 6.9C30.5385 6.89883 30.6268 6.81231 30.6285 6.70021C30.6302 6.58825 30.5414 6.49603 30.4301 6.49428C27.9936 6.45306 26.1445 7.78686 25.8301 9.80598C25.8128 9.91691 25.888 10.0207 25.9978 10.0379C26.0086 10.0398 26.019 10.0406 26.0295 10.0406C26.127 10.0406 26.2126 9.96908 26.2283 9.86897ZM34.6883 9.94891C34.5819 9.94891 34.493 9.86502 34.4872 9.75672C34.457 9.49174 33.8927 7.87835 32.1298 7.20721C32.0257 7.16746 31.9732 7.05039 32.0125 6.94545C32.0519 6.84081 32.1681 6.7879 32.2723 6.82736C34.3181 7.60651 34.8762 9.47947 34.8897 9.73524C34.8957 9.84704 34.8103 9.94263 34.6992 9.94862C34.6956 9.94891 34.6919 9.94891 34.6883 9.94891Z" fill="white"/>
</mask>
<g mask="url(#mask0_3524_17927)">
<path fill-rule="evenodd" clip-rule="evenodd" d="M14.8974 12.7981V7.06155C14.8974 6.77305 14.6652 6.5392 14.3786 6.5392H13.2249C12.9383 6.5392 12.7061 6.77305 12.7061 7.06155V12.7981C12.7061 16.5801 14.6537 19.0523 17.7379 19.0523C18.7503 19.0523 19.6682 18.654 20.3287 18.012C20.6583 17.6918 21.2069 17.925 21.2069 18.3864C21.2069 18.6749 21.4391 18.9088 21.7255 18.9088H22.8794C23.1659 18.9088 23.3982 18.6749 23.3982 18.3864V7.06155C23.3982 6.77305 23.1659 6.5392 22.8794 6.5392H21.7255C21.4391 6.5392 21.2069 6.77305 21.2069 7.06155V12.7794C21.2069 15.1497 19.9085 16.8442 18.1032 16.8442C16.1556 16.8442 14.8974 15.2723 14.8974 12.7981ZM58.4721 12.8748V18.6163C58.4721 18.8663 58.6734 19.069 58.9214 19.069H60.2089C60.457 19.069 60.6583 18.8663 60.6583 18.6163V12.8748C60.6583 9.06795 58.7173 6.57778 55.5914 6.57778C54.5172 6.57778 53.549 7.02224 52.8781 7.72991C52.5947 8.02851 52.0977 7.83821 52.0977 7.42518V0.768899C52.0977 0.518975 51.8964 0.316406 51.6483 0.316406H50.3609C50.1128 0.316406 49.9116 0.518975 49.9116 0.768899V18.6163C49.9116 18.8663 50.1128 19.069 50.3609 19.069H51.6483C51.8964 19.069 52.0977 18.8663 52.0977 18.6163V12.8954C52.0977 10.5084 53.4257 8.77988 55.2236 8.77988C57.2055 8.77988 58.4721 10.3849 58.4721 12.8748ZM45.7035 12.8748V18.6163C45.7035 18.8663 45.9046 19.069 46.1528 19.069H47.4403C47.6885 19.069 47.8897 18.8663 47.8897 18.6163V12.8748C47.8897 9.06795 45.9488 6.57778 42.8229 6.57778C41.7488 6.57778 40.7805 7.02224 40.1094 7.72991C39.8261 8.02851 39.3291 7.83821 39.3291 7.42518V0.768899C39.3291 0.518975 39.128 0.316406 38.8797 0.316406H37.5923C37.3442 0.316406 37.1431 0.518975 37.1431 0.768899V18.6163C37.1431 18.8663 37.3442 19.069 37.5923 19.069H38.8797C39.128 19.069 39.3291 18.8663 39.3291 18.6163V12.8954C39.3291 10.5084 40.6571 8.77988 42.455 8.77988C44.4369 8.77988 45.7035 10.3849 45.7035 12.8748ZM8.56256 12.8748V18.6163C8.56256 18.8663 8.76368 19.069 9.01182 19.069H10.2994C10.5475 19.069 10.7486 18.8663 10.7486 18.6163V12.8748C10.7486 9.06795 8.8078 6.57778 5.68189 6.57778C4.60766 6.57778 3.63951 7.02224 2.96838 7.72991C2.68513 8.02851 2.188 7.83821 2.188 7.42518V0.768899C2.188 0.518975 1.98688 0.316406 1.73874 0.316406H0.451351C0.203217 0.316406 0.00195312 0.518975 0.00195312 0.768899V18.6163C0.00195312 18.8663 0.203217 19.069 0.451351 19.069H1.73874C1.98688 19.069 2.188 18.8663 2.188 18.6163V12.8954C2.188 10.5084 3.51616 8.77988 5.31404 8.77988C7.29592 8.77988 8.56256 10.3849 8.56256 12.8748ZM27.8665 10.2465L27.8719 10.2106C27.8756 10.186 27.8797 10.1594 27.8804 10.154C27.999 9.184 29.0073 8.4525 30.2243 8.4525L30.273 8.45279C31.3415 8.45279 32.1022 8.89944 32.598 9.81802C32.6511 9.91623 32.7736 9.95306 32.8712 9.89928C32.969 9.84578 33.0052 9.72243 32.9521 9.62407C32.387 8.57761 31.4856 8.04707 30.2747 8.04707L30.2261 8.04663C28.7808 8.04663 27.6262 8.91215 27.4807 10.1026L27.4737 10.1482C27.4702 10.1711 27.467 10.1925 27.4666 10.1954C27.4537 10.3056 27.5313 10.4051 27.6407 10.4197C27.6496 10.4208 27.6583 10.4213 27.6668 10.4213C27.7656 10.4213 27.852 10.3475 27.8665 10.2465ZM33.4131 15.194C33.4131 13.3364 32.1741 12.878 30.4236 12.4334L30.2149 12.3786C29.7284 12.2484 28.914 12.0306 28.3876 11.5305C28.3066 11.4538 28.1791 11.4577 28.1027 11.539C28.0264 11.6205 28.0302 11.749 28.111 11.8259C28.7117 12.3966 29.588 12.6309 30.1114 12.7708L30.325 12.8269C32.1502 13.2906 33.0101 13.6753 33.0101 15.194C33.0101 16.3723 31.8845 17.1951 30.273 17.1951C29.0754 17.1951 28.0463 16.5947 27.587 15.6282C27.539 15.5271 27.4187 15.4841 27.3183 15.5326C27.2179 15.581 27.1755 15.7022 27.2235 15.8033C27.7504 16.9122 28.9188 17.601 30.273 17.601C32.1218 17.601 33.4131 16.6112 33.4131 15.194ZM31.8722 9.88335C31.9548 9.80837 31.9614 9.68005 31.887 9.59674C31.5246 9.19175 31.0828 8.98523 30.4964 8.94694C30.3866 8.94036 30.2895 9.02425 30.2822 9.13621C30.275 9.24816 30.3593 9.34462 30.4703 9.35193C30.9451 9.38291 31.3002 9.54705 31.5876 9.86844C31.6272 9.91302 31.6822 9.93552 31.7374 9.93552C31.7854 9.93552 31.8336 9.91842 31.8722 9.88335ZM33.9114 16.6453C34.1756 16.2054 34.3096 15.7191 34.3096 15.1997C34.3096 12.6094 32.1743 12.0667 30.6153 11.6707L30.4562 11.6292C29.5808 11.3941 28.795 11.1188 28.7949 10.3448C28.7982 10.1989 28.8319 10.0647 28.895 9.94546C28.9474 9.84666 28.9102 9.72374 28.812 9.67084C28.7136 9.61837 28.5919 9.65549 28.5395 9.75458C28.4465 9.92997 28.3969 10.1255 28.3919 10.3401C28.3919 11.4951 29.6192 11.8244 30.3525 12.0213L30.5166 12.0641C32.1055 12.4679 33.9066 12.9255 33.9066 15.1997C33.9066 15.6439 33.7922 16.0597 33.5666 16.4353C33.509 16.5312 33.5395 16.6558 33.6347 16.7138C33.6672 16.7337 33.7031 16.7432 33.7388 16.7432C33.8069 16.7432 33.8735 16.7084 33.9114 16.6453ZM32.6246 17.8366C32.7228 17.7838 32.7597 17.6608 32.7071 17.562C32.6546 17.4632 32.5327 17.4259 32.4345 17.4788C31.824 17.8078 31.0766 17.9819 30.273 17.9819C28.7072 17.9819 27.2862 17.1393 26.7365 15.8856C26.7091 15.8232 26.6914 15.758 26.6837 15.6921C26.6707 15.5806 26.5702 15.5003 26.4601 15.5142C26.3495 15.5272 26.2705 15.6281 26.2835 15.7393C26.2958 15.8455 26.3243 15.9499 26.368 16.0494C26.9809 17.448 28.5502 18.3876 30.273 18.3876C31.1427 18.3876 31.9559 18.1972 32.6246 17.8366ZM32.2177 16.1373C32.4776 15.8796 32.615 15.5619 32.615 15.2187C32.615 14.9366 32.5491 14.6789 32.4189 14.4531C32.3497 14.3329 32.2606 14.2187 32.1543 14.1139C32.0746 14.0357 31.9471 14.037 31.8693 14.1171C31.7915 14.1974 31.793 14.3258 31.8725 14.4042C31.9529 14.4832 32.0195 14.5683 32.0704 14.6566C32.1657 14.8222 32.212 15.006 32.212 15.2187C32.212 15.454 32.1187 15.6658 31.935 15.848C31.5971 16.1832 30.9952 16.3777 30.3281 16.3664C29.9322 16.3607 29.5544 16.2662 29.2351 16.0933C29.0034 15.9677 28.8537 15.7897 28.7545 15.6719C28.7355 15.6494 28.7184 15.6291 28.703 15.6117C28.6292 15.5278 28.5019 15.5205 28.4185 15.595C28.3355 15.6696 28.3281 15.7978 28.4021 15.8815C28.4154 15.8968 28.4305 15.9147 28.4471 15.9344C28.5587 16.067 28.7453 16.2887 29.0442 16.4506C29.42 16.6544 29.862 16.7656 30.322 16.7723C30.341 16.7726 30.3597 16.7727 30.3786 16.7727C31.1302 16.7727 31.8146 16.5371 32.2177 16.1373ZM30.4909 13.5122C30.5182 13.4036 30.4527 13.2931 30.3448 13.2658C30.1985 13.2287 30.0417 13.1921 29.8786 13.1575C27.8482 12.7266 26.9429 11.8672 26.9429 10.3706C26.9429 8.728 28.288 7.6241 30.2902 7.6241C31.4887 7.6241 32.9997 8.29977 33.4852 9.78308C33.5199 9.88948 33.6341 9.94751 33.7396 9.91243C33.8452 9.87721 33.9027 9.76262 33.8678 9.65608C33.3196 7.98115 31.629 7.21838 30.2902 7.21838C28.047 7.21838 26.5398 8.48524 26.5398 10.3706C26.5398 12.6053 28.3979 13.2582 29.7954 13.5546C29.9533 13.5882 30.1049 13.6234 30.2463 13.6592C30.2628 13.6635 30.2793 13.6655 30.2957 13.6655C30.3858 13.6655 30.4678 13.6043 30.4909 13.5122ZM35.0907 15.1997C35.0907 13.9618 34.8055 13.1492 34.1659 12.5648C34.0836 12.4896 33.9561 12.496 33.8813 12.5787C33.8066 12.6617 33.8128 12.7901 33.8953 12.8655C34.4506 13.3729 34.6877 14.0711 34.6877 15.1997C34.6877 17.2675 32.8311 18.7685 30.273 18.7685C28.5337 18.7685 26.8576 17.8099 26.1018 16.3832L26.0807 16.3438C26.0225 16.2371 25.9014 16.0149 25.8035 15.688C25.7713 15.5806 25.6588 15.5196 25.5525 15.5524C25.4458 15.5848 25.3856 15.6979 25.4177 15.8052C25.5278 16.1729 25.6626 16.4204 25.7275 16.539L25.7462 16.5741C26.5701 18.1293 28.3892 19.1743 30.273 19.1743C33.0645 19.1743 35.0907 17.5029 35.0907 15.1997ZM29.8111 14.2545C29.841 14.1465 29.7784 14.0347 29.6712 14.0044C28.712 13.7344 26.7162 13.1724 26.1851 11.3535C26.1538 11.2461 26.0416 11.1843 25.935 11.2163C25.8282 11.2478 25.7671 11.3607 25.7986 11.4682C26.3928 13.5027 28.6141 14.1282 29.5627 14.3954C29.5808 14.4005 29.5991 14.403 29.6171 14.403C29.7051 14.403 29.7861 14.3443 29.8111 14.2545ZM26.0915 9.80647C26.3694 8.02149 28.0116 6.83677 30.192 6.83677C30.2235 6.83677 30.2554 6.83706 30.2872 6.8375C30.4018 6.83633 30.49 6.74981 30.4918 6.63771C30.4935 6.52575 30.4047 6.43353 30.2934 6.43178C27.8569 6.39056 26.0078 7.72436 25.6934 9.74348C25.6761 9.85441 25.7513 9.95818 25.8611 9.97542C25.8718 9.97732 25.8823 9.97805 25.8927 9.97805C25.9903 9.97805 26.0759 9.90658 26.0915 9.80647ZM34.5516 9.88641C34.4452 9.88641 34.3563 9.80252 34.3505 9.69422C34.3203 9.42925 33.756 7.81585 31.9931 7.14471C31.889 7.10496 31.8365 6.98789 31.8758 6.88295C31.9151 6.77831 32.0314 6.7254 32.1356 6.76486C34.1814 7.54401 34.7395 9.41697 34.753 9.67274C34.7589 9.78454 34.6736 9.88013 34.5625 9.88612C34.5588 9.88641 34.5552 9.88641 34.5516 9.88641Z" fill="white"/>
</g>
</svg>
