<svg width="50" height="51" viewBox="0 0 50 51" fill="none" xmlns="http://www.w3.org/2000/svg">
<path d="M35.3516 0.628906H14.6484C6.55833 0.628906 0 7.18723 0 15.2773V35.9805C0 44.0706 6.55833 50.6289 14.6484 50.6289H35.3516C43.4417 50.6289 50 44.0706 50 35.9805V15.2773C50 7.18723 43.4417 0.628906 35.3516 0.628906Z" fill="url(#paint0_linear_3524_17822)"/>
<path d="M30.6465 14.3828C31.4814 14.3828 32.2812 14.7124 32.8701 15.3057L38.0908 20.522C38.5127 20.9438 38.75 21.5195 38.75 22.1172C38.75 22.7148 38.5127 23.2905 38.0908 23.7124L32.8701 28.9287C32.2812 29.5176 31.4814 29.8516 30.6465 29.8516C29.0205 29.8516 27.6846 28.6211 27.5176 27.0391H19.7656C19.3789 27.0391 19.0625 26.7227 19.0625 26.3359V24.5605C19.0625 24.376 18.9131 24.2266 18.7285 24.2266C18.6406 24.2266 18.5571 24.2617 18.4912 24.3232L13.6704 29.1484L18.4912 33.9736C18.5527 34.0352 18.6406 34.0703 18.7285 34.0703C18.9131 34.0703 19.0625 33.9209 19.0625 33.7363V31.9609C19.0625 31.5742 19.3789 31.2578 19.7656 31.2578H24.6875C25.4653 31.2578 26.0938 31.8862 26.0938 32.6641C26.0938 33.4419 25.4653 34.0703 24.6875 34.0703H21.8574C21.6904 35.6523 20.3545 36.8828 18.7285 36.8828C17.8936 36.8828 17.0938 36.5532 16.5049 35.96L11.2842 30.7437C10.8623 30.3218 10.625 29.7461 10.625 29.1484C10.625 28.5508 10.8623 27.9751 11.2842 27.5532L16.5049 22.3369C17.0938 21.748 17.8936 21.4141 18.7285 21.4141C20.3545 21.4141 21.6904 22.6445 21.8574 24.2266H29.6094C29.9961 24.2266 30.3125 24.543 30.3125 24.9297V26.7051C30.3125 26.8896 30.4619 27.0391 30.6465 27.0391C30.7344 27.0391 30.8179 27.0039 30.8838 26.9424L35.7046 22.1172L30.8838 17.292C30.8223 17.2305 30.7344 17.1953 30.6465 17.1953C30.4619 17.1953 30.3125 17.3447 30.3125 17.5293V19.3047C30.3125 19.6914 29.9961 20.0078 29.6094 20.0078H24.6875C23.9097 20.0078 23.2812 19.3794 23.2812 18.6016C23.2812 17.8237 23.9097 17.1953 24.6875 17.1953H27.5176C27.6846 15.6133 29.0205 14.3828 30.6465 14.3828Z" fill="white"/>
<defs>
<linearGradient id="paint0_linear_3524_17822" x1="0.629883" y1="1.25879" x2="50.2588" y2="50.8877" gradientUnits="userSpaceOnUse">
<stop stop-color="#D20AEF"/>
<stop offset="0.37" stop-color="#890FD1"/>
<stop offset="0.8" stop-color="#3715B0"/>
<stop offset="1" stop-color="#1717A3"/>
</linearGradient>
</defs>
</svg>
