<svg width="50" height="51" viewBox="0 0 50 51" fill="none" xmlns="http://www.w3.org/2000/svg">
<path d="M35.3516 0.128906H14.6484C6.55833 0.128906 0 6.68723 0 14.7773V35.4805C0 43.5706 6.55833 50.1289 14.6484 50.1289H35.3516C43.4417 50.1289 50 43.5706 50 35.4805V14.7773C50 6.68723 43.4417 0.128906 35.3516 0.128906Z" fill="url(#paint0_linear_3524_17888)"/>
<path fill-rule="evenodd" clip-rule="evenodd" d="M19.3965 19.1116L19.4091 19.0269C19.418 18.9691 19.4276 18.9065 19.4293 18.8938C19.7084 16.6102 22.0822 14.8882 24.9472 14.8882L25.0617 14.8888C27.5772 14.8888 29.3679 15.9403 30.5352 18.1028C30.6602 18.334 30.9485 18.4207 31.1784 18.2941C31.4086 18.1682 31.4937 17.8778 31.3687 17.6462C30.0385 15.1827 27.9164 13.9337 25.0658 13.9337L24.9513 13.9327C21.5489 13.9327 18.8308 15.9703 18.4882 18.7727L18.4718 18.88C18.4636 18.934 18.4561 18.9843 18.455 18.9912C18.4246 19.2506 18.6074 19.4849 18.865 19.5193C18.8858 19.5217 18.9063 19.5231 18.9265 19.5231C19.1591 19.5231 19.3623 19.3493 19.3965 19.1116ZM32.454 30.7586C32.454 26.3855 29.5373 25.3065 25.4162 24.2599L24.925 24.1308C23.7796 23.8243 21.8625 23.3116 20.6232 22.1342C20.4326 21.9536 20.1323 21.9629 19.9526 22.1542C19.773 22.3462 19.7818 22.6486 19.9721 22.8296C21.3864 24.1732 23.4493 24.7247 24.6815 25.054L25.1843 25.1861C29.481 26.2778 31.5053 27.1834 31.5053 30.7586C31.5053 33.5325 28.8555 35.4696 25.0617 35.4696C22.2424 35.4696 19.8198 34.0561 18.7386 31.7808C18.6255 31.5427 18.3423 31.4416 18.1059 31.5558C17.8695 31.6697 17.7698 31.9549 17.8829 32.193C19.1232 34.8034 21.8738 36.425 25.0617 36.425C29.414 36.425 32.454 34.095 32.454 30.7586ZM28.8265 18.2566C29.0208 18.0801 29.0366 17.778 28.8613 17.5819C28.0083 16.6285 26.9682 16.1423 25.5877 16.0521C25.3291 16.0367 25.1006 16.2342 25.0835 16.4977C25.0664 16.7613 25.2649 16.9883 25.5262 17.0055C26.644 17.0785 27.4799 17.4649 28.1566 18.2215C28.2498 18.3264 28.3793 18.3794 28.5091 18.3794C28.6222 18.3794 28.7356 18.3392 28.8265 18.2566ZM33.627 34.1752C34.2491 33.1395 34.5644 31.9948 34.5644 30.772C34.5644 24.6741 29.5377 23.3966 25.8675 22.4642L25.4931 22.3665C23.4322 21.8132 21.5824 21.165 21.5821 19.3428C21.5899 18.9994 21.6692 18.6836 21.8178 18.4028C21.9411 18.1702 21.8537 17.8809 21.6224 17.7563C21.3908 17.6328 21.1042 17.7202 20.9809 17.9535C20.7619 18.3663 20.6451 18.8267 20.6335 19.3318C20.6335 22.0509 23.5227 22.8261 25.2488 23.2896L25.6352 23.3904C29.3758 24.3411 33.6157 25.4183 33.6157 30.772C33.6157 31.8176 33.3466 32.7965 32.8154 33.6808C32.6798 33.9065 32.7515 34.1999 32.9756 34.3365C33.0521 34.3833 33.1368 34.4057 33.2208 34.4057C33.3811 34.4057 33.5379 34.3238 33.627 34.1752ZM30.5977 36.9797C30.8289 36.8555 30.9157 36.5658 30.7921 36.3332C30.6684 36.1006 30.3814 36.0128 30.1502 36.1374C28.7131 36.9119 26.9535 37.3217 25.0617 37.3217C21.3758 37.3217 18.0304 35.3381 16.7364 32.3867C16.6719 32.2398 16.6302 32.0863 16.6121 31.9312C16.5814 31.6686 16.345 31.4798 16.0857 31.5124C15.8254 31.5431 15.6392 31.7805 15.67 32.0423C15.699 32.2924 15.7659 32.5381 15.8688 32.7724C17.3117 36.0648 21.0061 38.2768 25.0617 38.2768C27.1092 38.2768 29.0236 37.8285 30.5977 36.9797ZM29.6398 32.9792C30.2516 32.3726 30.5751 31.6246 30.5751 30.8167C30.5751 30.1527 30.42 29.5461 30.1136 29.0145C29.9507 28.7313 29.7409 28.4626 29.4905 28.2159C29.303 28.0319 29.0027 28.035 28.8196 28.2235C28.6365 28.4124 28.64 28.7148 28.8272 28.8993C29.0164 29.0854 29.1732 29.2856 29.2931 29.4935C29.5175 29.8833 29.6265 30.3161 29.6265 30.8167C29.6265 31.3707 29.4069 31.8692 28.9744 32.2983C28.1788 33.0872 26.7618 33.5452 25.1915 33.5187C24.2596 33.5053 23.37 33.2827 22.6185 32.8756C22.073 32.5801 21.7204 32.161 21.4871 31.8837C21.4424 31.8307 21.4021 31.7829 21.3659 31.7419C21.192 31.5444 20.8924 31.5272 20.696 31.7027C20.5006 31.8782 20.4831 32.1799 20.6574 32.3771C20.6888 32.4132 20.7243 32.4552 20.7633 32.5016C21.026 32.8137 21.4653 33.3357 22.169 33.7169C23.0537 34.1965 24.0942 34.4583 25.1771 34.4742C25.2219 34.4749 25.2659 34.4752 25.3103 34.4752C27.0798 34.4752 28.6909 33.9206 29.6398 32.9792ZM25.5748 26.7994C25.639 26.5438 25.4849 26.2837 25.2308 26.2193C24.8864 26.1319 24.5171 26.0459 24.1332 25.9644C19.3535 24.9501 17.2222 22.9269 17.2222 19.4037C17.2222 15.5367 20.3889 12.938 25.1023 12.938C27.9236 12.938 31.4807 14.5286 32.6237 18.0205C32.7054 18.271 32.9742 18.4076 33.2226 18.325C33.4713 18.2421 33.6065 17.9724 33.5245 17.7216C32.234 13.7785 28.2539 11.9829 25.1023 11.9829C19.8215 11.9829 16.2732 14.9652 16.2732 19.4037C16.2732 24.6645 20.6475 26.2014 23.9374 26.8992C24.3091 26.9783 24.6661 27.0612 24.9988 27.1455C25.0377 27.1555 25.0767 27.1603 25.1153 27.1603C25.3274 27.1603 25.5204 27.0162 25.5748 26.7994ZM36.4032 30.772C36.4032 27.8578 35.732 25.9448 34.2262 24.5692C34.0325 24.392 33.7322 24.4071 33.5563 24.6019C33.3804 24.7973 33.3951 25.0994 33.5891 25.2769C34.8964 26.4715 35.4546 28.1151 35.4546 30.772C35.4546 35.6399 31.0838 39.1734 25.0617 39.1734C20.9672 39.1734 17.0213 36.9167 15.2423 33.5583L15.1924 33.4654C15.0554 33.2142 14.7705 32.6912 14.5399 31.9215C14.4641 31.6686 14.1994 31.5252 13.949 31.6022C13.6979 31.6786 13.5561 31.9449 13.6316 32.1975C13.8909 33.0632 14.2082 33.6457 14.3609 33.925L14.405 34.0076C16.3446 37.6688 20.627 40.1289 25.0617 40.1289C31.6334 40.1289 36.4032 36.1942 36.4032 30.772ZM23.9743 28.5469C24.0447 28.2927 23.8975 28.0295 23.645 27.9582C21.387 27.3224 16.6886 25.9995 15.4384 21.7175C15.3646 21.4647 15.1005 21.3191 14.8494 21.3945C14.598 21.4688 14.4542 21.7344 14.5283 21.9876C15.9272 26.7771 21.1565 28.2497 23.3895 28.8786C23.4322 28.8907 23.4753 28.8965 23.5176 28.8965C23.725 28.8965 23.9156 28.7582 23.9743 28.5469ZM15.218 18.0756C15.8722 13.8735 19.7381 11.0845 24.871 11.0845C24.9452 11.0845 25.0203 11.0852 25.0951 11.0862C25.365 11.0835 25.5727 10.8798 25.5769 10.6159C25.5809 10.3523 25.3718 10.1352 25.1098 10.1311C19.374 10.0341 15.0209 13.174 14.2807 17.9273C14.24 18.1885 14.417 18.4327 14.6755 18.4733C14.7008 18.4778 14.7254 18.4795 14.75 18.4795C14.9796 18.4795 15.1811 18.3113 15.218 18.0756ZM35.1342 18.2638C34.8838 18.2638 34.6744 18.0663 34.6607 17.8114C34.5897 17.1876 33.2612 13.3894 29.111 11.8095C28.8661 11.7159 28.7424 11.4403 28.835 11.1932C28.9276 10.9469 29.2012 10.8223 29.4465 10.9152C34.2627 12.7494 35.5766 17.1587 35.6083 17.7608C35.6223 18.024 35.4215 18.249 35.1598 18.2631C35.1512 18.2638 35.1427 18.2638 35.1342 18.2638Z" fill="url(#paint1_linear_3524_17888)"/>
<defs>
<linearGradient id="paint0_linear_3524_17888" x1="50" y1="18.1289" x2="-4.47035e-07" y2="30.1289" gradientUnits="userSpaceOnUse">
<stop stop-color="#E0055F"/>
<stop offset="1" stop-color="#2020ED"/>
</linearGradient>
<linearGradient id="paint1_linear_3524_17888" x1="13.7717" y1="25.1289" x2="36.4032" y2="25.1289" gradientUnits="userSpaceOnUse">
<stop stop-color="#7A7A7E"/>
<stop offset="1" stop-color="white"/>
</linearGradient>
</defs>
</svg>
