<svg width="50" height="51" viewBox="0 0 50 51" fill="none" xmlns="http://www.w3.org/2000/svg">
<path d="M35.3516 0.128906H14.6484C6.55833 0.128906 0 6.68723 0 14.7773V35.4805C0 43.5706 6.55833 50.1289 14.6484 50.1289H35.3516C43.4417 50.1289 50 43.5706 50 35.4805V14.7773C50 6.68723 43.4417 0.128906 35.3516 0.128906Z" fill="url(#paint0_linear_3524_17831)"/>
<path d="M22.5478 22.3604L18.6631 29.3125L9.14844 12.125L8.31055 10.6113H16.0449L16.2627 11.002L22.5478 22.3604ZM41.6934 10.6094L40.8555 12.123L25.8809 39.6465H24.2207L21.1113 33.7393L25.002 26.7881V26.7949L25.7285 25.4824L27.0039 23.1797L33.7422 11.0029L33.96 10.6123L41.6934 10.6094Z" fill="white"/>
<defs>
<linearGradient id="paint0_linear_3524_17831" x1="46.8586" y1="19.8908" x2="0.929709" y2="23.6696" gradientUnits="userSpaceOnUse">
<stop stop-color="#E54D60"/>
<stop offset="1" stop-color="#A342FF"/>
</linearGradient>
</defs>
</svg>
