<svg width="1600" height="1095" viewBox="0 0 1600 1095" fill="none" xmlns="http://www.w3.org/2000/svg">
<path d="M91.5294 -40H-3V54.5M91.5294 -40V54.5M91.5294 -40H186.059M91.5294 54.5H-3M91.5294 54.5H186.059M91.5294 54.5V149M-3 54.5V149M186.059 -40V54.5M186.059 -40H280.588M186.059 54.5H280.588M186.059 54.5V149M280.588 -40V54.5M280.588 -40H375.118M280.588 54.5H375.118M280.588 54.5V149M375.118 -40V54.5M375.118 -40H469.647M375.118 54.5H469.647M375.118 54.5V149M469.647 -40V54.5M469.647 -40H564.176M469.647 54.5H564.176M469.647 54.5V149M564.176 -40V54.5M564.176 -40H658.706M564.176 54.5H658.706M564.176 54.5V149M658.706 -40V54.5M658.706 -40H753.235M658.706 54.5H753.235M658.706 54.5V149M753.235 -40V54.5M753.235 -40H847.765M753.235 54.5H847.765M753.235 54.5V149M847.765 -40V54.5M847.765 -40H942.294M847.765 54.5H942.294M847.765 54.5V149M942.294 -40V54.5M942.294 -40H1036.82M942.294 54.5H1036.82M942.294 54.5V149M1036.82 -40V54.5M1036.82 -40H1131.35M1036.82 54.5H1131.35M1036.82 54.5V149M1131.35 -40V54.5M1131.35 -40H1225.88M1131.35 54.5H1225.88M1131.35 54.5V149M1225.88 -40V54.5M1225.88 -40H1320.41M1225.88 54.5H1320.41M1225.88 54.5V149M1320.41 -40V54.5M1320.41 -40H1414.94M1320.41 54.5H1414.94M1320.41 54.5V149M1414.94 -40V54.5M1414.94 -40H1509.47M1414.94 54.5H1509.47M1414.94 54.5V149M1509.47 -40V54.5M1509.47 -40H1604V54.5M1509.47 54.5H1604M1509.47 54.5V149M1604 54.5V149M91.5294 149H-3M91.5294 149H186.059M91.5294 149V243.5M-3 149V243.5M186.059 149H280.588M186.059 149V243.5M280.588 149H375.118M280.588 149V243.5M375.118 149H469.647M375.118 149V243.5M469.647 149H564.176M469.647 149V243.5M564.176 149H658.706M564.176 149V243.5M658.706 149H753.235M658.706 149V243.5M753.235 149H847.765M753.235 149V243.5M847.765 149H942.294M847.765 149V243.5M942.294 149H1036.82M942.294 149V243.5M1036.82 149H1131.35M1036.82 149V243.5M1131.35 149H1225.88M1131.35 149V243.5M1225.88 149H1320.41M1225.88 149V243.5M1320.41 149H1414.94M1320.41 149V243.5M1414.94 149H1509.47M1414.94 149V243.5M1509.47 149H1604M1509.47 149V243.5M1604 149V243.5M91.5294 243.5H-3M91.5294 243.5H186.059M91.5294 243.5V338M-3 243.5V338M186.059 243.5H280.588M186.059 243.5V338M280.588 243.5H375.118M280.588 243.5V338M375.118 243.5H469.647M375.118 243.5V338M469.647 243.5H564.176M469.647 243.5V338M564.176 243.5H658.706M564.176 243.5V338M658.706 243.5H753.235M658.706 243.5V338M753.235 243.5H847.765M753.235 243.5V338M847.765 243.5H942.294M847.765 243.5V338M942.294 243.5H1036.82M942.294 243.5V338M1036.82 243.5H1131.35M1036.82 243.5V338M1131.35 243.5H1225.88M1131.35 243.5V338M1225.88 243.5H1320.41M1225.88 243.5V338M1320.41 243.5H1414.94M1320.41 243.5V338M1414.94 243.5H1509.47M1414.94 243.5V338M1509.47 243.5H1604M1509.47 243.5V338M1604 243.5V338M91.5294 338H-3M91.5294 338H186.059M91.5294 338V432.5M-3 338V432.5M186.059 338H280.588M186.059 338V432.5M280.588 338H375.118M280.588 338V432.5M375.118 338H469.647M375.118 338V432.5M469.647 338H564.176M469.647 338V432.5M564.176 338H658.706M564.176 338V432.5M658.706 338H753.235M658.706 338V432.5M753.235 338H847.765M753.235 338V432.5M847.765 338H942.294M847.765 338V432.5M942.294 338H1036.82M942.294 338V432.5M1036.82 338H1131.35M1036.82 338V432.5M1131.35 338H1225.88M1131.35 338V432.5M1225.88 338H1320.41M1225.88 338V432.5M1320.41 338H1414.94M1320.41 338V432.5M1414.94 338H1509.47M1414.94 338V432.5M1509.47 338H1604M1509.47 338V432.5M1604 338V432.5M91.5294 432.5H-3M91.5294 432.5H186.059M91.5294 432.5V527M-3 432.5V527M186.059 432.5H280.588M186.059 432.5V527M280.588 432.5H375.118M280.588 432.5V527M375.118 432.5H469.647M375.118 432.5V527M469.647 432.5H564.176M469.647 432.5V527M564.176 432.5H658.706M564.176 432.5V527M658.706 432.5H753.235M658.706 432.5V527M753.235 432.5H847.765M753.235 432.5V527M847.765 432.5H942.294M847.765 432.5V527M942.294 432.5H1036.82M942.294 432.5V527M1036.82 432.5H1131.35M1036.82 432.5V527M1131.35 432.5H1225.88M1131.35 432.5V527M1225.88 432.5H1320.41M1225.88 432.5V527M1320.41 432.5H1414.94M1320.41 432.5V527M1414.94 432.5H1509.47M1414.94 432.5V527M1509.47 432.5H1604M1509.47 432.5V527M1604 432.5V527M91.5294 527H-3M91.5294 527H186.059M91.5294 527V621.5M-3 527V621.5M186.059 527H280.588M186.059 527V621.5M280.588 527H375.118M280.588 527V621.5M375.118 527H469.647M375.118 527V621.5M469.647 527H564.176M469.647 527V621.5M564.176 527H658.706M564.176 527V621.5M658.706 527H753.235M658.706 527V621.5M753.235 527H847.765M753.235 527V621.5M847.765 527H942.294M847.765 527V621.5M942.294 527H1036.82M942.294 527V621.5M1036.82 527H1131.35M1036.82 527V621.5M1131.35 527H1225.88M1131.35 527V621.5M1225.88 527H1320.41M1225.88 527V621.5M1320.41 527H1414.94M1320.41 527V621.5M1414.94 527H1509.47M1414.94 527V621.5M1509.47 527H1604M1509.47 527V621.5M1604 527V621.5M91.5294 621.5H-3M91.5294 621.5H186.059M91.5294 621.5V716M-3 621.5V716M186.059 621.5H280.588M186.059 621.5V716M280.588 621.5H375.118M280.588 621.5V716M375.118 621.5H469.647M375.118 621.5V716M469.647 621.5H564.176M469.647 621.5V716M564.176 621.5H658.706M564.176 621.5V716M658.706 621.5H753.235M658.706 621.5V716M753.235 621.5H847.765M753.235 621.5V716M847.765 621.5H942.294M847.765 621.5V716M942.294 621.5H1036.82M942.294 621.5V716M1036.82 621.5H1131.35M1036.82 621.5V716M1131.35 621.5H1225.88M1131.35 621.5V716M1225.88 621.5H1320.41M1225.88 621.5V716M1320.41 621.5H1414.94M1320.41 621.5V716M1414.94 621.5H1509.47M1414.94 621.5V716M1509.47 621.5H1604M1509.47 621.5V716M1604 621.5V716M91.5294 716H-3M91.5294 716H186.059M91.5294 716V810.5M-3 716V810.5M186.059 716H280.588M186.059 716V810.5M280.588 716H375.118M280.588 716V810.5M375.118 716H469.647M375.118 716V810.5M469.647 716H564.176M469.647 716V810.5M564.176 716H658.706M564.176 716V810.5M658.706 716H753.235M658.706 716V810.5M753.235 716H847.765M753.235 716V810.5M847.765 716H942.294M847.765 716V810.5M942.294 716H1036.82M942.294 716V810.5M1036.82 716H1131.35M1036.82 716V810.5M1131.35 716H1225.88M1131.35 716V810.5M1225.88 716H1320.41M1225.88 716V810.5M1320.41 716H1414.94M1320.41 716V810.5M1414.94 716H1509.47M1414.94 716V810.5M1509.47 716H1604M1509.47 716V810.5M1604 716V810.5M91.5294 810.5H-3M91.5294 810.5H186.059M91.5294 810.5V905M-3 810.5V905M186.059 810.5H280.588M186.059 810.5V905M280.588 810.5H375.118M280.588 810.5V905M375.118 810.5H469.647M375.118 810.5V905M469.647 810.5H564.176M469.647 810.5V905M564.176 810.5H658.706M564.176 810.5V905M658.706 810.5H753.235M658.706 810.5V905M753.235 810.5H847.765M753.235 810.5V905M847.765 810.5H942.294M847.765 810.5V905M942.294 810.5H1036.82M942.294 810.5V905M1036.82 810.5H1131.35M1036.82 810.5V905M1131.35 810.5H1225.88M1131.35 810.5V905M1225.88 810.5H1320.41M1225.88 810.5V905M1320.41 810.5H1414.94M1320.41 810.5V905M1414.94 810.5H1509.47M1414.94 810.5V905M1509.47 810.5H1604M1509.47 810.5V905M1604 810.5V905M91.5294 905H-3M91.5294 905H186.059M91.5294 905V999.5M-3 905V999.5M186.059 905H280.588M186.059 905V999.5M280.588 905H375.118M280.588 905V999.5M375.118 905H469.647M375.118 905V999.5M469.647 905H564.176M469.647 905V999.5M564.176 905H658.706M564.176 905V999.5M658.706 905H753.235M658.706 905V999.5M753.235 905H847.765M753.235 905V999.5M847.765 905H942.294M847.765 905V999.5M942.294 905H1036.82M942.294 905V999.5M1036.82 905H1131.35M1036.82 905V999.5M1131.35 905H1225.88M1131.35 905V999.5M1225.88 905H1320.41M1225.88 905V999.5M1320.41 905H1414.94M1320.41 905V999.5M1414.94 905H1509.47M1414.94 905V999.5M1509.47 905H1604M1509.47 905V999.5M1604 905V999.5M91.5294 999.5H-3M91.5294 999.5H186.059M91.5294 999.5V1094M-3 999.5V1094H91.5294M186.059 999.5H280.588M186.059 999.5V1094M280.588 999.5H375.118M280.588 999.5V1094M375.118 999.5H469.647M375.118 999.5V1094M469.647 999.5H564.176M469.647 999.5V1094M564.176 999.5H658.706M564.176 999.5V1094M658.706 999.5H753.235M658.706 999.5V1094M753.235 999.5H847.765M753.235 999.5V1094M847.765 999.5H942.294M847.765 999.5V1094M942.294 999.5H1036.82M942.294 999.5V1094M1036.82 999.5H1131.35M1036.82 999.5V1094M1131.35 999.5H1225.88M1131.35 999.5V1094M1225.88 999.5H1320.41M1225.88 999.5V1094M1320.41 999.5H1414.94M1320.41 999.5V1094M1414.94 999.5H1509.47M1414.94 999.5V1094M1509.47 999.5H1604M1509.47 999.5V1094M1604 999.5V1094H1509.47M91.5294 1094H186.059M186.059 1094H280.588M280.588 1094H375.118M375.118 1094H469.647M469.647 1094H564.176M564.176 1094H658.706M658.706 1094H753.235M753.235 1094H847.765M847.765 1094H942.294M942.294 1094H1036.82M1036.82 1094H1131.35M1131.35 1094H1225.88M1225.88 1094H1320.41M1320.41 1094H1414.94M1414.94 1094H1509.47" stroke="url(#paint0_radial_1926_845)" stroke-opacity="0.08" stroke-width="1.91704"/>
<defs>
<radialGradient id="paint0_radial_1926_845" cx="0" cy="0" r="1" gradientUnits="userSpaceOnUse" gradientTransform="translate(800.5 557.288) rotate(90) scale(535.5 804.712)">
<stop stop-color="white"/>
<stop offset="1" stop-color="white" stop-opacity="0"/>
</radialGradient>
</defs>
</svg>
