<svg width="650" height="417" viewBox="0 0 650 417" fill="none" xmlns="http://www.w3.org/2000/svg">
<g clip-path="url(#clip0_3165_1008)">
<circle cx="373" cy="373.902" r="371.674" stroke="white" stroke-opacity="0.06" stroke-width="2.65244"/>
<circle cx="373" cy="373.902" r="371.674" stroke="white" stroke-opacity="0.06" stroke-width="2.65244"/>
<path d="M690.841 373.902C690.841 549.269 548.609 691.433 373.156 691.433C197.703 691.433 55.4708 549.269 55.4708 373.902C55.4708 198.535 197.703 56.3708 373.156 56.3708C548.609 56.3708 690.841 198.535 690.841 373.902Z" stroke="white" stroke-opacity="0.06" stroke-width="2.65244"/>
<path d="M623.162 373.902C623.162 511.891 511.231 623.755 373.155 623.755C235.079 623.755 123.148 511.891 123.148 373.902C123.148 235.913 235.079 124.049 373.155 124.049C511.231 124.049 623.162 235.913 623.162 373.902Z" stroke="white" stroke-opacity="0.06" stroke-width="2.65244"/>
<path d="M558.251 374.056C558.251 476.281 475.313 559.153 373.001 559.153C270.689 559.153 187.75 476.281 187.75 374.056C187.75 271.831 270.689 188.959 373.001 188.959C475.313 188.959 558.251 271.831 558.251 374.056Z" stroke="white" stroke-opacity="0.06" stroke-width="2.65244"/>
<path d="M497.031 373.902C497.031 442.405 441.567 497.934 373.152 497.934C304.737 497.934 249.273 442.405 249.273 373.902C249.273 305.399 304.737 249.869 373.152 249.869C441.567 249.869 497.031 305.399 497.031 373.902Z" stroke="white" stroke-opacity="0.06" stroke-width="2.65244"/>
<path d="M439.196 373.902C439.196 410.29 409.63 439.793 373.152 439.793C336.674 439.793 307.107 410.29 307.107 373.902C307.107 337.514 336.674 308.011 373.152 308.011C409.63 308.011 439.196 337.514 439.196 373.902Z" stroke="white" stroke-opacity="0.06" stroke-width="2.65244"/>
</g>
<defs>
<clipPath id="clip0_3165_1008">
<rect width="746" height="419.001" fill="white" transform="translate(0 0.901947)"/>
</clipPath>
</defs>
</svg>
