<svg width="316" height="295" viewBox="0 0 316 295" fill="none" xmlns="http://www.w3.org/2000/svg">
<path d="M101.684 281.718V292.327H80.4551V281.718C80.4551 279.336 81.2445 277.136 82.5657 275.366C83.5213 274.086 84.7644 273.026 86.1969 272.29C87.6544 271.532 89.3146 271.103 91.0713 271.103C94.0012 271.103 96.6553 272.29 98.5781 274.211C100.496 276.134 101.686 278.786 101.686 281.718H101.684Z" fill="#4C9CA3"/>
<path d="M82.3874 278.607C82.3874 278.607 73.1455 265.995 79.1251 254.795C79.1251 254.795 88.9103 261.428 88.2588 274.911L82.3874 278.607Z" fill="#4C9CA3"/>
<path d="M86.1968 272.288C84.7659 273.025 83.5228 274.085 82.5655 275.365C80.8621 272.011 77.2159 263.638 79.9165 258.091C79.9165 258.091 85.198 262.02 86.1951 272.288H86.1968Z" fill="#F73C4F"/>
<path d="M99.7229 278.607C99.7229 278.607 108.965 265.995 102.985 254.795C102.985 254.795 93.2 261.428 93.8515 274.911L99.7229 278.607Z" fill="#4C9CA3"/>
<path d="M95.916 272.288C97.3469 273.025 98.59 274.085 99.5473 275.365C101.251 272.011 104.897 263.638 102.196 258.091C102.196 258.091 96.9148 262.02 95.9177 272.288H95.916Z" fill="#F73C4F"/>
<path d="M94.2289 282.976C94.2289 283.242 94.1923 283.498 94.1242 283.739C92.1332 283.358 90.1855 283.065 88.2793 282.846C88.3474 281.257 89.6487 279.999 91.2508 279.999C92.8528 279.999 94.2289 281.33 94.2289 282.977V282.976Z" fill="#FF8F6A"/>
<path d="M95.1086 279.792C95.6465 279.792 96.0825 279.356 96.0825 278.818C96.0825 278.28 95.6465 277.844 95.1086 277.844C94.5708 277.844 94.1348 278.28 94.1348 278.818C94.1348 279.356 94.5708 279.792 95.1086 279.792Z" fill="#111010"/>
<path d="M88.477 278.595C88.477 279.132 88.0416 279.569 87.5032 279.569C86.9647 279.569 86.5293 279.134 86.5293 278.595C86.5293 278.057 86.9647 277.621 87.5032 277.621C88.0416 277.621 88.477 278.057 88.477 278.595Z" fill="#111010"/>
<path d="M81.9085 277.879L77.8418 279.74L79.7314 280.141L77.8983 281.143L80.9628 282.175L81.9085 277.879Z" fill="#4C9CA3"/>
<path d="M99.7969 277.879L103.862 279.74L101.972 280.141L103.805 281.143L100.741 282.175L99.7969 277.879Z" fill="#4C9CA3"/>
<path d="M259.021 251.835L287.177 294.862H291.854L262.284 249.614L259.021 251.835Z" fill="#323244"/>
<path d="M292.169 251.836L267.618 294.93H262.439L289.267 249.59L292.169 251.836Z" fill="#323244"/>
<path d="M132.742 251.835L160.898 294.862H165.575L136.004 249.614L132.742 251.835Z" fill="#454556"/>
<path d="M165.89 251.836L141.339 294.93H136.162L162.99 249.59L165.89 251.836Z" fill="#454556"/>
<path d="M289.186 221.273V244.355H281.084V216.361L289.186 221.273Z" fill="#F4A422"/>
<path d="M160.499 221.273V244.355H152.398V216.361L160.499 221.273Z" fill="#F4A422"/>
<path d="M248.609 294.606C248.609 294.606 247.944 267.554 253.265 256.984C253.265 256.984 241.439 262.897 247.573 294.533L248.609 294.606Z" fill="#323244"/>
<path d="M250.987 294.207C250.987 294.207 253.307 281.682 257.791 276.578C257.791 276.578 248.513 279.438 249.904 294.362L250.986 294.207H250.987Z" fill="#323244"/>
<path d="M245.997 294.385C245.997 294.385 239.841 279.338 240.697 270.105C240.697 270.105 234.827 279.052 244.858 294.442L245.998 294.385H245.997Z" fill="#323244"/>
<path d="M292.168 185.516H144.57V221.272H292.168V185.516Z" fill="#FCBD4B"/>
<path d="M292.169 244.355H131.777V251.836H292.169V244.355Z" fill="#FCBD4B"/>
<path d="M292.17 244.355H259.021V251.836H292.17V244.355Z" fill="#F4A422"/>
<path d="M292.168 185.516H285.414V221.272H292.168V185.516Z" fill="#F4A422"/>
<path d="M285.414 221.272H144.57V185.516H191.672L285.414 221.272Z" fill="#F4A422"/>
<path d="M17.9727 294.041C17.9727 294.041 27.6017 282.978 50.7519 289.33C73.9021 295.681 79.4346 270.276 105.453 287.691C131.472 305.104 152.984 278.062 205.021 293.837C205.021 293.837 240.054 288.306 255.42 294.041C255.42 294.041 282.053 290.558 292.912 293.837L17.9727 294.041Z" fill="#F9D8AD"/>
<path d="M24.3105 294.006C24.3105 294.006 31.6877 288.07 38.2007 294.179L24.3105 294.006Z" fill="#FF8F6A"/>
<path d="M71.8507 294.623C71.8507 294.623 73.0706 244.995 63.3086 225.604C63.3086 225.604 85.0047 236.451 73.7503 294.487L71.8524 294.623H71.8507Z" fill="#454556"/>
<path d="M67.4864 293.89C67.4864 293.89 63.2303 270.911 55.0039 261.549C55.0039 261.549 72.0251 266.798 69.4724 294.174L67.4864 293.89Z" fill="#454556"/>
<path d="M76.6445 294.216C76.6445 294.216 87.9371 266.611 86.3683 249.673C86.3683 249.673 97.1374 266.09 78.7352 294.32L76.6445 294.216Z" fill="#454556"/>
<path d="M92.2812 294.332L103.773 290.034L111.248 294.332H92.2812Z" fill="#FF8F6A"/>
<path d="M42.0547 294.58C42.0547 294.58 46.5717 286.762 62.3813 284.329C78.191 281.896 90.7865 294.405 90.7865 294.405L42.0547 294.58Z" fill="#FF8F6A"/>
<path d="M188.913 294.194L176.236 280.952L169.94 282.734L157.805 263.886L156.828 263.908L153.559 263.979C151.063 264.034 148.834 265.556 147.875 267.861L139.601 276.162L138.354 278.735L126.842 283.147L124.323 288.336L108.611 294.561L131.075 293.75L130.769 294.382L188.914 294.194H188.913Z" fill="#FF8F6A"/>
<path d="M188.912 294.194L130.768 294.382L139.601 276.163L147.875 267.861C148.834 265.556 151.063 264.034 153.559 263.979L156.828 263.908L164.903 282.729L169.938 282.734L176.234 280.952L174.859 284.681L188.911 294.194H188.912Z" fill="#F05E2B"/>
<path d="M277.115 280.292C279.763 280.292 281.909 277.661 281.909 274.416C281.909 271.17 279.763 268.539 277.115 268.539C274.467 268.539 272.32 271.17 272.32 274.416C272.32 277.661 274.467 280.292 277.115 280.292Z" fill="#323244"/>
<path d="M312.231 245.012L311.792 248.424L311.622 249.743L305.942 294.091H274.986L272.51 274.761L270.899 262.194L268.697 245.012H312.231Z" fill="#F73C4F"/>
<path d="M311.792 248.424L311.624 249.743L305.944 294.09H296.084V246.96C302.861 245.825 307.968 246.534 311.794 248.424H311.792Z" fill="#DD2641"/>
<path d="M316.006 240.179H264.924V245.012H316.006V240.179Z" fill="#F73C4F"/>
<path d="M312.231 245.012L311.622 249.743L268.697 245.012H312.231Z" fill="#323244"/>
<path d="M316.004 240.179V245.012H291.724L285.926 240.179H316.004Z" fill="#DD2641"/>
<path d="M287.088 267.663C287.088 272.644 283.047 276.681 278.067 276.681C275.971 276.681 274.043 275.968 272.513 274.761L270.902 262.194C272.548 260.039 275.145 258.648 278.068 258.648C283.049 258.648 287.089 262.684 287.089 267.665L287.088 267.663Z" fill="#FCBD4B"/>
<path d="M193.172 294.423L202.871 287.277L212.837 283.209L222.521 293.951L193.172 294.423Z" fill="#F05E2B"/>
<path d="M314.336 295H1.33744C0.905348 295 0.554688 294.649 0.554688 294.217C0.554688 293.785 0.905348 293.435 1.33744 293.435H314.336C314.768 293.435 315.119 293.785 315.119 294.217C315.119 294.649 314.768 295 314.336 295Z" fill="#F9D8AD"/>
<path d="M205.166 114.716L210.511 147.525L204.86 150.059L196.917 153.616C196.917 153.616 196.912 153.599 196.908 153.591C196.72 153.074 193.719 144.628 190.969 132.95C189.967 128.694 188.993 124.004 188.198 119.117C188.067 118.311 187.942 117.5 187.824 116.685L164.576 114.437L163.68 117.081L157.643 134.87L154.005 139.603L147.989 147.432L142.686 145.778L132.053 142.463L139.553 105.064C139.553 105.064 133.459 95.6905 135.239 76.7515C136.005 68.6132 136.962 62.2897 137.801 57.7311C138.172 55.7235 138.971 53.8655 140.106 52.2601C142.021 49.5429 144.901 47.547 148.27 46.7642L158.678 44.3478L160.828 43.8509L163.627 40.1964C164.935 38.4896 166.914 37.4958 169.005 37.4177V39.7145C168.28 40.0817 167.124 41.3564 167.34 45.7272C167.365 46.2125 167.405 46.839 167.454 47.5885C168.098 56.596 170.669 83.0202 170.669 83.0202L182.629 87.0902C182.629 87.0902 182.634 87.0702 182.641 87.0287C182.958 85.3418 189.726 49.3119 190.149 47.0218C190.447 45.3998 188.92 44.0155 187.946 43.3191V41.2168L188.039 41.2368C188.039 41.2368 188.044 41.2368 188.05 41.2418C191.138 41.9015 193.42 44.5257 193.651 47.6783L193.732 48.815C193.732 48.815 195.052 49.7158 197.008 51.0885C202.083 54.645 211.445 61.379 213.135 63.8136C215.339 66.9862 217.792 108.449 207.322 114.086C206.657 114.448 205.941 114.664 205.166 114.713V114.716Z" fill="#4C9CA3"/>
<path d="M197.096 120.985L190.216 118.497C190.216 118.497 192.114 136.241 196.908 153.591C196.72 153.074 193.719 144.629 190.969 132.95C189.967 128.694 188.993 124.004 188.198 119.117C188.067 118.311 187.942 117.5 187.824 116.685L164.576 114.437L141.137 109.951L132.053 142.463L139.553 105.064L188.147 116.107L199.936 119.203L199.865 119.501C199.569 120.72 198.278 121.413 197.098 120.986L197.096 120.985Z" fill="#28878D"/>
<path d="M189.999 29.773C189.726 31.6626 189 33.4109 187.942 34.8983C187.403 35.6511 186.78 36.3408 186.089 36.9441C185.999 37.0222 185.909 37.0986 185.816 37.1717C183.787 38.8419 181.188 39.8441 178.352 39.8441C174.54 39.8441 171.146 38.0276 169.003 35.2124C167.813 33.6651 167.007 31.8154 166.713 29.7979C163.262 29.9076 162.073 20.3833 164.309 19.8182C164.388 19.7933 164.472 19.785 164.562 19.79C165.516 19.8315 166.151 20.2985 166.586 20.8818V13.508C166.586 11.3076 167.976 9.43468 169.918 8.71342C170.472 8.50901 171.072 8.396 171.698 8.396H185.002C187.829 8.396 190.119 10.6861 190.119 13.508V21.2973C190.539 20.5312 191.244 19.8382 192.409 19.79C192.487 19.785 192.56 19.7933 192.625 19.8099C194.971 20.2952 193.664 30.4012 189.997 29.7746L189.999 29.773Z" fill="#FF8F6A"/>
<path d="M194.887 3.78429L192.627 19.81C192.562 19.7933 192.489 19.785 192.411 19.79C191.246 19.8382 190.541 20.5312 190.121 21.2974V13.508C190.121 10.9986 188.313 8.90958 185.921 8.48081C185.624 8.4243 185.318 8.39605 185.004 8.39605H171.701C168.877 8.39605 166.589 10.6861 166.589 13.508V20.8819C166.153 20.3002 165.517 19.8316 164.564 19.79C164.475 19.785 164.39 19.7933 164.312 19.8183L161.777 5.62235C176.748 -5.46583 187.376 3.27242 187.376 3.27242C192.28 1.5374 194.887 3.78595 194.887 3.78595V3.78429Z" fill="#231F20"/>
<path d="M187.943 34.8982V47.6167C182.472 52.3996 177.481 52.9497 177.481 52.9497C175.412 52.0938 173.787 50.6679 172.54 49.1406C169.989 46.0279 169.004 42.4881 169.004 42.4881V35.2123C169.122 35.3668 169.245 35.5214 169.375 35.6726C169.493 35.8156 169.619 35.9585 169.748 36.0964C169.757 36.1047 169.765 36.1164 169.777 36.1297C169.878 36.2393 169.988 36.349 170.094 36.4554C170.139 36.5003 170.187 36.5451 170.232 36.5867C170.353 36.708 170.48 36.8227 170.611 36.9373C170.908 37.1983 171.218 37.4426 171.54 37.6702C171.585 37.7035 171.633 37.74 171.683 37.7683C171.781 37.8381 171.879 37.9029 171.975 37.9677C172.158 38.0857 172.346 38.2004 172.537 38.3101C172.643 38.3716 172.753 38.4314 172.863 38.4896C173.189 38.6607 173.528 38.8203 173.873 38.9615C173.988 39.0097 174.101 39.0546 174.219 39.0995C174.337 39.141 174.455 39.1842 174.573 39.2208C174.688 39.2623 174.806 39.2989 174.924 39.3388H174.932C175.173 39.4119 175.412 39.4767 175.661 39.5349C175.751 39.5548 175.844 39.5798 175.942 39.5964C176.049 39.6213 176.15 39.6412 176.256 39.6579C176.363 39.6778 176.467 39.6944 176.579 39.711C176.664 39.7277 176.75 39.736 176.835 39.7476C176.908 39.7592 176.981 39.7675 177.054 39.7759C177.132 39.7842 177.214 39.7925 177.29 39.7958C177.4 39.8074 177.509 39.8157 177.621 39.8241H177.641C177.873 39.8357 178.113 39.844 178.35 39.844C178.763 39.844 179.17 39.8241 179.569 39.7792C179.707 39.7676 179.849 39.7509 179.987 39.731C180.167 39.7061 180.341 39.6778 180.518 39.6462H180.521C180.546 39.6429 180.569 39.6379 180.594 39.6296C180.745 39.6014 180.891 39.5731 181.038 39.5365C181.189 39.5033 181.338 39.4634 181.486 39.4219C181.551 39.4053 181.616 39.3853 181.683 39.3654C181.809 39.3288 181.935 39.2922 182.056 39.2474C182.211 39.1992 182.362 39.146 182.508 39.0878C182.553 39.0712 182.598 39.0546 182.638 39.0347C182.764 38.9898 182.891 38.9366 183.017 38.8801C183.034 38.8768 183.05 38.8685 183.062 38.8602C183.188 38.807 183.318 38.7455 183.444 38.6857C183.489 38.6657 183.534 38.6441 183.579 38.6208C183.7 38.5594 183.82 38.4995 183.938 38.433C183.963 38.4214 183.991 38.4081 184.016 38.3915C184.13 38.3267 184.243 38.2652 184.353 38.1954C184.39 38.1788 184.423 38.1538 184.46 38.1339C184.586 38.0558 184.712 37.9744 184.833 37.8929C184.845 37.8879 184.858 37.8813 184.87 37.868C185.008 37.7783 185.148 37.6802 185.277 37.5822C185.367 37.5207 185.457 37.4525 185.541 37.3827C185.631 37.3179 185.721 37.2481 185.806 37.175L185.811 37.1717C185.904 37.0985 185.993 37.0204 186.083 36.944C186.776 36.3407 187.399 35.6527 187.936 34.8982H187.943Z" fill="#FF8F6A"/>
<path d="M152.131 139.354H152.305L152.232 139.761L152.131 139.354Z" fill="#F29E9E"/>
<path d="M185.816 37.1717C183.787 38.8419 181.188 39.844 178.352 39.844C174.54 39.844 171.146 38.0276 169.003 35.2123C167.813 33.6651 167.007 31.8154 166.713 29.7979C163.262 29.9076 162.073 20.3832 164.309 19.8182C164.388 19.7932 164.472 19.7849 164.562 19.7899C165.516 19.8315 166.151 20.2985 166.586 20.8818V13.508C166.586 11.3076 167.976 9.43464 169.918 8.71338V26.5887C169.918 34.5193 177.814 40.1714 185.243 37.3961C185.43 37.3263 185.622 37.2515 185.813 37.1734L185.816 37.1717Z" fill="#F05E2B"/>
<path d="M190.238 22.6551V27.8951C190.238 27.8951 192.224 27.5361 192.444 24.2555C192.663 20.9749 191.259 21.4984 190.238 22.6568V22.6551Z" fill="#F05E2B"/>
<path d="M172.54 38.3085V49.1408C169.989 46.028 169.004 42.4882 169.004 42.4882V35.2124C169.122 35.367 169.245 35.5215 169.375 35.6727C169.493 35.8157 169.619 35.9586 169.748 36.0965C169.757 36.1048 169.765 36.1165 169.777 36.1298C169.878 36.2395 169.988 36.3491 170.094 36.4555C170.139 36.5004 170.187 36.5452 170.232 36.5868C170.353 36.7081 170.48 36.8228 170.611 36.9374C170.908 37.1984 171.218 37.4427 171.54 37.6703C171.585 37.7036 171.633 37.7401 171.683 37.7684C171.781 37.8382 171.879 37.903 171.975 37.9678C172.158 38.0858 172.346 38.2005 172.537 38.3102L172.54 38.3085Z" fill="#F05E2B"/>
<path d="M190.147 47.0253C190.025 47.6901 189.369 51.1884 188.493 55.865C186.269 67.7076 182.626 87.0937 182.626 87.0937L171.937 83.4558L171.163 83.1949L170.666 83.0237C170.666 83.0237 167.648 52.016 167.337 45.7291C167.121 41.3583 168.278 40.0836 169.002 39.7163V42.4867C169.002 42.4867 169.988 46.0265 172.539 49.1393C173.785 50.6665 175.41 52.0925 177.48 52.9483C177.48 52.9483 182.47 52.3982 187.941 47.6153V43.321C188.915 44.0173 190.442 45.4033 190.145 47.0237L190.147 47.0253Z" fill="#F9D8AD"/>
<path d="M190.968 132.95C188.699 133.281 185.887 133.916 182.678 135.097C180.368 135.948 177.85 137.085 175.186 138.597C164.672 144.562 156.492 140.997 154.004 139.603L157.642 134.87L163.679 117.081L164.575 114.437L187.824 116.685C187.941 117.5 188.068 118.311 188.197 119.117C188.992 124.004 189.966 128.694 190.968 132.95Z" fill="#F9D8AD"/>
<path d="M204.86 150.059L204.588 154.781L202.706 187.321L197.48 277.592C197.48 277.592 197.476 277.588 197.471 277.583C197.26 277.441 193.504 275.079 184.497 281.039C183.756 281.532 182.973 282.082 182.159 282.692C182.15 282.695 182.139 282.704 182.13 282.712L174.647 162.642L135.479 280.739C135.479 280.739 135.373 280.593 135.173 280.341C134.003 278.898 129.618 273.994 123.637 273.671C123.12 273.643 122.586 273.651 122.044 273.7C121.674 273.728 121.3 273.781 120.916 273.851L142.685 145.777L147.988 147.43L154.004 139.601C156.494 140.994 164.674 144.559 175.187 138.596C181.554 134.986 187.061 133.515 190.968 132.95C193.719 144.63 196.72 153.074 196.908 153.591L196.916 153.616L204.86 150.059Z" fill="#323244"/>
<path d="M202.615 117.596C202.615 117.596 202.379 120.451 199.934 119.201C199.934 119.201 200.052 121.287 197.613 120.395C195.173 119.499 188.146 116.105 188.146 116.105L189.218 109.38L203.866 114.556C203.866 114.556 205.236 116.878 202.615 117.596Z" fill="#FF8F6A"/>
<path d="M168.765 83.6269C168.765 83.6269 165.481 85.9768 165.481 95.2934C165.481 95.2934 163.042 95.5128 161.709 95.1139C160.381 94.7151 153.863 89.7493 153.863 89.7493C153.863 89.7493 153.712 89.3139 153.692 88.7505C153.675 88.2985 153.74 87.765 154.038 87.308C154.038 87.308 154.127 86.0649 155.056 85.3121C155.989 84.5592 168.764 83.6252 168.764 83.6252L168.765 83.6269Z" fill="#FF8F6A"/>
<path d="M215.359 294.729H180.105V290.008L182.13 282.712C182.138 282.717 182.146 282.72 182.155 282.724C186.856 285.534 191.642 278.308 191.642 278.308H197.703L205.272 285.66C209.732 285.66 212.238 287.808 213.639 290.006C215.118 292.333 215.358 294.728 215.358 294.728L215.359 294.729Z" fill="#323244"/>
<path d="M215.359 294.729H180.105V290.008H213.639C215.118 292.334 215.358 294.729 215.358 294.729H215.359Z" fill="#F9D8AD"/>
<path d="M189.06 49.6328L183.875 61.4007L176.619 54.3243L170.277 56.0959L171.939 83.4541L170.668 83.022C170.668 83.022 167.65 52.0143 167.339 45.7273C167.123 41.3566 168.28 40.0819 169.004 39.7146V42.485C169.004 42.485 169.99 46.0248 172.541 49.1376C173.787 50.6648 175.412 52.0907 177.482 52.9466C177.482 52.9466 182.472 52.3965 187.943 47.6136C187.943 47.6136 185.462 51.765 178.264 54.3227L183.267 59.5078L189.06 49.6295V49.6328Z" fill="#E8B374"/>
<path d="M188.492 55.8647C186.269 67.7074 182.626 87.0935 182.626 87.0935L171.936 83.4556L171.162 83.1946L171.15 82.0745L180.666 84.0622L188.492 55.8647Z" fill="#E8B374"/>
<path d="M174.078 53.8657L173.555 71.4021L175.758 53.7195L174.078 53.8657Z" fill="#E8B374"/>
<path d="M177.981 61.236C177.981 61.6997 177.606 62.0752 177.142 62.0752C176.678 62.0752 176.303 61.6997 176.303 61.236C176.303 60.7723 176.678 60.3967 177.142 60.3967C177.606 60.3967 177.981 60.7723 177.981 61.236Z" fill="#231F20"/>
<path d="M176.228 70.1736C176.691 70.1736 177.067 69.7979 177.067 69.3344C177.067 68.8709 176.691 68.4951 176.228 68.4951C175.764 68.4951 175.389 68.8709 175.389 69.3344C175.389 69.7979 175.764 70.1736 176.228 70.1736Z" fill="#231F20"/>
<path d="M182.627 87.0936L194.592 92.4731L201.82 64.9771L196.793 89.4884L209.598 66.2351C209.598 66.2351 202.212 82.1046 198.913 89.0181C198.913 89.0181 200.564 88.704 208.261 88.704C208.261 88.704 202.604 89.4103 199.148 91.3746C199.148 91.3746 206.217 90.7464 211.01 99.3883C211.01 99.3883 205.903 92.1607 199.226 94.2032L203.311 102.609L197.89 95.1455L182.625 87.0952L182.627 87.0936Z" fill="#28878D"/>
<path d="M191.631 46.6514C191.326 50.4239 183.033 85.3952 182.641 87.0339C182.958 85.347 189.725 49.3171 190.149 47.027C190.447 45.405 188.919 44.0206 187.945 43.3243V41.5195L188.038 41.2419C188.038 41.2419 188.043 41.2419 188.05 41.2469C188.269 41.3367 191.932 42.9055 191.631 46.6531V46.6514Z" fill="#28878D"/>
<path d="M194.774 59.7636L197.528 62.4476L184.582 87.1018L195.325 62.657L192.155 58.9377L197.458 57.5599L193.731 48.8184C193.731 48.8184 195.05 49.7191 197.006 51.0918L199.8 58.4574L194.773 59.7653L194.774 59.7636Z" fill="#28878D"/>
<path d="M187.376 3.27076L185.921 8.48081C185.624 8.4243 185.318 8.39605 185.004 8.39605H171.701C168.877 8.39605 166.589 10.6861 166.589 13.508V20.8819C166.153 20.3002 165.517 19.8316 164.564 19.79C164.475 19.785 164.39 19.7933 164.312 19.8183L161.777 5.62235C176.748 -5.46583 187.376 3.27242 187.376 3.27242V3.27076Z" fill="#110F10"/>
<path d="M159.289 56.011L162.238 54.4438L159.102 52.9365L158.678 44.3494L160.828 43.8525L160.923 51.8695L164.873 54.5651L161.358 56.5744L169.766 82.4169L159.289 56.011Z" fill="#28878D"/>
<path d="M168.763 83.6269C168.763 83.6269 155.988 84.5592 155.056 85.3137C154.127 86.0665 154.037 87.3096 154.037 87.3096C153.739 87.765 153.675 88.3001 153.691 88.7522L147.516 52.6441L153.721 83.3543C153.839 83.9377 154.481 84.2451 155.009 83.9726C155.332 83.8064 155.521 83.4624 155.489 83.1017L152.754 50.7346L160.723 82.9322H163.398L163.179 71.962L168.765 83.6285L168.763 83.6269Z" fill="#28878D"/>
<path d="M169.006 37.4193V39.7161C168.282 40.0834 167.125 41.358 167.341 45.7288C167.366 46.2141 167.406 46.8406 167.456 47.5901C166.947 46.7393 166.16 45.8751 165.101 45.7654C162.942 45.541 160.245 49.7207 160.245 49.7207L140.109 52.2584C142.024 49.5412 144.904 47.5453 148.273 46.7625L158.681 44.3461L160.832 43.8492L163.63 40.1947C164.938 38.4879 166.917 37.4941 169.008 37.416L169.006 37.4193Z" fill="#28878D"/>
<path d="M207.319 114.089C206.655 114.452 205.938 114.668 205.164 114.716L203.864 114.556L189.216 109.379L161.707 95.1138L165.48 95.2933C165.48 95.2933 197.689 112.228 207.319 114.089Z" fill="#28878D"/>
<path d="M196.91 153.591L189.496 136.372C181.967 137.66 174.624 141.88 174.624 141.88L173.153 153.082L172.235 142.8C166.174 146.287 156.075 144.821 156.075 144.821L149.467 152.532L123.637 273.673C122.761 273.628 121.852 273.676 120.916 273.852L142.685 145.778L147.988 147.432L154.004 139.603C156.494 140.995 164.674 144.56 175.187 138.597C181.554 134.988 187.061 133.517 190.968 132.952C193.719 144.632 196.72 153.076 196.908 153.593L196.91 153.591Z" fill="#1F1F35"/>
<path d="M167.138 118.123L163.253 134.788C163.253 134.788 171.652 136.618 182.68 135.097C180.37 135.948 177.852 137.085 175.188 138.597C164.674 144.562 156.494 140.997 154.006 139.603L157.644 134.87L163.681 117.081L164.577 114.437L187.825 116.685C187.943 117.5 188.07 118.311 188.199 119.117C188.994 124.004 189.968 128.694 190.97 132.95L185.642 119.349L167.14 118.123H167.138Z" fill="#E8B374"/>
<path d="M180.021 164.839L184.498 281.038C183.749 281.535 182.96 282.094 182.132 282.712L174.648 162.642C181.773 160.923 188.352 153.052 188.352 153.052C186.45 159.599 180.021 164.837 180.021 164.837V164.839Z" fill="#1F1F35"/>
<path d="M197.478 277.592V278.308H191.64C191.64 278.308 186.854 285.534 182.152 282.724L182.157 282.69C182.972 282.079 183.754 281.529 184.496 281.037C193.503 275.077 197.259 277.44 197.47 277.582C197.475 277.585 197.478 277.585 197.478 277.59V277.592Z" fill="#E8B374"/>
<path d="M198.571 280.747H193.487C193.263 280.747 193.08 280.565 193.08 280.34C193.08 280.116 193.263 279.933 193.487 279.933H198.571C198.795 279.933 198.978 280.116 198.978 280.34C198.978 280.565 198.795 280.747 198.571 280.747Z" fill="#F9D8AD"/>
<path d="M199.772 282.12H194.688C194.464 282.12 194.281 281.937 194.281 281.713C194.281 281.489 194.464 281.306 194.688 281.306H199.772C199.997 281.306 200.179 281.489 200.179 281.713C200.179 281.937 199.997 282.12 199.772 282.12Z" fill="#F9D8AD"/>
<path d="M200.975 283.493H195.892C195.667 283.493 195.484 283.31 195.484 283.086C195.484 282.862 195.667 282.679 195.892 282.679H200.975C201.2 282.679 201.382 282.862 201.382 283.086C201.382 283.31 201.2 283.493 200.975 283.493Z" fill="#F9D8AD"/>
<path d="M202.174 284.865H197.091C196.866 284.865 196.684 284.683 196.684 284.458C196.684 284.234 196.866 284.051 197.091 284.051H202.174C202.399 284.051 202.582 284.234 202.582 284.458C202.582 284.683 202.399 284.865 202.174 284.865Z" fill="#F9D8AD"/>
<path d="M136.457 290.008V294.729H101.203C101.203 294.729 101.444 292.334 102.922 290.008C104.323 287.807 106.829 285.662 111.289 285.662L118.857 278.31H124.918C124.918 278.31 129.701 285.532 134.401 282.729L134.405 282.725L134.429 282.714L136.454 290.009L136.457 290.008Z" fill="#323244"/>
<path d="M101.205 294.729H136.459V290.008H102.925C101.446 292.334 101.207 294.729 101.207 294.729H101.205Z" fill="#F9D8AD"/>
<path d="M117.991 280.747H123.075C123.299 280.747 123.482 280.565 123.482 280.34C123.482 280.116 123.299 279.933 123.075 279.933H117.991C117.767 279.933 117.584 280.116 117.584 280.34C117.584 280.565 117.767 280.747 117.991 280.747Z" fill="#F9D8AD"/>
<path d="M116.792 282.12H121.876C122.1 282.12 122.283 281.937 122.283 281.713C122.283 281.489 122.1 281.306 121.876 281.306H116.792C116.568 281.306 116.385 281.489 116.385 281.713C116.385 281.937 116.568 282.12 116.792 282.12Z" fill="#F9D8AD"/>
<path d="M115.591 283.493H120.675C120.899 283.493 121.082 283.31 121.082 283.086C121.082 282.862 120.899 282.679 120.675 282.679H115.591C115.366 282.679 115.184 282.862 115.184 283.086C115.184 283.31 115.366 283.493 115.591 283.493Z" fill="#F9D8AD"/>
<path d="M114.39 284.866H119.473C119.698 284.866 119.88 284.683 119.88 284.458C119.88 284.234 119.698 284.051 119.473 284.051H114.39C114.165 284.051 113.982 284.234 113.982 284.458C113.982 284.683 114.165 284.866 114.39 284.866Z" fill="#F9D8AD"/>
<path d="M135.174 280.342L134.407 282.726L134.404 282.729C129.703 285.531 124.921 278.31 124.921 278.31H121.207L122.046 273.703C122.588 273.655 123.122 273.647 123.638 273.675C129.618 273.997 134.005 278.902 135.175 280.344L135.174 280.342Z" fill="#E8B374"/>
<path d="M206.66 154.781L205.093 187.321H202.705L204.588 154.781H206.66Z" fill="#323244"/>
<path d="M142.975 151.532H139.635L133.961 183.931H137.554L142.975 151.532Z" fill="#1F1F35"/>
<path d="M176.236 159.183C176.236 159.183 188.199 153.202 190.158 142.993C190.158 142.993 180.464 155.573 176.236 159.183Z" fill="#1F1F35"/>
<path d="M162.057 67.28H152.605V71.8137H162.057V67.28Z" fill="#F9D8AD"/>
<path d="M162.057 65.6248H152.605V67.2783H162.057V65.6248Z" fill="#323244"/>
<path d="M156.894 64.0327H158.054C158.184 64.0327 158.29 64.1391 158.29 64.2687V66.3527C158.29 66.4824 158.184 66.5887 158.054 66.5887H156.894C156.765 66.5887 156.658 66.4824 156.658 66.3527V64.2687C156.658 64.1391 156.765 64.0327 156.894 64.0327Z" fill="#323244"/>
</svg>
