<svg width="311" height="169" viewBox="0 0 311 169" fill="none" xmlns="http://www.w3.org/2000/svg">
<rect width="310.45" height="168.53" rx="11" fill="url(#paint0_linear_2699_1157)"/>
<g filter="url(#filter0_d_2699_1157)">
<rect x="56" y="50" width="198" height="68" rx="11" fill="white"/>
</g>
<path d="M124.512 92V75.2H127.2V92H124.512ZM132.648 92V85.856H135.336V92H132.648ZM132.648 85.856C132.648 84.896 132.536 84.16 132.312 83.648C132.088 83.12 131.776 82.752 131.376 82.544C130.992 82.336 130.544 82.232 130.032 82.232C129.12 82.216 128.416 82.512 127.92 83.12C127.44 83.728 127.2 84.6 127.2 85.736H126.168C126.168 84.472 126.352 83.392 126.72 82.496C127.104 81.584 127.64 80.896 128.328 80.432C129.016 79.952 129.832 79.712 130.776 79.712C131.72 79.712 132.536 79.904 133.224 80.288C133.912 80.672 134.432 81.272 134.784 82.088C135.152 82.888 135.336 83.936 135.336 85.232V85.856H132.648ZM145.898 92L145.754 89.792V80H148.418V92H145.898ZM137.594 86.144V80H140.282V86.144H137.594ZM140.282 86.144C140.282 87.088 140.394 87.824 140.618 88.352C140.842 88.88 141.146 89.248 141.53 89.456C141.93 89.664 142.386 89.768 142.898 89.768C143.81 89.784 144.514 89.488 145.01 88.88C145.506 88.272 145.754 87.4 145.754 86.264H146.762C146.762 87.528 146.57 88.616 146.186 89.528C145.818 90.424 145.29 91.112 144.602 91.592C143.93 92.056 143.114 92.288 142.154 92.288C141.21 92.288 140.394 92.096 139.706 91.712C139.034 91.328 138.514 90.728 138.146 89.912C137.778 89.096 137.594 88.048 137.594 86.768V86.144H140.282ZM155.573 92.288C154.773 92.288 154.037 92.168 153.365 91.928C152.693 91.688 152.117 91.352 151.637 90.92C151.157 90.472 150.789 89.952 150.533 89.36L152.861 88.328C153.101 88.776 153.453 89.152 153.917 89.456C154.397 89.76 154.925 89.912 155.501 89.912C156.125 89.912 156.621 89.808 156.989 89.6C157.373 89.376 157.565 89.072 157.565 88.688C157.565 88.32 157.421 88.04 157.133 87.848C156.845 87.64 156.437 87.472 155.909 87.344L154.781 87.032C153.645 86.744 152.757 86.288 152.117 85.664C151.477 85.024 151.157 84.296 151.157 83.48C151.157 82.28 151.541 81.352 152.309 80.696C153.093 80.04 154.213 79.712 155.669 79.712C156.405 79.712 157.077 79.824 157.685 80.048C158.309 80.256 158.845 80.56 159.293 80.96C159.741 81.344 160.053 81.8 160.229 82.328L157.997 83.336C157.837 82.936 157.533 82.632 157.085 82.424C156.637 82.2 156.141 82.088 155.597 82.088C155.053 82.088 154.629 82.208 154.325 82.448C154.021 82.672 153.869 82.992 153.869 83.408C153.869 83.648 154.005 83.872 154.277 84.08C154.549 84.272 154.941 84.432 155.453 84.56L156.869 84.896C157.653 85.088 158.293 85.392 158.789 85.808C159.285 86.208 159.653 86.664 159.893 87.176C160.133 87.672 160.253 88.176 160.253 88.688C160.253 89.408 160.045 90.04 159.629 90.584C159.229 91.128 158.677 91.552 157.973 91.856C157.269 92.144 156.469 92.288 155.573 92.288ZM162.209 92V75.2H164.897V92H162.209ZM170.345 92V85.856H173.033V92H170.345ZM170.345 85.856C170.345 84.896 170.233 84.16 170.009 83.648C169.785 83.12 169.473 82.752 169.073 82.544C168.689 82.336 168.241 82.232 167.729 82.232C166.817 82.216 166.113 82.512 165.617 83.12C165.137 83.728 164.897 84.6 164.897 85.736H163.865C163.865 84.472 164.049 83.392 164.417 82.496C164.801 81.584 165.337 80.896 166.025 80.432C166.713 79.952 167.529 79.712 168.473 79.712C169.417 79.712 170.233 79.904 170.921 80.288C171.609 80.672 172.129 81.272 172.481 82.088C172.849 82.888 173.033 83.936 173.033 85.232V85.856H170.345ZM175.579 92V75.2H178.267V92H175.579ZM183.715 92V85.856H186.403V92H183.715ZM183.715 85.856C183.715 84.896 183.603 84.16 183.379 83.648C183.155 83.12 182.843 82.752 182.443 82.544C182.059 82.336 181.611 82.232 181.099 82.232C180.187 82.216 179.483 82.512 178.987 83.12C178.507 83.728 178.267 84.6 178.267 85.736H177.235C177.235 84.472 177.419 83.392 177.787 82.496C178.171 81.584 178.707 80.896 179.395 80.432C180.083 79.952 180.899 79.712 181.843 79.712C182.787 79.712 183.603 79.904 184.291 80.288C184.979 80.672 185.499 81.272 185.851 82.088C186.219 82.888 186.403 83.936 186.403 85.232V85.856H183.715Z" fill="url(#paint1_linear_2699_1157)"/>
<defs>
<filter id="filter0_d_2699_1157" x="43.3" y="47.3" width="227.4" height="97.4" filterUnits="userSpaceOnUse" color-interpolation-filters="sRGB">
<feFlood flood-opacity="0" result="BackgroundImageFix"/>
<feColorMatrix in="SourceAlpha" type="matrix" values="0 0 0 0 0 0 0 0 0 0 0 0 0 0 0 0 0 0 127 0" result="hardAlpha"/>
<feOffset dx="2" dy="12"/>
<feGaussianBlur stdDeviation="7.35"/>
<feComposite in2="hardAlpha" operator="out"/>
<feColorMatrix type="matrix" values="0 0 0 0 0 0 0 0 0 0 0 0 0 0 0 0 0 0 0.25 0"/>
<feBlend mode="normal" in2="BackgroundImageFix" result="effect1_dropShadow_2699_1157"/>
<feBlend mode="normal" in="SourceGraphic" in2="effect1_dropShadow_2699_1157" result="shape"/>
</filter>
<linearGradient id="paint0_linear_2699_1157" x1="290.945" y1="66.6095" x2="10.2889" y2="109.146" gradientUnits="userSpaceOnUse">
<stop stop-color="#E54D60"/>
<stop offset="1" stop-color="#A342FF"/>
</linearGradient>
<linearGradient id="paint1_linear_2699_1157" x1="183.916" y1="80.6476" x2="125.438" y2="90.4206" gradientUnits="userSpaceOnUse">
<stop stop-color="#E54D60"/>
<stop offset="1" stop-color="#A342FF"/>
</linearGradient>
</defs>
</svg>
