<svg width="80" height="81" viewBox="0 0 80 81" fill="none" xmlns="http://www.w3.org/2000/svg">
<path d="M56.5625 0.0957031H23.4375C10.4933 0.0957031 0 10.589 0 23.5332V56.6582C0 69.6024 10.4933 80.0957 23.4375 80.0957H56.5625C69.5067 80.0957 80 69.6024 80 56.6582V23.5332C80 10.589 69.5067 0.0957031 56.5625 0.0957031Z" fill="url(#paint0_linear_1212_955)"/>
<path fill-rule="evenodd" clip-rule="evenodd" d="M31.0336 30.468L31.0538 30.3326C31.0681 30.2401 31.0834 30.1399 31.0861 30.1195C31.5327 26.4658 35.3307 23.7105 39.9148 23.7105L40.0979 23.7116C44.1228 23.7116 46.9879 25.394 48.8555 28.8539C49.0555 29.2238 49.5168 29.3626 49.8847 29.16C50.2531 28.9585 50.3892 28.4939 50.1891 28.1234C48.0608 24.1817 44.6655 22.1834 40.1044 22.1834L39.9213 22.1818C34.4775 22.1818 30.1285 25.4419 29.5803 29.9257L29.5541 30.0975C29.541 30.1839 29.5289 30.2643 29.5273 30.2753C29.4787 30.6904 29.7711 31.0653 30.1832 31.1203C30.2165 31.1242 30.2493 31.1264 30.2816 31.1264C30.6538 31.1264 30.979 30.8484 31.0336 30.468ZM51.9255 49.1032C51.9255 42.1063 47.259 40.3799 40.6652 38.7052L39.8792 38.4988C38.0466 38.0083 34.9793 37.188 32.9963 35.3042C32.6914 35.0152 32.2109 35.03 31.9234 35.3361C31.6359 35.6433 31.6502 36.1272 31.9546 36.4168C34.2174 38.5665 37.5181 39.449 39.4896 39.9758L40.2941 40.1872C47.1688 41.9339 50.4077 43.3829 50.4077 49.1032C50.4077 53.5414 46.168 56.6407 40.0979 56.6407C35.5871 56.6407 31.7108 54.3793 29.981 50.7388C29.8 50.3578 29.3469 50.196 28.9687 50.3787C28.5905 50.5609 28.4309 51.0173 28.6118 51.3983C30.5964 55.575 34.9973 58.1695 40.0979 58.1695C47.0617 58.1695 51.9255 54.4415 51.9255 49.1032ZM46.1216 29.1C46.4326 28.8176 46.4577 28.3342 46.1773 28.0204C44.8125 26.495 43.1483 25.7171 40.9396 25.5729C40.5258 25.5481 40.1602 25.8641 40.1329 26.2858C40.1055 26.7075 40.4231 27.0708 40.8412 27.0983C42.6296 27.215 43.967 27.8333 45.0498 29.0438C45.199 29.2117 45.4061 29.2965 45.6138 29.2965C45.7947 29.2965 45.9762 29.2321 46.1216 29.1ZM53.8024 54.5697C54.7977 52.9127 55.3022 51.0812 55.3022 49.1247C55.3022 39.368 47.2595 37.324 41.3872 35.8321L40.7882 35.6758C37.4908 34.7906 34.5311 33.7534 34.5306 30.8379C34.5431 30.2885 34.6699 29.7832 34.9077 29.3339C35.105 28.9618 34.9651 28.4988 34.595 28.2995C34.2245 28.1019 33.7659 28.2417 33.5686 28.615C33.2182 29.2756 33.0313 30.0122 33.0127 30.8203C33.0127 35.171 37.6356 36.4113 40.3974 37.1528L41.0156 37.3141C47.0004 38.8351 53.7844 40.5588 53.7844 49.1247C53.7844 50.7977 53.3537 52.3639 52.5038 53.7787C52.2868 54.1398 52.4016 54.6094 52.7602 54.8279C52.8826 54.9028 53.0181 54.9386 53.1526 54.9386C53.4089 54.9386 53.6598 54.8076 53.8024 54.5697ZM48.9555 59.0569C49.3255 58.8582 49.4644 58.3947 49.2665 58.0225C49.0686 57.6504 48.6095 57.51 48.2395 57.7093C45.9401 58.9485 43.1248 59.6041 40.0979 59.6041C34.2004 59.6041 28.8479 56.4304 26.7775 51.7082C26.6742 51.4731 26.6075 51.2276 26.5786 50.9793C26.5294 50.5593 26.1512 50.2571 25.7363 50.3094C25.3198 50.3584 25.022 50.7382 25.0711 51.1571C25.1176 51.5574 25.2247 51.9504 25.3892 52.3253C27.6979 57.5931 33.6091 61.1323 40.0979 61.1323C43.374 61.1323 46.4369 60.415 48.9555 59.0569ZM47.4229 52.6562C48.4018 51.6856 48.9194 50.4888 48.9194 49.1962C48.9194 48.1338 48.6713 47.1632 48.181 46.3127C47.9203 45.8596 47.5847 45.4297 47.1841 45.035C46.884 44.7404 46.4036 44.7454 46.1106 45.0471C45.8177 45.3493 45.8232 45.8332 46.1227 46.1283C46.4255 46.4261 46.6763 46.7465 46.8682 47.079C47.2273 47.7027 47.4016 48.3952 47.4016 49.1962C47.4016 50.0826 47.0502 50.8802 46.3582 51.5667C45.0853 52.829 42.8181 53.5618 40.3056 53.5194C38.8145 53.4979 37.3913 53.1417 36.1888 52.4905C35.316 52.0176 34.7519 51.3471 34.3786 50.9034C34.307 50.8186 34.2425 50.7421 34.1846 50.6765C33.9064 50.3606 33.427 50.333 33.1128 50.6138C32.8001 50.8945 32.7723 51.3773 33.051 51.6928C33.1013 51.7506 33.1581 51.8177 33.2204 51.8921C33.6408 52.3914 34.3436 53.2265 35.4696 53.8365C36.8852 54.6039 38.55 55.0228 40.2826 55.0481C40.3542 55.0492 40.4247 55.0498 40.4958 55.0498C43.327 55.0498 45.9046 54.1624 47.4229 52.6562ZM40.9188 42.7685C41.0216 42.3595 40.7751 41.9433 40.3684 41.8404C39.8175 41.7005 39.2267 41.5629 38.6123 41.4324C30.9648 39.8095 27.5547 36.5726 27.5547 30.9354C27.5547 24.7482 32.6214 20.5902 40.1629 20.5902C44.677 20.5902 50.3684 23.1352 52.1972 28.7223C52.3278 29.1231 52.758 29.3416 53.1553 29.2095C53.5532 29.0769 53.7697 28.6453 53.6385 28.2439C51.5736 21.9351 45.2055 19.062 40.1629 19.062C31.7136 19.062 26.0364 23.8338 26.0364 30.9354C26.0364 39.3526 33.0352 41.8117 38.2991 42.9282C38.8938 43.0548 39.4649 43.1875 39.9973 43.3223C40.0596 43.3383 40.1219 43.346 40.1837 43.346C40.5231 43.346 40.8319 43.1153 40.9188 42.7685ZM58.2444 49.1247C58.2444 44.4619 57.1704 41.4011 54.7611 39.2001C54.4512 38.9166 53.9708 38.9408 53.6893 39.2524C53.4078 39.5651 53.4313 40.0485 53.7418 40.3325C55.8335 42.2439 56.7266 44.8737 56.7266 49.1247C56.7266 56.9132 49.7333 62.5669 40.0979 62.5669C33.5467 62.5669 27.2334 58.9562 24.3869 53.5827L24.3071 53.434C24.0879 53.0322 23.632 52.1954 23.2631 50.9639C23.1418 50.5593 22.7182 50.3297 22.3176 50.453C21.9158 50.5753 21.689 51.0013 21.8098 51.4054C22.2246 52.7905 22.7324 53.7225 22.9767 54.1695L23.0472 54.3016C26.1506 60.1596 33.0024 64.0957 40.0979 64.0957C50.6127 64.0957 58.2444 57.8001 58.2444 49.1247ZM38.3582 45.5645C38.4707 45.1577 38.2352 44.7366 37.8313 44.6226C34.2185 43.6053 26.701 41.4886 24.7006 34.6375C24.5825 34.2329 24.16 34 23.7583 34.1206C23.356 34.2395 23.1259 34.6645 23.2445 35.0697C25.4827 42.7327 33.8495 45.0889 37.4224 46.0952C37.4908 46.1145 37.5596 46.1239 37.6274 46.1239C37.9592 46.1239 38.2641 45.9025 38.3582 45.5645ZM24.348 28.8104C25.3947 22.0871 31.5802 17.6247 39.7929 17.6247C39.9115 17.6247 40.0317 17.6258 40.1514 17.6274C40.5832 17.623 40.9155 17.2971 40.9222 16.8749C40.9286 16.4532 40.5942 16.1058 40.1749 16.0992C30.9976 15.944 24.0327 20.9679 22.8483 28.5731C22.7832 28.991 23.0663 29.3818 23.4801 29.4468C23.5205 29.454 23.5599 29.4567 23.5992 29.4567C23.9665 29.4567 24.289 29.1875 24.348 28.8104ZM56.2139 29.1115C55.8133 29.1115 55.4782 28.7955 55.4564 28.3876C55.3427 27.3896 53.2171 21.3125 46.5769 18.7846C46.185 18.6348 45.9871 18.1939 46.1352 17.7986C46.2833 17.4045 46.7212 17.2052 47.1136 17.3538C54.8196 20.2886 56.9217 27.3433 56.9725 28.3067C56.995 28.7278 56.6735 29.0879 56.2549 29.1104C56.2412 29.1115 56.2276 29.1115 56.2139 29.1115Z" fill="url(#paint1_linear_1212_955)"/>
<defs>
<linearGradient id="paint0_linear_1212_955" x1="80" y1="28.8957" x2="-7.15256e-07" y2="48.0957" gradientUnits="userSpaceOnUse">
<stop stop-color="#E0055F"/>
<stop offset="1" stop-color="#2020ED"/>
</linearGradient>
<linearGradient id="paint1_linear_1212_955" x1="22.0339" y1="40.0957" x2="58.2444" y2="40.0957" gradientUnits="userSpaceOnUse">
<stop stop-color="#7A7A7E"/>
<stop offset="1" stop-color="white"/>
</linearGradient>
</defs>
</svg>
