<svg width="325" height="168" viewBox="0 0 325 168" fill="none" xmlns="http://www.w3.org/2000/svg">
<g opacity="0.05" filter="url(#filter0_f_1851_4675)">
<rect x="49.8384" y="49" width="226" height="70" rx="14" fill="black"/>
</g>
<rect x="49.8384" y="42" width="226" height="70" rx="14" fill="#FFFDFA"/>
<path d="M113.145 83.2727L116.299 88.4034V92H117.355V88.4034L120.509 83.2727H119.299L116.878 87.3466H116.776L114.355 83.2727H113.145ZM123.473 92.1364C125.245 92.1364 126.439 90.7898 126.439 88.7614C126.439 86.7159 125.245 85.3693 123.473 85.3693C121.7 85.3693 120.507 86.7159 120.507 88.7614C120.507 90.7898 121.7 92.1364 123.473 92.1364ZM123.473 91.233C122.126 91.233 121.512 90.0739 121.512 88.7614C121.512 87.4489 122.126 86.2727 123.473 86.2727C124.819 86.2727 125.433 87.4489 125.433 88.7614C125.433 90.0739 124.819 91.233 123.473 91.233ZM132.099 89.3239C132.099 90.5511 131.161 91.1136 130.411 91.1136C129.576 91.1136 128.979 90.5 128.979 89.5455V85.4545H127.974V89.6136C127.974 91.2841 128.86 92.0852 130.087 92.0852C131.076 92.0852 131.724 91.5568 132.03 90.892H132.099V92H133.104V85.4545H132.099V89.3239ZM134.946 92H135.952V87.858C135.952 86.9716 136.651 86.3239 137.605 86.3239C137.874 86.3239 138.151 86.375 138.219 86.392V85.3693C138.104 85.3608 137.84 85.3523 137.691 85.3523C136.907 85.3523 136.225 85.7955 135.986 86.4432H135.918V85.4545H134.946V92ZM144.712 92.1534C145.854 92.1534 146.451 91.5398 146.655 91.1136H146.707V92H147.712V87.6875C147.712 85.608 146.127 85.3693 145.292 85.3693C144.303 85.3693 143.178 85.7102 142.667 86.9034L143.621 87.2443C143.843 86.767 144.367 86.2557 145.326 86.2557C146.251 86.2557 146.707 86.7457 146.707 87.5852V87.6193C146.707 88.1051 146.212 88.0625 145.019 88.2159C143.805 88.3736 142.479 88.642 142.479 90.142C142.479 91.4205 143.468 92.1534 144.712 92.1534ZM144.866 91.25C144.065 91.25 143.485 90.892 143.485 90.1932C143.485 89.4261 144.184 89.1875 144.968 89.0852C145.394 89.0341 146.536 88.9148 146.707 88.7102V89.6307C146.707 90.4489 146.059 91.25 144.866 91.25ZM152.019 92.1364C153.281 92.1364 153.707 91.3523 153.929 90.9943H154.048V92H155.019V83.2727H154.014V86.4943H153.929C153.707 86.1534 153.315 85.3693 152.037 85.3693C150.383 85.3693 149.241 86.6818 149.241 88.7443C149.241 90.8239 150.383 92.1364 152.019 92.1364ZM152.156 91.233C150.894 91.233 150.247 90.125 150.247 88.7273C150.247 87.3466 150.877 86.2727 152.156 86.2727C153.383 86.2727 154.031 87.2614 154.031 88.7273C154.031 90.2102 153.366 91.233 152.156 91.233ZM157.001 92H158.007V87.9091C158.007 86.9503 158.706 86.2727 159.49 86.2727C160.252 86.2727 160.785 86.7713 160.785 87.517V92H161.808V87.7386C161.808 86.8949 162.336 86.2727 163.257 86.2727C163.973 86.2727 164.586 86.652 164.586 87.6193V92H165.592V87.6193C165.592 86.081 164.765 85.3693 163.598 85.3693C162.66 85.3693 161.974 85.7997 161.637 86.4773H161.569C161.245 85.7784 160.674 85.3693 159.814 85.3693C158.961 85.3693 158.331 85.7784 158.058 86.4773H157.973V85.4545H157.001V92ZM167.431 92H168.436V85.4545H167.431V92ZM167.942 84.3636C168.334 84.3636 168.658 84.0568 168.658 83.6818C168.658 83.3068 168.334 83 167.942 83C167.55 83 167.226 83.3068 167.226 83.6818C167.226 84.0568 167.55 84.3636 167.942 84.3636ZM174.915 86.9205C174.599 85.9915 173.892 85.3693 172.597 85.3693C171.216 85.3693 170.193 86.1534 170.193 87.2614C170.193 88.1648 170.73 88.7699 171.932 89.0511L173.023 89.3068C173.683 89.4602 173.994 89.7756 173.994 90.2273C173.994 90.7898 173.398 91.25 172.46 91.25C171.638 91.25 171.122 90.8963 170.943 90.1932L169.989 90.4318C170.223 91.544 171.139 92.1364 172.477 92.1364C173.999 92.1364 175.034 91.3054 175.034 90.1761C175.034 89.2642 174.463 88.6889 173.295 88.4034L172.324 88.1648C171.548 87.973 171.199 87.7131 171.199 87.2102C171.199 86.6477 171.795 86.2386 172.597 86.2386C173.474 86.2386 173.837 86.7244 174.011 87.1761L174.915 86.9205ZM181.184 86.9205C180.869 85.9915 180.162 85.3693 178.866 85.3693C177.485 85.3693 176.463 86.1534 176.463 87.2614C176.463 88.1648 177 88.7699 178.201 89.0511L179.292 89.3068C179.953 89.4602 180.264 89.7756 180.264 90.2273C180.264 90.7898 179.667 91.25 178.73 91.25C177.907 91.25 177.392 90.8963 177.213 90.1932L176.258 90.4318C176.492 91.544 177.409 92.1364 178.747 92.1364C180.268 92.1364 181.304 91.3054 181.304 90.1761C181.304 89.2642 180.733 88.6889 179.565 88.4034L178.593 88.1648C177.818 87.973 177.468 87.7131 177.468 87.2102C177.468 86.6477 178.065 86.2386 178.866 86.2386C179.744 86.2386 180.106 86.7244 180.281 87.1761L181.184 86.9205ZM182.817 92H183.823V85.4545H182.817V92ZM183.329 84.3636C183.721 84.3636 184.045 84.0568 184.045 83.6818C184.045 83.3068 183.721 83 183.329 83C182.937 83 182.613 83.3068 182.613 83.6818C182.613 84.0568 182.937 84.3636 183.329 84.3636ZM188.324 92.1364C190.097 92.1364 191.29 90.7898 191.29 88.7614C191.29 86.7159 190.097 85.3693 188.324 85.3693C186.551 85.3693 185.358 86.7159 185.358 88.7614C185.358 90.7898 186.551 92.1364 188.324 92.1364ZM188.324 91.233C186.978 91.233 186.364 90.0739 186.364 88.7614C186.364 87.4489 186.978 86.2727 188.324 86.2727C189.671 86.2727 190.284 87.4489 190.284 88.7614C190.284 90.0739 189.671 91.233 188.324 91.233ZM193.831 88.0625C193.831 86.9205 194.538 86.2727 195.501 86.2727C196.435 86.2727 197.001 86.8821 197.001 87.9091V92H198.007V87.8409C198.007 86.1705 197.116 85.3693 195.791 85.3693C194.803 85.3693 194.189 85.8125 193.882 86.4773H193.797V85.4545H192.825V92H193.831V88.0625ZM205.879 92.1364C207.328 92.1364 208.282 91.25 208.453 90.0909H207.447C207.26 90.8068 206.663 91.233 205.879 91.233C204.686 91.233 203.919 90.2443 203.919 88.7273C203.919 87.2443 204.703 86.2727 205.879 86.2727C206.765 86.2727 207.294 86.8182 207.447 87.4148H208.453C208.282 86.1875 207.242 85.3693 205.862 85.3693C204.089 85.3693 202.913 86.767 202.913 88.7614C202.913 90.7216 204.038 92.1364 205.879 92.1364ZM212.582 92.1364C214.355 92.1364 215.548 90.7898 215.548 88.7614C215.548 86.7159 214.355 85.3693 212.582 85.3693C210.809 85.3693 209.616 86.7159 209.616 88.7614C209.616 90.7898 210.809 92.1364 212.582 92.1364ZM212.582 91.233C211.235 91.233 210.622 90.0739 210.622 88.7614C210.622 87.4489 211.235 86.2727 212.582 86.2727C213.929 86.2727 214.542 87.4489 214.542 88.7614C214.542 90.0739 213.929 91.233 212.582 91.233ZM217.083 92H218.089V87.9091C218.089 86.9503 218.788 86.2727 219.572 86.2727C220.334 86.2727 220.867 86.7713 220.867 87.517V92H221.89V87.7386C221.89 86.8949 222.418 86.2727 223.339 86.2727C224.055 86.2727 224.668 86.652 224.668 87.6193V92H225.674V87.6193C225.674 86.081 224.847 85.3693 223.68 85.3693C222.742 85.3693 222.056 85.7997 221.719 86.4773H221.651C221.327 85.7784 220.756 85.3693 219.896 85.3693C219.043 85.3693 218.413 85.7784 218.14 86.4773H218.055V85.4545H217.083V92ZM227.513 94.4545H228.518V90.9943H228.604C228.825 91.3523 229.251 92.1364 230.513 92.1364C232.149 92.1364 233.291 90.8239 233.291 88.7443C233.291 86.6818 232.149 85.3693 230.496 85.3693C229.217 85.3693 228.825 86.1534 228.604 86.4943H228.484V85.4545H227.513V94.4545ZM228.501 88.7273C228.501 87.2614 229.149 86.2727 230.376 86.2727C231.655 86.2727 232.285 87.3466 232.285 88.7273C232.285 90.125 231.638 91.233 230.376 91.233C229.166 91.233 228.501 90.2102 228.501 88.7273ZM235.831 83.2727H234.825V92H235.831V83.2727ZM240.417 92.1364C241.747 92.1364 242.718 91.4716 243.025 90.483L242.054 90.2102C241.798 90.892 241.206 91.233 240.417 91.233C239.237 91.233 238.423 90.4702 238.376 89.0682H243.127V88.642C243.127 86.2045 241.679 85.3693 240.315 85.3693C238.542 85.3693 237.366 86.767 237.366 88.7784C237.366 90.7898 238.525 92.1364 240.417 92.1364ZM238.376 88.1989C238.444 87.1804 239.164 86.2727 240.315 86.2727C241.406 86.2727 242.105 87.0909 242.105 88.1989H238.376ZM247.504 85.4545H246.106V83.8864H245.1V85.4545H244.112V86.3068H245.1V90.3977C245.1 91.5398 246.021 92.0852 246.873 92.0852C247.248 92.0852 247.487 92.017 247.623 91.9659L247.419 91.0625C247.333 91.0795 247.197 91.1136 246.975 91.1136C246.532 91.1136 246.106 90.9773 246.106 90.125V86.3068H247.504V85.4545ZM251.691 92.1364C253.02 92.1364 253.992 91.4716 254.299 90.483L253.327 90.2102C253.071 90.892 252.479 91.233 251.691 91.233C250.51 91.233 249.696 90.4702 249.649 89.0682H254.401V88.642C254.401 86.2045 252.952 85.3693 251.588 85.3693C249.816 85.3693 248.64 86.767 248.64 88.7784C248.64 90.7898 249.799 92.1364 251.691 92.1364ZM249.649 88.1989C249.718 87.1804 250.438 86.2727 251.588 86.2727C252.679 86.2727 253.378 87.0909 253.378 88.1989H249.649ZM258.402 92.1364C259.664 92.1364 260.09 91.3523 260.311 90.9943H260.431V92H261.402V83.2727H260.397V86.4943H260.311C260.09 86.1534 259.698 85.3693 258.419 85.3693C256.766 85.3693 255.624 86.6818 255.624 88.7443C255.624 90.8239 256.766 92.1364 258.402 92.1364ZM258.539 91.233C257.277 91.233 256.63 90.125 256.63 88.7273C256.63 87.3466 257.26 86.2727 258.539 86.2727C259.766 86.2727 260.414 87.2614 260.414 88.7273C260.414 90.2102 259.749 91.233 258.539 91.233Z" fill="#898E92"/>
<path d="M122.558 65.2536C122.245 62.9915 120.505 61.679 118.247 61.679C115.588 61.679 113.584 63.6179 113.584 66.9091C113.584 70.1953 115.563 72.1392 118.247 72.1392C120.669 72.1392 122.274 70.5732 122.558 68.6293L120.698 68.6193C120.465 69.8125 119.49 70.4837 118.272 70.4837C116.622 70.4837 115.439 69.2457 115.439 66.9091C115.439 64.6122 116.612 63.3345 118.277 63.3345C119.515 63.3345 120.485 64.0355 120.698 65.2536H122.558ZM127.498 72.1491C129.736 72.1491 131.157 70.5732 131.157 68.2116C131.157 65.8452 129.736 64.2642 127.498 64.2642C125.261 64.2642 123.839 65.8452 123.839 68.2116C123.839 70.5732 125.261 72.1491 127.498 72.1491ZM127.508 70.7074C126.27 70.7074 125.664 69.6037 125.664 68.2067C125.664 66.8097 126.27 65.6911 127.508 65.6911C128.726 65.6911 129.333 66.8097 129.333 68.2067C129.333 69.6037 128.726 70.7074 127.508 70.7074ZM134.485 67.5256C134.485 66.4219 135.151 65.7855 136.1 65.7855C137.03 65.7855 137.587 66.397 137.587 67.4162V72H139.387V67.1378C139.392 65.3082 138.348 64.2642 136.772 64.2642C135.628 64.2642 134.843 64.8111 134.495 65.6612H134.405V64.3636H132.685V72H134.485V67.5256ZM144.537 74.9929C146.6 74.9929 148.122 74.0483 148.122 72.1243V64.3636H146.347V65.6264H146.247C145.974 65.0746 145.402 64.2642 144.055 64.2642C142.29 64.2642 140.903 65.6463 140.903 68.157C140.903 70.6477 142.29 71.8906 144.05 71.8906C145.358 71.8906 145.969 71.1896 146.247 70.6278H146.337V72.0746C146.337 73.1683 145.591 73.6307 144.567 73.6307C143.483 73.6307 143.006 73.1186 142.787 72.701L141.167 73.0938C141.495 74.1328 142.593 74.9929 144.537 74.9929ZM144.552 70.4787C143.364 70.4787 142.738 69.554 142.738 68.147C142.738 66.7599 143.354 65.7408 144.552 65.7408C145.711 65.7408 146.347 66.7003 146.347 68.147C146.347 69.6037 145.701 70.4787 144.552 70.4787ZM149.966 72H151.766V67.5107C151.766 66.5412 152.497 65.8551 153.486 65.8551C153.789 65.8551 154.167 65.9098 154.321 65.9595V64.304C154.157 64.2741 153.874 64.2543 153.675 64.2543C152.8 64.2543 152.069 64.7514 151.791 65.6364H151.711V64.3636H149.966V72ZM157.564 72.1541C158.762 72.1541 159.478 71.5923 159.806 70.951H159.866V72H161.596V66.8892C161.596 64.8707 159.95 64.2642 158.494 64.2642C156.888 64.2642 155.655 64.9801 155.257 66.3722L156.938 66.6108C157.117 66.0888 157.624 65.6413 158.504 65.6413C159.339 65.6413 159.796 66.0689 159.796 66.8196V66.8494C159.796 67.3665 159.254 67.3913 157.907 67.5355C156.426 67.6946 155.009 68.1371 155.009 69.8572C155.009 71.3587 156.107 72.1541 157.564 72.1541ZM158.031 70.8317C157.281 70.8317 156.744 70.4886 156.744 69.8274C156.744 69.1364 157.345 68.848 158.151 68.7337C158.623 68.669 159.568 68.5497 159.801 68.3608V69.2607C159.801 70.1108 159.115 70.8317 158.031 70.8317ZM167.219 64.3636H165.712V62.5341H163.913V64.3636H162.829V65.7557H163.913V70.0014C163.903 71.4382 164.947 72.1442 166.299 72.1044C166.811 72.0895 167.164 71.9901 167.358 71.9254L167.055 70.5185C166.955 70.5433 166.752 70.5881 166.528 70.5881C166.075 70.5881 165.712 70.429 165.712 69.7031V65.7557H167.219V64.3636ZM173.591 68.7884C173.591 69.9517 172.761 70.5284 171.966 70.5284C171.1 70.5284 170.524 69.9169 170.524 68.9474V64.3636H168.724V69.2259C168.724 71.0604 169.768 72.0994 171.269 72.0994C172.413 72.0994 173.218 71.4979 173.566 70.6428H173.646V72H175.391V64.3636H173.591V68.7884ZM179.041 61.8182H177.242V72H179.041V61.8182ZM183.089 72.1541C184.288 72.1541 185.004 71.5923 185.332 70.951H185.391V72H187.121V66.8892C187.121 64.8707 185.476 64.2642 184.019 64.2642C182.413 64.2642 181.18 64.9801 180.783 66.3722L182.463 66.6108C182.642 66.0888 183.149 65.6413 184.029 65.6413C184.864 65.6413 185.322 66.0689 185.322 66.8196V66.8494C185.322 67.3665 184.78 67.3913 183.432 67.5355C181.951 67.6946 180.534 68.1371 180.534 69.8572C180.534 71.3587 181.633 72.1541 183.089 72.1541ZM183.557 70.8317C182.806 70.8317 182.269 70.4886 182.269 69.8274C182.269 69.1364 182.871 68.848 183.676 68.7337C184.148 68.669 185.093 68.5497 185.327 68.3608V69.2607C185.327 70.1108 184.641 70.8317 183.557 70.8317ZM192.744 64.3636H191.238V62.5341H189.438V64.3636H188.354V65.7557H189.438V70.0014C189.428 71.4382 190.472 72.1442 191.825 72.1044C192.337 72.0895 192.69 71.9901 192.883 71.9254L192.58 70.5185C192.481 70.5433 192.277 70.5881 192.053 70.5881C191.601 70.5881 191.238 70.429 191.238 69.7031V65.7557H192.744V64.3636ZM194.249 72H196.049V64.3636H194.249V72ZM195.154 63.2798C195.726 63.2798 196.193 62.8423 196.193 62.3054C196.193 61.7635 195.726 61.326 195.154 61.326C194.578 61.326 194.11 61.7635 194.11 62.3054C194.11 62.8423 194.578 63.2798 195.154 63.2798ZM201.231 72.1491C203.468 72.1491 204.89 70.5732 204.89 68.2116C204.89 65.8452 203.468 64.2642 201.231 64.2642C198.994 64.2642 197.572 65.8452 197.572 68.2116C197.572 70.5732 198.994 72.1491 201.231 72.1491ZM201.241 70.7074C200.003 70.7074 199.396 69.6037 199.396 68.2067C199.396 66.8097 200.003 65.6911 201.241 65.6911C202.459 65.6911 203.065 66.8097 203.065 68.2067C203.065 69.6037 202.459 70.7074 201.241 70.7074ZM208.217 67.5256C208.217 66.4219 208.883 65.7855 209.833 65.7855C210.763 65.7855 211.319 66.397 211.319 67.4162V72H213.119V67.1378C213.124 65.3082 212.08 64.2642 210.504 64.2642C209.361 64.2642 208.575 64.8111 208.227 65.6612H208.138V64.3636H206.417V72H208.217V67.5256ZM220.984 66.3821C220.736 65.0895 219.701 64.2642 217.912 64.2642C216.072 64.2642 214.819 65.169 214.824 66.581C214.819 67.6946 215.505 68.4304 216.972 68.7337L218.275 69.0071C218.976 69.1612 219.304 69.4446 219.304 69.8771C219.304 70.3991 218.737 70.7919 217.882 70.7919C217.057 70.7919 216.52 70.4339 216.366 69.7479L214.611 69.9169C214.834 71.3189 216.013 72.1491 217.887 72.1491C219.796 72.1491 221.143 71.1598 221.148 69.7131C221.143 68.6243 220.442 67.9581 219 67.6449L217.698 67.3665C216.922 67.1925 216.614 66.924 216.619 66.4815C216.614 65.9645 217.186 65.6065 217.937 65.6065C218.767 65.6065 219.204 66.0589 219.344 66.5611L220.984 66.3821Z" fill="#04004D"/>
<rect x="62.8384" y="57" width="40" height="40" rx="6" fill="#3C50E0"/>
<circle cx="82.8384" cy="77" r="10" fill="white"/>
<path d="M77.8384 77L81.3384 80.5L87.8384 74" stroke="#3C50E0" stroke-linecap="round" stroke-linejoin="round"/>
<defs>
<filter id="filter0_f_1851_4675" x="0.838379" y="0" width="324" height="168" filterUnits="userSpaceOnUse" color-interpolation-filters="sRGB">
<feFlood flood-opacity="0" result="BackgroundImageFix"/>
<feBlend mode="normal" in="SourceGraphic" in2="BackgroundImageFix" result="shape"/>
<feGaussianBlur stdDeviation="24.5" result="effect1_foregroundBlur_1851_4675"/>
</filter>
</defs>
</svg>
