<svg width="348" height="445" viewBox="0 0 348 445" fill="none" xmlns="http://www.w3.org/2000/svg">
<g filter="url(#filter0_d_1948_918)">
<path d="M92.2791 139.378L92.1172 140.475C91.6796 143.558 89.0756 145.811 86.0953 145.811C85.8371 145.811 85.5744 145.793 85.3074 145.762C82.0076 145.316 79.6661 142.278 80.0556 138.914C80.0688 138.825 80.1651 138.173 80.2701 137.473L80.4802 136.081C84.8698 99.7428 119.693 73.3224 163.283 73.3224L164.749 73.3358C201.271 73.3358 228.458 89.5306 245.5 121.474C247.101 124.477 246.012 128.242 243.062 129.875C240.116 131.517 236.423 130.393 234.821 127.395C219.866 99.3547 196.925 85.7206 164.697 85.7206L163.231 85.7117C126.525 85.7117 96.113 108.041 92.5374 137.651C92.5156 137.816 92.3929 138.628 92.2791 139.378Z" fill="url(#paint0_linear_1948_918)"/>
<path d="M169.239 207.231C222.037 220.803 259.404 234.794 259.404 291.498C259.404 334.76 220.457 364.973 164.697 364.973C123.855 364.973 88.6161 343.946 72.7251 310.098C71.2765 307.01 72.5543 303.312 75.5828 301.835C78.6114 300.354 82.2396 301.666 83.6882 304.753C97.5398 334.256 128.578 352.584 164.697 352.584C213.302 352.584 247.25 327.466 247.25 291.498C247.25 245.14 221.315 233.397 166.268 219.241L159.826 217.528C144.04 213.259 117.61 206.107 99.4916 188.685C97.0539 186.339 96.9401 182.417 99.2421 179.928C101.544 177.447 105.391 177.327 107.833 179.669C123.703 194.928 148.246 201.576 162.923 205.552L162.946 205.558L169.239 207.231Z" fill="url(#paint1_linear_1948_918)"/>
<path d="M213.376 120.64C215.621 123.183 215.42 127.1 212.93 129.389C211.766 130.46 210.313 130.982 208.864 130.982C207.201 130.982 205.542 130.294 204.348 128.934C195.678 119.123 184.969 114.113 170.649 113.167C167.301 112.944 164.758 110 164.977 106.582C165.196 103.165 168.124 100.604 171.437 100.805C189.122 101.973 202.448 108.277 213.376 120.64Z" fill="url(#paint2_linear_1948_918)"/>
<path d="M286.442 291.672C286.442 307.528 282.402 322.371 274.432 335.8C273.29 337.727 271.281 338.789 269.229 338.789C268.152 338.789 267.067 338.499 266.086 337.892C263.215 336.121 262.296 332.316 264.034 329.389C270.839 317.923 274.288 305.23 274.288 291.672C274.288 222.257 219.973 208.286 172.053 195.959L172.045 195.957L167.095 194.65L167.081 194.646C144.965 188.636 107.964 178.582 107.964 143.331C108.113 136.781 109.61 130.812 112.415 125.458C113.995 122.433 117.667 121.3 120.634 122.902C123.597 124.517 124.718 128.269 123.138 131.285C121.234 134.925 120.219 139.021 120.118 143.473C120.122 167.101 143.821 175.506 170.224 182.68L175.021 183.947C222.042 196.038 286.442 212.603 286.442 291.672Z" fill="url(#paint3_linear_1948_918)"/>
<path d="M238.112 363.782C239.696 366.798 238.585 370.554 235.622 372.165C215.455 383.171 190.929 388.984 164.697 388.984C112.739 388.984 65.4076 360.302 46.9214 317.611C45.604 314.573 44.7462 311.387 44.3742 308.144C43.9804 304.749 46.3655 301.67 49.7004 301.273C53.0222 300.849 56.0507 303.299 56.4446 306.703C56.6765 308.715 57.2105 310.705 58.0377 312.61C74.6158 350.879 117.475 376.599 164.697 376.599C188.934 376.599 211.477 371.286 229.889 361.243C232.852 359.628 236.528 360.766 238.112 363.782Z" fill="url(#paint4_linear_1948_918)"/>
<path d="M235.333 292.252C235.333 302.728 231.188 312.427 223.35 320.292C211.192 332.499 190.553 339.69 167.883 339.69C167.314 339.69 166.749 339.686 166.176 339.677C152.303 339.472 138.972 336.077 127.637 329.857C118.623 324.915 112.993 318.146 109.628 314.1C109.129 313.497 108.673 312.953 108.271 312.485C106.039 309.928 106.262 306.016 108.765 303.74C111.282 301.465 115.12 301.688 117.348 304.249C117.79 304.755 118.28 305.342 118.821 305.991L118.903 306.089C121.892 309.684 126.408 315.117 133.396 318.949C143.024 324.227 154.421 327.114 166.36 327.288C186.478 327.631 204.632 321.693 214.825 311.463C220.365 305.9 223.18 299.435 223.18 292.252C223.18 285.761 221.784 280.148 218.908 275.094C217.372 272.399 215.363 269.802 212.939 267.389C210.54 264.998 210.496 261.076 212.842 258.627C215.188 256.182 219.035 256.142 221.438 258.528C224.646 261.727 227.333 265.212 229.42 268.883C233.346 275.776 235.333 283.642 235.333 292.252Z" fill="url(#paint5_linear_1948_918)"/>
<path d="M166.863 232.639C170.119 233.473 172.093 236.846 171.27 240.161C170.574 242.972 168.102 244.841 165.384 244.841C164.889 244.841 164.39 244.778 163.891 244.649C159.629 243.556 155.055 242.481 150.294 241.455C108.144 232.407 52.1031 212.478 52.1031 144.263C52.1031 86.711 97.5615 48.0396 165.217 48.0396C205.595 48.0396 256.585 71.3237 273.119 122.451C274.17 125.704 272.437 129.201 269.251 130.277C266.069 131.347 262.625 129.576 261.579 126.328C246.935 81.0495 201.363 60.4245 165.217 60.4245C104.831 60.4245 64.261 94.1214 64.261 144.263C64.261 189.948 91.5658 216.181 152.801 229.333C157.721 230.39 162.452 231.506 166.863 232.639Z" fill="url(#paint6_linear_1948_918)"/>
<path d="M282.109 211.242C301.4 229.079 310 253.884 310 291.672C310 361.979 248.891 413 164.697 413C107.881 413 53.0177 381.101 28.1681 333.627L27.6035 332.556C25.6472 328.934 21.5816 321.381 18.2598 310.156C17.2926 306.881 19.1089 303.428 22.3256 302.438C25.5336 301.438 28.9253 303.299 29.8968 306.578C32.851 316.558 36.501 323.339 38.256 326.596L38.8949 327.801C61.6876 371.348 112.24 400.611 164.697 400.611C241.85 400.611 297.847 354.792 297.847 291.672C297.847 257.221 290.695 235.909 273.947 220.419C271.461 218.117 271.273 214.2 273.527 211.666C275.78 209.141 279.627 208.945 282.109 211.242Z" fill="url(#paint7_linear_1948_918)"/>
<path d="M146.547 255.187C149.782 256.11 151.668 259.523 150.766 262.82C150.014 265.56 147.572 267.353 144.915 267.353C144.372 267.353 143.821 267.277 143.274 267.121L143.269 267.12C114.658 258.964 47.6688 239.867 29.7481 177.768C28.7984 174.485 30.6409 171.04 33.862 170.077C37.0787 169.1 40.4618 170.987 41.4071 174.266C57.4246 229.787 117.618 246.942 146.547 255.187Z" fill="url(#paint8_linear_1948_918)"/>
<path d="M162.255 36.3909C96.4937 36.3909 46.9652 72.555 38.5842 127.042C38.1115 130.098 35.5294 132.28 32.5884 132.28C32.2733 132.28 31.9582 132.257 31.6343 132.199C28.3213 131.673 26.0543 128.505 26.5751 125.119C36.0589 63.485 91.8284 22.7702 165.314 24.0284C168.671 24.0819 171.349 26.897 171.297 30.3145C171.244 33.7364 168.583 36.3775 165.126 36.4132C164.167 36.3998 163.204 36.3909 162.255 36.3909Z" fill="url(#paint9_linear_1948_918)"/>
<path d="M287.676 123.616C287.851 126.922 290.534 129.482 293.741 129.482C293.851 129.482 293.96 129.482 294.07 129.474C297.422 129.291 299.996 126.373 299.816 122.96C299.409 115.152 282.577 57.9796 220.873 34.1959C217.731 32.9913 214.225 34.6063 213.039 37.8007C211.853 41.004 213.438 44.5776 216.575 45.7911C269.745 66.2778 286.765 115.527 287.676 123.616Z" fill="url(#paint10_linear_1948_918)"/>
<path d="M92.2791 139.378L92.1172 140.475C91.6796 143.558 89.0756 145.811 86.0953 145.811C85.8371 145.811 85.5744 145.793 85.3074 145.762C82.0076 145.316 79.6661 142.278 80.0556 138.914C80.0688 138.825 80.1651 138.173 80.2701 137.473L80.4802 136.081C84.8698 99.7428 119.693 73.3224 163.283 73.3224L164.749 73.3358C201.271 73.3358 228.458 89.5306 245.5 121.474C247.101 124.477 246.012 128.242 243.062 129.875C240.116 131.517 236.423 130.393 234.821 127.395C219.866 99.3547 196.925 85.7206 164.697 85.7206L163.231 85.7117C126.525 85.7117 96.113 108.041 92.5374 137.651C92.5156 137.816 92.3929 138.628 92.2791 139.378Z" stroke="white"/>
<path d="M169.239 207.231C222.037 220.803 259.404 234.794 259.404 291.498C259.404 334.76 220.457 364.973 164.697 364.973C123.855 364.973 88.6161 343.946 72.7251 310.098C71.2765 307.01 72.5543 303.312 75.5828 301.835C78.6114 300.354 82.2396 301.666 83.6882 304.753C97.5398 334.256 128.578 352.584 164.697 352.584C213.302 352.584 247.25 327.466 247.25 291.498C247.25 245.14 221.315 233.397 166.268 219.241L159.826 217.528C144.04 213.259 117.61 206.107 99.4916 188.685C97.0539 186.339 96.9401 182.417 99.2421 179.928C101.544 177.447 105.391 177.327 107.833 179.669C123.703 194.928 148.246 201.576 162.923 205.552L162.946 205.558L169.239 207.231Z" stroke="white"/>
<path d="M213.376 120.64C215.621 123.183 215.42 127.1 212.93 129.389C211.766 130.46 210.313 130.982 208.864 130.982C207.201 130.982 205.542 130.294 204.348 128.934C195.678 119.123 184.969 114.113 170.649 113.167C167.301 112.944 164.758 110 164.977 106.582C165.196 103.165 168.124 100.604 171.437 100.805C189.122 101.973 202.448 108.277 213.376 120.64Z" stroke="white"/>
<path d="M286.442 291.672C286.442 307.528 282.402 322.371 274.432 335.8C273.29 337.727 271.281 338.789 269.229 338.789C268.152 338.789 267.067 338.499 266.086 337.892C263.215 336.121 262.296 332.316 264.034 329.389C270.839 317.923 274.288 305.23 274.288 291.672C274.288 222.257 219.973 208.286 172.053 195.959L172.045 195.957L167.095 194.65L167.081 194.646C144.965 188.636 107.964 178.582 107.964 143.331C108.113 136.781 109.61 130.812 112.415 125.458C113.995 122.433 117.667 121.3 120.634 122.902C123.597 124.517 124.718 128.269 123.138 131.285C121.234 134.925 120.219 139.021 120.118 143.473C120.122 167.101 143.821 175.506 170.224 182.68L175.021 183.947C222.042 196.038 286.442 212.603 286.442 291.672Z" stroke="white"/>
<path d="M238.112 363.782C239.696 366.798 238.585 370.554 235.622 372.165C215.455 383.171 190.929 388.984 164.697 388.984C112.739 388.984 65.4076 360.302 46.9214 317.611C45.604 314.573 44.7462 311.387 44.3742 308.144C43.9804 304.749 46.3655 301.67 49.7004 301.273C53.0222 300.849 56.0507 303.299 56.4446 306.703C56.6765 308.715 57.2105 310.705 58.0377 312.61C74.6158 350.879 117.475 376.599 164.697 376.599C188.934 376.599 211.477 371.286 229.889 361.243C232.852 359.628 236.528 360.766 238.112 363.782Z" stroke="white"/>
<path d="M235.333 292.252C235.333 302.728 231.188 312.427 223.35 320.292C211.192 332.499 190.553 339.69 167.883 339.69C167.314 339.69 166.749 339.686 166.176 339.677C152.303 339.472 138.972 336.077 127.637 329.857C118.623 324.915 112.993 318.146 109.628 314.1C109.129 313.497 108.673 312.953 108.271 312.485C106.039 309.928 106.262 306.016 108.765 303.74C111.282 301.465 115.12 301.688 117.348 304.249C117.79 304.755 118.28 305.342 118.821 305.991L118.903 306.089C121.892 309.684 126.408 315.117 133.396 318.949C143.024 324.227 154.421 327.114 166.36 327.288C186.478 327.631 204.632 321.693 214.825 311.463C220.365 305.9 223.18 299.435 223.18 292.252C223.18 285.761 221.784 280.148 218.908 275.094C217.372 272.399 215.363 269.802 212.939 267.389C210.54 264.998 210.496 261.076 212.842 258.627C215.188 256.182 219.035 256.142 221.438 258.528C224.646 261.727 227.333 265.212 229.42 268.883C233.346 275.776 235.333 283.642 235.333 292.252Z" stroke="white"/>
<path d="M166.863 232.639C170.119 233.473 172.093 236.846 171.27 240.161C170.574 242.972 168.102 244.841 165.384 244.841C164.889 244.841 164.39 244.778 163.891 244.649C159.629 243.556 155.055 242.481 150.294 241.455C108.144 232.407 52.1031 212.478 52.1031 144.263C52.1031 86.711 97.5615 48.0396 165.217 48.0396C205.595 48.0396 256.585 71.3237 273.119 122.451C274.17 125.704 272.437 129.201 269.251 130.277C266.069 131.347 262.625 129.576 261.579 126.328C246.935 81.0495 201.363 60.4245 165.217 60.4245C104.831 60.4245 64.261 94.1214 64.261 144.263C64.261 189.948 91.5658 216.181 152.801 229.333C157.721 230.39 162.452 231.506 166.863 232.639Z" stroke="white"/>
<path d="M282.109 211.242C301.4 229.079 310 253.884 310 291.672C310 361.979 248.891 413 164.697 413C107.881 413 53.0177 381.101 28.1681 333.627L27.6035 332.556C25.6472 328.934 21.5816 321.381 18.2598 310.156C17.2926 306.881 19.1089 303.428 22.3256 302.438C25.5336 301.438 28.9253 303.299 29.8968 306.578C32.851 316.558 36.501 323.339 38.256 326.596L38.8949 327.801C61.6876 371.348 112.24 400.611 164.697 400.611C241.85 400.611 297.847 354.792 297.847 291.672C297.847 257.221 290.695 235.909 273.947 220.419C271.461 218.117 271.273 214.2 273.527 211.666C275.78 209.141 279.627 208.945 282.109 211.242Z" stroke="white"/>
<path d="M146.547 255.187C149.782 256.11 151.668 259.523 150.766 262.82C150.014 265.56 147.572 267.353 144.915 267.353C144.372 267.353 143.821 267.277 143.274 267.121L143.269 267.12C114.658 258.964 47.6688 239.867 29.7481 177.768C28.7984 174.485 30.6409 171.04 33.862 170.077C37.0787 169.1 40.4618 170.987 41.4071 174.266C57.4246 229.787 117.618 246.942 146.547 255.187Z" stroke="white"/>
<path d="M162.255 36.3909C96.4937 36.3909 46.9652 72.555 38.5842 127.042C38.1115 130.098 35.5294 132.28 32.5884 132.28C32.2733 132.28 31.9582 132.257 31.6343 132.199C28.3213 131.673 26.0543 128.505 26.5751 125.119C36.0589 63.485 91.8284 22.7702 165.314 24.0284C168.671 24.0819 171.349 26.897 171.297 30.3145C171.244 33.7364 168.583 36.3775 165.126 36.4132C164.167 36.3998 163.204 36.3909 162.255 36.3909Z" stroke="white"/>
<path d="M287.676 123.616C287.851 126.922 290.534 129.482 293.741 129.482C293.851 129.482 293.96 129.482 294.07 129.474C297.422 129.291 299.996 126.373 299.816 122.96C299.409 115.152 282.577 57.9796 220.873 34.1959C217.731 32.9913 214.225 34.6063 213.039 37.8007C211.853 41.004 213.438 44.5776 216.575 45.7911C269.745 66.2778 286.765 115.527 287.676 123.616Z" stroke="white"/>
</g>
<defs>
<filter id="filter0_d_1948_918" x="0.9" y="0.9" width="346.2" height="443.2" filterUnits="userSpaceOnUse" color-interpolation-filters="sRGB">
<feFlood flood-opacity="0" result="BackgroundImageFix"/>
<feColorMatrix in="SourceAlpha" type="matrix" values="0 0 0 0 0 0 0 0 0 0 0 0 0 0 0 0 0 0 127 0" result="hardAlpha"/>
<feOffset dx="10" dy="4"/>
<feGaussianBlur stdDeviation="13.55"/>
<feComposite in2="hardAlpha" operator="out"/>
<feColorMatrix type="matrix" values="0 0 0 0 0 0 0 0 0 0 0 0 0 0 0 0 0 0 1 0"/>
<feBlend mode="normal" in2="BackgroundImageFix" result="effect1_dropShadow_1948_918"/>
<feBlend mode="normal" in="SourceGraphic" in2="effect1_dropShadow_1948_918" result="shape"/>
</filter>
<linearGradient id="paint0_linear_1948_918" x1="291.654" y1="177.748" x2="22.6399" y2="194.362" gradientUnits="userSpaceOnUse">
<stop stop-color="#E54D60"/>
<stop offset="1" stop-color="#A342FF"/>
</linearGradient>
<linearGradient id="paint1_linear_1948_918" x1="291.654" y1="177.748" x2="22.6399" y2="194.362" gradientUnits="userSpaceOnUse">
<stop stop-color="#E54D60"/>
<stop offset="1" stop-color="#A342FF"/>
</linearGradient>
<linearGradient id="paint2_linear_1948_918" x1="291.654" y1="177.748" x2="22.6399" y2="194.362" gradientUnits="userSpaceOnUse">
<stop stop-color="#E54D60"/>
<stop offset="1" stop-color="#A342FF"/>
</linearGradient>
<linearGradient id="paint3_linear_1948_918" x1="291.654" y1="177.748" x2="22.6399" y2="194.362" gradientUnits="userSpaceOnUse">
<stop stop-color="#E54D60"/>
<stop offset="1" stop-color="#A342FF"/>
</linearGradient>
<linearGradient id="paint4_linear_1948_918" x1="291.654" y1="177.748" x2="22.6399" y2="194.362" gradientUnits="userSpaceOnUse">
<stop stop-color="#E54D60"/>
<stop offset="1" stop-color="#A342FF"/>
</linearGradient>
<linearGradient id="paint5_linear_1948_918" x1="291.654" y1="177.748" x2="22.6399" y2="194.362" gradientUnits="userSpaceOnUse">
<stop stop-color="#E54D60"/>
<stop offset="1" stop-color="#A342FF"/>
</linearGradient>
<linearGradient id="paint6_linear_1948_918" x1="291.654" y1="177.748" x2="22.6399" y2="194.362" gradientUnits="userSpaceOnUse">
<stop stop-color="#E54D60"/>
<stop offset="1" stop-color="#A342FF"/>
</linearGradient>
<linearGradient id="paint7_linear_1948_918" x1="291.654" y1="177.748" x2="22.6399" y2="194.362" gradientUnits="userSpaceOnUse">
<stop stop-color="#E54D60"/>
<stop offset="1" stop-color="#A342FF"/>
</linearGradient>
<linearGradient id="paint8_linear_1948_918" x1="291.654" y1="177.748" x2="22.6399" y2="194.362" gradientUnits="userSpaceOnUse">
<stop stop-color="#E54D60"/>
<stop offset="1" stop-color="#A342FF"/>
</linearGradient>
<linearGradient id="paint9_linear_1948_918" x1="291.654" y1="177.748" x2="22.6399" y2="194.362" gradientUnits="userSpaceOnUse">
<stop stop-color="#E54D60"/>
<stop offset="1" stop-color="#A342FF"/>
</linearGradient>
<linearGradient id="paint10_linear_1948_918" x1="291.654" y1="177.748" x2="22.6399" y2="194.362" gradientUnits="userSpaceOnUse">
<stop stop-color="#E54D60"/>
<stop offset="1" stop-color="#A342FF"/>
</linearGradient>
</defs>
</svg>
