<svg width="24" height="25" viewBox="0 0 24 25" fill="none" xmlns="http://www.w3.org/2000/svg">
<path d="M16.9688 0.514587H7.03125C3.148 0.514587 0 3.66259 0 7.54584V17.4833C0 21.3666 3.148 24.5146 7.03125 24.5146H16.9688C20.852 24.5146 24 21.3666 24 17.4833V7.54584C24 3.66259 20.852 0.514587 16.9688 0.514587Z" fill="url(#paint0_linear_3317_963)"/>
<g clip-path="url(#clip0_3317_963)">
<path d="M5.3877 7.33957H15.4502V15.9646C15.4502 16.1171 15.3896 16.2633 15.2818 16.3712C15.1739 16.479 15.0277 16.5396 14.8752 16.5396H5.9627C5.8102 16.5396 5.66394 16.479 5.55611 16.3712C5.44828 16.2633 5.3877 16.1171 5.3877 15.9646V7.33957Z" fill="white"/>
<path d="M15.4502 6.47707V7.33957H10.8013C10.7254 7.33951 10.6503 7.35447 10.5802 7.38358C10.5102 7.41269 10.4466 7.45538 10.3931 7.50919L9.86982 8.03244C9.81633 8.08626 9.75272 8.12895 9.68265 8.15806C9.61258 8.18717 9.53744 8.20213 9.46157 8.20207H5.3877V6.47707C5.3877 6.32457 5.44828 6.17832 5.55611 6.07048C5.66394 5.96265 5.8102 5.90207 5.9627 5.90207H14.8752C15.0277 5.90207 15.1739 5.96265 15.2818 6.07048C15.3896 6.17832 15.4502 6.32457 15.4502 6.47707Z" fill="#E4E4E4"/>
<path d="M18.6126 18.3134C18.6125 18.4743 18.5647 18.6314 18.4753 18.7651C18.3859 18.8988 18.2589 19.003 18.1103 19.0645C17.9617 19.1261 17.7982 19.1422 17.6405 19.1108C17.4827 19.0795 17.3378 19.0021 17.224 18.8884L14.5876 16.2521L15.7376 15.1021L18.374 17.7384C18.5266 17.8909 18.6125 18.0977 18.6126 18.3134Z" fill="white"/>
<path d="M8.83779 7.33957C8.99657 7.33957 9.12529 7.21085 9.12529 7.05207C9.12529 6.89329 8.99657 6.76457 8.83779 6.76457C8.67901 6.76457 8.55029 6.89329 8.55029 7.05207C8.55029 7.21085 8.67901 7.33957 8.83779 7.33957Z" fill="#BB46C5"/>
<path d="M7.68765 7.33957C7.84643 7.33957 7.97515 7.21085 7.97515 7.05207C7.97515 6.89329 7.84643 6.76457 7.68765 6.76457C7.52886 6.76457 7.40015 6.89329 7.40015 7.05207C7.40015 7.21085 7.52886 7.33957 7.68765 7.33957Z" fill="#BB46C5"/>
<path d="M6.53774 7.33957C6.69653 7.33957 6.82524 7.21085 6.82524 7.05207C6.82524 6.89329 6.69653 6.76457 6.53774 6.76457C6.37896 6.76457 6.25024 6.89329 6.25024 7.05207C6.25024 7.21085 6.37896 7.33957 6.53774 7.33957Z" fill="#BB46C5"/>
<path d="M12.5752 17.4021C14.9569 17.4021 16.8877 15.4713 16.8877 13.0896C16.8877 10.7078 14.9569 8.77707 12.5752 8.77707C10.1935 8.77707 8.2627 10.7078 8.2627 13.0896C8.2627 15.4713 10.1935 17.4021 12.5752 17.4021Z" fill="#D14991"/>
<path d="M12.5752 16.5396C14.4806 16.5396 16.0252 14.995 16.0252 13.0896C16.0252 11.1842 14.4806 9.63957 12.5752 9.63957C10.6699 9.63957 9.12524 11.1842 9.12524 13.0896C9.12524 14.995 10.6699 16.5396 12.5752 16.5396Z" fill="white"/>
<path d="M13.1503 11.9396H12.5753C12.4991 11.9396 12.426 11.9699 12.372 12.0238C12.3181 12.0777 12.2878 12.1508 12.2878 12.2271V13.9521C12.2878 14.0283 12.3181 14.1015 12.372 14.1554C12.426 14.2093 12.4991 14.2396 12.5753 14.2396C12.6516 14.2396 12.7247 14.2093 12.7786 14.1554C12.8326 14.1015 12.8628 14.0283 12.8628 13.9521V13.6646H13.1503C13.3791 13.6646 13.5985 13.5737 13.7602 13.412C13.922 13.2502 14.0128 13.0308 14.0128 12.8021C14.0128 12.5733 13.922 12.3539 13.7602 12.1922C13.5985 12.0304 13.3791 11.9396 13.1503 11.9396ZM13.1503 13.0896H12.8628V12.5146H13.1503C13.2266 12.5146 13.2997 12.5449 13.3536 12.5988C13.4076 12.6527 13.4378 12.7258 13.4378 12.8021C13.4378 12.8783 13.4076 12.9515 13.3536 13.0054C13.2997 13.0593 13.2266 13.0896 13.1503 13.0896Z" fill="#C748A8"/>
<path d="M10.8503 11.9396C10.6215 11.9396 10.4022 12.0304 10.2404 12.1922C10.0787 12.3539 9.98779 12.5733 9.98779 12.8021V13.9521C9.98779 14.0283 10.0181 14.1015 10.072 14.1554C10.1259 14.2093 10.199 14.2396 10.2753 14.2396C10.3515 14.2396 10.4247 14.2093 10.4786 14.1554C10.5325 14.1015 10.5628 14.0283 10.5628 13.9521V13.6646H11.1378V13.9521C11.1378 14.0283 11.1681 14.1015 11.222 14.1554C11.2759 14.2093 11.349 14.2396 11.4253 14.2396C11.5015 14.2396 11.5747 14.2093 11.6286 14.1554C11.6825 14.1015 11.7128 14.0283 11.7128 13.9521V12.8021C11.7128 12.5733 11.6219 12.3539 11.4602 12.1922C11.2984 12.0304 11.079 11.9396 10.8503 11.9396ZM10.5628 13.0896V12.8021C10.5628 12.7258 10.5931 12.6527 10.647 12.5988C10.7009 12.5449 10.774 12.5146 10.8503 12.5146C10.9265 12.5146 10.9997 12.5449 11.0536 12.5988C11.1075 12.6527 11.1378 12.7258 11.1378 12.8021V13.0896H10.5628Z" fill="#C748A8"/>
<path d="M14.8754 14.2396C14.7991 14.2396 14.726 14.2093 14.6721 14.1554C14.6182 14.1015 14.5879 14.0283 14.5879 13.9521V12.2271C14.5879 12.1508 14.6182 12.0777 14.6721 12.0238C14.726 11.9699 14.7991 11.9396 14.8754 11.9396C14.9516 11.9396 15.0248 11.9699 15.0787 12.0238C15.1326 12.0777 15.1629 12.1508 15.1629 12.2271V13.9521C15.1629 14.0283 15.1326 14.1015 15.0787 14.1554C15.0248 14.2093 14.9516 14.2396 14.8754 14.2396Z" fill="#C748A8"/>
<path d="M8.83774 9.63958H6.53774C6.46149 9.63958 6.38837 9.60929 6.33445 9.55537C6.28053 9.50145 6.25024 9.42832 6.25024 9.35208C6.25024 9.27583 6.28053 9.2027 6.33445 9.14878C6.38837 9.09487 6.46149 9.06458 6.53774 9.06458H8.83774C8.91399 9.06458 8.98712 9.09487 9.04104 9.14878C9.09495 9.2027 9.12524 9.27583 9.12524 9.35208C9.12524 9.42832 9.09495 9.50145 9.04104 9.55537C8.98712 9.60929 8.91399 9.63958 8.83774 9.63958Z" fill="#B044DF"/>
<path d="M7.68774 10.7896H6.53774C6.46149 10.7896 6.38837 10.7593 6.33445 10.7054C6.28053 10.6514 6.25024 10.5783 6.25024 10.5021C6.25024 10.4258 6.28053 10.3527 6.33445 10.2988C6.38837 10.2449 6.46149 10.2146 6.53774 10.2146H7.68774C7.76399 10.2146 7.83712 10.2449 7.89104 10.2988C7.94495 10.3527 7.97524 10.4258 7.97524 10.5021C7.97524 10.5783 7.94495 10.6514 7.89104 10.7054C7.83712 10.7593 7.76399 10.7896 7.68774 10.7896Z" fill="#B044DF"/>
<path d="M7.40024 14.2396H6.53774C6.46149 14.2396 6.38837 14.2093 6.33445 14.1554C6.28053 14.1015 6.25024 14.0283 6.25024 13.9521C6.25024 13.8758 6.28053 13.8027 6.33445 13.7488C6.38837 13.6949 6.46149 13.6646 6.53774 13.6646H7.40024C7.47649 13.6646 7.54962 13.6949 7.60354 13.7488C7.65745 13.8027 7.68774 13.8758 7.68774 13.9521C7.68774 14.0283 7.65745 14.1015 7.60354 14.1554C7.54962 14.2093 7.47649 14.2396 7.40024 14.2396Z" fill="#B044DF"/>
<path d="M7.11274 11.9396H6.53774C6.46149 11.9396 6.38837 11.9093 6.33445 11.8554C6.28053 11.8015 6.25024 11.7283 6.25024 11.6521C6.25024 11.5758 6.28053 11.5027 6.33445 11.4488C6.38837 11.3949 6.46149 11.3646 6.53774 11.3646H7.11274C7.18899 11.3646 7.26212 11.3949 7.31604 11.4488C7.36995 11.5027 7.40024 11.5758 7.40024 11.6521C7.40024 11.7283 7.36995 11.8015 7.31604 11.8554C7.26212 11.9093 7.18899 11.9396 7.11274 11.9396Z" fill="#B044DF"/>
<path d="M7.11274 13.0896H6.53774C6.46149 13.0896 6.38837 13.0593 6.33445 13.0054C6.28053 12.9514 6.25024 12.8783 6.25024 12.8021C6.25024 12.7258 6.28053 12.6527 6.33445 12.5988C6.38837 12.5449 6.46149 12.5146 6.53774 12.5146H7.11274C7.18899 12.5146 7.26212 12.5449 7.31604 12.5988C7.36995 12.6527 7.40024 12.7258 7.40024 12.8021C7.40024 12.8783 7.36995 12.9514 7.31604 13.0054C7.26212 13.0593 7.18899 13.0896 7.11274 13.0896Z" fill="#B044DF"/>
</g>
<defs>
<linearGradient id="paint0_linear_3317_963" x1="22.4921" y1="10.0003" x2="0.44626" y2="11.8141" gradientUnits="userSpaceOnUse">
<stop stop-color="#E54D60"/>
<stop offset="1" stop-color="#A342FF"/>
</linearGradient>
<clipPath id="clip0_3317_963">
<rect width="13.8" height="13.8" fill="white" transform="translate(5.1001 5.61458)"/>
</clipPath>
</defs>
</svg>
