<svg width="396" height="334" viewBox="0 0 396 334" fill="none" xmlns="http://www.w3.org/2000/svg">
<path d="M164.348 205.095C164.522 214.993 168.195 228.009 181.591 227.144C194.987 226.279 200.957 221.722 200.957 221.722V215.161C200.957 215.161 181.834 225.444 175.273 216.767C169.421 209.029 171.799 203.794 171.799 203.794L164.348 205.095Z" fill="#9C92DC"/>
<path d="M160.264 226.086L150.485 227.624L148.617 204.255L161.596 206.303L160.264 226.086Z" fill="#90D6D4"/>
<path d="M155.303 225.7C172.901 221.734 183.994 226.173 185.993 227.648C187.991 229.123 185.563 231.844 181.704 231.115C168.631 228.625 143.196 234.041 137.195 240.372C134.244 243.484 131.1 243.902 130.111 242.657C129.121 241.412 132.626 230.817 155.303 225.7Z" fill="#90D6D4"/>
<path d="M270.59 116.544C272.713 117.254 308.339 129.349 308.339 129.349L315.809 224.959C315.809 224.959 267.366 242.059 216.781 211.027C216.781 211.027 218.723 149.568 221.662 135.599C223.417 127.245 224.911 123.05 249.052 123.772L268.094 117.752L270.59 116.544Z" fill="#0038AD"/>
<mask id="mask0_2159_9301" style="mask-type:luminance" maskUnits="userSpaceOnUse" x="216" y="116" width="100" height="114">
<path d="M270.594 116.544C272.717 117.254 308.342 129.349 308.342 129.349L315.812 224.959C315.812 224.959 267.37 242.059 216.785 211.027C216.785 211.027 218.727 149.568 221.666 135.599C223.421 127.245 224.915 123.049 249.056 123.771L268.098 117.752L270.594 116.544Z" fill="white"/>
</mask>
<g mask="url(#mask0_2159_9301)">
<path d="M254.127 223.334C255.316 226.671 257.183 224.579 258.87 226.484C260.557 228.389 259.4 231.408 259.4 231.408" stroke="white" stroke-width="0.6225" stroke-miterlimit="10"/>
<path d="M263.035 217.427C265.818 219.618 266.278 216.804 268.731 217.557C271.184 218.311 271.806 221.442 271.806 221.442" stroke="white" stroke-width="0.6225" stroke-miterlimit="10"/>
<path d="M276.869 211.812C278.058 215.148 279.926 213.057 281.613 214.961C283.3 216.866 282.142 219.885 282.142 219.885" stroke="white" stroke-width="0.6225" stroke-miterlimit="10"/>
<path d="M284.904 198.689C286.093 202.026 287.961 199.934 289.648 201.839C291.335 203.744 290.177 206.763 290.177 206.763" stroke="white" stroke-width="0.6225" stroke-miterlimit="10"/>
<path d="M295.164 190.485C296.353 193.821 298.221 191.73 299.908 193.635C301.594 195.54 300.437 198.559 300.437 198.559" stroke="white" stroke-width="0.6225" stroke-miterlimit="10"/>
<path d="M305.422 182.261C306.611 185.598 308.478 183.506 310.165 185.411C311.852 187.316 310.694 190.335 310.694 190.335" stroke="white" stroke-width="0.6225" stroke-miterlimit="10"/>
<path d="M315.68 174.051C316.869 177.387 318.736 175.296 320.423 177.201C322.11 179.105 320.952 182.125 320.952 182.125" stroke="white" stroke-width="0.6225" stroke-miterlimit="10"/>
<path d="M216.523 229.702C217.712 233.039 219.58 230.947 221.267 232.852C222.954 234.757 221.796 237.776 221.796 237.776" stroke="white" stroke-width="0.6225" stroke-miterlimit="10"/>
<path d="M226.801 221.516C227.99 224.853 229.857 222.761 231.544 224.666C233.231 226.571 232.073 229.59 232.073 229.59" stroke="white" stroke-width="0.6225" stroke-miterlimit="10"/>
<path d="M237.066 213.305C238.255 216.642 240.123 214.55 241.81 216.455C243.497 218.36 242.339 221.379 242.339 221.379" stroke="white" stroke-width="0.6225" stroke-miterlimit="10"/>
<path d="M245.219 214.818C248.742 214.457 247.136 212.142 249.408 210.959C251.68 209.776 254.32 211.619 254.32 211.619" stroke="white" stroke-width="0.6225" stroke-miterlimit="10"/>
<path d="M257.607 196.878C258.796 200.215 260.664 198.123 262.351 200.028C264.038 201.933 262.88 204.952 262.88 204.952" stroke="white" stroke-width="0.6225" stroke-miterlimit="10"/>
<path d="M266.391 192.875C269.808 193.815 269.148 191.07 271.688 190.79C274.228 190.51 276.046 193.174 276.046 193.174" stroke="white" stroke-width="0.6225" stroke-miterlimit="10"/>
<path d="M281.617 183.556C282.806 186.893 284.674 184.801 286.361 186.706C288.048 188.611 286.89 191.63 286.89 191.63" stroke="white" stroke-width="0.6225" stroke-miterlimit="10"/>
<path d="M296.128 169.581C294.062 172.457 296.863 172.793 296.247 175.277C295.63 177.761 292.512 178.52 292.512 178.52" stroke="white" stroke-width="0.6225" stroke-miterlimit="10"/>
<path d="M298.611 164.022C299.8 167.359 301.668 165.267 303.355 167.172C305.042 169.077 303.884 172.096 303.884 172.096" stroke="white" stroke-width="0.6225" stroke-miterlimit="10"/>
<path d="M308.871 155.812C310.06 159.148 311.928 157.057 313.615 158.961C315.302 160.866 314.144 163.885 314.144 163.885" stroke="white" stroke-width="0.6225" stroke-miterlimit="10"/>
<path d="M220.748 202.667C221.937 206.004 223.805 203.912 225.491 205.817C227.178 207.722 226.021 210.741 226.021 210.741" stroke="white" stroke-width="0.6225" stroke-miterlimit="10"/>
<path d="M233.18 195.465C234.506 198.751 236.292 196.566 238.054 198.415C239.816 200.264 238.788 203.314 238.788 203.314" stroke="white" stroke-width="0.6225" stroke-miterlimit="10"/>
<path d="M253.661 182.747C250.96 185.031 253.593 186.04 252.416 188.3C251.24 190.559 247.99 190.534 247.99 190.534" stroke="white" stroke-width="0.6225" stroke-miterlimit="10"/>
<path d="M261.785 169.812C262.974 173.148 264.842 171.057 266.529 172.961C268.216 174.866 267.058 177.885 267.058 177.885" stroke="white" stroke-width="0.6225" stroke-miterlimit="10"/>
<path d="M272.043 161.601C273.232 164.937 275.099 162.846 276.786 164.751C278.473 166.656 277.316 169.675 277.316 169.675" stroke="white" stroke-width="0.6225" stroke-miterlimit="10"/>
<path d="M281.086 158.507C284.616 158.768 283.439 156.204 285.879 155.432C288.319 154.66 290.598 156.932 290.598 156.932" stroke="white" stroke-width="0.6225" stroke-miterlimit="10"/>
<path d="M292.561 145.173C293.75 148.51 295.617 146.418 297.304 148.323C298.991 150.228 297.833 153.247 297.833 153.247" stroke="white" stroke-width="0.6225" stroke-miterlimit="10"/>
<path d="M302.82 136.95C304.009 140.286 305.877 138.195 307.564 140.1C309.251 142.004 308.093 145.024 308.093 145.024" stroke="white" stroke-width="0.6225" stroke-miterlimit="10"/>
<path d="M313.078 128.745C314.267 132.082 316.135 129.99 317.822 131.895C319.509 133.8 318.351 136.819 318.351 136.819" stroke="white" stroke-width="0.6225" stroke-miterlimit="10"/>
<path d="M213.939 184.428C215.128 187.765 216.996 185.673 218.683 187.578C220.37 189.483 219.212 192.502 219.212 192.502" stroke="white" stroke-width="0.6225" stroke-miterlimit="10"/>
<path d="M223.078 181.583C226.62 181.645 225.3 179.155 227.697 178.253C230.094 177.35 232.497 179.498 232.497 179.498" stroke="white" stroke-width="0.6225" stroke-miterlimit="10"/>
<path d="M241.073 171.007C239.691 174.269 242.498 173.976 242.442 176.535C242.386 179.093 239.504 180.525 239.504 180.525" stroke="white" stroke-width="0.6225" stroke-miterlimit="10"/>
<path d="M238.092 153.328C239.281 156.664 241.148 154.573 242.835 156.478C244.522 158.383 243.364 161.402 243.364 161.402" stroke="white" stroke-width="0.6225" stroke-miterlimit="10"/>
<path d="M254.824 158.115C256.013 161.451 257.881 159.36 259.568 161.265C261.255 163.169 260.097 166.207 260.097 166.207" stroke="white" stroke-width="0.6225" stroke-miterlimit="10"/>
<path d="M268.726 142.036C267.176 145.217 269.971 145.08 269.796 147.638C269.622 150.197 266.646 151.467 266.646 151.467" stroke="white" stroke-width="0.6225" stroke-miterlimit="10"/>
<path d="M285.75 126.934C286.939 130.27 288.806 128.179 290.493 130.083C292.18 131.988 291.023 135.007 291.023 135.007" stroke="white" stroke-width="0.6225" stroke-miterlimit="10"/>
<path d="M296.008 118.717C297.197 122.053 299.064 119.962 300.751 121.867C302.438 123.771 301.28 126.791 301.28 126.791" stroke="white" stroke-width="0.6225" stroke-miterlimit="10"/>
<path d="M306.27 110.506C307.459 113.843 309.326 111.751 311.013 113.656C312.7 115.561 311.542 118.58 311.542 118.58" stroke="white" stroke-width="0.6225" stroke-miterlimit="10"/>
<path d="M217.893 158.115C221.435 158.19 220.127 155.693 222.524 154.797C224.921 153.901 227.317 156.042 227.317 156.042" stroke="white" stroke-width="0.6225" stroke-miterlimit="10"/>
<path d="M250.86 131.602C250.412 135.113 253.032 134.092 253.674 136.582C254.315 139.072 251.918 141.214 251.918 141.214" stroke="white" stroke-width="0.6225" stroke-miterlimit="10"/>
<path d="M273.039 122.757C274.228 126.093 276.096 124.002 277.783 125.907C279.469 127.812 278.312 130.831 278.312 130.831" stroke="white" stroke-width="0.6225" stroke-miterlimit="10"/>
<path d="M211.338 139.122C212.527 142.459 214.394 140.367 216.081 142.272C217.768 144.177 216.61 147.196 216.61 147.196" stroke="white" stroke-width="0.6225" stroke-miterlimit="10"/>
<path d="M223.01 135.997C225.68 138.325 226.278 135.568 228.687 136.421C231.096 137.273 231.563 140.454 231.563 140.454" stroke="white" stroke-width="0.6225" stroke-miterlimit="10"/>
<path d="M231.854 122.695C233.042 126.031 234.91 123.94 236.597 125.844C238.284 127.749 237.126 130.768 237.126 130.768" stroke="white" stroke-width="0.6225" stroke-miterlimit="10"/>
<path d="M242.113 114.484C243.302 117.82 245.17 115.729 246.857 117.633C248.544 119.538 247.386 122.557 247.386 122.557" stroke="white" stroke-width="0.6225" stroke-miterlimit="10"/>
</g>
<path d="M237.037 174.674L235.568 203.203" stroke="#011859" stroke-width="0.466875" stroke-miterlimit="10"/>
<path d="M200.957 202.225C190.561 206.346 190.144 215.964 193.064 221.716C195.983 227.468 209.423 230.947 216.781 228.837C224.139 226.727 227.724 224.069 232.213 223.477C236.701 222.886 240.249 224.461 244.308 224.268C248.366 224.075 253.764 210 244.308 204.267C239.44 201.316 237.323 202.4 230.426 200.613C224.325 199.044 210.63 198.403 200.957 202.225Z" fill="#D0DAFD"/>
<path d="M247.715 214.912C247.534 220.477 243.569 222.382 239 222.201C236.466 222.108 235.035 221.075 231.648 221.125H231.611C230.464 221.135 229.325 221.315 228.231 221.66C226.651 222.194 225.123 222.867 223.662 223.671C222.877 224.069 222.031 224.505 221.084 224.959C219.539 225.746 217.883 226.294 216.173 226.584C213.06 227.032 210.072 226.173 208.018 222.475C204.719 216.549 207.931 204.666 223.469 206.004C224.895 206.124 226.313 206.332 227.714 206.626C228.329 206.758 228.954 206.843 229.582 206.882C230.938 206.955 232.298 206.799 233.603 206.421C234.848 206.072 236.075 205.656 237.276 205.176L238.57 204.672C241.347 203.607 248.001 206.234 247.715 214.912Z" fill="#9C92DC"/>
<path d="M78.5308 86.3159H43.7206C39.516 86.3159 36.1074 89.7244 36.1074 93.9291V128.739C36.1074 132.944 39.516 136.352 43.7206 136.352H78.5308C82.7354 136.352 86.144 132.944 86.144 128.739V93.9291C86.144 89.7244 82.7354 86.3159 78.5308 86.3159Z" fill="#FFC5CB"/>
<path d="M69.4555 105.825C70.587 107.064 71.3658 108.584 71.7106 110.226C72.0555 111.868 71.9539 113.573 71.4163 115.163L73.3399 118.045C73.5293 118.335 73.6078 118.683 73.5609 119.026C73.514 119.369 73.3449 119.684 73.0846 119.912L68.6711 123.735C68.4083 123.967 68.0695 124.095 67.7187 124.095C67.3678 124.095 67.0291 123.967 66.7662 123.735L64.1953 121.388C62.5849 121.684 60.9251 121.554 59.3802 121.011C57.8354 120.469 56.4591 119.532 55.3876 118.294C54.3161 117.056 53.5867 115.559 53.2715 113.952C52.9563 112.346 53.0663 110.684 53.5906 109.133C54.1149 107.582 55.0353 106.195 56.2607 105.108C57.4861 104.022 58.9739 103.275 60.5768 102.941C62.1797 102.607 63.8422 102.697 65.3995 103.203C66.9568 103.709 68.3549 104.613 69.4555 105.825Z" fill="white"/>
<path d="M74.7518 121.207L75.7914 122.763C75.9356 122.98 75.9962 123.241 75.9618 123.499C75.9275 123.757 75.8005 123.993 75.6046 124.164L72.5544 126.81C72.359 126.981 72.1079 127.076 71.8478 127.076C71.5878 127.076 71.3367 126.981 71.1413 126.81L69.7531 125.565C69.6392 125.464 69.5479 125.34 69.4854 125.202C69.4229 125.064 69.3906 124.913 69.3906 124.762C69.3906 124.61 69.4229 124.459 69.4854 124.321C69.5479 124.183 69.6392 124.059 69.7531 123.958L73.1582 121.008C73.272 120.907 73.406 120.832 73.5511 120.787C73.6962 120.742 73.8492 120.729 74 120.748C74.1507 120.767 74.2957 120.817 74.4253 120.896C74.5549 120.976 74.6662 121.082 74.7518 121.207Z" fill="#6B6CE3"/>
<path d="M72.0995 121.232C65.4138 116.7 63.3222 108.782 66.3289 109.405C70.0639 110.139 66.0923 113.457 63.6584 112.218C61.2244 110.979 61.7597 112.915 62.1083 114.167C63.0545 117.572 59.2697 119.072 58.7904 116.931C57.8318 112.654 64.1501 115.337 69.9954 123.156" stroke="#FFC5CB" stroke-width="1.245" stroke-miterlimit="10"/>
<path d="M53.3524 102.196L50.3457 98.7346" stroke="#6B6CE3" stroke-width="1.8675" stroke-linecap="round" stroke-linejoin="round"/>
<path d="M50.8235 105.638L46.2793 105.01" stroke="#6B6CE3" stroke-width="1.8675" stroke-linecap="round" stroke-linejoin="round"/>
<path d="M57.1113 100.185L57.1362 95.6035" stroke="#6B6CE3" stroke-width="1.8675" stroke-linecap="round" stroke-linejoin="round"/>
<path d="M263.14 135.3C261.663 135.695 260.122 135.789 258.608 135.574C256.712 135.321 254.9 134.635 253.311 133.57C252.476 135.243 251.214 136.667 249.654 137.698C248.093 138.728 246.288 139.329 244.421 139.44C237.985 139.782 231.542 128.596 226.624 114.615L225.441 110.376C225.441 110.376 247.889 95.8091 248.978 96.0581C250.068 96.3071 263.731 108.595 263.731 108.595C266.67 115.225 270.579 116.557 270.579 116.557C273.169 123.915 268.649 133.838 263.14 135.3Z" fill="#FF9D9C"/>
<path d="M246.935 236.276C238.625 237.459 233.937 236.201 233.24 233.493C232.543 230.786 236.813 227.212 239.278 226.484C241.743 225.756 253.919 225.613 253.919 225.613C253.919 225.613 258.657 234.116 258.513 234.023C258.37 233.929 246.935 236.276 246.935 236.276Z" fill="#C3E6E6"/>
<path d="M236.303 226.59C235.681 227.424 237.455 229.192 240.661 228.688C242.809 228.326 244.934 227.834 247.023 227.212C247.527 227.069 252.37 229.453 252.295 230.537C252.22 231.62 252.513 232.56 251.43 232.342C250.347 232.124 244.209 232.417 242.472 234.147C240.735 235.878 240.605 238.411 242.833 238.05C246.313 237.694 249.813 237.573 253.31 237.689C254.468 237.832 259.087 240.291 264.795 238.05C265.299 238.119 271.294 238.05 271.294 238.05L276.859 227.069C273.05 227.6 269.169 227 265.698 225.345C260.282 222.6 256.883 220.869 255.296 220.651C253.708 220.433 252.183 221.734 252.183 221.734C252.183 221.734 247.826 219.998 245.031 222.674C243.574 224.287 237.063 225.594 236.303 226.59Z" fill="#FF9D9C"/>
<path d="M123.146 256.551V259.819C123.146 260.319 123.289 260.809 123.56 261.229C123.83 261.65 124.216 261.984 124.672 262.191L154.352 275.643C156.469 276.602 158.874 276.712 161.069 275.948L228.648 252.399C229.158 252.22 229.599 251.888 229.912 251.447C230.224 251.007 230.391 250.48 230.391 249.94V246.684L173.276 259.582C173.035 259.636 172.788 259.655 172.542 259.638L123.146 256.551Z" fill="#90D6D4"/>
<path d="M124.646 254.553L203 238.144C203.285 238.076 203.581 238.076 203.866 238.144L229.052 244.991C229.429 245.106 229.759 245.337 229.997 245.65C230.234 245.964 230.366 246.345 230.375 246.738C230.383 247.132 230.267 247.518 230.043 247.841C229.819 248.165 229.498 248.409 229.127 248.54L161.193 270.34C158.679 271.145 155.961 271.037 153.518 270.035L124.329 258.076C123.972 257.918 123.673 257.652 123.475 257.316C123.277 256.98 123.189 256.59 123.224 256.201C123.259 255.812 123.415 255.444 123.67 255.148C123.926 254.853 124.267 254.644 124.646 254.553Z" fill="#C3E6E6"/>
<path d="M167.076 253.744L160.895 251.422C179.115 247.276 199.228 242.582 202.378 241.854C202.651 241.78 202.939 241.78 203.212 241.854L206.505 242.881L167.076 253.744Z" fill="white"/>
<path d="M213.435 245.059L173.321 256.09L168.621 254.328L208.206 243.441L213.435 245.059Z" fill="white"/>
<path d="M152.268 257.821L142.675 260.46L139.494 259.215C139.174 259.089 138.903 258.863 138.72 258.572C138.538 258.28 138.454 257.937 138.482 257.594C138.509 257.251 138.645 256.926 138.871 256.666C139.097 256.407 139.401 256.227 139.737 256.152L144.866 255.032L152.268 257.821Z" fill="white"/>
<path d="M164.323 254.503L155.016 257.093L147.857 254.403C151.007 253.7 154.406 252.934 157.929 252.137L164.323 254.503Z" fill="white"/>
<path d="M153.802 258.4L158.502 260.162L148.891 262.807C147.322 262.228 145.722 261.624 144.197 261.039L153.802 258.4Z" fill="white"/>
<path d="M160.046 260.74L168.026 263.735L162.579 265.341C160.301 266.011 157.871 265.963 155.62 265.204C154.07 264.681 152.296 264.052 150.453 263.374L160.046 260.734V260.74Z" fill="white"/>
<path d="M170.569 256.843L161.269 259.408L156.562 257.634L165.869 255.082L170.569 256.843Z" fill="white"/>
<path d="M179.749 260.292L170.705 262.95L162.799 259.981L172.105 257.422L179.749 260.292Z" fill="white"/>
<path d="M217.143 249.292L182.42 259.508L174.863 256.663L215.145 245.595L217.175 246.217C217.504 246.32 217.791 246.526 217.994 246.805C218.197 247.084 218.305 247.421 218.301 247.766C218.298 248.111 218.183 248.446 217.975 248.721C217.766 248.996 217.475 249.196 217.143 249.292Z" fill="white"/>
<path d="M150.449 263.38L160.042 260.74H160.048" fill="white"/>
<path d="M285.226 124.039C284.709 131.74 284.56 137.516 284.56 137.516C284.56 137.516 281.005 143.592 280.414 144.401C280.414 144.401 283.078 147.657 284.342 148.18C284.342 148.18 283.097 160.007 294.781 161.732L302.195 166.394L307.225 177.282L336.283 174.829C336.283 174.829 322.906 167.359 320.472 157.175C320.472 157.175 312.635 130.258 312.56 130.034C312.485 129.81 309.746 119.452 309.746 119.452L299.525 118.119L285.226 124.039Z" fill="#FF9D9C"/>
<path d="M359.511 230.082C358.564 255.686 348.262 275.35 338.806 288.504C323.866 301.215 291.042 298.04 279.27 281.656C286.684 269.984 290.289 256.65 290.04 251.154C290.811 250.245 291.664 249.286 292.579 248.203C281.947 243.055 268.084 236.295 268.084 236.295C271.454 232.764 274.249 228.726 276.369 224.33C280.534 216.032 283.005 206.807 286.454 198.608C292.274 184.752 299.944 180.494 307.221 177.3C320.169 171.617 333.627 171.474 341.458 177.3C352.551 185.505 360.457 204.485 359.511 230.082Z" fill="#FF8E00"/>
<mask id="mask1_2159_9301" style="mask-type:luminance" maskUnits="userSpaceOnUse" x="268" y="172" width="92" height="125">
<path d="M359.509 230.083C358.562 255.686 348.26 275.351 338.804 288.504C323.864 301.216 291.04 298.041 279.268 281.657C286.682 269.985 290.287 256.651 290.038 251.154C290.809 250.245 291.662 249.287 292.577 248.204C281.945 243.055 268.082 236.295 268.082 236.295C271.452 232.764 274.247 228.727 276.368 224.331C280.532 216.033 283.003 206.807 286.452 198.609C292.272 184.752 299.942 180.494 307.219 177.301C320.167 171.617 333.625 171.474 341.456 177.301C352.549 185.505 360.455 204.485 359.509 230.083Z" fill="white"/>
</mask>
<g mask="url(#mask1_2159_9301)">
<g opacity="0.6">
<path d="M271.464 246.143C272.103 244.632 271.397 242.89 269.886 242.251C268.376 241.612 266.634 242.319 265.995 243.829C265.356 245.339 266.062 247.082 267.573 247.721C269.083 248.36 270.825 247.653 271.464 246.143Z" fill="#FEC942"/>
<path d="M278.97 228.401C279.609 226.89 278.902 225.148 277.392 224.509C275.882 223.87 274.14 224.577 273.501 226.087C272.862 227.597 273.568 229.34 275.078 229.979C276.589 230.618 278.331 229.911 278.97 228.401Z" fill="#FEC942"/>
<path d="M286.474 210.659C287.113 209.149 286.406 207.407 284.896 206.768C283.386 206.129 281.643 206.835 281.005 208.346C280.366 209.856 281.072 211.598 282.582 212.237C284.093 212.876 285.835 212.17 286.474 210.659Z" fill="#FEC942"/>
<path d="M293.98 192.918C294.619 191.407 293.912 189.665 292.402 189.026C290.892 188.387 289.149 189.094 288.51 190.604C287.871 192.114 288.578 193.857 290.088 194.495C291.599 195.134 293.341 194.428 293.98 192.918Z" fill="#FEC942"/>
<path d="M301.486 175.181C302.125 173.671 301.418 171.929 299.908 171.29C298.397 170.651 296.655 171.357 296.016 172.868C295.377 174.378 296.084 176.12 297.594 176.759C299.104 177.398 300.847 176.692 301.486 175.181Z" fill="#FEC942"/>
<path d="M273.124 277.126C273.763 275.615 273.057 273.873 271.546 273.234C270.036 272.595 268.294 273.302 267.655 274.812C267.016 276.322 267.722 278.065 269.233 278.703C270.743 279.342 272.485 278.636 273.124 277.126Z" fill="#FEC942"/>
<path d="M280.634 259.384C281.273 257.873 280.567 256.131 279.056 255.492C277.546 254.853 275.804 255.56 275.165 257.07C274.526 258.58 275.232 260.323 276.742 260.962C278.253 261.6 279.995 260.894 280.634 259.384Z" fill="#FEC942"/>
<path d="M288.032 242.068C288.671 240.56 287.967 238.818 286.458 238.179C284.949 237.539 283.208 238.244 282.568 239.752C281.929 241.261 282.633 243.003 284.142 243.642C285.651 244.282 287.392 243.577 288.032 242.068Z" fill="#FEC942"/>
<path d="M295.64 223.901C296.279 222.39 295.572 220.648 294.062 220.009C292.552 219.37 290.809 220.076 290.171 221.587C289.532 223.097 290.238 224.839 291.748 225.478C293.259 226.117 295.001 225.411 295.64 223.901Z" fill="#FEC942"/>
<path d="M303.15 206.159C303.789 204.649 303.082 202.906 301.572 202.267C300.062 201.628 298.319 202.335 297.68 203.845C297.041 205.355 297.748 207.098 299.258 207.737C300.768 208.376 302.511 207.669 303.15 206.159Z" fill="#FEC942"/>
<path d="M310.61 188.85C311.249 187.341 310.545 185.6 309.036 184.96C307.527 184.321 305.786 185.025 305.146 186.534C304.507 188.043 305.211 189.784 306.72 190.424C308.229 191.063 309.97 190.359 310.61 188.85Z" fill="#FEC942"/>
<path d="M318.156 170.681C318.794 169.171 318.088 167.428 316.578 166.789C315.067 166.15 313.325 166.857 312.686 168.367C312.047 169.877 312.754 171.62 314.264 172.259C315.774 172.898 317.517 172.191 318.156 170.681Z" fill="#FEC942"/>
<path d="M281.511 292.225C282.15 290.715 281.444 288.972 279.933 288.333C278.423 287.695 276.681 288.401 276.042 289.911C275.403 291.422 276.109 293.164 277.619 293.803C279.13 294.442 280.872 293.735 281.511 292.225Z" fill="#FEC942"/>
<path d="M289.009 274.489C289.648 272.979 288.942 271.236 287.431 270.597C285.921 269.958 284.179 270.665 283.54 272.175C282.901 273.686 283.607 275.428 285.117 276.067C286.628 276.706 288.37 275.999 289.009 274.489Z" fill="#FEC942"/>
<path d="M296.401 257.188C297.04 255.679 296.336 253.937 294.827 253.298C293.318 252.658 291.577 253.363 290.937 254.871C290.298 256.38 291.002 258.122 292.511 258.761C294.02 259.401 295.761 258.696 296.401 257.188Z" fill="#FEC942"/>
<path d="M304.025 239.006C304.664 237.495 303.957 235.753 302.447 235.114C300.937 234.475 299.194 235.181 298.555 236.692C297.916 238.202 298.623 239.944 300.133 240.583C301.643 241.222 303.386 240.516 304.025 239.006Z" fill="#FEC942"/>
<path d="M311.533 221.264C312.171 219.753 311.465 218.011 309.955 217.372C308.444 216.733 306.702 217.44 306.063 218.95C305.424 220.46 306.131 222.203 307.641 222.841C309.151 223.48 310.894 222.774 311.533 221.264Z" fill="#FEC942"/>
<path d="M319.034 203.522C319.673 202.012 318.967 200.269 317.457 199.631C315.946 198.992 314.204 199.698 313.565 201.208C312.926 202.719 313.633 204.461 315.143 205.1C316.653 205.739 318.396 205.032 319.034 203.522Z" fill="#FEC942"/>
<path d="M326.542 185.78C327.181 184.27 326.475 182.528 324.964 181.889C323.454 181.25 321.712 181.956 321.073 183.466C320.434 184.977 321.14 186.719 322.651 187.358C324.161 187.997 325.903 187.291 326.542 185.78Z" fill="#FEC942"/>
<path d="M298.03 288.184C298.669 286.676 297.965 284.934 296.456 284.295C294.947 283.655 293.206 284.36 292.566 285.868C291.927 287.377 292.631 289.119 294.14 289.758C295.649 290.398 297.39 289.693 298.03 288.184Z" fill="#FEC942"/>
<path d="M305.685 269.988C306.324 268.478 305.617 266.736 304.107 266.097C302.597 265.458 300.854 266.164 300.215 267.674C299.577 269.185 300.283 270.927 301.793 271.566C303.304 272.205 305.046 271.499 305.685 269.988Z" fill="#FEC942"/>
<path d="M313.086 252.701C313.726 251.193 313.021 249.451 311.513 248.812C310.004 248.172 308.262 248.877 307.623 250.385C306.983 251.894 307.688 253.636 309.197 254.275C310.705 254.915 312.447 254.21 313.086 252.701Z" fill="#FEC942"/>
<path d="M320.702 234.505C321.341 232.994 320.635 231.252 319.125 230.613C317.614 229.974 315.872 230.681 315.233 232.191C314.594 233.701 315.301 235.444 316.811 236.083C318.321 236.722 320.064 236.015 320.702 234.505Z" fill="#FEC942"/>
<path d="M328.202 216.763C328.841 215.253 328.135 213.511 326.625 212.872C325.114 212.233 323.372 212.939 322.733 214.449C322.094 215.96 322.801 217.702 324.311 218.341C325.821 218.98 327.564 218.273 328.202 216.763Z" fill="#FEC942"/>
<path d="M335.71 199.022C336.349 197.511 335.643 195.769 334.132 195.13C332.622 194.491 330.88 195.198 330.241 196.708C329.602 198.218 330.308 199.961 331.819 200.599C333.329 201.238 335.071 200.532 335.71 199.022Z" fill="#FEC942"/>
<path d="M343.218 181.28C343.857 179.769 343.151 178.027 341.64 177.388C340.13 176.749 338.388 177.455 337.749 178.966C337.11 180.476 337.816 182.218 339.327 182.857C340.837 183.496 342.579 182.79 343.218 181.28Z" fill="#FEC942"/>
<path d="M314.072 285.088C314.71 283.577 314.004 281.835 312.494 281.196C310.983 280.557 309.241 281.264 308.602 282.774C307.963 284.284 308.67 286.027 310.18 286.666C311.69 287.305 313.433 286.598 314.072 285.088Z" fill="#FEC942"/>
<path d="M321.574 267.346C322.212 265.836 321.506 264.094 319.996 263.455C318.485 262.816 316.743 263.522 316.104 265.033C315.465 266.543 316.172 268.285 317.682 268.924C319.192 269.563 320.935 268.857 321.574 267.346Z" fill="#FEC942"/>
<path d="M329.081 249.604C329.72 248.094 329.014 246.352 327.503 245.713C325.993 245.074 324.251 245.78 323.612 247.291C322.973 248.801 323.679 250.543 325.19 251.182C326.7 251.821 328.442 251.115 329.081 249.604Z" fill="#FEC942"/>
<path d="M336.585 231.868C337.224 230.358 336.518 228.616 335.007 227.977C333.497 227.338 331.755 228.044 331.116 229.555C330.477 231.065 331.183 232.807 332.694 233.446C334.204 234.085 335.946 233.379 336.585 231.868Z" fill="#FEC942"/>
<path d="M344.093 214.127C344.732 212.616 344.026 210.874 342.515 210.235C341.005 209.596 339.263 210.303 338.624 211.813C337.985 213.323 338.691 215.066 340.201 215.704C341.712 216.343 343.454 215.637 344.093 214.127Z" fill="#FEC942"/>
<path d="M351.595 196.385C352.234 194.875 351.528 193.132 350.017 192.493C348.507 191.854 346.765 192.561 346.126 194.071C345.487 195.582 346.193 197.324 347.703 197.963C349.214 198.602 350.956 197.895 351.595 196.385Z" fill="#FEC942"/>
<path d="M359.086 179.114C359.726 177.605 359.021 175.864 357.513 175.224C356.004 174.585 354.262 175.289 353.623 176.798C352.983 178.307 353.688 180.048 355.197 180.688C356.705 181.327 358.447 180.623 359.086 179.114Z" fill="#FEC942"/>
<path d="M323.24 298.323C323.878 296.813 323.172 295.07 321.662 294.431C320.151 293.792 318.409 294.499 317.77 296.009C317.131 297.52 317.838 299.262 319.348 299.901C320.858 300.54 322.601 299.833 323.24 298.323Z" fill="#FEC942"/>
<path d="M330.741 280.581C331.38 279.071 330.674 277.329 329.164 276.69C327.653 276.051 325.911 276.757 325.272 278.267C324.633 279.778 325.34 281.52 326.85 282.159C328.36 282.798 330.103 282.092 330.741 280.581Z" fill="#FEC942"/>
<path d="M338.141 263.329C338.781 261.82 338.076 260.079 336.567 259.439C335.059 258.8 333.317 259.504 332.678 261.013C332.038 262.522 332.743 264.263 334.251 264.903C335.76 265.542 337.502 264.838 338.141 263.329Z" fill="#FEC942"/>
<path d="M345.753 245.11C346.392 243.599 345.686 241.857 344.175 241.218C342.665 240.579 340.923 241.285 340.284 242.796C339.645 244.306 340.351 246.048 341.862 246.687C343.372 247.326 345.114 246.62 345.753 245.11Z" fill="#FEC942"/>
<path d="M353.196 227.852C353.835 226.343 353.131 224.602 351.622 223.962C350.113 223.323 348.372 224.027 347.732 225.536C347.093 227.045 347.797 228.786 349.306 229.426C350.815 230.065 352.556 229.361 353.196 227.852Z" fill="#FEC942"/>
<path d="M360.763 209.626C361.402 208.116 360.695 206.373 359.185 205.734C357.675 205.095 355.932 205.802 355.294 207.312C354.655 208.823 355.361 210.565 356.871 211.204C358.382 211.843 360.124 211.136 360.763 209.626Z" fill="#FEC942"/>
<path d="M339.122 295.686C339.761 294.176 339.055 292.434 337.545 291.795C336.034 291.156 334.292 291.862 333.653 293.372C333.014 294.883 333.72 296.625 335.231 297.264C336.741 297.903 338.483 297.197 339.122 295.686Z" fill="#FEC942"/>
<path d="M346.632 277.945C347.271 276.434 346.565 274.692 345.054 274.053C343.544 273.414 341.802 274.121 341.163 275.631C340.524 277.141 341.23 278.884 342.741 279.523C344.251 280.162 345.993 279.455 346.632 277.945Z" fill="#FEC942"/>
<path d="M354.132 260.203C354.771 258.692 354.065 256.95 352.554 256.311C351.044 255.672 349.302 256.379 348.663 257.889C348.024 259.399 348.73 261.142 350.241 261.781C351.751 262.42 353.493 261.713 354.132 260.203Z" fill="#FEC942"/>
<path d="M361.642 242.461C362.281 240.951 361.574 239.208 360.064 238.569C358.554 237.93 356.811 238.637 356.172 240.147C355.534 241.657 356.24 243.4 357.75 244.039C359.261 244.678 361.003 243.971 361.642 242.461Z" fill="#FEC942"/>
</g>
</g>
<path d="M212.692 77.1899H187.375C183.17 77.1899 179.762 80.5985 179.762 84.8031V110.12C179.762 114.325 183.17 117.733 187.375 117.733H212.692C216.897 117.733 220.305 114.325 220.305 110.12V84.8031C220.305 80.5985 216.897 77.1899 212.692 77.1899Z" fill="white" stroke="#011859" stroke-width="0.31125" stroke-miterlimit="10"/>
<path d="M213.727 95.9087L212.327 94.9002C212.42 94.2339 212.433 93.5588 212.364 92.8895L213.802 91.9371C213.959 91.8323 214.075 91.677 214.132 91.497C214.189 91.317 214.182 91.1231 214.113 90.9473L213.323 88.9304C213.254 88.7541 213.127 88.6067 212.963 88.5127C212.798 88.4187 212.607 88.3838 212.42 88.4138L210.714 88.6877C210.31 88.1496 209.842 87.6626 209.32 87.2372L209.662 85.5503C209.7 85.365 209.672 85.1727 209.585 85.0051C209.498 84.8375 209.356 84.7048 209.183 84.629L207.197 83.7575C207.024 83.6819 206.83 83.6678 206.648 83.7176C206.466 83.7675 206.306 83.8782 206.195 84.0314L205.187 85.432C204.52 85.3384 203.845 85.3258 203.176 85.3946L202.223 83.9567C202.119 83.7997 201.963 83.6834 201.783 83.6268C201.603 83.5702 201.409 83.5767 201.234 83.6454L199.217 84.436C199.041 84.5047 198.893 84.6318 198.799 84.796C198.705 84.9603 198.67 85.1518 198.7 85.3386L198.974 87.0443C198.436 87.4487 197.949 87.917 197.524 88.4387L195.837 88.0963C195.651 88.0591 195.459 88.0863 195.291 88.1735C195.124 88.2607 194.991 88.4026 194.915 88.5756L194.044 90.5614C193.968 90.7346 193.954 90.9285 194.004 91.1108C194.054 91.2931 194.165 91.4529 194.318 91.5636L195.718 92.5721C195.625 93.2383 195.612 93.9135 195.681 94.5827L194.243 95.5352C194.086 95.64 193.97 95.7952 193.913 95.9752C193.857 96.1552 193.863 96.3492 193.932 96.5249L194.722 98.5418C194.791 98.7181 194.918 98.8656 195.082 98.9596C195.247 99.0536 195.438 99.0885 195.625 99.0585L197.331 98.7846C197.735 99.3227 198.203 99.8097 198.725 100.235L198.383 101.922C198.345 102.107 198.373 102.3 198.46 102.467C198.547 102.635 198.689 102.767 198.862 102.843L200.848 103.715C201.021 103.79 201.215 103.804 201.397 103.755C201.58 103.705 201.739 103.594 201.85 103.441L202.858 102.04C203.525 102.134 204.2 102.146 204.869 102.078L205.822 103.516C205.926 103.673 206.082 103.789 206.262 103.846C206.442 103.902 206.636 103.896 206.811 103.827L208.828 103.036C209.005 102.968 209.152 102.84 209.246 102.676C209.34 102.512 209.375 102.321 209.345 102.134L209.071 100.428C209.609 100.024 210.096 99.5553 210.521 99.0336L212.208 99.376C212.394 99.4132 212.586 99.3859 212.754 99.2987C212.921 99.2115 213.054 99.0697 213.13 98.8967L214.001 96.9109C214.077 96.7376 214.091 96.5438 214.041 96.3615C213.991 96.1791 213.88 96.0194 213.727 95.9087ZM202.242 97.826C201.432 97.4721 200.745 96.886 200.268 96.1415C199.79 95.3971 199.545 94.5279 199.562 93.6438C199.579 92.7598 199.858 91.9007 200.363 91.1751C200.868 90.4496 201.578 89.8903 202.401 89.5679C203.224 89.2455 204.125 89.1746 204.989 89.3641C205.852 89.5536 206.64 89.995 207.253 90.6325C207.866 91.27 208.276 92.0749 208.431 92.9453C208.586 93.8158 208.479 94.7128 208.125 95.5227C207.65 96.6078 206.763 97.4598 205.66 97.8917C204.557 98.3236 203.328 98.2999 202.242 97.826Z" fill="#6B6CE3"/>
<path d="M197.615 104.468L196.651 104.213C196.565 103.833 196.433 103.465 196.258 103.117L196.837 102.308C196.906 102.217 196.941 102.104 196.934 101.99C196.927 101.876 196.879 101.768 196.8 101.685L195.978 100.783C195.903 100.695 195.799 100.637 195.684 100.62C195.57 100.602 195.453 100.627 195.356 100.689L194.49 101.187C194.161 100.979 193.808 100.812 193.438 100.689L193.277 99.7058C193.258 99.5983 193.204 99.5003 193.122 99.4279C193.041 99.3554 192.937 99.313 192.828 99.3074L191.583 99.2452C191.474 99.24 191.366 99.2724 191.278 99.337C191.19 99.4015 191.126 99.4943 191.098 99.6L190.843 100.565C190.463 100.651 190.095 100.783 189.747 100.957L188.938 100.378C188.847 100.309 188.734 100.275 188.62 100.282C188.505 100.289 188.397 100.336 188.315 100.415L187.388 101.256C187.3 101.331 187.242 101.435 187.225 101.55C187.207 101.664 187.232 101.781 187.294 101.878L187.792 102.744C187.584 103.073 187.417 103.426 187.294 103.796L186.311 103.957C186.203 103.976 186.105 104.03 186.033 104.112C185.96 104.193 185.918 104.297 185.912 104.406L185.85 105.651C185.845 105.76 185.877 105.868 185.942 105.956C186.006 106.044 186.099 106.108 186.205 106.136L187.17 106.391C187.256 106.771 187.388 107.139 187.562 107.487L186.983 108.296C186.914 108.387 186.88 108.5 186.887 108.614C186.894 108.729 186.941 108.837 187.02 108.919L187.886 109.809C187.961 109.897 188.065 109.955 188.179 109.972C188.294 109.989 188.411 109.965 188.508 109.902L189.373 109.404C189.703 109.612 190.056 109.779 190.425 109.902L190.587 110.886C190.606 110.993 190.66 111.091 190.741 111.164C190.823 111.236 190.927 111.279 191.036 111.284L192.281 111.347C192.39 111.352 192.498 111.319 192.586 111.255C192.674 111.19 192.738 111.097 192.766 110.992L193.021 110.027C193.401 109.941 193.769 109.809 194.117 109.635L194.926 110.214C195.017 110.283 195.13 110.317 195.244 110.31C195.359 110.303 195.466 110.256 195.549 110.176L196.476 109.336C196.564 109.261 196.622 109.157 196.639 109.042C196.657 108.928 196.632 108.811 196.57 108.713L196.072 107.848C196.279 107.519 196.447 107.166 196.57 106.796L197.553 106.634C197.661 106.616 197.759 106.562 197.831 106.48C197.904 106.399 197.946 106.295 197.952 106.186L198.014 104.941C198.014 104.828 197.974 104.718 197.901 104.632C197.828 104.545 197.727 104.487 197.615 104.468ZM191.807 107.873C191.297 107.849 190.805 107.674 190.394 107.371C189.983 107.067 189.671 106.649 189.498 106.168C189.325 105.687 189.298 105.166 189.421 104.67C189.544 104.174 189.812 103.726 190.19 103.382C190.568 103.038 191.039 102.814 191.544 102.738C192.05 102.662 192.566 102.737 193.028 102.955C193.491 103.172 193.878 103.522 194.142 103.96C194.405 104.398 194.533 104.904 194.509 105.414C194.477 106.098 194.174 106.742 193.667 107.203C193.161 107.664 192.492 107.905 191.807 107.873Z" fill="#FFC5CB"/>
<path d="M337.341 166.033C335.536 167.901 332.772 169.146 329.504 170.017C321.741 172.028 311.134 171.505 303.801 169.88L302.773 169.638L303.041 168.243L303.782 164.421C312.379 166.855 324.094 164.421 324.094 164.421C322.399 162.283 321.167 159.815 320.477 157.175L319.786 154.785C328.501 158.196 334.907 157.493 335.766 158.022C337.976 159.36 338.654 164.689 337.341 166.033Z" fill="#D0DAFD"/>
<path d="M284.448 137.716L280.414 144.42C280.414 144.42 282.761 147.501 284.342 148.198" stroke="#011859" stroke-width="0.466875" stroke-miterlimit="10"/>
<path d="M288.626 138.649C289.2 138.649 289.665 137.9 289.665 136.975C289.665 136.05 289.2 135.3 288.626 135.3C288.051 135.3 287.586 136.05 287.586 136.975C287.586 137.9 288.051 138.649 288.626 138.649Z" fill="#011859"/>
<path d="M243.282 123.606C243.82 123.405 243.995 122.54 243.672 121.674C243.349 120.807 242.651 120.267 242.113 120.468C241.575 120.668 241.4 121.533 241.723 122.4C242.046 123.266 242.744 123.806 243.282 123.606Z" fill="#011859"/>
<path d="M233.557 125.574C233.998 125.41 234.141 124.699 233.876 123.987C233.61 123.275 233.037 122.832 232.596 122.996C232.155 123.161 232.012 123.871 232.277 124.583C232.543 125.295 233.116 125.739 233.557 125.574Z" fill="#011859"/>
<path d="M297.445 140.112C298.547 138.145 301.678 136.539 302.786 137.709" stroke="#E44543" stroke-width="0.6225" stroke-miterlimit="10"/>
<path d="M298.69 144.762C298.69 144.762 296.898 144.408 296.312 143.686" stroke="#E44543" stroke-width="0.6225" stroke-miterlimit="10"/>
<path d="M292.577 248.184C291.662 249.243 290.816 250.232 290.038 251.135C288.793 252.434 287.548 253.644 286.303 254.764C268.81 270.227 248.573 269.293 237.685 269.063C225.982 268.814 205.359 264.706 203.23 264.232C201.101 263.759 198.81 264.718 193.575 264.152C188.34 263.585 181.791 256.296 181.791 256.296C181.791 256.296 178.056 256.545 177.371 256.868C176.687 257.192 174.184 261.848 172.391 264.961C170.598 268.073 166.664 266.604 166.341 265.614C166.017 264.625 167.666 260.479 167.666 260.479C165.077 260.983 162.687 258.904 163.608 257.435C165.475 254.515 166.266 253.967 172.416 246.404C179.052 238.243 192.28 244.076 196.407 245.421C217.74 252.361 233.402 252.486 245.361 249.218C248.95 248.247 252.425 246.892 255.725 245.178C258.82 243.566 261.759 241.669 264.503 239.513C265.78 238.512 266.99 237.429 268.126 236.27L271.649 237.982C276.411 240.335 285.263 244.642 292.577 248.184Z" fill="#FF9D9C"/>
<path d="M292.578 248.185C291.663 249.243 290.817 250.233 290.038 251.135C288.793 252.434 287.548 253.644 286.303 254.764L271.295 238.032L271.637 237.976C276.412 240.335 285.264 244.643 292.578 248.185Z" fill="#E44543"/>
<path d="M297.427 176.666C302.034 176.666 305.769 172.025 305.769 166.301C305.769 160.577 302.034 155.936 297.427 155.936C292.821 155.936 289.086 160.577 289.086 166.301C289.086 172.025 292.821 176.666 297.427 176.666Z" fill="#D0DAFD"/>
<path d="M295.745 172.569C298.327 172.569 300.42 169.763 300.42 166.301C300.42 162.839 298.327 160.032 295.745 160.032C293.163 160.032 291.07 162.839 291.07 166.301C291.07 169.763 293.163 172.569 295.745 172.569Z" fill="#9C92DC"/>
<path d="M324.094 164.396C330.362 163.282 331.564 162.249 332.068 161.458" stroke="#011859" stroke-width="0.31125" stroke-miterlimit="10"/>
<path d="M236.154 123.753C236.484 126.641 237.138 130.432 237.138 130.432C238.517 130.781 239.961 130.781 241.34 130.432" stroke="#011859" stroke-width="0.466875" stroke-miterlimit="10"/>
<path d="M271.83 162.834L271.588 177.344C269.459 176.84 267.629 176.448 266.452 176.267C265.668 176.143 265.176 176.118 265.095 176.224C260.893 181.546 257.214 182.361 251.861 179.548C251.861 179.548 249.869 181.951 248.505 181.951C247.461 181.845 246.46 181.474 245.598 180.874C244.733 180.83 243.444 180.712 243.108 179.336C242.772 177.96 242.162 178.552 241.533 178.34C239.666 177.718 241.079 175.352 240.413 175.147C239.031 174.711 238.875 173.864 239.087 172.974C239.299 172.084 241.334 167.807 241.334 167.807C241.334 167.807 230.079 166.345 227.552 166.108C225.025 165.871 222.827 162.186 225.641 162.186C227.533 162.186 254.369 162.578 271.83 162.834Z" fill="#FF9D9C"/>
<path d="M271.83 162.834L271.587 177.344C269.458 176.84 267.628 176.448 266.451 176.267L271.83 162.834Z" fill="#E44543"/>
<path d="M271.828 162.834L271.324 184.372" stroke="#011859" stroke-width="0.466875" stroke-miterlimit="10"/>
<path d="M288.663 181.658C288.663 181.739 278.56 178.981 271.594 177.338L271.837 162.827L286.708 163.045" stroke="#011859" stroke-width="0.466875" stroke-miterlimit="10"/>
<path d="M277.387 158.015V181.664" stroke="#011859" stroke-width="0.466875" stroke-miterlimit="10"/>
<path d="M241.777 173.858C242.306 171.592 244.305 167.795 244.305 167.795" stroke="#011859" stroke-width="0.466875" stroke-miterlimit="10"/>
<path d="M244.311 177.282C244.68 175.462 245.309 173.706 246.178 172.065" stroke="#011859" stroke-width="0.466875" stroke-miterlimit="10"/>
<path d="M247.676 177.799C249.182 178.546 251.859 179.548 251.859 179.548" stroke="#011859" stroke-width="0.466875" stroke-miterlimit="10"/>
<path d="M249.073 178.434L248.301 180.164" stroke="#011859" stroke-width="0.466875" stroke-miterlimit="10"/>
<path d="M258.614 135.574C256.718 135.321 254.905 134.635 253.316 133.57C254.72 130.908 255.782 128.081 256.479 125.154C256.479 125.154 260.575 129.797 258.614 135.574Z" fill="#E44543"/>
<path d="M253.316 133.57C254.72 130.908 255.782 128.081 256.479 125.154" stroke="#011859" stroke-width="0.466875" stroke-miterlimit="10"/>
<path d="M220.667 113.183C222.983 113.942 220.269 116.426 224.819 116.594C229.37 116.762 229.799 110.905 233.074 109.597C236.348 108.29 237.898 107.661 239.436 109.485C240.973 111.309 244.272 111.932 247.453 107.668C247.453 107.668 251.549 107.836 252.801 114.266C252.801 114.266 254.046 108.122 258.403 108.577C262.761 109.031 260.165 116.601 260.165 116.601C260.165 116.601 264.883 112.33 264.317 100.272C263.794 89.1794 257.718 83.608 245.605 88.1025C245.605 88.1025 241.284 84.0625 238.041 85.0896C235.389 85.9237 238.496 89.4097 238.496 89.4097C238.496 89.4097 233.323 87.592 226.556 91.7441C219.291 96.2012 225.859 99.1705 223.886 100.764C219.042 104.661 214.928 110.562 216.322 112.729C217.567 114.64 219.179 112.673 220.667 113.183Z" fill="#011859"/>
<path d="M254.898 115.629C255.203 113.488 257.139 110.562 258.409 110.823" stroke="#E44543" stroke-width="0.6225" stroke-miterlimit="10"/>
<path d="M256.877 120.142C258.278 119.272 259.422 118.043 260.189 116.582" stroke="#E44543" stroke-width="0.6225" stroke-miterlimit="10"/>
<path d="M235.091 179.548L234.008 172.644" stroke="#011859" stroke-width="0.466875" stroke-miterlimit="10"/>
<path d="M243.779 223.527C244.829 223.195 245.895 222.916 246.973 222.693C247.763 222.6 253.602 224.268 253.602 224.268" stroke="#011859" stroke-width="0.466875" stroke-miterlimit="10"/>
<path d="M252.195 221.722C253.808 222.226 254.959 222.687 254.959 222.687" stroke="#011859" stroke-width="0.466875" stroke-miterlimit="10"/>
<path d="M205.545 202.058L93.5637 222.363C92.601 222.537 91.6123 222.504 90.6636 222.265C89.7149 222.027 88.828 221.588 88.0622 220.98C87.2963 220.371 86.669 219.606 86.2222 218.736C85.7754 217.866 85.5194 216.91 85.4712 215.933L81.1137 127.687C81.0678 126.75 81.2142 125.813 81.544 124.934C81.8738 124.055 82.3799 123.253 83.0313 122.577C83.6826 121.902 84.4654 121.366 85.3315 121.004C86.1975 120.642 87.1285 120.461 88.067 120.473L201.113 121.817C202.865 121.837 204.544 122.526 205.806 123.742C207.069 124.957 207.819 126.609 207.905 128.36L211.179 194.967C211.257 196.631 210.729 198.266 209.693 199.57C208.657 200.874 207.183 201.758 205.545 202.058Z" fill="#C3E6E6"/>
<path d="M207.583 197.961L92.6819 218.273L88.0879 124.929L204.035 125.776L207.583 197.961Z" fill="white"/>
<path d="M139.952 179.324C139.952 179.324 144.533 181.253 146.799 176.211L148.492 179.523C148.492 179.523 143.438 182.436 139.952 180.475C139.952 180.469 138.738 180.301 139.952 179.324Z" fill="white" stroke="#D0DAFD" stroke-width="0.466875" stroke-miterlimit="10"/>
<path d="M149.005 185.144C149.005 185.144 147.935 181.409 146.82 177.052C146.316 175.103 145.812 173.03 145.389 171.119C153.624 166.475 157.789 169.6 158.262 171.119C158.545 172.56 158.753 174.014 158.884 175.477C159.351 179.429 159.843 184.571 159.843 184.571" fill="white"/>
<path d="M149.005 185.144C149.005 185.144 147.935 181.409 146.82 177.052C146.316 175.103 145.812 173.03 145.389 171.119C153.624 166.475 157.789 169.6 158.262 171.119C158.545 172.56 158.753 174.014 158.884 175.477C159.351 179.429 159.843 184.571 159.843 184.571" stroke="#D0DAFD" stroke-width="0.466875" stroke-miterlimit="10"/>
<path d="M146.471 166.207C148.874 163.885 150.922 163.362 153.524 163.443C154.904 163.504 156.228 164.009 157.297 164.884C158.367 165.76 159.124 166.957 159.456 168.299C160.215 171.256 159.537 172.034 159.257 172.227C158.977 172.42 153.847 171.86 151.04 169.295C148.232 166.73 146.471 166.207 146.471 166.207Z" fill="white" stroke="#9C92DC" stroke-width="0.466875" stroke-miterlimit="10"/>
<path d="M199.631 196.442L172.472 201.242C171.826 201.357 171.164 201.333 170.528 201.171C169.893 201.01 169.299 200.715 168.787 200.306C168.274 199.898 167.855 199.384 167.556 198.801C167.258 198.217 167.087 197.576 167.056 196.922L163.943 133.657C163.912 133.029 164.009 132.402 164.229 131.814C164.448 131.225 164.786 130.687 165.221 130.234C165.656 129.78 166.178 129.421 166.757 129.176C167.336 128.932 167.959 128.809 168.587 128.814L195.977 129.013C197.156 129.021 198.287 129.481 199.138 130.297C199.989 131.113 200.495 132.224 200.552 133.402L203.447 191.674C203.502 192.797 203.144 193.902 202.441 194.78C201.739 195.658 200.739 196.249 199.631 196.442Z" fill="white" stroke="#FFC5CB" stroke-width="0.466875" stroke-miterlimit="10"/>
<path d="M186.852 143.013L189.167 143.032" stroke="#FF8794" stroke-width="0.6225" stroke-miterlimit="10"/>
<path d="M178.799 142.951L184.046 142.995" stroke="#FF8794" stroke-width="0.6225" stroke-miterlimit="10"/>
<path d="M170.885 142.895L176.301 142.932" stroke="#FF8794" stroke-width="0.6225" stroke-miterlimit="10"/>
<path d="M184.469 145.982L189.306 145.989" stroke="#FF8794" stroke-width="0.6225" stroke-miterlimit="10"/>
<path d="M176.127 145.976L181.985 145.982" stroke="#FF8794" stroke-width="0.6225" stroke-miterlimit="10"/>
<path d="M171.021 145.976H174.134" stroke="#FF8794" stroke-width="0.6225" stroke-miterlimit="10"/>
<path d="M184.605 148.977L189.442 148.946" stroke="#FF8794" stroke-width="0.6225" stroke-miterlimit="10"/>
<path d="M171.166 149.058L182.122 148.989" stroke="#FF8794" stroke-width="0.6225" stroke-miterlimit="10"/>
<path d="M185.557 154.934L187.823 154.897" stroke="#FF8794" stroke-width="0.6225" stroke-miterlimit="10"/>
<path d="M177.354 155.065L183.821 154.959" stroke="#FF8794" stroke-width="0.6225" stroke-miterlimit="10"/>
<path d="M182.221 158.003L185.981 157.916L187.064 157.891L187.96 157.872L191.284 157.791" stroke="#FF8794" stroke-width="0.6225" stroke-miterlimit="10"/>
<path d="M177.49 158.115L181.157 158.028" stroke="#FF8794" stroke-width="0.6225" stroke-miterlimit="10"/>
<path d="M186.529 160.891L188.559 160.829" stroke="#FF8794" stroke-width="0.6225" stroke-miterlimit="10"/>
<path d="M181.033 161.059L184.482 160.954" stroke="#FF8794" stroke-width="0.6225" stroke-miterlimit="10"/>
<path d="M177.627 161.159L179.725 161.097" stroke="#FF8794" stroke-width="0.6225" stroke-miterlimit="10"/>
<path d="M188.141 168.112L191.421 167.932" stroke="#FF8794" stroke-width="0.6225" stroke-miterlimit="10"/>
<path d="M184.318 168.318L187.381 168.156" stroke="#FF8794" stroke-width="0.6225" stroke-miterlimit="10"/>
<path d="M173.344 168.915L182.569 168.417" stroke="#FF8794" stroke-width="0.6225" stroke-miterlimit="10"/>
<path d="M188.061 171.1L191.559 170.882" stroke="#FF8794" stroke-width="0.6225" stroke-miterlimit="10"/>
<path d="M180.578 171.561L185.185 171.275" stroke="#FF8794" stroke-width="0.6225" stroke-miterlimit="10"/>
<path d="M173.486 171.997L179.188 171.642" stroke="#FF8794" stroke-width="0.6225" stroke-miterlimit="10"/>
<path d="M190.352 173.933L191.696 173.839" stroke="#FF8794" stroke-width="0.6225" stroke-miterlimit="10"/>
<path d="M182.639 174.455L188.602 174.051" stroke="#FF8794" stroke-width="0.6225" stroke-miterlimit="10"/>
<path d="M177.721 174.792L180.453 174.605" stroke="#FF8794" stroke-width="0.6225" stroke-miterlimit="10"/>
<path d="M173.625 175.072L175.667 174.935" stroke="#FF8794" stroke-width="0.6225" stroke-miterlimit="10"/>
<path d="M187.592 177.114L191.831 176.79" stroke="#FF8794" stroke-width="0.6225" stroke-miterlimit="10"/>
<path d="M182.32 177.506L184.991 177.307" stroke="#FF8794" stroke-width="0.6225" stroke-miterlimit="10"/>
<path d="M176.389 177.954L180.852 177.618" stroke="#FF8794" stroke-width="0.6225" stroke-miterlimit="10"/>
<path d="M188.576 184.36L193.083 183.949" stroke="#FF8794" stroke-width="0.6225" stroke-miterlimit="10"/>
<path d="M184.549 184.727L186.752 184.528" stroke="#FF8794" stroke-width="0.6225" stroke-miterlimit="10"/>
<path d="M180.342 185.106L182.844 184.882" stroke="#FF8794" stroke-width="0.6225" stroke-miterlimit="10"/>
<path d="M193.818 186.843L198.07 186.426" stroke="#FF8794" stroke-width="0.6225" stroke-miterlimit="10"/>
<path d="M188.215 187.391L190.979 187.124" stroke="#FF8794" stroke-width="0.6225" stroke-miterlimit="10"/>
<path d="M180.479 188.151L186.168 187.597" stroke="#FF8794" stroke-width="0.6225" stroke-miterlimit="10"/>
<path d="M193.668 189.825L195.953 189.588" stroke="#FF8794" stroke-width="0.6225" stroke-miterlimit="10"/>
<path d="M185.514 190.672L191.259 190.081" stroke="#FF8794" stroke-width="0.6225" stroke-miterlimit="10"/>
<path d="M180.615 191.194L183.622 190.877" stroke="#FF8794" stroke-width="0.6225" stroke-miterlimit="10"/>
<path d="M189.156 193.299L191.254 193.062" stroke="#FF8794" stroke-width="0.6225" stroke-miterlimit="10"/>
<path d="M180.758 194.239L186.709 193.573" stroke="#FF8794" stroke-width="0.6225" stroke-miterlimit="10"/>
<path d="M123.508 203.807L105.835 206.571C105.649 206.61 105.457 206.609 105.271 206.568C105.085 206.527 104.911 206.447 104.759 206.332C104.607 206.218 104.482 206.072 104.392 205.904C104.301 205.737 104.248 205.553 104.235 205.363L104.061 202.201C104.057 201.795 104.202 201.402 104.468 201.096C104.734 200.79 105.103 200.592 105.505 200.538L123.856 197.924C124.057 197.886 124.264 197.898 124.459 197.959C124.655 198.02 124.832 198.129 124.975 198.275C125.118 198.42 125.224 198.599 125.282 198.795C125.339 198.992 125.348 199.199 125.307 199.399L124.809 202.512C124.752 202.836 124.597 203.134 124.364 203.366C124.131 203.598 123.832 203.752 123.508 203.807Z" fill="#D0DAFD"/>
<path d="M140.235 201.186L155.287 198.833C155.618 198.766 155.913 198.581 156.119 198.314C156.325 198.046 156.427 197.713 156.407 197.376L156.251 194.587C156.251 194.43 156.217 194.275 156.152 194.132C156.087 193.989 155.993 193.861 155.876 193.757C155.758 193.653 155.62 193.575 155.47 193.528C155.32 193.482 155.162 193.467 155.006 193.485L139.332 195.714C139.133 195.747 138.943 195.822 138.774 195.932C138.605 196.043 138.46 196.187 138.35 196.356C138.239 196.525 138.165 196.715 138.132 196.914C138.098 197.113 138.106 197.317 138.155 197.513L138.94 200.339C139.013 200.615 139.186 200.854 139.425 201.01C139.664 201.166 139.952 201.229 140.235 201.186Z" fill="#D0DAFD"/>
<path d="M98.4327 203.987C98.6132 207.324 101.639 209.59 105.137 208.998C108.635 208.407 111.188 205.369 111.007 202.151C110.827 198.932 107.932 196.648 104.483 197.115C101.035 197.582 98.2459 200.651 98.4327 203.987Z" fill="white" stroke="#9C92DC" stroke-width="0.466875" stroke-miterlimit="10"/>
<path d="M160.609 194.78C160.765 197.65 158.742 200.327 156.047 200.763C153.351 201.198 150.942 199.181 150.78 196.231C150.618 193.28 152.735 190.597 155.468 190.23C158.2 189.863 160.454 191.911 160.609 194.78Z" fill="white" stroke="#9C92DC" stroke-width="0.466875" stroke-miterlimit="10"/>
<path d="M119.169 136.614L94.7296 136.533L94.5117 132.617L118.964 132.91L119.169 136.614Z" fill="#FEC942"/>
<path d="M109.974 143.219L95.1023 143.393L94.8906 139.477L109.768 139.434L109.974 143.219Z" fill="#FF8E00"/>
<path d="M144.92 136.701L157.426 136.738L157.239 133.371L144.727 133.221L144.92 136.701Z" fill="#FEC942"/>
<path d="M136.916 142.895L157.751 142.646L157.564 139.272L136.723 139.34L136.916 142.895Z" fill="#FF8E00"/>
<path d="M172.548 137.965L170.369 136.091L172.548 134.217" stroke="#6B6CE3" stroke-width="0.93375" stroke-linecap="round" stroke-linejoin="round"/>
<path d="M176.748 137.965L178.921 136.091L176.748 134.217" stroke="#6B6CE3" stroke-width="0.93375" stroke-linecap="round" stroke-linejoin="round"/>
<path d="M175.804 133.57L173.494 138.612" stroke="#6B6CE3" stroke-width="0.93375" stroke-linecap="round" stroke-linejoin="round"/>
<path d="M112.096 110.843L104.309 106.099L110.148 99.0959" stroke="#6B6CE3" stroke-width="1.8675" stroke-linecap="round" stroke-linejoin="round"/>
<path d="M125.273 108.657L131.106 101.648L123.318 96.9045" stroke="#6B6CE3" stroke-width="1.8675" stroke-linecap="round" stroke-linejoin="round"/>
<path d="M120.02 95.373L115.395 112.374" stroke="#FFC5CB" stroke-width="1.8675" stroke-linecap="round" stroke-linejoin="round"/>
<path d="M243.128 210.766C243.984 210.766 244.678 210.072 244.678 209.216C244.678 208.36 243.984 207.666 243.128 207.666C242.272 207.666 241.578 208.36 241.578 209.216C241.578 210.072 242.272 210.766 243.128 210.766Z" fill="#5559BC"/>
<path d="M221.85 222.538C217.897 224.156 213.135 224.909 210.377 220.67" stroke="#011859" stroke-width="0.466875" stroke-miterlimit="10"/>
<path d="M245.225 215.08C245.237 216.136 244.914 217.169 244.304 218.031C243.693 218.893 242.826 219.54 241.826 219.88" stroke="#011859" stroke-width="0.466875" stroke-miterlimit="10"/>
<path d="M219.354 208.537C222.133 208.279 224.936 208.419 227.676 208.954C230.353 209.434 232.308 209.06 235.09 208.189" stroke="#011859" stroke-width="0.466875" stroke-miterlimit="10"/>
<path d="M167.637 260.491C169.784 254.889 170.475 253.14 171.372 252.679C172.268 252.218 180.709 249.921 180.709 249.921" stroke="#011859" stroke-width="0.466875" stroke-miterlimit="10"/>
<path d="M48.1465 228.657C66.8215 222.432 61.219 235.504 78.8918 238.897" stroke="#011859" stroke-width="0.466875" stroke-miterlimit="10"/>
<path d="M77.5595 239.7C77.5595 239.7 74.6026 238.76 73.7809 238.455C72.9592 238.15 73.7124 236.033 75.9099 236.587C78.4621 237.21 81.6929 238.156 81.6929 238.156C81.6929 238.156 81.612 239.918 77.5595 239.7Z" fill="#5559BC"/>
<path d="M75.8357 239.974C81.5876 238.517 86.0011 236.295 86.5925 235.436C87.1839 234.577 88.2733 231.701 91.504 230.699C94.7348 229.696 99.8829 230.524 104.141 233.537C108.399 236.55 113.939 244.499 114.431 246.51C114.922 248.521 115.128 251.141 110.036 250.382C104.944 249.623 96.8638 247.413 95.4133 247.394C93.9629 247.375 89.4871 250.164 89.7112 250.936C89.9353 251.708 96.7828 257.479 96.3782 260.965C95.9736 264.451 92.1826 265.764 84.2083 264.077C76.2341 262.39 64.2074 258.226 59.8561 251.901C59.3136 250.502 59.0977 248.997 59.225 247.502C59.3523 246.007 59.8194 244.56 60.5907 243.273C61.6614 241.854 64.3008 237.434 75.8357 239.974Z" fill="#D0DAFD"/>
<path d="M101.626 239.918C101.526 240.051 101.399 240.164 101.254 240.247C101.109 240.331 100.949 240.385 100.782 240.405C100.616 240.425 100.448 240.412 100.287 240.366C100.126 240.319 99.9759 240.241 99.846 240.135C99.5632 239.942 99.3667 239.646 99.2982 239.31C99.2296 238.974 99.2944 238.625 99.4787 238.336C99.5793 238.203 99.7059 238.09 99.8509 238.007C99.9959 237.923 100.156 237.869 100.323 237.849C100.489 237.828 100.657 237.842 100.818 237.888C100.979 237.935 101.129 238.013 101.259 238.118C101.542 238.312 101.738 238.608 101.807 238.944C101.875 239.279 101.811 239.629 101.626 239.918Z" fill="#9C92DC"/>
<path d="M106.843 243.746C106.742 243.88 106.616 243.992 106.471 244.076C106.326 244.16 106.165 244.213 105.999 244.234C105.833 244.254 105.664 244.241 105.504 244.194C105.343 244.148 105.193 244.07 105.063 243.964C104.78 243.771 104.583 243.475 104.515 243.139C104.446 242.803 104.511 242.454 104.695 242.165C104.796 242.031 104.923 241.919 105.068 241.835C105.213 241.751 105.373 241.698 105.539 241.677C105.706 241.657 105.874 241.67 106.035 241.717C106.196 241.763 106.346 241.841 106.476 241.947C106.759 242.141 106.955 242.437 107.024 242.772C107.092 243.108 107.027 243.457 106.843 243.746Z" fill="#9C92DC"/>
<path d="M102.484 241.997C102.766 242.19 102.963 242.486 103.031 242.822C103.1 243.158 103.035 243.507 102.851 243.796C102.75 243.93 102.624 244.042 102.479 244.125C102.334 244.209 102.173 244.263 102.007 244.283C101.841 244.304 101.672 244.29 101.511 244.244C101.35 244.198 101.201 244.119 101.071 244.014C100.788 243.82 100.591 243.524 100.523 243.188C100.454 242.853 100.519 242.503 100.703 242.215C100.804 242.081 100.931 241.969 101.076 241.885C101.221 241.801 101.381 241.747 101.547 241.727C101.713 241.707 101.882 241.72 102.043 241.766C102.204 241.813 102.354 241.891 102.484 241.997Z" fill="#9C92DC"/>
<path d="M105.243 238.063C105.526 238.256 105.723 238.552 105.791 238.888C105.86 239.223 105.795 239.573 105.611 239.862C105.51 239.995 105.383 240.108 105.238 240.191C105.093 240.275 104.933 240.329 104.767 240.349C104.601 240.369 104.432 240.356 104.271 240.31C104.11 240.263 103.96 240.185 103.83 240.079C103.548 239.886 103.351 239.59 103.283 239.254C103.214 238.919 103.279 238.569 103.463 238.28C103.564 238.147 103.69 238.034 103.835 237.951C103.98 237.867 104.141 237.813 104.307 237.793C104.473 237.773 104.642 237.786 104.803 237.832C104.964 237.879 105.113 237.957 105.243 238.063Z" fill="#9C92DC"/>
<path d="M83.8238 251.752L81.5143 253.383L72.625 245.165L74.9345 243.528L83.8238 251.752Z" fill="#9C92DC"/>
<path d="M75.8285 252.374L73.0957 249.847L80.6217 244.537L83.3483 247.064L75.8285 252.374Z" fill="#9C92DC"/>
<path d="M64.0078 249.803C67.2075 253.146 72.9407 257.13 82.9754 259.346" stroke="#011859" stroke-width="0.466875" stroke-miterlimit="10"/>
<path d="M54.8333 180.38L48.377 183.922L51.919 190.378L58.3754 186.836L54.8333 180.38Z" fill="#6B6CE3" stroke="white" stroke-width="0.466875" stroke-miterlimit="10"/>
<path d="M58.3802 186.838L51.9238 190.38L55.4659 196.836L61.9223 193.294L58.3802 186.838Z" fill="#6B6CE3" stroke="white" stroke-width="0.466875" stroke-miterlimit="10"/>
<path d="M64.8372 183.295L58.3809 186.837L61.923 193.294L68.3793 189.751L64.8372 183.295Z" fill="#6B6CE3" stroke="white" stroke-width="0.466875" stroke-miterlimit="10"/>
<path d="M68.3822 189.753L61.9258 193.295L65.4679 199.751L71.9242 196.209L68.3822 189.753Z" fill="#6B6CE3" stroke="white" stroke-width="0.466875" stroke-miterlimit="10"/>
<path d="M61.6046 167.092L63.168 171.748L67.824 170.185L66.2607 165.529L61.6046 167.092Z" fill="#FFC5CB" stroke="white" stroke-width="0.466875" stroke-miterlimit="10"/>
<path d="M66.2648 165.534L67.8281 170.19L72.4842 168.627L70.9209 163.971L66.2648 165.534Z" fill="#FFC5CB" stroke="white" stroke-width="0.466875" stroke-miterlimit="10"/>
<path d="M64.7003 160.878L66.2637 165.534L70.9197 163.971L69.3564 159.315L64.7003 160.878Z" fill="#FFC5CB" stroke="white" stroke-width="0.466875" stroke-miterlimit="10"/>
<path d="M69.3546 159.314L70.918 163.97L75.574 162.407L74.0107 157.751L69.3546 159.314Z" fill="#FFC5CB" stroke="white" stroke-width="0.466875" stroke-miterlimit="10"/>
<path d="M87.8381 243.376L86.0539 244.303C85.8343 244.417 85.7488 244.688 85.8629 244.908L86.0266 245.223C86.1407 245.442 86.4113 245.528 86.6309 245.414L88.4151 244.486C88.6347 244.372 88.7202 244.102 88.6061 243.882L88.4425 243.567C88.3283 243.348 88.0577 243.262 87.8381 243.376Z" fill="#5559BC"/>
<path d="M92.5929 242.32L91.5347 242.868C91.4629 242.905 91.3792 242.912 91.3022 242.888C91.2252 242.863 91.161 242.809 91.1238 242.737L90.825 242.165C90.7879 242.093 90.7809 242.009 90.8054 241.932C90.8299 241.855 90.884 241.791 90.9558 241.754L92.014 241.206C92.0585 241.184 92.1076 241.174 92.1572 241.175H92.8419C92.8966 241.176 92.9499 241.192 92.9964 241.22C93.0429 241.249 93.0809 241.29 93.1064 241.338C93.1318 241.386 93.1438 241.44 93.1411 241.495C93.1384 241.55 93.1211 241.602 93.0909 241.648L92.705 242.215C92.6773 242.259 92.6387 242.295 92.5929 242.32Z" fill="#5559BC"/>
<path d="M143.303 172.24C143.701 169.003 145.139 164.77 145.531 164.502C145.923 164.234 151.47 166.73 154.707 169.538C154.707 169.538 147.94 172.433 143.303 172.24Z" fill="white" stroke="#9C92DC" stroke-width="0.466875" stroke-miterlimit="10"/>
<path d="M149.003 185.144C149.003 185.144 147.933 181.409 146.818 177.051C149.476 177.948 154.425 178.844 158.907 175.452C159.374 179.405 159.866 184.546 159.866 184.546" stroke="#D0DAFD" stroke-width="0.466875" stroke-miterlimit="10"/>
<path d="M158.829 174.792C158.829 174.792 161.244 175.993 162.191 178.191C163.137 180.388 160.603 183.096 156.949 181.639C156.949 181.639 156.987 180.637 157.086 180.656C159.078 181.147 162.533 179.709 159.122 177.3L158.829 174.792Z" fill="white" stroke="#D0DAFD" stroke-width="0.466875" stroke-miterlimit="10"/>
<path d="M132.477 169.581L132.782 164.657L136.193 168.007L140.88 182.847L139.785 183.37L132.477 169.581Z" fill="white" stroke="#9C92DC" stroke-width="0.466875" stroke-miterlimit="10"/>
<path d="M140.242 177.028L135.484 178.895L135.805 179.712L140.563 177.845L140.242 177.028Z" fill="white" stroke="#9C92DC" stroke-width="0.466875" stroke-miterlimit="10"/>
<path d="M115.34 187.839C115.34 187.839 114.885 171.368 112.52 168.822C110.154 166.276 107.421 167.16 105.286 167.645C101.676 168.461 101.669 170.559 102.23 175.209C102.79 179.859 104.863 188.904 104.863 188.904" fill="white"/>
<path d="M115.34 187.839C115.34 187.839 114.885 171.368 112.52 168.822C110.154 166.276 107.421 167.16 105.286 167.645C101.676 168.461 101.669 170.559 102.23 175.209C102.79 179.859 104.863 188.904 104.863 188.904" stroke="#D0DAFD" stroke-width="0.466875" stroke-miterlimit="10"/>
<path d="M97.8978 173.789C96.0677 175.265 96.2046 176.603 97.101 178.452C97.9974 180.301 97.7235 180.861 96.4785 182.336C95.2335 183.812 96.5283 184.316 96.4785 185.835C96.4287 187.354 94.2437 187.559 94.4492 188.524C94.6546 189.489 101.197 190.858 101.452 187.279C101.708 183.699 103.756 183.805 103.756 183.805L102.286 175.669C102.286 175.669 104.229 175.333 103.756 174.256C103.282 173.179 103.077 171.343 104.092 171.268C105.106 171.193 106.681 169.401 105.461 168.454C104.241 167.508 102.43 167.745 101.969 168.965C101.594 170.02 101.152 171.049 100.643 172.046C99.6782 173.789 98.5079 173.298 97.8978 173.789Z" fill="white" stroke="#D0DAFD" stroke-width="0.466875" stroke-miterlimit="10"/>
<path d="M102.467 176.79C103.749 177.556 104.509 178.658 103.812 179.448C103.114 180.239 102.305 180.693 102.467 181.658C102.629 182.623 107.808 182.81 107.808 182.81V183.768C107.808 183.768 102.436 185.636 100.419 182.586C98.402 179.535 102.467 176.79 102.467 176.79Z" fill="white" stroke="#D0DAFD" stroke-width="0.466875" stroke-miterlimit="10"/>
<path d="M108.1 185.187C108.949 185.187 109.638 184.499 109.638 183.65C109.638 182.801 108.949 182.112 108.1 182.112C107.251 182.112 106.562 182.801 106.562 183.65C106.562 184.499 107.251 185.187 108.1 185.187Z" fill="white" stroke="#D0DAFD" stroke-width="0.466875" stroke-miterlimit="10"/>
<path d="M120.755 186.607C121.172 187.179 121.813 186.408 121.427 183.494C121.041 180.581 120.649 177.375 121.172 175.925C121.695 174.474 122.143 171.144 121.172 170.322C120.201 169.5 119.585 167.901 120.332 166.954C121.079 166.008 122.666 166.276 122.971 166.954C123.089 167.123 123.242 167.265 123.42 167.368C123.598 167.472 123.796 167.536 124.001 167.555C124.206 167.575 124.412 167.55 124.606 167.481C124.801 167.413 124.978 167.303 125.125 167.16C125.698 166.537 125.48 165.517 124.154 164.203C122.828 162.89 123.893 162.815 122.349 162.896C120.805 162.977 118.962 162.852 118.078 164.763C117.194 166.674 116.317 167.926 117.773 169.544C119.23 171.163 119.641 170.789 119.641 172.426C119.641 174.063 118.595 174.916 119.056 175.539C119.516 176.161 120.662 183.301 120.593 184.03C120.525 184.758 120.17 185.81 120.755 186.607Z" fill="white" stroke="#9C92DC" stroke-width="0.466875" stroke-miterlimit="10"/>
<path d="M109.906 166.83C109.215 166.755 108.798 167.857 110.186 168.455C111.574 169.052 112.409 168.853 112.489 170.204C112.57 171.555 115.782 170.602 115.782 168.959C115.782 167.316 115.029 164.396 114.039 165.467C113.05 166.538 113.317 167.166 109.906 166.83Z" fill="white" stroke="#D0DAFD" stroke-width="0.466875" stroke-miterlimit="10"/>
<path d="M102.385 176.168C102.385 176.168 108.236 177.855 110.147 179.654C111.197 177.718 112.589 175.989 114.256 174.549" stroke="#9C92DC" stroke-width="0.466875" stroke-miterlimit="10"/>
<path d="M110.148 179.672L111.375 188.25" stroke="#9C92DC" stroke-width="0.466875" stroke-miterlimit="10"/>
<path d="M114.43 175.545C115.569 177.033 117.063 179.902 120.779 179.224L121.041 180.376C120.06 180.787 118.999 180.97 117.938 180.91C116.876 180.849 115.842 180.547 114.915 180.027L114.43 175.545Z" fill="white" stroke="#D0DAFD" stroke-width="0.466875" stroke-miterlimit="10"/>
<path d="M175.82 243.591C178.31 243.317 185.233 245.085 185.233 245.085" stroke="#011859" stroke-width="0.466875" stroke-miterlimit="10"/>
<path d="M169.971 249.355C171.409 247.606 173.083 246.41 174.173 246.684C175.262 246.958 182.663 247.998 182.663 247.998" stroke="#011859" stroke-width="0.466875" stroke-miterlimit="10"/>
<path d="M298.69 144.762C301.404 144.681 304.846 141.98 304.361 138.195C303.919 134.777 299.219 133.358 296.505 138.537C296.505 138.537 295.764 128.434 300.458 125.029C300.458 125.029 283.687 130.75 277.07 126.38C270.453 122.01 274.051 108.066 303.091 110.817C303.091 110.817 299.43 108.184 300.327 105.613C301.223 103.042 308.731 101.156 315.622 105.097C323.142 109.404 325.968 121.481 325.451 127.326C325.451 127.326 326.628 124.973 328.663 125.851C330.462 126.623 328.47 128.87 326.733 129.256C326.733 129.256 329.435 128.801 329.665 130.246C329.896 131.69 326.254 131.36 326.254 131.36C326.254 131.36 329.765 133.526 330.026 136.807C330.499 142.733 328.252 146.91 320.284 152.158C320.284 152.158 324.642 150.253 327.132 151.417C328.937 152.257 325.538 156.397 318.112 157.642C310.156 159.024 302.188 156.596 298.69 144.762Z" fill="#011859"/>
<path d="M260.998 265.807C274.338 263.977 281.136 261.662 286.334 258.026" stroke="#011859" stroke-width="0.466875" stroke-miterlimit="10"/>
<path d="M236.18 248.415C243.295 248.906 250.497 249.479 258.54 246.684" stroke="#011859" stroke-width="0.466875" stroke-miterlimit="10"/>
<path d="M93.6953 190.193C117.089 187.08 162.681 184.322 163.372 184.36" stroke="#9C92DC" stroke-width="0.466875" stroke-miterlimit="10"/>
<path d="M150.76 175.433C153.099 174.327 155.772 174.159 158.23 174.966C158.23 175.159 158.716 179.043 158.616 179.946C158.517 180.849 157.297 183.133 156.245 183.793C156.245 183.793 152.453 183.046 151.159 180.998C150.729 180.257 150.76 175.433 150.76 175.433Z" fill="white" stroke="#9C92DC" stroke-width="0.466875" stroke-miterlimit="10"/>
<path d="M138.946 181.372C139.761 181.372 140.421 180.711 140.421 179.896C140.421 179.082 139.761 178.421 138.946 178.421C138.131 178.421 137.471 179.082 137.471 179.896C137.471 180.711 138.131 181.372 138.946 181.372Z" fill="white" stroke="#D0DAFD" stroke-width="0.466875" stroke-miterlimit="10"/>
<path d="M120.575 181.21C121.424 181.21 122.112 180.521 122.112 179.672C122.112 178.823 121.424 178.135 120.575 178.135C119.726 178.135 119.037 178.823 119.037 179.672C119.037 180.521 119.726 181.21 120.575 181.21Z" fill="white" stroke="#D0DAFD" stroke-width="0.466875" stroke-miterlimit="10"/>
<path d="M107.081 169.859C111.027 168.859 113.983 167.091 113.684 165.911C113.385 164.732 109.943 164.587 105.998 165.587C102.052 166.588 99.096 168.355 99.3952 169.535C99.6944 170.715 103.135 170.86 107.081 169.859Z" fill="white" stroke="#9C92DC" stroke-width="0.466875" stroke-miterlimit="10"/>
<path d="M102.268 168.038C104.814 168.66 108.68 168.405 110.522 167.322C110.522 167.322 108.655 165.205 108.256 163.226C107.858 161.246 108.493 158.507 105.766 159.217C103.04 159.927 102.797 161.01 101.191 158.507C100.748 157.788 100.153 157.174 99.4478 156.709C98.7422 156.245 97.9433 155.94 97.1074 155.818C97.1074 155.818 98.9749 157.063 98.645 158.837C98.3151 160.611 98.5952 162.896 100.581 162.703C102.567 162.51 102.448 163.363 102.448 163.879C102.448 164.396 102.268 168.038 102.268 168.038Z" fill="white" stroke="#9C92DC" stroke-width="0.466875" stroke-miterlimit="10"/>
<path d="M310.276 224.959C308.832 227.306 307.319 229.572 305.776 231.732C300.055 239.787 293.992 246.504 290.045 251.141" stroke="#011859" stroke-width="0.466875" stroke-miterlimit="10"/>
<path d="M304.581 253.899C304.438 253.899 299.122 251.347 292.579 248.184C281.947 243.036 268.084 236.276 268.084 236.276" stroke="#011859" stroke-width="0.466875" stroke-miterlimit="10"/>
<path d="M268.979 229.976C268.979 229.976 290.038 240.241 299.213 244.624" stroke="#011859" stroke-width="0.466875" stroke-miterlimit="10"/>
<path d="M303.422 179.081C308.906 176.591 316.967 171.611 330.911 173.267" stroke="#011859" stroke-width="0.466875" stroke-miterlimit="10"/>
<path d="M48.1444 231.676C49.8874 231.676 51.3004 230.263 51.3004 228.52C51.3004 226.777 49.8874 225.364 48.1444 225.364C46.4013 225.364 44.9883 226.777 44.9883 228.52C44.9883 230.263 46.4013 231.676 48.1444 231.676Z" fill="#5559BC"/>
</svg>
