<svg width="250" height="250" viewBox="0 0 250 250" fill="none" xmlns="http://www.w3.org/2000/svg">
<circle cx="125" cy="125" r="125" fill="#F6F6F6"/>
<path d="M143.566 154.718L143.567 154.718C147.978 151.892 151.918 148.328 155.246 144.138C155.579 143.74 156.162 143.674 156.574 143.992C156.986 144.325 157.05 144.906 156.719 145.317L156.718 145.318C153.257 149.684 149.172 153.378 144.573 156.309C144.137 156.587 143.553 156.455 143.274 156.017C142.996 155.581 143.128 154.997 143.566 154.718Z" fill="#717174" stroke="#F6F6F6" stroke-width="0.338814"/>
<path d="M160.696 140.418L160.698 140.418C161.193 140.522 161.518 141.02 161.396 141.575C161.275 142.084 160.783 142.411 160.27 142.293L160.269 142.293C158.446 141.888 156.624 141.342 154.848 140.673L154.726 140.627L154.65 140.732C149.569 147.809 142.961 153.061 134.981 156.35C129.744 158.5 124.228 159.638 118.586 159.716H118.572C118.056 159.716 117.644 159.307 117.631 158.786C117.618 158.275 118.039 157.847 118.56 157.833C123.962 157.755 129.255 156.671 134.265 154.598C142.165 151.331 148.682 146.054 153.613 138.925L153.614 138.924C153.865 138.554 154.327 138.42 154.742 138.58C156.689 139.349 158.684 139.978 160.696 140.418Z" fill="#717174" stroke="#F6F6F6" stroke-width="0.338814"/>
<path d="M163.048 136.368L163.048 136.368C159.605 135.739 156.272 134.607 153.159 132.956M163.048 136.368L153.238 132.807M163.048 136.368C163.566 136.461 163.896 136.936 163.803 137.454L163.802 137.458C163.724 137.955 163.222 138.302 162.718 138.209L162.717 138.209C159.416 137.617 156.224 136.574 153.219 135.095L153.08 135.027L152.999 135.159C148.168 143.076 141.547 148.809 133.29 152.221M163.048 136.368L163.97 137.484M153.159 132.956L153.238 132.807M153.159 132.956C153.159 132.956 153.159 132.956 153.159 132.956L153.238 132.807M153.159 132.956C152.707 132.717 152.166 132.876 151.914 133.313L151.914 133.314C147.266 141.323 140.761 147.09 132.574 150.469M153.238 132.807C152.706 132.525 152.065 132.713 151.767 133.229C147.137 141.207 140.66 146.949 132.51 150.312M132.574 150.469L132.51 150.312M132.574 150.469C123.099 154.381 112.43 154.35 102.768 150.297M132.574 150.469C132.574 150.469 132.574 150.469 132.574 150.469L132.51 150.312M132.51 150.312C123.076 154.207 112.454 154.176 102.833 150.14C102.336 149.936 101.87 149.722 101.418 149.514C101.315 149.467 101.214 149.42 101.112 149.374C100.565 149.108 99.8921 149.327 99.6261 149.89L102.768 150.297M163.97 137.484C163.876 138.079 163.281 138.485 162.687 138.376C159.37 137.781 156.163 136.733 153.144 135.247C148.294 143.194 141.646 148.951 133.354 152.377M163.97 137.484C164.079 136.874 163.688 136.311 163.078 136.201L163.97 137.484ZM133.354 152.377L133.29 152.221M133.354 152.377C123.155 156.585 111.891 156.366 101.973 152.205L102.768 150.297M133.354 152.377L133.29 152.221C133.29 152.221 133.29 152.221 133.29 152.221M133.29 152.221C123.133 156.411 111.916 156.193 102.038 152.049L102.038 152.049C101.4 151.784 100.793 151.504 100.217 151.224L100.215 151.223C99.7398 150.998 99.5523 150.43 99.7785 149.964L99.7793 149.962C100.004 149.487 100.573 149.3 101.038 149.526L101.038 149.526L101.042 149.528C101.142 149.574 101.244 149.62 101.346 149.667C101.798 149.875 102.268 150.091 102.768 150.297" fill="#717174" stroke="#F6F6F6" stroke-width="0.338814"/>
<path d="M137.233 49.5901L137.231 49.5903C131.475 49.9646 125.814 51.2124 120.401 53.3025L120.331 53.3296L120.264 53.2958C118.034 52.1732 115.711 51.2065 113.357 50.4112C112.867 50.2528 112.335 50.5175 112.162 51.0105C111.992 51.4939 112.264 52.0267 112.761 52.2019C115.177 53.0024 117.563 54.0067 119.838 55.1836M137.233 49.5901L119.761 55.3346M137.233 49.5901C137.744 49.5508 138.184 49.9441 138.224 50.4667C138.264 50.9775 137.871 51.4174 137.349 51.458M137.233 49.5901L137.349 51.458M119.838 55.1836C119.838 55.1838 119.839 55.184 119.839 55.1841L119.761 55.3346M119.838 55.1836C119.838 55.1834 119.837 55.1833 119.837 55.1831L119.761 55.3346M119.838 55.1836C119.973 55.2512 120.119 55.2904 120.277 55.2904C120.394 55.2904 120.514 55.2645 120.623 55.2234M119.761 55.3346C119.918 55.4128 120.09 55.4598 120.277 55.4598C120.418 55.4598 120.559 55.4285 120.684 55.3815M120.623 55.2234C120.623 55.2236 120.623 55.2238 120.622 55.224L120.684 55.3815M120.623 55.2234C125.989 53.1056 131.622 51.8347 137.349 51.458M120.623 55.2234C120.624 55.2233 120.624 55.2231 120.625 55.2229L120.684 55.3815M120.684 55.3815L137.349 51.458" fill="#717174" stroke="#F6F6F6" stroke-width="0.338814"/>
<path d="M151.525 126.712L151.525 126.712L164.91 131.975L164.884 132.142C164.884 132.142 164.884 132.142 164.884 132.142C165.403 132.223 165.762 132.701 165.711 133.205C165.63 133.722 165.152 134.077 164.638 133.998L164.637 133.998C159.968 133.313 155.455 131.585 151.534 128.987L151.373 128.88L151.288 129.053C146.83 138.14 140.227 144.538 131.602 148.104L131.601 148.104C122.727 151.778 112.778 151.716 103.776 147.948C97.7818 145.425 92.2675 141.095 88.2174 135.737L88.2174 135.737L88.2162 135.735C87.9017 135.329 87.9891 134.746 88.405 134.424C88.8109 134.11 89.3933 134.197 89.7154 134.612C93.5499 139.704 98.7985 143.821 104.49 146.211L104.49 146.211C113.183 149.858 122.616 149.764 130.87 146.368L130.871 146.367C139.377 142.846 145.836 136.399 150.06 127.199L150.09 127.139L150.09 127.139L150.093 127.132C150.214 126.864 150.441 126.664 150.72 126.584C151.006 126.503 151.308 126.547 151.525 126.712Z" fill="#717174" stroke="#F6F6F6" stroke-width="0.338814"/>
<path d="M106.401 55.1098L106.401 55.1097L106.398 55.1092C105.885 55.0171 105.551 54.5157 105.658 53.9959L105.658 53.9959L105.659 53.9918C105.751 53.4767 106.254 53.1459 106.756 53.2516L106.758 53.252C111.323 54.1557 115.765 55.8076 119.989 58.1771L120.062 58.218L120.139 58.185C126.782 55.3312 133.799 53.8966 141.019 53.8966C143.452 53.8966 145.916 54.0682 148.334 54.3957L148.335 54.3959C148.849 54.4618 149.209 54.9377 149.143 55.4578C149.077 55.972 148.602 56.3318 148.082 56.2657C145.743 55.9361 143.373 55.7792 141.019 55.7792C133.957 55.7792 127.099 57.2073 120.633 60.0319L120.4 60.1247L120.4 60.1246L120.395 60.1272C120.277 60.1795 120.144 60.2065 120.01 60.2065C119.851 60.2065 119.692 60.167 119.545 60.0872C115.353 57.6856 110.941 56.0051 106.401 55.1098Z" fill="#717174" stroke="#F6F6F6" stroke-width="0.338814"/>
<path d="M148.334 119.587L148.334 119.588C147.675 121.517 146.922 123.462 146.059 125.33C142.32 133.484 136.643 139.164 129.2 142.249L129.199 142.249C122.008 145.223 113.78 145.27 106.245 142.108L106.244 142.108C98.6939 138.93 92.3407 132.498 89.2888 124.9C88.1725 122.133 87.4335 119.24 87.0876 116.268L87.0873 116.266L87.0873 116.266C87.0347 115.752 86.5593 115.38 86.0415 115.447C85.5209 115.513 85.1522 115.979 85.2181 116.493L85.2184 116.495L85.2184 116.495C85.5765 119.625 86.3549 122.691 87.5379 125.602L87.5381 125.603C90.7908 133.649 97.5005 140.467 105.515 143.829L105.515 143.829C113.406 147.144 122.167 147.19 129.93 143.985L129.931 143.985C137.818 140.734 143.827 134.729 147.785 126.112C148.409 124.739 149.002 123.319 149.516 121.916L149.607 121.668L149.795 121.854C154.179 126.208 159.886 128.975 166.043 129.706L166.045 129.706C166.557 129.772 167.022 129.406 167.09 128.887C167.128 128.368 166.755 127.904 166.237 127.837L148.334 119.587ZM148.334 119.587C148.44 119.268 148.705 119.031 149.036 118.965C149.365 118.899 149.696 119.016 149.924 119.271L148.334 119.587Z" fill="#717174" stroke="#F6F6F6" stroke-width="0.338814"/>
<path d="M100.908 58.8564L100.908 58.8563L100.906 58.8562C100.392 58.8299 100.01 58.3818 100.049 57.8811L100.049 57.8811L100.049 57.8764C100.076 57.3599 100.511 56.9645 101.041 57.0042L101.043 57.0043C107.489 57.4248 113.939 59.5739 119.736 63.2206L119.817 63.2714L119.902 63.2287C120.496 62.9318 121.071 62.6523 121.66 62.4042L121.66 62.4042L121.662 62.4033C127.804 59.7219 134.32 58.3657 141.024 58.3657C146.153 58.3657 151.282 59.1608 156.241 60.7355C156.732 60.8953 157.009 61.4268 156.851 61.9142C156.691 62.4063 156.16 62.6831 155.672 62.525L155.671 62.5247C150.883 61.002 145.969 60.2327 141.024 60.2327C134.571 60.2327 128.306 61.5358 122.403 64.1106C121.663 64.4255 120.924 64.787 120.203 65.1634C120.069 65.2303 119.907 65.27 119.764 65.27C119.579 65.27 119.408 65.2179 119.248 65.1107L119.246 65.1097C113.591 61.4342 107.243 59.2651 100.908 58.8564Z" fill="#717174" stroke="#F6F6F6" stroke-width="0.338814"/>
<path d="M167.102 123.478L167.098 123.478C163.408 123.099 159.845 121.759 156.832 119.599L156.832 119.598C153.205 116.981 150.524 113.354 149.089 109.112M167.102 123.478L149.25 109.058M167.102 123.478C167.609 123.517 167.987 123.973 167.948 124.53C167.893 125.048 167.428 125.431 166.914 125.378L166.913 125.378C162.891 124.974 159.024 123.514 155.732 121.154C152.377 118.731 149.752 115.516 148.091 111.774L147.875 111.287L147.77 111.809C146.896 116.161 145.539 120.357 143.715 124.318L143.714 124.318C140.241 131.872 135.03 137.126 128.207 139.939L128.207 139.939C121.522 142.706 114.013 142.66 107.218 139.798C100.282 136.875 94.4485 130.963 91.6339 123.997L91.6339 123.997C90.1559 120.341 89.4091 116.498 89.3935 112.53L89.3927 112.315L89.184 112.366C87.9706 112.662 86.7441 112.879 85.5038 112.972L85.5035 112.972C84.9834 113.012 84.5204 112.625 84.4809 112.111C84.4408 111.576 84.8271 111.128 85.3418 111.088L85.3418 111.088L85.3438 111.088C86.9359 110.946 88.5281 110.631 90.0731 110.142L90.0733 110.142C90.3669 110.049 90.6991 110.103 90.9343 110.286C91.1894 110.488 91.3208 110.78 91.3076 111.084L91.3076 111.084C91.1345 115.3 91.8268 119.408 93.3847 123.279L93.3847 123.279C96.0142 129.797 101.46 135.322 107.947 138.046M167.102 123.478L93.5419 123.215C96.1544 129.692 101.567 135.183 108.013 137.89M149.089 109.112L149.25 109.058M149.089 109.112C149.089 109.112 149.09 109.112 149.09 109.113L149.25 109.058M149.089 109.112C148.89 108.529 148.63 107.963 148.278 107.412L148.276 107.41C148.065 107.067 147.669 106.907 147.282 106.987C146.897 107.066 146.592 107.385 146.539 107.782L146.539 107.782C145.786 113.305 144.264 118.593 142.004 123.521L142.004 123.521C138.751 130.609 133.872 135.556 127.491 138.187M149.25 109.058C149.047 108.463 148.781 107.884 148.421 107.321C148.17 106.915 147.701 106.727 147.247 106.821C146.794 106.915 146.434 107.29 146.371 107.759C145.621 113.266 144.103 118.538 141.85 123.45C138.612 130.506 133.762 135.418 127.427 138.03M127.491 138.187L127.427 138.03M127.491 138.187C127.491 138.187 127.491 138.187 127.491 138.187L127.427 138.03M127.491 138.187C121.159 140.802 114.167 140.675 107.947 138.046M127.427 138.03C121.138 140.627 114.192 140.502 108.013 137.89M108.013 137.89L107.947 138.046M108.013 137.89L107.947 138.046C107.947 138.046 107.947 138.046 107.947 138.046" fill="#717174" stroke="#F6F6F6" stroke-width="0.338814"/>
<path d="M96.2642 63.3301L96.2642 63.33L96.261 63.3304C95.748 63.383 95.2801 63.0015 95.211 62.4804C95.1734 61.962 95.5601 61.5014 96.0722 61.462L96.0723 61.4621L96.0765 61.4616C96.6799 61.3997 97.3314 61.3686 98.0011 61.353H98.0019H98.0033H98.0046H98.006H98.0074H98.0088H98.0101H98.0115H98.0129H98.0143H98.0156H98.017H98.0184H98.0198H98.0211H98.0225H98.0239H98.0252H98.0266H98.028H98.0294H98.0307H98.0321H98.0335H98.0349H98.0362H98.0376H98.039H98.0404H98.0417H98.0431H98.0445H98.0459H98.0472H98.0486H98.05H98.0514H98.0527H98.0541H98.0555H98.0569H98.0582H98.0596H98.061H98.0624H98.0637H98.0651H98.0665H98.0679H98.0692H98.0706H98.072H98.0734H98.0747H98.0761H98.0775H98.0789H98.0802H98.0816H98.083H98.0843H98.0857H98.0871H98.0885H98.0898H98.0912H98.0926H98.094H98.0953H98.0967H98.0981H98.0995H98.1008H98.1022H98.1036H98.1049H98.1063H98.1077H98.1091H98.1104H98.1118H98.1132H98.1146H98.1159H98.1173H98.1187H98.12H98.1214H98.1228H98.1242H98.1255H98.1269H98.1283H98.1296H98.131H98.1324H98.1338H98.1351H98.1365H98.1379H98.1392H98.1406H98.142H98.1434H98.1447H98.1461H98.1475H98.1488H98.1502H98.1516H98.153H98.1543H98.1557H98.1571H98.1584H98.1598H98.1612H98.1625H98.1639H98.1653H98.1667H98.168H98.1694H98.1708H98.1721H98.1735H98.1749H98.1762H98.1776H98.179H98.1804H98.1817H98.1831H98.1845H98.1858H98.1872H98.1886H98.1899H98.1913H98.1927H98.194H98.1954H98.1968H98.1981H98.1995H98.2009H98.2022H98.2036H98.205H98.2063H98.2077H98.2091H98.2104H98.2118H98.2132H98.2145H98.2159H98.2173H98.2186H98.22H98.2214H98.2227H98.2241H98.2255H98.2268H98.2282H98.2296H98.2309H98.2323H98.2337H98.235H98.2364H98.2378H98.2391H98.2405H98.2418H98.2432H98.2446H98.2459H98.2473H98.2487H98.25H98.2514H98.2528H98.2541H98.2555H98.2568H98.2582H98.2596H98.2609H98.2623H98.2637H98.265H98.2664H98.2677H98.2691H98.2705H98.2718H98.2732H98.2745H98.2759H98.2773H98.2786H98.28H98.2813H98.2827H98.2841H98.2854H98.2868H98.2881H98.2895H98.2909H98.2922H98.2936H98.2949H98.2963H98.2977H98.299H98.3004H98.3017H98.3031H98.3044H98.3058H98.3072H98.3085H98.3099H98.3112H98.3126H98.3139H98.3153H98.3167H98.318H98.3194H98.3207H98.3221H98.3234H98.3248H98.3261H98.3275H98.3289H98.3302H98.3316H98.3329H98.3343H98.3356H98.337H98.3383H98.3397H98.341H98.3424H98.3437H98.3451H98.3464H98.3478H98.3492H98.3505H98.3519H98.3532H98.3546H98.3559H98.3573H98.3586H98.36H98.3613H98.3627H98.364H98.3654H98.3667H98.3681H98.3694H98.3708H98.3721H98.3735H98.3748H98.3762H98.3775H98.3789H98.3802H98.3815H98.3829H98.3842H98.3856H98.3869H98.3883H98.3896H98.391H98.3923H98.3937H98.395H98.3964H98.3977H98.399H98.4004H98.4017H98.4031H98.4044H98.4058H98.4071H98.4085H98.4098H98.4111H98.4125H98.4138H98.4152H98.4165H98.4179H98.4192H98.4205H98.4219H98.4232H98.4246H98.4259H98.4272H98.4286H98.4299H98.4313H98.4326H98.4339H98.4353H98.4366H98.438H98.4393H98.4406H98.442H98.4433H98.4447H98.446H98.4473H98.4487H98.45H98.4513H98.4527H98.454H98.4553H98.4567H98.458H98.4593H98.4607H98.462H98.4634H98.4647H98.466H98.4674H98.4687H98.47H98.4714H98.4727H98.474H98.4754H98.4767H98.478H98.4793H98.4807H98.482H98.4833H98.4847H98.486H98.4873H98.4887H98.49H98.4913H98.4926H98.494H98.4953H98.4966H98.498H98.4993H98.5006H98.5019H98.5033H98.5046H98.5059H98.5072H98.5086H98.5099H98.5112H98.5126H98.5139H98.5152H98.5165H98.5178H98.5192H98.5205H98.5218H98.5231H98.5245H98.5258H98.5271H98.5284H98.5298H98.5311H98.5324H98.5337H98.535H98.5364H98.5377H98.539H98.5403H98.5416H98.543H98.5443H98.5456H98.5469H98.5482H98.5495H98.5509H98.5522H98.5535H98.5548H98.5561H98.5574H98.5588H98.5601H98.5614H98.5627H98.564H98.5653H98.5666H98.568H98.5693H98.5706H98.5719H98.5732H98.5745H98.5758H98.5771H98.5785H98.5798H98.5811H98.5824H98.5837H98.585H98.5863H98.5876H98.5889H98.5902H98.5915H98.5929H98.5942H98.5955H98.5968H98.5981H98.5994H98.6007H98.602H98.6033H98.6046H98.6059H98.6072H98.6085H98.6098H98.6111H98.6124H98.6137H98.615H98.6163H98.6176H98.6189H98.6202H98.6215H98.6228H98.6241H98.6254H98.6267H98.628H98.6293H98.6306H98.6319H98.6332H98.6345H98.6358H98.6371H98.6384H98.6397H98.641H98.6423H98.6436H98.6449H98.6462H98.6475H98.6488H98.6501H98.6514H98.6527H98.654H98.6553H98.6565H98.6578H98.6591H98.6604H98.6617H98.663H98.6643H98.6656H98.6669H98.6682H98.6694H98.6707H98.672H98.6733H98.6746H98.6759H98.6772H98.6785H98.6797H98.681H98.6823H98.6836H98.6849H98.6862H98.6874C105.86 61.353 113.21 63.8584 119.473 68.4074L119.563 68.4731L119.659 68.4157C120.857 67.6997 122.118 67.0459 123.411 66.4698C128.99 64.0389 134.911 62.8079 141.004 62.8079C147.441 62.8079 153.785 64.1637 159.896 66.8764L159.896 66.8765C160.567 67.1731 161.175 67.4535 161.766 67.7491L161.768 67.75C162.228 67.9735 162.415 68.5414 162.176 69.0063L162.175 69.0098C161.951 69.4699 161.383 69.6572 160.918 69.4181C160.366 69.1343 159.784 68.8668 159.141 68.5846C153.27 65.9943 147.177 64.6749 141.004 64.6749C135.177 64.6749 129.507 65.8529 124.166 68.1775L124.166 68.1778C122.735 68.8066 121.336 69.5611 120.047 70.3942C119.883 70.4888 119.695 70.5413 119.525 70.5413C119.321 70.5413 119.125 70.4874 118.956 70.3575L118.955 70.3568C112.905 65.7684 105.705 63.2356 98.7031 63.2356H98.7019H98.7007H98.6995H98.6983H98.6971H98.6959H98.6948H98.6936H98.6924H98.6912H98.69H98.6888H98.6876H98.6864H98.6852H98.684H98.6828H98.6816H98.6804H98.6792H98.678H98.6768H98.6756H98.6744H98.6732H98.672H98.6708H98.6696H98.6684H98.6672H98.666H98.6648H98.6636H98.6624H98.6612H98.66H98.6588H98.6576H98.6564H98.6552H98.654H98.6527H98.6515H98.6503H98.6491H98.6479H98.6467H98.6455H98.6443H98.6431H98.6419H98.6407H98.6395H98.6383H98.637H98.6358H98.6346H98.6334H98.6322H98.631H98.6298H98.6286H98.6273H98.6261H98.6249H98.6237H98.6225H98.6213H98.6201H98.6189H98.6176H98.6164H98.6152H98.614H98.6128H98.6116H98.6103H98.6091H98.6079H98.6067H98.6055H98.6042H98.603H98.6018H98.6006H98.5994H98.5982H98.5969H98.5957H98.5945H98.5933H98.592H98.5908H98.5896H98.5884H98.5872H98.5859H98.5847H98.5835H98.5823H98.581H98.5798H98.5786H98.5774H98.5761H98.5749H98.5737H98.5725H98.5712H98.57H98.5688H98.5676H98.5663H98.5651H98.5639H98.5626H98.5614H98.5602H98.559H98.5577H98.5565H98.5553H98.554H98.5528H98.5516H98.5503H98.5491H98.5479H98.5467H98.5454H98.5442H98.543H98.5417H98.5405H98.5393H98.538H98.5368H98.5356H98.5343H98.5331H98.5318H98.5306H98.5294H98.5281H98.5269H98.5257H98.5244H98.5232H98.522H98.5207H98.5195H98.5182H98.517H98.5158H98.5145H98.5133H98.5121H98.5108H98.5096H98.5083H98.5071H98.5059H98.5046H98.5034H98.5021H98.5009H98.4996H98.4984H98.4972H98.4959H98.4947H98.4934H98.4922H98.491H98.4897H98.4885H98.4872H98.486H98.4847H98.4835H98.4822H98.481H98.4798H98.4785H98.4773H98.476H98.4748H98.4735H98.4723H98.471H98.4698H98.4685H98.4673H98.466H98.4648H98.4635H98.4623H98.461H98.4598H98.4585H98.4573H98.456H98.4548H98.4535H98.4523H98.451H98.4498H98.4485H98.4473H98.446H98.4448H98.4435H98.4423H98.441H98.4398H98.4385H98.4373H98.436H98.4348H98.4335H98.4323H98.431H98.4298H98.4285H98.4272H98.426H98.4247H98.4235H98.4222H98.421H98.4197H98.4185H98.4172H98.4159H98.4147H98.4134H98.4122H98.4109H98.4097H98.4084H98.4071H98.4059H98.4046H98.4034H98.4021H98.4009H98.3996H98.3983H98.3971H98.3958H98.3946H98.3933H98.392H98.3908H98.3895H98.3883H98.387H98.3857H98.3845H98.3832H98.382H98.3807H98.3794H98.3782H98.3769H98.3756H98.3744H98.3731H98.3719H98.3706H98.3693H98.3681H98.3668H98.3655H98.3643H98.363H98.3618H98.3605H98.3592H98.358H98.3567H98.3554H98.3542H98.3529H98.3516H98.3504H98.3491H98.3478H98.3466H98.3453H98.344H98.3428H98.3415H98.3402H98.339H98.3377H98.3364H98.3352H98.3339H98.3326H98.3314H98.3301H98.3288H98.3276H98.3263H98.325H98.3238H98.3225H98.3212H98.32H98.3187H98.3174H98.3161H98.3149H98.3136H98.3123H98.3111H98.3098H98.3085H98.3073H98.306H98.3047H98.3034H98.3022H98.3009H98.2996H98.2984H98.2971H98.2958H98.2945H98.2933H98.292H98.2907H98.2895H98.2882H98.2869H98.2856H98.2844H98.2831H98.2818H98.2806H98.2793H98.278H98.2767H98.2755H98.2742H98.2729H98.2716H98.2704H98.2691H98.2678H98.2665H98.2653H98.264H98.2627H98.2614H98.2602H98.2589H98.2576H98.2563H98.2551H98.2538H98.2525H98.2512H98.25H98.2487H98.2474H98.2461H98.2449H98.2436H98.2423H98.241H98.2398H98.2385H98.2372H98.2359H98.2346H98.2334H98.2321H98.2308H98.2295H98.2283H98.227H98.2257H98.2244H98.2232H98.2219H98.2206H98.2193H98.218H98.2168H98.2155H98.2142H98.2129H98.2116H98.2104H98.2091H98.2078H98.2065H98.2053H98.204H98.2027H98.2014H98.2001H98.1989H98.1976H98.1963H98.195H98.1937H98.1925H98.1912H98.1899H98.1886H98.1873H98.1861H98.1848H98.1835H98.1822H98.1809H98.1797H98.1784H98.1771H98.1758H98.1745H98.1733H98.172H98.1707H98.1694H98.1681H98.1669H98.1656H98.1643H98.163H98.1617H98.1604H98.1592H98.1579H98.1566H98.1553H98.154H98.1528H98.1515H98.1502H98.1489H98.1476H98.1464H98.1451H98.1438H98.1425H98.1412H98.1399H98.1387H98.1374H98.1361H98.1348H98.1335H98.1322H98.131H98.1297H98.1284H98.1271H98.1258H98.1246H98.1233H98.122H98.1207H98.1194H98.1181H98.1169H98.1156H98.1143H98.113H98.1117H98.1104H98.1092H98.1079H98.1066H98.1053H98.104H98.1027H98.1015H98.1002H98.0989H98.0976H98.0963H98.0951H98.0938H98.0925H98.0912H98.0899H98.0886H98.0874H98.0861H98.0848H98.0835H98.0822H98.0809H98.0797H98.0784H98.0771H98.0758H98.0745H98.0732H98.072H98.0707H98.0694H98.0681H98.0668H98.0655H98.0643H98.063H98.0617V63.2356L98.0575 63.2357C97.4288 63.2514 96.831 63.2828 96.2642 63.3301ZM161.842 67.5976C161.248 67.3004 160.637 67.0188 159.965 66.7215L159.073 68.7396C159.714 69.0212 160.293 69.2872 160.841 69.5687C161.388 69.8503 162.061 69.6313 162.327 69.0838C162.609 68.5362 162.39 67.8636 161.842 67.5976Z" fill="#717174" stroke="#F6F6F6" stroke-width="0.338814"/>
<path d="M95.8441 101.159C96.2039 100.768 96.7827 100.689 97.2364 100.955C97.6744 101.221 97.8778 101.769 97.7057 102.269L95.8441 101.159ZM95.8441 101.159C93.0751 104.147 89.3362 106.008 85.3001 106.431C84.69 106.493 84.252 107.041 84.3145 107.651C84.3771 108.261 84.9246 108.699 85.5347 108.636L95.8441 101.159ZM109.72 133.761C114.93 135.951 120.655 135.982 125.708 133.886C130.965 131.711 135.032 127.566 137.786 121.558L109.72 133.761ZM109.72 133.761C104.339 131.492 99.8177 126.924 97.6432 121.527L109.72 133.761ZM167.491 119.036L167.492 119.036C168.009 119.089 168.395 119.553 168.342 120.086C168.289 120.602 167.826 120.974 167.307 120.92L167.29 121.089L167.307 120.92C160.037 120.176 153.85 115.215 151.509 108.285L151.509 108.285C150.463 105.209 147.95 102.537 144.763 101.109C144.755 101.102 144.743 101.094 144.729 101.087C144.704 101.075 144.681 101.07 144.664 101.069C144.651 101.067 144.638 101.067 144.638 101.067H144.471L144.468 101.234C144.328 108.595 142.675 115.893 139.665 122.426L139.665 122.426C136.677 128.933 132.247 133.419 126.504 135.794L126.504 135.794C120.961 138.092 114.673 138.093 108.926 135.669L108.926 135.669C103.054 133.199 98.1275 128.211 95.7509 122.309L95.7509 122.308C93.622 117.04 93.263 111.335 94.6948 105.296L94.798 104.861L94.4325 105.119C91.8122 106.964 88.7421 108.127 85.5171 108.468C84.9985 108.521 84.5359 108.149 84.4831 107.634C84.4299 107.115 84.802 106.652 85.3174 106.599L85.3177 106.599C89.3945 106.172 93.1714 104.292 95.9684 101.274L95.9688 101.273C96.2731 100.943 96.7633 100.875 97.1496 101.101C97.5186 101.326 97.6915 101.789 97.5456 102.214C95.1254 109.176 95.1061 115.696 97.4861 121.59C99.6776 127.03 104.232 131.631 109.654 133.917L109.655 133.917C114.905 136.124 120.677 136.156 125.773 134.042C131.075 131.849 135.171 127.668 137.94 121.629C141.063 114.879 142.664 107.283 142.586 99.6716C142.586 99.3796 142.718 99.101 142.958 98.9145L142.958 98.9145L142.962 98.9115C143.181 98.7313 143.497 98.6758 143.778 98.7559L143.78 98.7566C144.348 98.9101 144.919 99.1257 145.493 99.3741C149.175 100.999 152.081 104.108 153.285 107.674C155.386 113.9 160.965 118.357 167.491 119.036Z" fill="#717174" stroke="#F6F6F6" stroke-width="0.338814"/>
<path d="M98.1582 67.6926V67.6926L98.1555 67.6927C96.219 67.7242 94.2822 67.976 92.408 68.4484C91.9048 68.5669 91.3826 68.2628 91.219 67.7844C91.1036 67.2794 91.4112 66.768 91.9084 66.6502L91.9084 66.6502L91.9098 66.6499C93.9312 66.1523 95.9989 65.8724 98.0819 65.8257H98.0824H98.0836H98.0848H98.086H98.0872H98.0884H98.0896H98.0908H98.0919H98.0931H98.0943H98.0955H98.0967H98.0979H98.0991H98.1003H98.1015H98.1027H98.1039H98.1051H98.1062H98.1074H98.1086H98.1098H98.111H98.1122H98.1134H98.1146H98.1158H98.117H98.1182H98.1193H98.1205H98.1217H98.1229H98.1241H98.1253H98.1265H98.1277H98.1289H98.1301H98.1313H98.1324H98.1336H98.1348H98.136H98.1372H98.1384H98.1396H98.1408H98.142H98.1432H98.1444H98.1455H98.1467H98.1479H98.1491H98.1503H98.1515H98.1527H98.1539H98.1551H98.1563H98.1574H98.1586H98.1598H98.161H98.1622H98.1634H98.1646H98.1658H98.167H98.1682H98.1693H98.1705H98.1717H98.1729H98.1741H98.1753H98.1765H98.1777H98.1789H98.1801H98.1812H98.1824H98.1836H98.1848H98.186H98.1872H98.1884H98.1896H98.1908H98.1919H98.1931H98.1943H98.1955H98.1967H98.1979H98.1991H98.2003H98.2014H98.2026H98.2038H98.205H98.2062H98.2074H98.2086H98.2098H98.2109H98.2121H98.2133H98.2145H98.2157H98.2169H98.2181H98.2193H98.2204H98.2216H98.2228H98.224H98.2252H98.2264H98.2276H98.2287H98.2299H98.2311H98.2323H98.2335H98.2347H98.2359H98.237H98.2382H98.2394H98.2406H98.2418H98.243H98.2442H98.2453H98.2465H98.2477H98.2489H98.2501H98.2513H98.2525H98.2536H98.2548H98.256H98.2572H98.2584H98.2596H98.2607H98.2619H98.2631H98.2643H98.2655H98.2667H98.2678H98.269H98.2702H98.2714H98.2726H98.2738H98.2749H98.2761H98.2773H98.2785H98.2797H98.2808H98.282H98.2832H98.2844H98.2856H98.2867H98.2879H98.2891H98.2903H98.2915H98.2927H98.2938H98.295H98.2962H98.2974H98.2986H98.2997H98.3009H98.3021H98.3033H98.3044H98.3056H98.3068H98.308H98.3092H98.3103H98.3115H98.3127H98.3139H98.3151H98.3162H98.3174H98.3186H98.3198H98.3209H98.3221H98.3233H98.3245H98.3256H98.3268H98.328H98.3292H98.3304H98.3315H98.3327H98.3339H98.3351H98.3362H98.3374H98.3386H98.3398H98.3409H98.3421H98.3433H98.3445H98.3456H98.3468H98.348H98.3492H98.3503H98.3515H98.3527H98.3538H98.355H98.3562H98.3574H98.3585H98.3597H98.3609H98.362H98.3632H98.3644H98.3656H98.3667H98.3679H98.3691H98.3702H98.3714H98.3726H98.3738H98.3749H98.3761H98.3773H98.3784H98.3796H98.3808H98.3819H98.3831H98.3843H98.3854H98.3866H98.3878H98.389H98.3901H98.3913H98.3925H98.3936H98.3948H98.396H98.3971H98.3983H98.3995H98.4006H98.4018H98.403H98.4041H98.4053H98.4064H98.4076H98.4088H98.4099H98.4111H98.4123H98.4134H98.4146H98.4158H98.4169H98.4181H98.4193H98.4204H98.4216H98.4227H98.4239H98.4251H98.4262H98.4274H98.4285H98.4297H98.4309H98.432H98.4332H98.4343H98.4355H98.4367H98.4378H98.439H98.4401H98.4413H98.4425H98.4436H98.4448H98.4459H98.4471H98.4483H98.4494H98.4506H98.4517H98.4529H98.454H98.4552H98.4564H98.4575H98.4587H98.4598H98.461H98.4621H98.4633H98.4644H98.4656H98.4667H98.4679H98.4691H98.4702H98.4714H98.4725H98.4737H98.4748H98.476H98.4771H98.4783H98.4794H98.4806H98.4817H98.4829H98.484H98.4852H98.4863H98.4875H98.4886H98.4898H98.4909H98.4921H98.4932H98.4944H98.4955H98.4967H98.4978H98.499H98.5001H98.5013H98.5024H98.5036H98.5047H98.5058H98.507H98.5081H98.5093H98.5104H98.5116H98.5127H98.5139H98.515H98.5161H98.5173H98.5184H98.5196H98.5207H98.5219H98.523H98.5241H98.5253H98.5264H98.5276H98.5287H98.5298H98.531H98.5321H98.5333H98.5344H98.5355H98.5367H98.5378H98.539H98.5401H98.5412H98.5424H98.5435H98.5446H98.5458H98.5469H98.5481H98.5492H98.5503H98.5515H98.5526H98.5537H98.5549H98.556H98.5571H98.5583H98.5594H98.5605H98.5617H98.5628H98.5639H98.5651H98.5662H98.5673H98.5685H98.5696H98.5707H98.5718H98.573H98.5741H98.5752H98.5764H98.5775H98.5786H98.5797H98.5809H98.582H98.5831H98.5843H98.5854H98.5865H98.5876H98.5888H98.5899H98.591H98.5921H98.5933H98.5944H98.5955H98.5966H98.5978H98.5989H98.6H98.6011H98.6022H98.6034H98.6045H98.6056H98.6067H98.6079H98.609H98.6101H98.6112H98.6123H98.6134H98.6146H98.6157H98.6168H98.6179H98.619H98.6202H98.6213H98.6224H98.6235H98.6246H98.6257H98.6268H98.628H98.6291H98.6302H98.6313H98.6324H98.6335H98.6346H98.6358H98.6369H98.638H98.6391H98.6402H98.6413H98.6424H98.6435H98.6446H98.6457H98.6469H98.648H98.6491H98.6502H98.6513H98.6524H98.6535H98.6546H98.6557H98.6568H98.6579H98.659H98.6601H98.6612H98.6623H98.6634H98.6646H98.6657H98.6668H98.6679H98.669H98.6701H98.6712H98.6723H98.6734H98.6745C105.888 65.8257 113.343 68.7803 119.26 73.95L119.366 74.0422L119.476 73.9557C121.201 72.6038 123.112 71.4691 125.18 70.5673L125.181 70.5672C130.196 68.3709 135.523 67.2649 141.007 67.2649C146.817 67.2649 152.567 68.511 158.1 70.958C160.624 72.08 163.071 73.4515 165.394 75.0414C165.816 75.3316 165.924 75.9291 165.632 76.3537C165.445 76.6208 165.153 76.7661 164.848 76.7661C164.67 76.7661 164.483 76.702 164.318 76.5921C162.104 75.0533 159.748 73.7342 157.33 72.6662C152.037 70.3263 146.554 69.1319 141.007 69.1319C135.79 69.1319 130.714 70.1848 125.937 72.2749L125.936 72.275C123.747 73.2356 121.746 74.4802 119.966 75.9929L119.966 75.9931C119.609 76.2968 119.064 76.2841 118.72 75.9664C113.045 70.7156 105.761 67.6926 98.7058 67.6926H98.7047H98.7036H98.7025H98.7014H98.7003H98.6992H98.6981H98.697H98.6959H98.6948H98.6937H98.6926H98.6915H98.6904H98.6893H98.6882H98.6871H98.686H98.6849H98.6839H98.6828H98.6817H98.6806H98.6795H98.6784H98.6773H98.6762H98.6751H98.674H98.6729H98.6719H98.6708H98.6697H98.6686H98.6675H98.6664H98.6653H98.6642H98.6631H98.6621H98.661H98.6599H98.6588H98.6577H98.6566H98.6555H98.6545H98.6534H98.6523H98.6512H98.6501H98.649H98.648H98.6469H98.6458H98.6447H98.6436H98.6425H98.6415H98.6404H98.6393H98.6382H98.6371H98.6361H98.635H98.6339H98.6328H98.6317H98.6307H98.6296H98.6285H98.6274H98.6264H98.6253H98.6242H98.6231H98.622H98.621H98.6199H98.6188H98.6177H98.6167H98.6156H98.6145H98.6134H98.6124H98.6113H98.6102H98.6091H98.6081H98.607H98.6059H98.6048H98.6038H98.6027H98.6016H98.6006H98.5995H98.5984H98.5973H98.5963H98.5952H98.5941H98.5931H98.592H98.5909H98.5899H98.5888H98.5877H98.5866H98.5856H98.5845H98.5834H98.5824H98.5813H98.5802H98.5792H98.5781H98.577H98.576H98.5749H98.5738H98.5728H98.5717H98.5706H98.5696H98.5685H98.5674H98.5664H98.5653H98.5642H98.5632H98.5621H98.561H98.56H98.5589H98.5579H98.5568H98.5557H98.5547H98.5536H98.5525H98.5515H98.5504H98.5493H98.5483H98.5472H98.5462H98.5451H98.544H98.543H98.5419H98.5408H98.5398H98.5387H98.5377H98.5366H98.5355H98.5345H98.5334H98.5324H98.5313H98.5302H98.5292H98.5281H98.5271H98.526H98.5249H98.5239H98.5228H98.5218H98.5207H98.5196H98.5186H98.5175H98.5165H98.5154H98.5143H98.5133H98.5122H98.5112H98.5101H98.5091H98.508H98.5069H98.5059H98.5048H98.5038H98.5027H98.5017H98.5006H98.4995H98.4985H98.4974H98.4964H98.4953H98.4943H98.4932H98.4921H98.4911H98.49H98.489H98.4879H98.4869H98.4858H98.4848H98.4837H98.4826H98.4816H98.4805H98.4795H98.4784H98.4774H98.4763H98.4753H98.4742H98.4731H98.4721H98.471H98.47H98.4689H98.4679H98.4668H98.4658H98.4647H98.4636H98.4626H98.4615H98.4605H98.4594H98.4584H98.4573H98.4563H98.4552H98.4542H98.4531H98.452H98.451H98.4499H98.4489H98.4478H98.4468H98.4457H98.4447H98.4436H98.4426H98.4415H98.4404H98.4394H98.4383H98.4373H98.4362H98.4352H98.4341H98.4331H98.432H98.431H98.4299H98.4289H98.4278H98.4267H98.4257H98.4246H98.4236H98.4225H98.4215H98.4204H98.4194H98.4183H98.4173H98.4162H98.4151H98.4141H98.413H98.412H98.4109H98.4099H98.4088H98.4078H98.4067H98.4057H98.4046H98.4035H98.4025H98.4014H98.4004H98.3993H98.3983H98.3972H98.3962H98.3951H98.3941H98.393H98.3919H98.3909H98.3898H98.3888H98.3877H98.3867H98.3856H98.3846H98.3835H98.3824H98.3814H98.3803H98.3793H98.3782H98.3772H98.3761H98.3751H98.374H98.3729H98.3719H98.3708H98.3698H98.3687H98.3677H98.3666H98.3655H98.3645H98.3634H98.3624H98.3613H98.3603H98.3592H98.3581H98.3571H98.356H98.355H98.3539H98.3529H98.3518H98.3507H98.3497H98.3486H98.3476H98.3465H98.3454H98.3444H98.3433H98.3423H98.3412H98.3402H98.3391H98.338H98.337H98.3359H98.3349H98.3338H98.3327H98.3317H98.3306H98.3296H98.3285H98.3274H98.3264H98.3253H98.3242H98.3232H98.3221H98.3211H98.32H98.3189H98.3179H98.3168H98.3158H98.3147H98.3136H98.3126H98.3115H98.3104H98.3094H98.3083H98.3072H98.3062H98.3051H98.3041H98.303H98.3019H98.3009H98.2998H98.2987H98.2977H98.2966H98.2955H98.2945H98.2934H98.2923H98.2913H98.2902H98.2891H98.2881H98.287H98.2859H98.2849H98.2838H98.2827H98.2817H98.2806H98.2795H98.2785H98.2774H98.2763H98.2752H98.2742H98.2731H98.272H98.271H98.2699H98.2688H98.2678H98.2667H98.2656H98.2645H98.2635H98.2624H98.2613H98.2603H98.2592H98.2581H98.257H98.256H98.2549H98.2538H98.2527H98.2517H98.2506H98.2495H98.2484H98.2474H98.2463H98.2452H98.2441H98.2431H98.242H98.2409H98.2398H98.2388H98.2377H98.2366H98.2355H98.2344H98.2334H98.2323H98.2312H98.2301H98.2291H98.228H98.2269H98.2258H98.2247H98.2237H98.2226H98.2215H98.2204H98.2193H98.2182H98.2172H98.2161H98.215H98.2139H98.2128H98.2117H98.2107H98.2096H98.2085H98.2074H98.2063H98.2052H98.2041H98.2031H98.202H98.2009H98.1998H98.1987H98.1976H98.1965H98.1954H98.1944H98.1933H98.1922H98.1911H98.19H98.1889H98.1878H98.1867H98.1856H98.1845H98.1835H98.1824H98.1813H98.1802H98.1791H98.178H98.1769H98.1758H98.1747H98.1736H98.1725H98.1714H98.1703H98.1692H98.1681H98.167H98.1659H98.1648H98.1637H98.1626H98.1615H98.1604H98.1593H98.1582Z" fill="#717174" stroke="#F6F6F6" stroke-width="0.338814"/>
<path d="M167.548 114.571L167.546 114.57C162.867 113.936 159.013 110.747 157.49 106.259L157.49 106.259C155.895 101.535 152.082 97.4404 147.288 95.3153L147.288 95.3152C145.196 94.3854 143.076 93.9219 141.006 93.9219C140.203 93.9219 139.4 93.999 138.627 94.1381C138.136 94.2314 137.805 94.6827 137.858 95.1735C138.784 103.495 137.371 112.24 133.901 119.792L133.901 119.792C131.603 124.781 128.305 128.212 124.065 129.953M167.548 114.571L124.001 129.796M167.548 114.571C168.056 114.636 168.424 115.107 168.371 115.682M167.548 114.571L167.569 114.402C168.179 114.481 168.602 115.044 168.539 115.701M124.065 129.953L124.001 129.796M124.065 129.953C124.065 129.953 124.065 129.953 124.065 129.953L124.001 129.796M124.065 129.953C119.907 131.66 115.386 131.533 111.357 129.843L111.357 129.843C106.998 128.011 103.351 124.317 101.598 119.957M124.001 129.796C119.886 131.486 115.412 131.361 111.423 129.687C107.105 127.872 103.492 124.211 101.755 119.893M101.598 119.957C101.598 119.957 101.598 119.957 101.598 119.957L101.755 119.893M101.598 119.957C101.598 119.957 101.598 119.957 101.598 119.957L101.755 119.893M101.598 119.957C99.419 114.573 99.7547 107.923 102.507 101.725C102.507 101.725 102.507 101.725 102.508 101.725L102.518 101.7C103.224 100.084 104.067 98.1556 103.255 96.0666C102.914 95.194 102.294 94.3184 101.503 93.6682C100.712 93.0181 99.7607 92.601 98.7551 92.6234L98.7551 92.6234C97.7307 92.6457 96.8573 93.1274 96.1036 93.8277C95.3487 94.529 94.7249 95.4397 94.2031 96.2964C92.2991 99.4535 88.969 101.641 85.2895 102.149L85.2879 102.149L85.2879 102.149C84.7734 102.215 84.4134 102.691 84.4801 103.211C84.546 103.725 85.0214 104.085 85.5412 104.019C89.7929 103.431 93.627 100.911 95.8059 97.2791L95.8071 97.2771C95.8178 97.2598 95.8291 97.2415 95.8409 97.2223C96.0529 96.8791 96.4462 96.2423 96.9356 95.6755C97.1941 95.3761 97.4838 95.0908 97.793 94.8773C98.1014 94.6643 98.4403 94.5151 98.794 94.5061M101.755 119.893C99.5962 114.559 99.9247 107.957 102.662 101.793L110.594 131.752C115.193 133.691 120.277 133.77 124.877 131.877M98.794 94.5061L98.7983 94.6755L98.7933 94.5061C98.7935 94.5061 98.7938 94.5061 98.794 94.5061ZM98.794 94.5061C99.3789 94.4889 99.9514 94.793 100.421 95.2164C100.894 95.6422 101.285 96.2072 101.505 96.7554L101.506 96.7568C102.021 98.0684 101.529 99.3241 100.799 100.986L100.799 100.986C97.8579 107.662 97.5204 114.842 99.8784 120.675L99.8785 120.675C101.817 125.498 105.851 129.579 110.659 131.595L110.66 131.596C115.219 133.518 120.256 133.595 124.812 131.72M124.812 131.72C124.812 131.72 124.812 131.72 124.812 131.72L124.877 131.877M124.812 131.72C129.49 129.784 133.123 126.049 135.643 120.605M124.812 131.72L124.877 131.877M124.877 131.877L135.643 120.605M135.643 120.605C135.642 120.605 135.642 120.605 135.642 120.605L135.796 120.676L135.643 120.605ZM135.643 120.605C139.103 113.06 140.6 104.391 139.867 96.067M135.643 120.605L139.867 96.067M139.852 95.8985L140.021 95.8834C142.15 95.6927 144.353 96.1064 146.549 97.0703L146.55 97.0705C150.861 98.9815 154.291 102.646 155.731 106.902C157.478 112.066 161.914 115.745 167.31 116.487M139.852 95.8985L146.481 97.2254C150.752 99.1183 154.147 102.748 155.57 106.956C157.338 112.181 161.828 115.904 167.287 116.655M139.852 95.8985L139.867 96.067M139.852 95.8985L139.867 96.067M167.31 116.487C167.31 116.487 167.31 116.487 167.31 116.487L167.287 116.655M167.31 116.487C167.31 116.487 167.31 116.487 167.311 116.487L167.287 116.655M167.31 116.487C167.814 116.553 168.303 116.194 168.371 115.682M167.287 116.655C167.882 116.733 168.461 116.311 168.539 115.701M168.539 115.701L168.37 115.685C168.37 115.684 168.371 115.683 168.371 115.682M168.539 115.701L168.371 115.679C168.371 115.68 168.371 115.681 168.371 115.682" fill="#717174" stroke="#F6F6F6" stroke-width="0.338814"/>
<path d="M155.463 76.8754C159.311 78.5806 162.878 80.9272 166.054 83.837C166.273 84.0247 166.539 84.1342 166.804 84.1342C167.102 84.1342 167.399 84.009 167.618 83.7744C168.025 83.3207 168.009 82.6167 167.555 82.21C164.208 79.1281 160.437 76.6564 156.354 74.8573L155.463 76.8754ZM155.463 76.8754C150.769 74.7948 145.904 73.7466 141.008 73.7466C136.44 73.7466 131.981 74.6696 127.789 76.5C124.707 77.8297 122.094 79.879 120.232 82.4134L155.463 76.8754ZM89.3732 74.2034L89.3732 74.2034L89.3712 74.2044C88.9101 74.4283 88.3365 74.2322 88.095 73.7647C87.8726 73.3045 88.0682 72.7498 88.5473 72.5233C91.6074 71.0943 94.8532 70.3333 98.1765 70.2553H98.1766H98.1776H98.1786H98.1796H98.1806H98.1816H98.1826H98.1836H98.1846H98.1856H98.1866H98.1876H98.1886H98.1896H98.1906H98.1916H98.1926H98.1936H98.1946H98.1956H98.1966H98.1976H98.1986H98.1996H98.2006H98.2016H98.2026H98.2036H98.2046H98.2056H98.2066H98.2076H98.2086H98.2096H98.2106H98.2116H98.2126H98.2136H98.2146H98.2156H98.2166H98.2176H98.2186H98.2196H98.2206H98.2216H98.2226H98.2235H98.2245H98.2255H98.2265H98.2275H98.2285H98.2295H98.2305H98.2315H98.2325H98.2335H98.2344H98.2354H98.2364H98.2374H98.2384H98.2394H98.2404H98.2414H98.2424H98.2433H98.2443H98.2453H98.2463H98.2473H98.2483H98.2493H98.2502H98.2512H98.2522H98.2532H98.2542H98.2552H98.2561H98.2571H98.2581H98.2591H98.2601H98.2611H98.262H98.263H98.264H98.265H98.266H98.267H98.2679H98.2689H98.2699H98.2709H98.2719H98.2728H98.2738H98.2748H98.2758H98.2768H98.2777H98.2787H98.2797H98.2807H98.2816H98.2826H98.2836H98.2846H98.2856H98.2865H98.2875H98.2885H98.2895H98.2904H98.2914H98.2924H98.2934H98.2943H98.2953H98.2963H98.2973H98.2982H98.2992H98.3002H98.3012H98.3021H98.3031H98.3041H98.3051H98.306H98.307H98.308H98.3089H98.3099H98.3109H98.3119H98.3128H98.3138H98.3148H98.3157H98.3167H98.3177H98.3187H98.3196H98.3206H98.3216H98.3225H98.3235H98.3245H98.3255H98.3264H98.3274H98.3284H98.3293H98.3303H98.3313H98.3322H98.3332H98.3342H98.3351H98.3361H98.3371H98.338H98.339H98.34H98.341H98.3419H98.3429H98.3439H98.3448H98.3458H98.3468H98.3477H98.3487H98.3497H98.3506H98.3516H98.3526H98.3535H98.3545H98.3555H98.3564H98.3574H98.3584H98.3593H98.3603H98.3613H98.3622H98.3632H98.3641H98.3651H98.3661H98.367H98.368H98.369H98.3699H98.3709H98.3719H98.3728H98.3738H98.3748H98.3757H98.3767H98.3777H98.3786H98.3796H98.3805H98.3815H98.3825H98.3834H98.3844H98.3854H98.3863H98.3873H98.3883H98.3892H98.3902H98.3911H98.3921H98.3931H98.394H98.395H98.396H98.3969H98.3979H98.3988H98.3998H98.4008H98.4017H98.4027H98.4037H98.4046H98.4056H98.4066H98.4075H98.4085H98.4094H98.4104H98.4114H98.4123H98.4133H98.4143H98.4152H98.4162H98.4171H98.4181H98.4191H98.42H98.421H98.422H98.4229H98.4239H98.4248H98.4258H98.4268H98.4277H98.4287H98.4297H98.4306H98.4316H98.4325H98.4335H98.4345H98.4354H98.4364H98.4374H98.4383H98.4393H98.4402H98.4412H98.4422H98.4431H98.4441H98.4451H98.446H98.447H98.4479H98.4489H98.4499H98.4508H98.4518H98.4528H98.4537H98.4547H98.4556H98.4566H98.4576H98.4585H98.4595H98.4605H98.4614H98.4624H98.4634H98.4643H98.4653H98.4662H98.4672H98.4682H98.4691H98.4701H98.4711H98.472H98.473H98.474H98.4749H98.4759H98.4768H98.4778H98.4788H98.4797H98.4807H98.4817H98.4826H98.4836H98.4846H98.4855H98.4865H98.4875H98.4884H98.4894H98.4904H98.4913H98.4923H98.4933H98.4942H98.4952H98.4962H98.4971H98.4981H98.4991H98.5H98.501H98.502H98.5029H98.5039H98.5049H98.5058H98.5068H98.5078H98.5087H98.5097H98.5107H98.5116H98.5126H98.5136H98.5145H98.5155H98.5165H98.5174H98.5184H98.5194H98.5203H98.5213H98.5223H98.5233H98.5242H98.5252H98.5262H98.5271H98.5281H98.5291H98.53H98.531H98.532H98.533H98.5339H98.5349H98.5359H98.5368H98.5378H98.5388H98.5398H98.5407H98.5417H98.5427H98.5437H98.5446H98.5456H98.5466H98.5475H98.5485H98.5495H98.5505H98.5514H98.5524H98.5534H98.5544H98.5553H98.5563H98.5573H98.5583H98.5592H98.5602H98.5612H98.5622H98.5632H98.5641H98.5651H98.5661H98.5671H98.568H98.569H98.57H98.571H98.572H98.5729H98.5739H98.5749H98.5759H98.5768H98.5778H98.5788H98.5798H98.5808H98.5817H98.5827H98.5837H98.5847H98.5857H98.5867H98.5876H98.5886H98.5896H98.5906H98.5916H98.5926H98.5935H98.5945H98.5955H98.5965H98.5975H98.5985H98.5994H98.6004H98.6014H98.6024H98.6034H98.6044H98.6054H98.6063H98.6073H98.6083H98.6093H98.6103H98.6113H98.6123H98.6133H98.6142H98.6152H98.6162H98.6172H98.6182H98.6192H98.6202H98.6212H98.6222H98.6232H98.6242H98.6251H98.6261H98.6271H98.6281H98.6291H98.6301H98.6311H98.6321H98.6331H98.6341H98.6351H98.6361H98.6371H98.6381H98.6391H98.6401H98.6411H98.6421H98.643H98.644H98.645H98.646H98.647H98.648H98.649H98.65H98.651H98.652H98.653H98.654H98.655H98.656H98.657H98.658H98.6591H98.6601H98.6611H98.6621H98.6631H98.6641H98.6651H98.6661H98.6671H98.6681H98.6691H98.6701H98.6711H98.6721H98.6731H98.6741H98.6751C106.13 70.2553 113.735 73.9218 119.166 80.1159L119.296 80.2631L119.423 80.1142C121.407 77.7884 123.983 75.9104 126.949 74.6216L126.949 74.6215C131.402 72.6754 136.134 71.6946 140.992 71.6946C146.177 71.6946 151.316 72.8155 156.286 75.0123L156.286 75.0124C160.352 76.8038 164.106 79.2652 167.441 82.3346L167.442 82.3361C167.821 82.6758 167.84 83.2712 167.493 83.66C167.306 83.8599 167.054 83.9648 166.804 83.9648C166.586 83.9648 166.359 83.8747 166.166 83.7102C162.978 80.7892 159.396 78.433 155.531 76.7205C150.817 74.6307 145.929 73.5772 141.008 73.5772C136.417 73.5772 131.935 74.5049 127.721 76.3446C124.613 77.6855 121.976 79.7531 120.096 82.3131L120.095 82.3142C119.923 82.552 119.647 82.6964 119.36 82.6976C119.058 82.683 118.781 82.5599 118.598 82.325L118.598 82.325C118.506 82.2017 118.409 82.0729 118.296 81.9437C113.184 75.7943 105.865 72.1223 98.7065 72.1223H98.7056H98.7048H98.704H98.7032H98.7023H98.7015H98.7007H98.6999H98.699H98.6982H98.6974H98.6966H98.6957H98.6949H98.6941H98.6933H98.6924H98.6916H98.6908H98.69H98.6891H98.6883H98.6875H98.6867H98.6858H98.685H98.6842H98.6834H98.6825H98.6817H98.6809H98.6801H98.6792H98.6784H98.6776H98.6768H98.6759H98.6751H98.6743H98.6735H98.6726H98.6718H98.671H98.6701H98.6693H98.6685H98.6677H98.6668H98.666H98.6652H98.6644H98.6635H98.6627H98.6619H98.6611H98.6602H98.6594H98.6586H98.6578H98.6569H98.6561H98.6553H98.6545H98.6536H98.6528H98.652H98.6511H98.6503H98.6495H98.6487H98.6478H98.647H98.6462H98.6454H98.6445H98.6437H98.6429H98.6421H98.6412H98.6404H98.6396H98.6387H98.6379H98.6371H98.6363H98.6354H98.6346H98.6338H98.633H98.6321H98.6313H98.6305H98.6296H98.6288H98.628H98.6272H98.6263H98.6255H98.6247H98.6238H98.623H98.6222H98.6214H98.6205H98.6197H98.6189H98.618H98.6172H98.6164H98.6156H98.6147H98.6139H98.6131H98.6122H98.6114H98.6106H98.6097H98.6089H98.6081H98.6073H98.6064H98.6056H98.6048H98.6039H98.6031H98.6023H98.6014H98.6006H98.5998H98.599H98.5981H98.5973H98.5965H98.5956H98.5948H98.594H98.5931H98.5923H98.5915H98.5906H98.5898H98.589H98.5881H98.5873H98.5865H98.5856H98.5848H98.584H98.5831H98.5823H98.5815H98.5807H98.5798H98.579H98.5782H98.5773H98.5765H98.5757H98.5748H98.574H98.5731H98.5723H98.5715H98.5706H98.5698H98.569H98.5681H98.5673H98.5665H98.5656H98.5648H98.564H98.5631H98.5623H98.5615H98.5606H98.5598H98.559H98.5581H98.5573H98.5564H98.5556H98.5548H98.5539H98.5531H98.5523H98.5514H98.5506H98.5497H98.5489H98.5481H98.5472H98.5464H98.5456H98.5447H98.5439H98.543H98.5422H98.5414H98.5405H98.5397H98.5388H98.538H98.5372H98.5363H98.5355H98.5347H98.5338H98.533H98.5321H98.5313H98.5304H98.5296H98.5288H98.5279H98.5271H98.5262H98.5254H98.5246H98.5237H98.5229H98.522H98.5212H98.5204H98.5195H98.5187H98.5178H98.517H98.5161H98.5153H98.5144H98.5136H98.5128H98.5119H98.5111H98.5102H98.5094H98.5085H98.5077H98.5068H98.506H98.5052H98.5043H98.5035H98.5026H98.5018H98.5009H98.5001H98.4992H98.4984H98.4975H98.4967H98.4958H98.495H98.4942H98.4933H98.4925H98.4916H98.4908H98.4899H98.4891H98.4882H98.4874H98.4865H98.4857H98.4848H98.484H98.4831H98.4823H98.4814H98.4806H98.4797H98.4789H98.478H98.4772H98.4763H98.4755H98.4746H98.4738H98.4729H98.472H98.4712H98.4703H98.4695H98.4686H98.4678H98.4669H98.4661H98.4652H98.4644H98.4635H98.4627H98.4618H98.4609H98.4601H98.4592H98.4584H98.4575H98.4567H98.4558H98.455H98.4541H98.4532H98.4524H98.4515H98.4507H98.4498H98.449H98.4481H98.4472H98.4464H98.4455H98.4447H98.4438H98.4429H98.4421H98.4412H98.4404H98.4395H98.4386H98.4378H98.4369H98.4361H98.4352H98.4343H98.4335H98.4326H98.4317H98.4309H98.43H98.4292H98.4283H98.4274H98.4266H98.4257H98.4248H98.424H98.4231H98.4222H98.4214H98.4205H98.4196H98.4188H98.4179H98.417H98.4162H98.4153H98.4144H98.4136H98.4127H98.4118H98.411H98.4101H98.4092H98.4084H98.4075H98.4066H98.4058H98.4049H98.404H98.4032H98.4023H98.4014H98.4005H98.3997H98.3988H98.3979H98.3971H98.3962H98.3953H98.3944H98.3936H98.3927H98.3918H98.3909H98.3901H98.3892H98.3883H98.3874H98.3866H98.3857H98.3848H98.3839H98.3831H98.3822H98.3813H98.3804H98.3796H98.3787H98.3778H98.3769H98.376H98.3752H98.3743H98.3734H98.3725H98.3716H98.3708H98.3699H98.369H98.3681H98.3672H98.3664H98.3655H98.3646H98.3637H98.3628H98.3619H98.3611H98.3602H98.3593H98.3584H98.3575H98.3566H98.3558H98.3549H98.354H98.3531H98.3522H98.3513H98.3504H98.3496H98.3487H98.3478H98.3469H98.346H98.3451H98.3442H98.3433H98.3424H98.3416H98.3407H98.3398H98.3389H98.338H98.3371H98.3362H98.3353H98.3344H98.3335H98.3326H98.3317H98.3309H98.33H98.3291H98.3282H98.3273H98.3264H98.3255H98.3246H98.3237H98.3228H98.3219H98.321H98.3201H98.3192H98.3183H98.3174H98.3165H98.3156H98.3147H98.3138H98.3129H98.312H98.3111H98.3102H98.3093H98.3084H98.3075H98.3066H98.3057H98.3048H98.3039H98.303H98.3021H98.3012H98.3003H98.2994H98.2985H98.2976H98.2967H98.2958H98.2949H98.2939H98.293H98.2921H98.2912H98.2903H98.2894H98.2885H98.2876H98.2867H98.2858H98.2849H98.284H98.283H98.2821H98.2812H98.2803H98.2794H98.2785H98.2776H98.2767H98.2757H98.2748H98.2739H98.273H98.2721H98.2712H98.2703H98.2693H98.2684V72.1223L98.2649 72.1224C95.1908 72.1854 92.195 72.8792 89.3732 74.2034Z" fill="#717174" stroke="#F6F6F6" stroke-width="0.338814"/>
<path d="M92.0362 94.9368L92.0363 94.9366C92.4271 94.2906 93.3365 93.0576 94.5109 91.9762C95.6799 90.8996 97.1428 89.9441 98.6385 89.9114L98.6422 89.9113V89.9114H98.7517C99.683 89.9114 100.737 90.2614 101.762 90.8573C102.789 91.4543 103.798 92.3044 104.639 93.3204C105.353 94.1775 105.892 95.0853 106.216 95.9504C106.54 96.8134 106.655 97.6456 106.505 98.345L106.505 98.3452C106.341 99.1051 105.889 100.217 105.476 101.231C105.446 101.307 105.415 101.381 105.385 101.455L105.385 101.455C105.01 102.379 104.604 103.376 104.23 104.436L104.23 104.436C102.332 109.803 102.26 114.703 104.009 119.005L104.009 119.006C105.509 122.749 108.652 125.923 112.381 127.501C115.892 128.986 119.724 129.016 123.123 127.61C128.579 125.354 130.856 120.389 131.606 118.748L131.607 118.748C135.097 111.175 136.36 102.447 135.191 94.1878L92.0362 94.9368ZM92.0362 94.9368C90.6373 97.2581 88.2996 98.9043 85.6225 99.4735C85.1166 99.5798 84.6162 99.2439 84.5256 98.7778L84.5256 98.7778L84.5251 98.7752C84.4194 98.2732 84.7507 97.7681 85.2542 97.6619C87.4124 97.2142 89.2983 95.8717 90.4332 94.0014L90.4332 94.0014C90.4377 93.9945 90.4438 93.9852 90.4513 93.9736C90.6152 93.7208 91.4806 92.3867 92.8346 91.0398C94.3174 89.5647 96.3495 88.114 98.6286 88.06H98.7517C101.142 88.06 104.039 89.6509 106.099 92.1442L106.099 92.1445C107.927 94.3445 108.771 96.8271 108.363 98.7435C108.164 99.6643 107.733 100.744 107.137 102.187L107.136 102.189C107.07 102.354 107.004 102.521 106.937 102.69C106.635 103.446 106.318 104.239 106.023 105.074L106.023 105.074M92.0362 94.9368L106.023 105.074M133.336 94.4528C133.313 94.2889 133.289 94.1289 133.266 93.9692L133.266 93.9672L133.265 93.9658C133.242 93.8059 133.219 93.6463 133.195 93.4828C133.133 93.0467 133.071 92.5792 133.024 92.22C132.991 91.9004 133.095 91.6635 133.285 91.4651C133.482 91.259 133.774 91.094 134.113 90.9395C136.313 89.9794 138.651 89.4993 141.069 89.4993C143.765 89.4993 146.479 90.1035 149.151 91.2838L129.758 117.896M133.336 94.4528L133.168 94.4767L133.336 94.4527C133.336 94.4527 133.336 94.4528 133.336 94.4528ZM133.336 94.4528C134.467 102.354 133.242 110.709 129.912 117.966M129.912 117.966C129.912 117.966 129.912 117.966 129.912 117.965L129.758 117.896M129.912 117.966C129.254 119.422 127.198 123.907 122.423 125.874M129.912 117.966C129.912 117.966 129.912 117.966 129.912 117.966L129.758 117.896M129.758 117.896L122.423 125.874M122.423 125.874C119.501 127.081 116.153 127.048 113.14 125.764L122.423 125.874ZM135.163 92.7972C135.162 92.7942 135.162 92.7913 135.161 92.7885C135.157 92.7881 135.152 92.7878 135.148 92.7877C135.109 92.8047 135.074 92.8373 135.05 92.8659L135.209 93.1185C135.195 93.0163 135.183 92.9387 135.175 92.8809C135.174 92.8811 135.173 92.8812 135.172 92.8814C135.184 92.9657 135.192 93.016 135.163 92.7972ZM135.163 92.7972C135.162 92.7944 135.162 92.7915 135.162 92.7886L135.163 92.7972ZM106.023 105.074C104.308 109.968 104.207 114.423 105.775 118.303L106.023 105.074ZM135.12 93.695L135.191 94.1876L167.695 109.949L167.66 110.114C167.66 110.114 167.66 110.114 167.66 110.114C168.163 110.22 168.495 110.726 168.389 111.228C168.283 111.731 167.778 112.063 167.276 111.957L167.275 111.957C163.877 111.25 161.078 108.758 159.971 105.467C158.156 100.07 153.819 95.4195 148.38 93.0078L148.38 93.0077C145.951 91.9351 143.487 91.3975 141.053 91.3975C138.982 91.3975 136.973 91.7929 135.09 92.5841L134.97 92.6342L134.983 92.7336C134.983 92.7398 134.984 92.7446 134.984 92.7455L134.985 92.7537L134.986 92.7648C134.988 92.7798 134.991 92.8066 134.995 92.8354C135.003 92.8912 135.013 92.965 135.016 92.9801L135.016 92.9838L135.017 92.9856C135.017 92.9873 135.017 92.9898 135.018 92.9928L135.018 92.9929C135.018 92.9943 135.02 92.9995 135.022 93.0062C135.03 93.0603 135.039 93.1251 135.05 93.2022L135.12 93.695ZM134.995 92.8207C135.002 92.8759 135.007 92.9137 135.01 92.9379L135.014 92.9677C135.015 92.9739 135.014 92.9671 135.014 92.9592C135.014 92.9582 135.013 92.954 135.014 92.9482L134.995 92.8207Z" fill="#717174" stroke="#F6F6F6" stroke-width="0.338814"/>
<path d="M166.681 90.6941C164.512 88.0379 161.982 85.7115 159.152 83.7936L159.152 83.7936L159.151 83.7929C158.715 83.502 158.608 82.9051 158.899 82.4811L158.899 82.4811L158.901 82.4791C159.192 82.0428 159.788 81.9359 160.213 82.2275L160.213 82.2276C163.188 84.2683 165.867 86.6978 168.14 89.5003L168.14 89.5003L168.141 89.502C168.47 89.8965 168.407 90.4941 168.006 90.8278L168.005 90.8287C167.836 90.9719 167.626 91.0389 167.411 91.0389C167.132 91.0389 166.868 90.92 166.681 90.6941ZM166.681 90.6941C166.681 90.6942 166.682 90.6943 166.682 90.6944L166.55 90.8015M166.681 90.6941C166.681 90.694 166.681 90.6939 166.681 90.6938L166.55 90.8015M166.55 90.8015C166.769 91.0675 167.082 91.2083 167.411 91.2083C167.661 91.2083 167.911 91.1301 168.115 90.958M166.55 90.8015C164.392 88.1577 161.873 85.8424 159.057 83.9339M168.115 90.958L160.308 82.0879C159.808 81.7437 159.104 81.8689 158.76 82.3851C158.416 82.8857 158.541 83.5897 159.057 83.9339M168.115 90.958C168.584 90.5669 168.662 89.8629 168.271 89.3936L168.115 90.958ZM159.057 83.9339L159.057 83.9338L159.057 83.9339Z" fill="#717174" stroke="#F6F6F6" stroke-width="0.338814"/>
<path d="M121.794 86.1701L121.793 86.1689C121.341 85.89 121.207 85.3206 121.474 84.8665C123.081 82.1939 125.602 80.0573 128.749 78.6775C136.853 75.1466 146.002 75.2849 154.518 79.0682C154.995 79.2803 155.208 79.8369 154.995 80.3152L155.15 80.384L154.995 80.3152C154.783 80.7923 154.227 81.0049 153.749 80.7923L153.748 80.7923C145.73 77.2388 137.123 77.0953 129.505 80.4164L129.504 80.4166C126.74 81.6329 124.505 83.4999 123.093 85.8483C122.905 86.1423 122.6 86.3001 122.282 86.3001C122.104 86.3001 121.934 86.2588 121.794 86.1701Z" fill="#717174" stroke="#F6F6F6" stroke-width="0.338814"/>
<path d="M87.3 80.612L87.3063 80.6072C90.742 78.0068 94.4521 76.6472 98.3552 76.5524L98.3557 76.5524C104.313 76.426 110.508 79.5059 114.884 84.7639C118.979 89.6774 120.689 95.6108 119.551 101.036C119.141 103.006 118.401 104.833 117.745 106.426L117.731 106.468L117.727 106.478L117.727 106.478C117.687 106.576 117.647 106.674 117.608 106.77C117.31 107.499 117.041 108.159 116.807 108.832L116.807 108.832C116.635 109.323 116.901 109.865 117.388 110.023L117.395 110.025L117.395 110.026C117.497 110.064 117.601 110.077 117.695 110.077C118.081 110.077 118.451 109.838 118.583 109.442L118.584 109.439C118.8 108.832 119.05 108.213 119.324 107.537C119.369 107.426 119.414 107.314 119.46 107.2L119.474 107.158L119.478 107.148L119.478 107.148C120.167 105.457 120.943 103.546 121.393 101.42C122.633 95.4554 120.791 88.9364 116.329 83.5727L116.329 83.5726C111.586 77.865 104.859 74.5458 98.3161 74.6854L87.3 80.612ZM87.3 80.612L87.2941 80.6174M87.3 80.612L87.2941 80.6174M87.2941 80.6174C87.1413 80.7575 86.9021 80.8388 86.7046 80.8388C86.2398 80.8388 85.8698 80.5224 85.7757 80.0992C85.7103 79.7252 85.8726 79.3527 86.1336 79.157L86.1336 79.157M87.2941 80.6174L86.1336 79.157M86.1336 79.157L86.1346 79.1562M86.1336 79.157L86.1346 79.1562M86.1346 79.1562C89.9105 76.2815 94.0065 74.7784 98.316 74.6854L86.1346 79.1562Z" fill="#717174" stroke="#F6F6F6" stroke-width="0.338814"/>
<path d="M85.8108 94.7629L85.8108 94.7629C86.8254 94.3237 87.6591 93.5815 88.2361 92.625L88.2405 92.6177L88.2433 92.614C88.2432 92.6139 88.2461 92.6096 88.2544 92.5964L88.2948 92.5328C88.3298 92.478 88.3804 92.3997 88.4461 92.3012C88.5774 92.1043 88.7688 91.8267 89.0157 91.4952C89.5094 90.8326 90.226 89.9533 91.1296 89.0714C92.9321 87.3121 95.5018 85.5205 98.5458 85.4565C101.788 85.3768 105.415 87.3207 108.035 90.4608L108.035 90.461C110.372 93.2713 111.417 96.4669 110.84 99.2236C110.595 100.402 110.056 101.709 109.53 102.987C109.51 103.036 109.489 103.084 109.469 103.133C109.11 104.009 108.751 104.897 108.409 105.863C106.885 110.185 106.798 114.02 108.109 117.289C109.187 119.968 111.422 122.219 114.087 123.344C116.535 124.375 119.132 124.389 121.403 123.437L121.403 123.437C124.814 122.024 126.543 119.009 127.54 116.828L127.54 116.827C130.671 110.005 131.808 102.169 130.749 94.7551C130.703 94.4447 130.656 94.1189 130.61 93.7938L130.609 93.7868C130.609 93.7865 130.609 93.7861 130.609 93.7857C130.531 93.2862 130.452 92.7738 130.404 92.3134C130.357 91.8562 130.339 91.4342 130.39 91.121L130.39 91.1191C130.461 90.7124 130.744 90.2329 131.189 89.7782C131.637 89.3199 132.262 88.8735 133.04 88.5366C138.343 86.2323 144.415 86.3451 150.118 88.8813C156.668 91.7783 161.896 97.4301 164.117 104C164.603 105.426 165.664 106.578 167.029 107.185C167.508 107.397 168.064 107.185 168.276 106.708C168.489 106.23 168.276 105.673 167.8 105.461C167.8 105.461 167.799 105.461 167.799 105.461L167.868 105.306C167.008 104.93 166.382 104.226 166.069 103.335L85.8108 94.7629ZM85.8108 94.7629L85.8093 94.7635M85.8108 94.7629L85.8093 94.7635M85.8093 94.7635C85.3318 94.9757 84.7791 94.7641 84.5808 94.2617L84.5809 94.2616L84.578 94.2551C84.3655 93.777 84.5779 93.2206 85.0546 93.0084C85.6975 92.728 86.2402 92.2503 86.6175 91.627L86.6178 91.6264C86.7082 91.4758 87.9075 89.488 89.9762 87.5203C92.0468 85.5507 94.9688 83.6194 98.5063 83.5425C102.291 83.4656 106.485 85.6385 109.48 89.2384L109.48 89.2386C112.209 92.5108 113.373 96.2921 112.683 99.592C112.389 100.966 111.801 102.407 111.221 103.802L111.221 103.802L111.22 103.805C110.861 104.679 110.5 105.559 110.185 106.47C108.831 110.313 108.713 113.721 109.859 116.57L109.86 116.57C110.752 118.787 112.6 120.666 114.817 121.591C116.764 122.405 118.86 122.439 120.688 121.685L120.688 121.685C123.505 120.517 124.983 117.882 125.83 116.03C128.816 109.539 129.9 102.076 128.895 95.004L128.894 95.0027C128.847 94.6893 128.8 94.3916 128.753 94.0947C128.746 94.0454 128.739 93.9962 128.731 93.9474C128.55 92.7441 128.389 91.6716 128.534 90.8166L128.534 90.8159M85.8093 94.7635L128.534 90.8159M128.534 90.8159C128.787 89.2814 130.233 87.692 132.283 86.7981L128.534 90.8159Z" fill="#717174" stroke="#F6F6F6" stroke-width="0.338814"/>
<path d="M116.536 117.507C117.169 117.775 117.75 117.859 118.285 117.788C118.82 117.716 119.297 117.49 119.724 117.156C120.572 116.493 121.235 115.394 121.793 114.184L121.793 114.184C124.435 108.445 125.394 101.859 124.498 95.6322C124.467 95.3313 124.419 95.0311 124.373 94.736C124.363 94.6709 124.354 94.6058 124.344 94.5407C124.133 93.0811 123.919 91.6085 124.169 90.0958L124.169 90.0951C124.658 87.0518 127.097 84.2302 130.53 82.73C137.306 79.7775 145.032 79.8379 152.251 82.9028C159.02 85.7817 164.857 91.1359 168.264 97.6085C168.504 98.0757 168.329 98.6444 167.868 98.8816C167.401 99.1219 166.832 98.9468 166.594 98.4854L166.594 98.4841C160.558 86.9937 145.345 78.338 131.287 84.4688C129.073 85.4333 126.508 87.4867 126.025 90.4161L126.025 90.4168C125.816 91.7151 126.025 93.0722 126.243 94.4746L126.243 94.475C126.267 94.6232 126.29 94.7754 126.314 94.928C126.337 95.0801 126.361 95.2327 126.384 95.3814C127.333 101.966 126.321 108.925 123.535 114.981C122.72 116.749 121.666 118.191 120.385 119.003C119.114 119.809 117.604 120.006 115.839 119.26L115.838 119.26C114.237 118.589 112.894 117.245 112.254 115.646L112.254 115.645C111.336 113.382 111.451 110.69 112.616 107.364L112.617 107.362C112.912 106.492 113.27 105.621 113.614 104.792L113.614 104.791L113.622 104.771C114.26 103.217 114.873 101.722 115.203 100.146L115.204 100.146C116.045 96.0642 114.677 91.5078 111.46 87.6291L111.46 87.6291C107.993 83.4527 103.035 80.9022 98.4513 81.0131C92.601 81.14 88.288 85.337 86.2477 87.8011C85.9178 88.1968 85.3369 88.2524 84.9224 87.9047L84.922 87.9044C84.5249 87.5734 84.4715 86.9763 84.8029 86.5786C87.0797 83.8496 91.8401 79.2539 98.4117 79.1148L98.4123 79.1147C103.498 78.9911 109.067 81.7919 112.905 86.4064C116.508 90.7397 118.019 95.8822 117.046 100.515C116.675 102.265 116.008 103.894 115.35 105.491L115.35 105.492C115.296 105.626 115.241 105.761 115.186 105.896C114.909 106.579 114.627 107.275 114.378 107.97L114.378 107.97C113.369 110.79 113.232 113.074 113.973 114.927L113.973 114.928C114.429 116.05 115.416 117.037 116.536 117.507ZM116.536 117.507C116.536 117.507 116.536 117.507 116.536 117.507L116.602 117.351L116.536 117.507C116.536 117.507 116.536 117.507 116.536 117.507Z" fill="#717174" stroke="#F6F6F6" stroke-width="0.338814"/>
<path d="M63.5697 176.643V179.608H58.2594V195.512H55.1595V179.608H49.8223V176.643H63.5697ZM65.5427 190.013C65.7583 191.037 66.2525 191.828 67.0252 192.385C67.798 192.924 68.7414 193.194 69.8556 193.194C71.401 193.194 72.5601 192.636 73.3329 191.522L75.7319 192.924C74.4021 194.883 72.4343 195.862 69.8286 195.862C67.6362 195.862 65.8662 195.197 64.5184 193.867C63.1706 192.52 62.4967 190.821 62.4967 188.773C62.4967 186.76 63.1616 185.08 64.4914 183.732C65.8212 182.366 67.5284 181.683 69.613 181.683C71.5897 181.683 73.2071 182.375 74.465 183.759C75.7409 185.143 76.3788 186.823 76.3788 188.8C76.3788 189.105 76.3429 189.51 76.271 190.013H65.5427ZM65.5157 187.641H73.4407C73.243 186.544 72.7848 185.718 72.0659 185.161C71.3651 184.604 70.5385 184.325 69.586 184.325C68.5078 184.325 67.6093 184.622 66.8905 185.215C66.1716 185.808 65.7134 186.616 65.5157 187.641ZM89.5359 182.034H92.4471V195.512H89.5359V193.571C88.4397 195.098 86.8673 195.862 84.8187 195.862C82.9677 195.862 81.3863 195.179 80.0745 193.814C78.7626 192.43 78.1067 190.75 78.1067 188.773C78.1067 186.778 78.7626 185.098 80.0745 183.732C81.3863 182.366 82.9677 181.683 84.8187 181.683C86.8673 181.683 88.4397 182.438 89.5359 183.948V182.034ZM82.2309 191.873C83.0396 192.681 84.0549 193.086 85.2769 193.086C86.4989 193.086 87.5142 192.681 88.3229 191.873C89.1316 191.046 89.5359 190.013 89.5359 188.773C89.5359 187.533 89.1316 186.509 88.3229 185.7C87.5142 184.873 86.4989 184.46 85.2769 184.46C84.0549 184.46 83.0396 184.873 82.2309 185.7C81.4223 186.509 81.0179 187.533 81.0179 188.773C81.0179 190.013 81.4223 191.046 82.2309 191.873ZM110.558 181.683C112.086 181.683 113.317 182.178 114.251 183.166C115.185 184.154 115.653 185.484 115.653 187.155V195.512H112.742V187.344C112.742 186.41 112.508 185.691 112.041 185.188C111.573 184.667 110.935 184.406 110.127 184.406C109.228 184.406 108.509 184.703 107.97 185.296C107.449 185.889 107.189 186.778 107.189 187.964V195.512H104.277V187.344C104.277 186.41 104.053 185.691 103.604 185.188C103.172 184.667 102.552 184.406 101.744 184.406C100.863 184.406 100.144 184.712 99.5872 185.323C99.0301 185.916 98.7516 186.796 98.7516 187.964V195.512H95.8404V182.034H98.7516V183.651C99.6141 182.339 100.899 181.683 102.606 181.683C104.331 181.683 105.607 182.393 106.434 183.813C107.332 182.393 108.707 181.683 110.558 181.683ZM132.597 181.683C134.142 181.683 135.391 182.178 136.343 183.166C137.296 184.154 137.772 185.511 137.772 187.236V195.512H134.861V187.533C134.861 186.527 134.591 185.754 134.052 185.215C133.513 184.676 132.776 184.406 131.842 184.406C130.818 184.406 129.991 184.729 129.362 185.376C128.733 186.005 128.419 186.976 128.419 188.288V195.512H125.507V176.643H128.419V183.759C129.299 182.375 130.692 181.683 132.597 181.683ZM149.991 182.034H152.902V195.512H149.991V193.787C149.11 195.17 147.718 195.862 145.813 195.862C144.267 195.862 143.018 195.368 142.066 194.38C141.113 193.391 140.637 192.034 140.637 190.309V182.034H143.548V190.013C143.548 191.019 143.818 191.792 144.357 192.331C144.896 192.87 145.633 193.14 146.567 193.14C147.592 193.14 148.418 192.825 149.047 192.196C149.676 191.549 149.991 190.57 149.991 189.258V182.034ZM158.842 185.754C158.842 186.203 159.085 186.562 159.57 186.832C160.073 187.084 160.675 187.308 161.376 187.506C162.095 187.686 162.813 187.901 163.532 188.153C164.251 188.404 164.853 188.836 165.338 189.447C165.841 190.04 166.093 190.794 166.093 191.711C166.093 193.005 165.59 194.02 164.583 194.757C163.595 195.494 162.346 195.862 160.837 195.862C159.507 195.862 158.366 195.584 157.413 195.027C156.461 194.469 155.769 193.697 155.338 192.708L157.845 191.253C158.312 192.547 159.309 193.194 160.837 193.194C162.364 193.194 163.128 192.69 163.128 191.684C163.128 191.253 162.876 190.902 162.373 190.633C161.888 190.363 161.286 190.139 160.567 189.959C159.866 189.761 159.156 189.537 158.438 189.285C157.719 189.033 157.108 188.62 156.605 188.045C156.119 187.452 155.877 186.706 155.877 185.808C155.877 184.568 156.344 183.57 157.278 182.816C158.231 182.061 159.408 181.683 160.81 181.683C161.924 181.683 162.912 181.935 163.775 182.438C164.655 182.923 165.329 183.606 165.796 184.487L163.343 185.862C162.876 184.837 162.032 184.325 160.81 184.325C160.253 184.325 159.785 184.451 159.408 184.703C159.031 184.936 158.842 185.287 158.842 185.754ZM175.583 181.683C177.129 181.683 178.378 182.178 179.33 183.166C180.283 184.154 180.759 185.511 180.759 187.236V195.512H177.848V187.533C177.848 186.527 177.578 185.754 177.039 185.215C176.5 184.676 175.763 184.406 174.829 184.406C173.804 184.406 172.978 184.729 172.349 185.376C171.72 186.005 171.405 186.976 171.405 188.288V195.512H168.494V176.643H171.405V183.759C172.286 182.375 173.679 181.683 175.583 181.683ZM190.983 181.683C192.528 181.683 193.777 182.178 194.73 183.166C195.682 184.154 196.158 185.511 196.158 187.236V195.512H193.247V187.533C193.247 186.527 192.978 185.754 192.438 185.215C191.899 184.676 191.163 184.406 190.228 184.406C189.204 184.406 188.377 184.729 187.748 185.376C187.119 186.005 186.805 186.976 186.805 188.288V195.512H183.894V176.643H186.805V183.759C187.685 182.375 189.078 181.683 190.983 181.683Z" fill="#2C2C2C"/>
</svg>
